<svg width="40" height="43" viewBox="0 0 40 43" fill="none" xmlns="http://www.w3.org/2000/svg">
<path d="M34.7269 12.9829C34.7269 12.9303 34.6874 12.8776 34.615 12.8364C34.5359 12.792 34.4289 12.7656 34.3137 12.7656C34.1984 12.7656 34.0865 12.792 34.0075 12.8381C33.935 12.8792 33.8955 12.9319 33.8955 12.9862C33.8955 13.0389 33.935 13.0916 34.0075 13.1311C34.0865 13.1756 34.1935 13.2003 34.3087 13.2003C34.424 13.2003 34.5359 13.1739 34.615 13.1278C34.6858 13.0883 34.7269 13.0356 34.7269 12.9829Z" fill="url(#paint0_linear)"/>
<path d="M36.4667 25.5298C36.4667 25.4031 36.4074 25.3257 36.3103 25.3257C36.2707 25.3257 36.2263 25.3389 36.1802 25.3652C36.0139 25.4607 35.8789 25.6945 35.8789 25.8871C35.8789 26.0139 35.9382 26.0912 36.0353 26.0912C36.0748 26.0912 36.1193 26.0781 36.1654 26.0517C36.3317 25.9546 36.4667 25.7208 36.4667 25.5298Z" fill="url(#paint1_linear)"/>
<path d="M37.875 28.5133C37.875 28.6319 37.931 28.706 38.0215 28.706C38.0594 28.706 38.1006 28.6928 38.1434 28.6681C38.2998 28.5776 38.4265 28.3569 38.4265 28.1775C38.4265 28.0589 38.3706 27.9849 38.28 27.9849C38.2421 27.9849 38.201 27.998 38.1582 28.0227C38.0018 28.1116 37.875 28.3322 37.875 28.5133Z" fill="url(#paint2_linear)"/>
<path d="M32.1553 11.9835C32.1553 12.0362 32.1948 12.0889 32.2672 12.1284C32.3463 12.1728 32.4533 12.1975 32.5685 12.1975C32.6838 12.1975 32.7957 12.1712 32.8747 12.1251C32.9472 12.0839 32.9867 12.0312 32.9867 11.9786C32.9867 11.9259 32.9472 11.8732 32.8747 11.832C32.7957 11.7876 32.6887 11.7612 32.5735 11.7612C32.4582 11.7612 32.3463 11.7876 32.2672 11.8337C32.1948 11.8765 32.1553 11.9292 32.1553 11.9835Z" fill="url(#paint3_linear)"/>
<path d="M24.7627 2.72461V9.13885L34.4499 14.6887V27.4761L32.8398 28.3486V30.7984L27.8513 37.593L39.096 31.1573L39.0844 12.0365L25.9794 4.45329V8.06213L32.2323 11.6496C32.3261 11.615 32.4348 11.5952 32.55 11.5952C32.7048 11.5952 32.8513 11.6298 32.9599 11.6924C33.0801 11.7615 33.1476 11.857 33.1476 11.9607C33.1476 12.0644 33.0818 12.1616 32.9599 12.2307C32.848 12.2949 32.6998 12.3312 32.5418 12.3312C32.387 12.3312 32.2421 12.2966 32.1318 12.234C32.0116 12.1665 31.9441 12.071 31.9441 11.9673C31.9441 11.8916 31.9787 11.8208 32.0446 11.7599L25.79 8.17243V4.12402L39.2738 11.9278L39.2655 31.0602L39.9998 30.6404V11.5113L24.7627 2.72461ZM30.6386 35.4642L33.6465 31.401V28.9265L35.2138 28.0292V20.1432L35.4032 20.0296V28.1396L33.8358 29.0368V31.4636L31.3514 34.8189L33.3732 33.617L36.0897 29.9489V26.2248C36.0601 26.2331 36.0304 26.238 36.0024 26.238C35.851 26.238 35.7538 26.1145 35.7538 25.9252C35.7538 25.6568 35.9432 25.3309 36.1737 25.1975C36.2412 25.158 36.3054 25.1399 36.3663 25.1399C36.5177 25.1399 36.6149 25.2634 36.6149 25.4527C36.6149 25.6865 36.47 25.9664 36.279 26.1211V30.0115L33.5033 33.7619L30.6386 35.4642ZM38.062 31.1014L35.3538 32.7346V32.5139L37.8727 30.9944V30.0609L37.2109 29.6789V21.5409L35.8329 20.7391L35.8279 13.9117L34.6755 13.2515C34.5684 13.3025 34.4384 13.3321 34.2984 13.3321C34.1437 13.3321 33.9988 13.2976 33.8885 13.235C33.7683 13.1675 33.7008 13.072 33.7008 12.9683C33.7008 12.8629 33.7667 12.7674 33.8885 12.6966C34.0005 12.6324 34.1486 12.5962 34.3067 12.5962C34.4614 12.5962 34.608 12.6308 34.7166 12.6934C34.8368 12.7625 34.9043 12.858 34.9043 12.9617C34.9043 13.021 34.8829 13.077 34.8417 13.128L36.0173 13.8014L36.0222 20.6288L37.4002 21.4306V29.5686L38.062 29.9506V31.1014ZM27.741 7.84645L27.7426 7.62584L37.229 13.1017V19.7431L38.0472 20.1761L38.0538 12.6275L27.741 6.62979L27.7377 6.40918L38.2431 12.5172L38.2366 27.7724C38.2662 27.7642 38.2958 27.7592 38.3238 27.7592C38.4753 27.7592 38.5724 27.8827 38.5724 28.0721C38.5724 28.3388 38.3831 28.6664 38.1526 28.7997C38.0851 28.8393 38.0209 28.8574 37.96 28.8574C37.8085 28.8574 37.7114 28.7339 37.7114 28.5446C37.7114 28.3108 37.8562 28.0309 38.0472 27.8761V20.3885L37.038 19.855V13.2103L27.741 7.84645Z" fill="url(#paint4_linear)"/>
<path d="M5.28906 12.9668C5.28906 12.9141 5.32858 12.8615 5.40102 12.8203C5.48004 12.7759 5.58705 12.7495 5.7023 12.7495C5.81755 12.7495 5.9295 12.7759 6.00852 12.822C6.08096 12.8631 6.12048 12.9158 6.12048 12.9701C6.12048 13.0228 6.08096 13.0755 6.00852 13.115C5.9295 13.1595 5.82248 13.1842 5.70724 13.1842C5.59199 13.1842 5.48004 13.1578 5.40102 13.1117C5.32858 13.0722 5.28906 13.0212 5.28906 12.9668Z" fill="url(#paint5_linear)"/>
<path d="M3.53027 25.5303C3.53027 25.4035 3.58954 25.3262 3.68668 25.3262C3.72619 25.3262 3.77064 25.3393 3.81674 25.3657C3.98302 25.4612 4.11803 25.695 4.11803 25.8876C4.11803 26.0144 4.05876 26.0917 3.96162 26.0917C3.92211 26.0917 3.87766 26.0786 3.83156 26.0522C3.66528 25.9551 3.53027 25.7213 3.53027 25.5303Z" fill="url(#paint6_linear)"/>
<path d="M2.18727 28.5133C2.18727 28.6319 2.1313 28.706 2.04075 28.706C2.00288 28.706 1.96172 28.6928 1.91892 28.6681C1.76251 28.5776 1.63574 28.3569 1.63574 28.1775C1.63574 28.0589 1.69172 27.9849 1.78227 27.9849C1.82014 27.9849 1.86129 27.998 1.9041 28.0227C2.0605 28.1116 2.18727 28.3322 2.18727 28.5133Z" fill="url(#paint7_linear)"/>
<path d="M7.85876 11.9835C7.85876 12.0362 7.81925 12.0889 7.74681 12.1284C7.66778 12.1728 7.56077 12.1975 7.44552 12.1975C7.33028 12.1975 7.21832 12.1712 7.1393 12.1251C7.06686 12.0839 7.02734 12.0312 7.02734 11.9786C7.02734 11.9259 7.06686 11.8732 7.1393 11.832C7.21832 11.7876 7.32534 11.7612 7.44058 11.7612C7.55583 11.7612 7.66778 11.7876 7.74681 11.8337C7.81925 11.8765 7.85876 11.9292 7.85876 11.9835Z" fill="url(#paint8_linear)"/>
<path d="M0 11.5112V30.6387L0.726047 30.9861V11.9277L14.2098 4.12396V8.17073L7.95524 11.7582C8.01945 11.8191 8.05567 11.8899 8.05567 11.9656C8.05567 12.0693 7.98817 12.1648 7.86798 12.2323C7.75768 12.2949 7.61279 12.3295 7.45804 12.3295C7.29999 12.3295 7.15181 12.2932 7.03986 12.229C6.91967 12.1599 6.85217 12.0644 6.85217 11.959C6.85217 11.8553 6.91803 11.7598 7.03986 11.6907C7.15017 11.6281 7.29505 11.5935 7.4498 11.5935C7.5634 11.5935 7.67206 11.6133 7.76755 11.6479L14.0205 8.06042V4.45324L0.915379 12.0364V31.0947L12.1716 37.7411L7.16004 30.7984V28.3486L5.5499 27.476V14.6903L15.2371 9.14044V2.60107L0 11.5112ZM6.49656 33.7602L3.72079 30.0098V26.1194C3.52981 25.963 3.38493 25.6848 3.38493 25.451C3.38493 25.2617 3.48206 25.1382 3.63353 25.1382C3.69444 25.1382 3.75865 25.1579 3.82615 25.1958C4.05829 25.3292 4.24598 25.6568 4.24598 25.9235C4.24598 26.1128 4.14884 26.2363 3.99738 26.2363C3.96939 26.2363 3.93975 26.2314 3.91012 26.2231V29.9472L6.62662 33.6153L8.64836 34.8172L6.16399 31.4619V29.0351L4.59665 28.1379V20.0279L4.78598 20.1415V28.0275L6.35333 28.9248V31.3977L9.36124 35.4609L6.49656 33.7602ZM1.93777 29.9505L2.59961 29.5685V21.4306L3.97762 20.6288L3.98256 13.8013L5.15806 13.1279C5.1169 13.0769 5.0955 13.0209 5.0955 12.9617C5.0955 12.8579 5.16136 12.7624 5.28319 12.6933C5.39349 12.6307 5.53837 12.5962 5.69313 12.5962C5.85118 12.5962 5.99936 12.6324 6.11131 12.6966C6.23314 12.7657 6.299 12.8629 6.299 12.9682C6.299 13.072 6.23149 13.1675 6.11131 13.235C6.001 13.2975 5.85612 13.3321 5.70136 13.3321C5.56142 13.3321 5.43136 13.3025 5.32435 13.2514L4.17189 13.9116L4.16695 20.7391L2.78894 21.5409V29.6789L2.1271 30.0608V30.9943L4.64604 32.5139V32.7345L1.93777 31.1013V29.9505ZM2.96017 13.2103V19.855L1.95094 20.3884V27.8761C2.14192 28.0325 2.2868 28.3107 2.2868 28.5445C2.2868 28.7338 2.18967 28.8573 2.0382 28.8573C1.97729 28.8573 1.91308 28.8376 1.84558 28.7997C1.61344 28.6663 1.42575 28.3387 1.42575 28.072C1.42575 27.8827 1.52289 27.7592 1.67435 27.7592C1.70234 27.7592 1.73198 27.7641 1.76161 27.7724L1.75503 12.5171L12.2605 6.40912L12.2572 6.62973L1.946 12.6274L1.95259 20.176L2.77083 19.743V13.1016L12.2572 7.62578L12.2588 7.8464L2.96017 13.2103Z" fill="url(#paint9_linear)"/>
<path d="M17.6795 35.3161C17.719 35.3391 17.7585 35.3507 17.7947 35.3507C17.798 35.3507 17.8013 35.3507 17.803 35.349L17.8096 35.3573L17.8474 35.3391C17.8507 35.3375 17.854 35.3358 17.8573 35.3342L17.8639 35.3309C17.9083 35.3029 17.9347 35.2469 17.9347 35.1696C17.9347 35 17.8145 34.7925 17.668 34.7069C17.6285 34.6839 17.589 34.6724 17.5527 34.6724C17.5297 34.6724 17.5099 34.6773 17.4935 34.6855L17.4194 34.7283L17.426 34.7744C17.4194 34.7975 17.4161 34.8238 17.4161 34.8518C17.4128 35.0247 17.533 35.2321 17.6795 35.3161Z" fill="url(#paint10_linear)"/>
<path d="M18.8306 33.4851L19.7311 34.0053L19.8036 34.0465L19.8776 34.0037L20.7782 33.4851V30.5644L20.8539 30.52L20.7782 30.4805L19.8036 31.0534L18.8306 30.4805L18.7598 30.52L18.8306 30.5611V33.4851Z" fill="url(#paint11_linear)"/>
<path d="M21.7341 35.3245C21.744 35.3327 21.7555 35.3393 21.7686 35.3426L21.8098 35.364L21.8197 35.3492C21.8526 35.3476 21.8905 35.336 21.9283 35.3146C22.0749 35.229 22.1951 35.0232 22.1951 34.852C22.1951 34.824 22.1918 34.7993 22.1852 34.7763L22.2115 34.7368L22.1177 34.6857C22.0996 34.6758 22.0798 34.6709 22.0568 34.6709C22.0222 34.6709 21.9827 34.6824 21.9415 34.7055C21.795 34.7911 21.6748 34.9969 21.6748 35.1681C21.6748 35.2405 21.6962 35.2932 21.7341 35.3245Z" fill="url(#paint12_linear)"/>
<path d="M28.7153 19.7598L21.1371 24.149V30.2685L20.9675 30.3689V33.5942L20.5016 33.8625V34.7779L21.8483 34.0107L21.8401 25.2158L23.8306 24.0551V23.1727L28.2148 20.6422L28.009 22.6343L24.792 24.4322V24.2148L27.8312 22.5174L27.9794 21.0818L28.0634 21.0324L27.9876 20.9929L24.0199 23.283V24.1654L22.0294 25.3261L22.0377 34.1227L20.1262 35.2126V41.2531L21.8302 40.2784V35.5451C21.8055 35.5517 21.7792 35.555 21.7561 35.555C21.608 35.555 21.5125 35.4348 21.5125 35.2471C21.5125 34.9837 21.6985 34.6627 21.9257 34.531C21.9916 34.4931 22.0558 34.4733 22.1151 34.4733C22.2632 34.4733 22.3587 34.5935 22.3587 34.7812C22.3587 35.015 22.2122 35.2932 22.0196 35.4447V40.3871L19.9353 41.5791V35.1006L20.3106 34.8866V34.0568L20.3864 34.014L20.3106 33.9745L19.8019 34.2675L19.2948 33.9745L19.224 34.014L19.2948 34.0552V34.8899L19.6702 35.1039V41.5823L17.5859 40.3904V35.448C17.3933 35.2965 17.2467 35.0166 17.2467 34.7845C17.2467 34.5968 17.3422 34.4766 17.4904 34.4766C17.5497 34.4766 17.6139 34.4964 17.6797 34.5343C17.9086 34.666 18.093 34.987 18.093 35.2504C18.093 35.4365 17.9975 35.5583 17.8493 35.5583C17.8246 35.5583 17.7999 35.555 17.7752 35.5484V40.2817L19.4792 41.2564V35.2158L17.5678 34.126L17.576 25.3294L15.5856 24.1687V23.2863L11.6178 20.9962L11.547 21.0357L11.6261 21.0818L11.7742 22.5207L14.8134 24.2181V24.4354L11.5964 22.6376L11.3906 20.6455L15.7749 23.176V24.0584L17.7654 25.2191L17.7571 34.014L19.1038 34.7812V33.8658L18.6379 33.5975V30.3722L18.4683 30.2718V24.1523L10.8901 19.7631L10.8193 19.8026L10.8984 19.8487L11.2342 22.8994L16.8878 26.1625V32.2886V33.1414V34.1243V40.5023L19.7278 42.1569L19.8003 42.1981L19.8743 42.1553L22.7143 40.5007V34.1227V33.1398V32.287V26.1608L28.3679 22.8977L28.7022 19.852L28.7878 19.8026L28.7153 19.7598Z" fill="url(#paint13_linear)"/>
<path d="M19.2617 20.5202V21.9838L19.8939 22.3477L20.5261 21.9838V20.5202L19.8939 20.1597L19.2617 20.5202Z" fill="url(#paint14_linear)"/>
<path d="M19.1806 20.3836L19.7157 20.0774L14.1888 16.8867L12.8438 17.6638L19.0621 21.2545V20.5334L14.956 18.1264C14.849 18.1775 14.7173 18.2071 14.5757 18.2071C14.416 18.2071 14.2646 18.1709 14.1526 18.105C14.0357 18.0375 13.9715 17.947 13.9715 17.8482C13.9715 17.7494 14.0357 17.6589 14.1526 17.5914C14.2662 17.5255 14.416 17.4893 14.5757 17.4893C14.7354 17.4893 14.8869 17.5255 14.9988 17.5914C15.1157 17.6589 15.1799 17.7494 15.1799 17.8482C15.1799 17.9025 15.1585 17.9552 15.1207 18.003L19.1806 20.3836Z" fill="url(#paint15_linear)"/>
<path d="M14.5834 17.6357C14.4797 17.6357 14.3842 17.6588 14.3118 17.7C14.2426 17.7395 14.2031 17.7938 14.2031 17.8481C14.2031 17.9041 14.241 17.9568 14.3118 17.9963C14.3842 18.0375 14.4797 18.0605 14.5834 18.0605C14.6872 18.0605 14.7826 18.0375 14.8551 17.9963C14.9242 17.9568 14.9637 17.9025 14.9637 17.8481C14.9637 17.7921 14.9259 17.7395 14.8551 17.7C14.7826 17.6588 14.6872 17.6357 14.5834 17.6357Z" fill="url(#paint16_linear)"/>
<path d="M12.2871 17.9848L19.0619 21.8966V21.4718L12.6542 17.7725L12.2871 17.9848Z" fill="url(#paint17_linear)"/>
<path d="M24.6187 17.8498C24.6187 17.7511 24.683 17.6605 24.7998 17.593C24.9134 17.5272 25.0633 17.4909 25.223 17.4909C25.3827 17.4909 25.5341 17.5272 25.6461 17.593C25.763 17.6605 25.8272 17.7511 25.8272 17.8498C25.8272 17.9486 25.763 18.0392 25.6461 18.1067C25.5325 18.1725 25.3827 18.2088 25.223 18.2088C25.0814 18.2088 24.9497 18.1791 24.8427 18.1281L20.7366 20.5334V21.2545L26.9549 17.6638L25.6099 16.8867L20.083 20.0774L20.6181 20.3836L24.678 18.0046C24.6385 17.9569 24.6187 17.9042 24.6187 17.8498Z" fill="url(#paint18_linear)"/>
<path d="M27.1459 17.7725L20.7383 21.4718V21.8966L27.5131 17.9848L27.1459 17.7725Z" fill="url(#paint19_linear)"/>
<path d="M25.2475 18.0625C25.3512 18.0625 25.4467 18.0394 25.5191 17.9982C25.5883 17.9587 25.6278 17.9044 25.6278 17.8501C25.6278 17.7941 25.5899 17.7414 25.5191 17.7019C25.4467 17.6607 25.3512 17.6377 25.2475 17.6377C25.1438 17.6377 25.0483 17.6607 24.9758 17.7019C24.9067 17.7414 24.8672 17.7957 24.8672 17.8501C24.8672 17.9061 24.9051 17.9587 24.9758 17.9982C25.0466 18.0394 25.1438 18.0625 25.2475 18.0625Z" fill="url(#paint20_linear)"/>
<path d="M18.5055 0.67334L17.7119 1.13103V2.13531L18.5055 1.67762V0.67334Z" fill="url(#paint21_linear)"/>
<path d="M17.7119 2.39019V3.32862L19.4241 2.3408L18.6108 1.87158L17.7119 2.39019Z" fill="url(#paint22_linear)"/>
<path d="M20.7236 0.67334V1.67762L21.5188 2.13531V1.13103L20.7236 0.67334Z" fill="url(#paint23_linear)"/>
<path d="M19.6157 1.29248L18.8008 1.76169L19.6141 2.23091H19.6157L20.429 1.76169L19.6157 1.29248Z" fill="url(#paint24_linear)"/>
<path d="M20.5333 1.56713V0.562845L19.6147 0.0327148L18.6943 0.562845V1.56713L19.6147 1.037L20.5333 1.56713Z" fill="url(#paint25_linear)"/>
<path d="M19.8066 2.3408L21.5189 3.32862V2.39019L20.6183 1.87158L19.8066 2.3408Z" fill="url(#paint26_linear)"/>
<defs>
<linearGradient id="paint0_linear" x1="33.8947" y1="12.9837" x2="34.7262" y2="12.9837" gradientUnits="userSpaceOnUse">
<stop offset="0.0566" stop-color="#C9994F"/>
<stop offset="0.4057" stop-color="#F6E27A"/>
<stop offset="0.5236" stop-color="#F6F2C1"/>
<stop offset="0.6368" stop-color="#F6E27A"/>
<stop offset="0.9387" stop-color="#C9994F"/>
<stop offset="1" stop-color="#462523"/>
</linearGradient>
<linearGradient id="paint1_linear" x1="35.8807" y1="25.7073" x2="36.4674" y2="25.7073" gradientUnits="userSpaceOnUse">
<stop offset="0.0566" stop-color="#C9994F"/>
<stop offset="0.4057" stop-color="#F6E27A"/>
<stop offset="0.5236" stop-color="#F6F2C1"/>
<stop offset="0.6368" stop-color="#F6E27A"/>
<stop offset="0.9387" stop-color="#C9994F"/>
<stop offset="1" stop-color="#462523"/>
</linearGradient>
<linearGradient id="paint2_linear" x1="37.8747" y1="28.345" x2="38.4278" y2="28.345" gradientUnits="userSpaceOnUse">
<stop offset="0.0566" stop-color="#C9994F"/>
<stop offset="0.4057" stop-color="#F6E27A"/>
<stop offset="0.5236" stop-color="#F6F2C1"/>
<stop offset="0.6368" stop-color="#F6E27A"/>
<stop offset="0.9387" stop-color="#C9994F"/>
<stop offset="1" stop-color="#462523"/>
</linearGradient>
<linearGradient id="paint3_linear" x1="32.1557" y1="11.9806" x2="32.9871" y2="11.9806" gradientUnits="userSpaceOnUse">
<stop offset="0.0566" stop-color="#C9994F"/>
<stop offset="0.4057" stop-color="#F6E27A"/>
<stop offset="0.5236" stop-color="#F6F2C1"/>
<stop offset="0.6368" stop-color="#F6E27A"/>
<stop offset="0.9387" stop-color="#C9994F"/>
<stop offset="1" stop-color="#462523"/>
</linearGradient>
<linearGradient id="paint4_linear" x1="38.7229" y1="20.1589" x2="16.0334" y2="20.1589" gradientUnits="userSpaceOnUse">
<stop offset="0.0566" stop-color="#C9994F"/>
<stop offset="0.4057" stop-color="#F6E27A"/>
<stop offset="0.5236" stop-color="#F6F2C1"/>
<stop offset="0.6368" stop-color="#F6E27A"/>
<stop offset="0.9387" stop-color="#C9994F"/>
<stop offset="1" stop-color="#462523"/>
</linearGradient>
<linearGradient id="paint5_linear" x1="5.28883" y1="12.9683" x2="6.12031" y2="12.9683" gradientUnits="userSpaceOnUse">
<stop offset="0.0566" stop-color="#C9994F"/>
<stop offset="0.4057" stop-color="#F6E27A"/>
<stop offset="0.5236" stop-color="#F6F2C1"/>
<stop offset="0.6368" stop-color="#F6E27A"/>
<stop offset="0.9387" stop-color="#C9994F"/>
<stop offset="1" stop-color="#462523"/>
</linearGradient>
<linearGradient id="paint6_linear" x1="3.53085" y1="25.7078" x2="4.1176" y2="25.7078" gradientUnits="userSpaceOnUse">
<stop offset="0.0566" stop-color="#C9994F"/>
<stop offset="0.4057" stop-color="#F6E27A"/>
<stop offset="0.5236" stop-color="#F6F2C1"/>
<stop offset="0.6368" stop-color="#F6E27A"/>
<stop offset="0.9387" stop-color="#C9994F"/>
<stop offset="1" stop-color="#462523"/>
</linearGradient>
<linearGradient id="paint7_linear" x1="1.63484" y1="28.345" x2="2.18788" y2="28.345" gradientUnits="userSpaceOnUse">
<stop offset="0.0566" stop-color="#C9994F"/>
<stop offset="0.4057" stop-color="#F6E27A"/>
<stop offset="0.5236" stop-color="#F6F2C1"/>
<stop offset="0.6368" stop-color="#F6E27A"/>
<stop offset="0.9387" stop-color="#C9994F"/>
<stop offset="1" stop-color="#462523"/>
</linearGradient>
<linearGradient id="paint8_linear" x1="7.02756" y1="11.9806" x2="7.85904" y2="11.9806" gradientUnits="userSpaceOnUse">
<stop offset="0.0566" stop-color="#C9994F"/>
<stop offset="0.4057" stop-color="#F6E27A"/>
<stop offset="0.5236" stop-color="#F6F2C1"/>
<stop offset="0.6368" stop-color="#F6E27A"/>
<stop offset="0.9387" stop-color="#C9994F"/>
<stop offset="1" stop-color="#462523"/>
</linearGradient>
<linearGradient id="paint9_linear" x1="1.27658" y1="20.1711" x2="23.9661" y2="20.1711" gradientUnits="userSpaceOnUse">
<stop offset="0.0566" stop-color="#C9994F"/>
<stop offset="0.4057" stop-color="#F6E27A"/>
<stop offset="0.5236" stop-color="#F6F2C1"/>
<stop offset="0.6368" stop-color="#F6E27A"/>
<stop offset="0.9387" stop-color="#C9994F"/>
<stop offset="1" stop-color="#462523"/>
</linearGradient>
<linearGradient id="paint10_linear" x1="17.4126" y1="35.0165" x2="17.9321" y2="35.0165" gradientUnits="userSpaceOnUse">
<stop offset="0.0566" stop-color="#C9994F"/>
<stop offset="0.4057" stop-color="#F6E27A"/>
<stop offset="0.5236" stop-color="#F6F2C1"/>
<stop offset="0.6368" stop-color="#F6E27A"/>
<stop offset="0.9387" stop-color="#C9994F"/>
<stop offset="1" stop-color="#462523"/>
</linearGradient>
<linearGradient id="paint11_linear" x1="16.3095" y1="29.521" x2="21.5969" y2="33.2355" gradientUnits="userSpaceOnUse">
<stop stop-color="#462523"/>
<stop offset="0.0566" stop-color="#C9994F"/>
<stop offset="0.4057" stop-color="#F6E27A"/>
<stop offset="0.6368" stop-color="#F6E27A"/>
<stop offset="0.9387" stop-color="#C9994F"/>
<stop offset="1" stop-color="#462523"/>
</linearGradient>
<linearGradient id="paint12_linear" x1="21.6754" y1="35.0187" x2="22.2111" y2="35.0187" gradientUnits="userSpaceOnUse">
<stop offset="0.0566" stop-color="#C9994F"/>
<stop offset="0.4057" stop-color="#F6E27A"/>
<stop offset="0.5236" stop-color="#F6F2C1"/>
<stop offset="0.6368" stop-color="#F6E27A"/>
<stop offset="0.9387" stop-color="#C9994F"/>
<stop offset="1" stop-color="#462523"/>
</linearGradient>
<linearGradient id="paint13_linear" x1="-3.68559" y1="11.5141" x2="30.4075" y2="35.4656" gradientUnits="userSpaceOnUse">
<stop offset="0.0566" stop-color="#C9994F"/>
<stop offset="0.4057" stop-color="#F6E27A"/>
<stop offset="0.5236" stop-color="#F6F2C1"/>
<stop offset="0.6368" stop-color="#F6E27A"/>
<stop offset="0.9387" stop-color="#C9994F"/>
<stop offset="1" stop-color="#462523"/>
</linearGradient>
<linearGradient id="paint14_linear" x1="19.5263" y1="17.3956" x2="20.8538" y2="31.3021" gradientUnits="userSpaceOnUse">
<stop offset="0.0566" stop-color="#C9994F"/>
<stop offset="0.4057" stop-color="#F6E27A"/>
<stop offset="0.5236" stop-color="#F6F2C1"/>
<stop offset="0.6368" stop-color="#F6E27A"/>
<stop offset="0.9387" stop-color="#C9994F"/>
<stop offset="1" stop-color="#462523"/>
</linearGradient>
<linearGradient id="paint15_linear" x1="16.1732" y1="17.7488" x2="17.5006" y2="31.655" gradientUnits="userSpaceOnUse">
<stop offset="0.0566" stop-color="#C9994F"/>
<stop offset="0.4057" stop-color="#F6E27A"/>
<stop offset="0.5236" stop-color="#F6F2C1"/>
<stop offset="0.6368" stop-color="#F6E27A"/>
<stop offset="0.9387" stop-color="#C9994F"/>
<stop offset="1" stop-color="#462523"/>
</linearGradient>
<linearGradient id="paint16_linear" x1="14.2037" y1="17.8493" x2="14.9634" y2="17.8493" gradientUnits="userSpaceOnUse">
<stop offset="0.0566" stop-color="#C9994F"/>
<stop offset="0.4057" stop-color="#F6E27A"/>
<stop offset="0.5236" stop-color="#F6F2C1"/>
<stop offset="0.6368" stop-color="#F6E27A"/>
<stop offset="0.9387" stop-color="#C9994F"/>
<stop offset="1" stop-color="#462523"/>
</linearGradient>
<linearGradient id="paint17_linear" x1="15.4913" y1="17.8139" x2="16.8187" y2="31.7201" gradientUnits="userSpaceOnUse">
<stop offset="0.0566" stop-color="#C9994F"/>
<stop offset="0.4057" stop-color="#F6E27A"/>
<stop offset="0.5236" stop-color="#F6F2C1"/>
<stop offset="0.6368" stop-color="#F6E27A"/>
<stop offset="0.9387" stop-color="#C9994F"/>
<stop offset="1" stop-color="#462523"/>
</linearGradient>
<linearGradient id="paint18_linear" x1="23.3468" y1="17.0641" x2="24.6742" y2="30.9703" gradientUnits="userSpaceOnUse">
<stop offset="0.0566" stop-color="#C9994F"/>
<stop offset="0.4057" stop-color="#F6E27A"/>
<stop offset="0.5236" stop-color="#F6F2C1"/>
<stop offset="0.6368" stop-color="#F6E27A"/>
<stop offset="0.9387" stop-color="#C9994F"/>
<stop offset="1" stop-color="#462523"/>
</linearGradient>
<linearGradient id="paint19_linear" x1="23.8461" y1="17.0164" x2="25.1735" y2="30.9225" gradientUnits="userSpaceOnUse">
<stop offset="0.0566" stop-color="#C9994F"/>
<stop offset="0.4057" stop-color="#F6E27A"/>
<stop offset="0.5236" stop-color="#F6F2C1"/>
<stop offset="0.6368" stop-color="#F6E27A"/>
<stop offset="0.9387" stop-color="#C9994F"/>
<stop offset="1" stop-color="#462523"/>
</linearGradient>
<linearGradient id="paint20_linear" x1="24.8671" y1="17.8496" x2="25.6267" y2="17.8496" gradientUnits="userSpaceOnUse">
<stop offset="0.0566" stop-color="#C9994F"/>
<stop offset="0.4057" stop-color="#F6E27A"/>
<stop offset="0.5236" stop-color="#F6F2C1"/>
<stop offset="0.6368" stop-color="#F6E27A"/>
<stop offset="0.9387" stop-color="#C9994F"/>
<stop offset="1" stop-color="#462523"/>
</linearGradient>
<linearGradient id="paint21_linear" x1="18.1408" y1="0.694973" x2="17.9798" y2="4.25186" gradientUnits="userSpaceOnUse">
<stop offset="0.0566" stop-color="#C9994F"/>
<stop offset="0.4057" stop-color="#F6E27A"/>
<stop offset="0.5236" stop-color="#F6F2C1"/>
<stop offset="0.6368" stop-color="#F6E27A"/>
<stop offset="0.9387" stop-color="#C9994F"/>
<stop offset="1" stop-color="#462523"/>
</linearGradient>
<linearGradient id="paint22_linear" x1="18.5884" y1="1.90854" x2="18.4274" y2="5.46543" gradientUnits="userSpaceOnUse">
<stop offset="0.0566" stop-color="#C9994F"/>
<stop offset="0.4057" stop-color="#F6E27A"/>
<stop offset="0.5236" stop-color="#F6F2C1"/>
<stop offset="0.6368" stop-color="#F6E27A"/>
<stop offset="0.9387" stop-color="#C9994F"/>
<stop offset="1" stop-color="#462523"/>
</linearGradient>
<linearGradient id="paint23_linear" x1="21.1519" y1="0.729036" x2="20.9986" y2="4.11518" gradientUnits="userSpaceOnUse">
<stop offset="0.0566" stop-color="#C9994F"/>
<stop offset="0.4057" stop-color="#F6E27A"/>
<stop offset="0.5236" stop-color="#F6F2C1"/>
<stop offset="0.6368" stop-color="#F6E27A"/>
<stop offset="0.9387" stop-color="#C9994F"/>
<stop offset="1" stop-color="#462523"/>
</linearGradient>
<linearGradient id="paint24_linear" x1="19.6355" y1="1.31714" x2="19.5346" y2="3.54619" gradientUnits="userSpaceOnUse">
<stop offset="0.0566" stop-color="#C9994F"/>
<stop offset="0.4057" stop-color="#F6E27A"/>
<stop offset="0.5236" stop-color="#F6F2C1"/>
<stop offset="0.6368" stop-color="#F6E27A"/>
<stop offset="0.9387" stop-color="#C9994F"/>
<stop offset="1" stop-color="#462523"/>
</linearGradient>
<linearGradient id="paint25_linear" x1="19.6591" y1="0.0752076" x2="19.4898" y2="3.81631" gradientUnits="userSpaceOnUse">
<stop offset="0.0566" stop-color="#C9994F"/>
<stop offset="0.4057" stop-color="#F6E27A"/>
<stop offset="0.5236" stop-color="#F6F2C1"/>
<stop offset="0.6368" stop-color="#F6E27A"/>
<stop offset="0.9387" stop-color="#C9994F"/>
<stop offset="1" stop-color="#462523"/>
</linearGradient>
<linearGradient id="paint26_linear" x1="20.7041" y1="1.91134" x2="20.5519" y2="5.2749" gradientUnits="userSpaceOnUse">
<stop offset="0.0566" stop-color="#C9994F"/>
<stop offset="0.4057" stop-color="#F6E27A"/>
<stop offset="0.5236" stop-color="#F6F2C1"/>
<stop offset="0.6368" stop-color="#F6E27A"/>
<stop offset="0.9387" stop-color="#C9994F"/>
<stop offset="1" stop-color="#462523"/>
</linearGradient>
</defs>
</svg>
