<svg width="347" height="341" viewBox="0 0 347 341" fill="none" xmlns="http://www.w3.org/2000/svg">
<path d="M325.127 186.092H243.399C237.905 186.092 233.527 180.579 233.527 173.774C233.527 166.969 237.905 161.456 243.399 161.456H325.127C330.622 161.456 335 155.943 335 149.138C335 142.333 330.622 136.82 325.127 136.82H292.505C297.999 136.82 302.377 131.307 302.377 124.503C302.377 117.698 297.999 112.185 292.505 112.185H238.42C232.926 112.185 228.548 106.672 228.548 99.8667C228.548 93.0618 232.926 87.5489 238.42 87.5489H275.507C281.001 87.5489 285.379 82.036 285.379 75.231C285.379 68.426 281.001 62.9131 275.507 62.9131H34.8726C29.3783 62.9992 25 68.5121 25 75.3171C25 82.1221 29.3783 87.635 34.8726 87.635H51.8707C46.3764 87.635 41.9981 93.1479 41.9981 99.9529C41.9981 106.758 46.3764 112.271 51.8707 112.271H90.7602C96.2545 112.271 100.633 117.784 100.633 124.589C100.633 131.394 96.2545 136.907 90.7602 136.907H51.8707C46.3764 136.907 41.9981 142.419 41.9981 149.224C41.9981 156.029 46.3764 161.542 51.8707 161.542H131.281C136.775 161.542 141.153 167.055 141.153 173.86C141.153 180.665 136.775 186.178 131.281 186.178H51.8707C46.3764 186.178 41.9981 191.691 41.9981 198.496C41.9981 205.301 46.3764 210.814 51.8707 210.814H73.7621C79.2564 210.814 83.6347 216.327 83.6347 223.132C83.6347 229.937 79.2564 235.45 73.7621 235.45H34.8726C29.3783 235.45 25 240.963 25 247.767C25 254.572 29.3783 260.085 34.8726 260.085H308.129C313.624 260.085 318.002 254.572 318.002 247.767C318.002 240.963 313.624 235.45 308.129 235.45H275.507C281.001 235.45 285.379 229.937 285.379 223.132C285.379 216.327 281.001 210.814 275.507 210.814H325.127C330.622 210.814 335 205.301 335 198.496C335 191.605 330.622 186.092 325.127 186.092Z" fill="#001B3A" fill-opacity="0.05"/>
<path d="M211.558 340.574C281.155 340.574 337.574 336.474 337.574 331.416C337.574 326.358 281.155 322.258 211.558 322.258C141.961 322.258 85.542 326.358 85.542 331.416C85.542 336.474 141.961 340.574 211.558 340.574Z" fill="#001B3A" fill-opacity="0.6"/>
<path d="M287.04 78.5514H175.122C174.172 78.5514 173.38 77.7619 173.38 76.8145V1.73681C173.38 0.789461 174.172 0 175.122 0H287.04C287.99 0 288.782 0.789461 288.782 1.73681V76.8145C288.782 77.7619 287.99 78.5514 287.04 78.5514Z" fill="#7C9AFE"/>
<path d="M231.121 9.47339H189.301V67.0251H231.121V9.47339Z" fill="#ECF2FF"/>
<path d="M243.16 65.5254C246.883 65.5254 249.813 66.6306 249.813 68.0517C249.813 68.7622 249.101 69.3938 247.833 69.7885L248.467 72.1569L246.17 70.1832C245.22 70.3411 244.19 70.499 243.081 70.499C239.358 70.499 236.428 69.3937 236.428 67.9727C236.507 66.6306 239.517 65.5254 243.16 65.5254Z" fill="#ECF2FF"/>
<path d="M282.367 9.47339H236.507V12.0786H282.367V9.47339Z" fill="#ECF2FF"/>
<path d="M282.367 14.9995H236.507V17.6047H282.367V14.9995Z" fill="#ECF2FF"/>
<path d="M282.367 20.605H236.507V23.2102H282.367V20.605Z" fill="#ECF2FF"/>
<path d="M282.367 26.2102H236.507V28.8154H282.367V26.2102Z" fill="#ECF2FF"/>
<path d="M220.271 34.7359C220.271 41.841 215.597 47.6041 209.815 47.6041C204.033 47.6041 199.36 41.841 199.36 34.7359C199.36 27.6307 204.033 21.8677 209.815 21.8677C215.597 21.8677 220.271 27.6307 220.271 34.7359Z" fill="#D7E0FE"/>
<path d="M199.044 34.7363C199.044 34.0258 199.123 33.3153 199.202 32.6047C198.014 32.9205 197.063 34.1837 197.063 35.6836C197.063 37.3415 198.172 38.6046 199.598 38.7625C199.281 37.4994 199.044 36.1573 199.044 34.7363Z" fill="#D7E0FE"/>
<path d="M220.428 32.6047C220.507 33.3153 220.587 34.0258 220.587 34.7363C220.587 36.1573 220.428 37.4994 220.032 38.8415C221.537 38.7625 222.725 37.4205 222.725 35.6836C222.725 34.1047 221.696 32.8416 220.428 32.6047Z" fill="#D7E0FE"/>
<path d="M209.816 47.8411C209.103 47.8411 208.47 47.7622 207.836 47.6043V59.6041H213.143V47.1306C212.034 47.6043 210.925 47.8411 209.816 47.8411Z" fill="#D7E0FE"/>
<path d="M209.816 21.6312C214.964 21.6312 219.241 26.0522 220.271 31.8942C221.934 28.1048 216.073 18.1576 216.073 18.1576C216.073 18.1576 215.677 20.6049 213.538 19.8944C211.479 19.2628 212.112 14.9997 212.112 14.9997L210.132 17.9997L208.707 14.3682L207.756 18.0786L205.697 14.9997C205.697 14.9997 206.727 17.2102 205.697 18.947C204.667 20.6049 201.024 21.6312 200.311 24.3154C199.836 26.0522 200.232 27.3153 200.548 28.1048C202.449 24.2364 205.855 21.6312 209.816 21.6312Z" fill="#D7E0FE"/>
<path d="M225.736 66.3148H195.638V62.8411C195.638 59.4465 198.41 56.6833 201.816 56.6833H219.637C223.043 56.6833 225.815 59.4465 225.815 62.8411V66.3148H225.736Z" fill="#D7E0FE"/>
<path d="M282.289 61.1832C282.051 61.1832 281.814 61.1043 281.576 60.9464C280.546 60.3148 279.438 59.6043 278.408 58.9727C277.774 58.578 277.616 57.8675 278.012 57.2359C278.408 56.6043 279.121 56.4465 279.754 56.8412C280.863 57.4727 281.972 58.1833 283.002 58.8938C283.556 59.2885 283.794 60.078 283.398 60.6306C283.081 60.9464 282.685 61.1832 282.289 61.1832Z" fill="#99D7FF"/>
<path d="M113.501 245.127C113.264 245.127 113.105 245.048 112.868 244.97C110.175 243.47 107.878 242.285 106.294 241.338C105.66 241.022 105.502 240.233 105.819 239.601C106.135 238.97 106.927 238.812 107.561 239.128C109.224 240.075 111.442 241.259 114.135 242.759C114.769 243.075 115.006 243.864 114.61 244.496C114.373 244.891 113.977 245.127 113.501 245.127ZM97.898 235.575C97.6604 235.575 97.3435 235.496 97.1059 235.338C95.0466 233.838 93.0664 232.259 91.1655 230.68C90.6111 230.207 90.5319 229.417 91.0071 228.865C91.4823 228.312 92.2744 228.233 92.8288 228.707C94.7298 230.286 96.7099 231.786 98.69 233.286C99.2445 233.68 99.4029 234.47 98.9277 235.022C98.6108 235.338 98.294 235.575 97.898 235.575ZM83.8786 223.812C83.5618 223.812 83.245 223.733 83.0073 223.496C81.1856 221.759 79.3639 219.944 77.7006 218.128C77.2253 217.654 77.2253 216.786 77.7798 216.312C78.255 215.838 79.1263 215.838 79.6015 216.391C81.2648 218.207 83.0073 219.944 84.8291 221.68C85.3043 222.154 85.3835 222.944 84.8291 223.496C84.5122 223.654 84.1954 223.812 83.8786 223.812ZM71.6018 210.233C71.2057 210.233 70.8097 210.075 70.5721 209.76C68.988 207.786 67.5623 205.733 66.1366 203.602C65.7405 203.049 65.899 202.26 66.4534 201.865C67.0078 201.47 67.7999 201.628 68.1959 202.181C69.5424 204.233 71.0473 206.207 72.5522 208.181C72.9482 208.733 72.869 209.523 72.3146 209.917C72.1562 210.154 71.9186 210.233 71.6018 210.233ZM61.6219 194.918C61.1466 194.918 60.7506 194.681 60.513 194.286C59.3249 192.076 58.216 189.786 57.1863 187.497C56.8695 186.865 57.1863 186.076 57.82 185.839C58.4536 185.523 59.2457 185.839 59.4833 186.471C60.513 188.681 61.5426 190.97 62.7307 193.102C63.0476 193.734 62.8099 194.523 62.1763 194.839C62.0179 194.918 61.8595 194.918 61.6219 194.918ZM54.4934 178.102C53.9389 178.102 53.4637 177.786 53.3053 177.234C52.5132 174.865 51.8796 172.418 51.2459 169.971C51.0875 169.26 51.4835 168.629 52.1964 168.471C52.9092 168.313 53.5429 168.708 53.7013 169.418C54.2557 171.787 54.9686 174.155 55.6814 176.523C55.9191 177.155 55.523 177.865 54.8894 178.102C54.731 178.102 54.5726 178.102 54.4934 178.102ZM50.4539 160.339C49.8202 160.339 49.2658 159.866 49.1866 159.234C49.1074 158.681 49.0282 158.05 48.949 157.497C48.7114 155.603 48.5529 153.629 48.4737 151.655C48.3945 150.945 48.949 150.392 49.6618 150.313C50.3747 150.313 50.9291 150.787 51.0083 151.497C51.0875 153.392 51.3251 155.287 51.4835 157.182C51.5628 157.734 51.642 158.287 51.7212 158.839C51.8004 159.55 51.3251 160.181 50.6123 160.26C50.6123 160.339 50.5331 160.339 50.4539 160.339ZM49.6618 142.103C49.6618 142.103 49.5826 142.103 49.6618 142.103C48.949 142.103 48.3945 141.471 48.3945 140.761C48.4737 138.234 48.7114 135.708 48.949 133.261C49.0282 132.55 49.6618 132.077 50.3747 132.156C51.0875 132.235 51.5628 132.866 51.4835 133.577C51.2459 136.024 51.0083 138.471 50.9291 140.919C50.8499 141.55 50.2955 142.103 49.6618 142.103ZM51.8796 123.945C51.8004 123.945 51.7212 123.945 51.642 123.945C50.9291 123.787 50.5331 123.156 50.6915 122.445C51.1667 119.998 51.8004 117.551 52.434 115.103C52.5924 114.393 53.3053 113.998 54.0181 114.235C54.731 114.393 55.127 115.103 54.8894 115.814C54.2557 118.182 53.6221 120.629 53.1469 122.998C52.9885 123.55 52.434 123.945 51.8796 123.945ZM57.0279 106.498C56.8695 106.498 56.7111 106.498 56.5527 106.419C55.9191 106.182 55.6022 105.472 55.8399 104.761C56.7111 102.393 57.7408 100.103 58.7705 97.814C59.0873 97.1825 59.8001 96.8667 60.4338 97.1825C61.0674 97.4983 61.3842 98.2088 61.0674 98.8404C60.0377 101.051 59.0873 103.34 58.216 105.63C57.9784 106.182 57.5032 106.498 57.0279 106.498ZM64.8693 89.9194C64.6317 89.9194 64.4733 89.8405 64.2356 89.7615C63.602 89.4458 63.4436 88.6563 63.7604 88.0247C65.0277 85.8142 66.3742 83.6827 67.7207 81.5512C68.1167 80.9985 68.9088 80.8406 69.4632 81.1564C70.0176 81.5512 70.176 82.3406 69.8592 82.8932C68.5127 84.9458 67.1662 87.0774 65.9782 89.2089C65.7405 89.7616 65.2653 89.9194 64.8693 89.9194ZM75.0868 74.8407C74.8492 74.8407 74.5324 74.7618 74.2947 74.6039C73.7403 74.1302 73.6611 73.3408 74.0571 72.7881C75.6412 70.8145 77.3045 68.9198 78.9679 67.0251C79.4431 66.4725 80.2352 66.4725 80.7896 66.9461C81.344 67.4198 81.344 68.2093 80.8688 68.7619C79.2055 70.5776 77.6214 72.4724 76.0373 74.3671C75.8788 74.6828 75.4828 74.8407 75.0868 74.8407ZM87.6013 61.4989C87.2844 61.4989 86.8884 61.341 86.6508 61.1041C86.1756 60.5515 86.2548 59.762 86.73 59.2884C88.6309 57.6305 90.5319 55.9726 92.5912 54.4726C93.1457 54.0779 93.9377 54.1569 94.3337 54.7095C94.7298 55.2621 94.6506 56.0516 94.0961 56.4463C92.116 57.9463 90.215 59.5252 88.3933 61.1831C88.2349 61.341 87.9181 61.4989 87.6013 61.4989ZM269.536 53.999C269.378 53.999 269.14 53.92 268.982 53.8411C266.764 52.7358 264.546 51.7095 262.249 50.6832C261.616 50.3674 261.299 49.6569 261.616 49.0254C261.933 48.3938 262.645 48.078 263.279 48.3938C265.576 49.4201 267.952 50.4464 270.17 51.5516C270.804 51.8674 271.041 52.6569 270.724 53.2095C270.487 53.6832 270.012 53.999 269.536 53.999ZM102.333 50.6832C101.937 50.6832 101.462 50.4464 101.225 50.0517C100.908 49.4201 101.066 48.7096 101.7 48.3149C103.838 47.0517 106.135 45.8675 108.432 44.7623C109.066 44.4465 109.858 44.6833 110.096 45.3149C110.412 45.9465 110.175 46.7359 109.541 46.9728C107.323 48.078 105.106 49.1833 103.046 50.4464C102.809 50.6043 102.571 50.6832 102.333 50.6832ZM252.666 46.8938C252.507 46.8938 252.349 46.8938 252.27 46.8149C249.973 46.0254 247.596 45.236 245.22 44.5254C244.587 44.2886 244.191 43.5781 244.349 42.9465C244.587 42.315 245.299 41.9202 245.933 42.0781C248.388 42.7886 250.765 43.5781 253.141 44.4465C253.774 44.6833 254.17 45.3938 253.933 46.0254C253.695 46.578 253.22 46.8938 252.666 46.8938ZM118.967 42.9465C118.412 42.9465 117.937 42.6307 117.779 42.0781C117.541 41.4465 117.858 40.6571 118.571 40.4202C120.868 39.5518 123.323 38.8413 125.778 38.1308C126.491 37.9729 127.125 38.3676 127.362 38.9992C127.521 39.7097 127.125 40.3413 126.491 40.5781C124.115 41.2887 121.739 41.9992 119.442 42.8676C119.204 42.9465 119.046 42.9465 118.967 42.9465ZM235.082 41.6834C235.003 41.6834 234.844 41.6834 234.765 41.6834C232.389 41.1308 229.934 40.5781 227.478 40.1045C226.765 39.9466 226.369 39.315 226.449 38.6045C226.607 37.894 227.241 37.4992 227.953 37.5782C230.409 38.0519 232.943 38.6045 235.32 39.2361C236.032 39.3939 236.428 40.1045 236.27 40.736C236.191 41.2886 235.636 41.6834 235.082 41.6834ZM136.629 38.2098C135.996 38.2098 135.521 37.815 135.362 37.1835C135.204 36.4729 135.679 35.8414 136.392 35.6835C138.768 35.2098 141.303 34.8151 143.837 34.4203C144.55 34.3414 145.184 34.8151 145.263 35.5256C145.342 36.2361 144.867 36.8677 144.154 36.9466C141.699 37.2624 139.164 37.7361 136.788 38.2098C136.788 38.2098 136.709 38.2098 136.629 38.2098ZM217.102 38.1308C217.023 38.1308 216.944 38.1308 216.944 38.1308C214.488 37.7361 212.033 37.4203 209.578 37.1045C208.865 37.0256 208.39 36.394 208.469 35.6835C208.548 34.973 209.182 34.4993 209.895 34.5782C212.429 34.894 214.885 35.2098 217.34 35.6045C218.053 35.6835 218.528 36.394 218.37 37.0256C218.29 37.7361 217.736 38.1308 217.102 38.1308ZM198.885 36.0782H198.806C196.35 35.9203 193.816 35.6835 191.36 35.6045C190.648 35.6045 190.093 34.973 190.172 34.2624C190.172 33.5519 190.806 33.0783 191.519 33.0783C194.053 33.2362 196.588 33.394 199.043 33.5519C199.756 33.6309 200.232 34.1835 200.232 34.894C200.152 35.5256 199.598 36.0782 198.885 36.0782ZM154.768 35.7624C154.134 35.7624 153.579 35.2887 153.5 34.5782C153.421 33.8677 153.975 33.2361 154.688 33.2361C157.144 33.0783 159.678 32.9204 162.213 32.7625C162.926 32.7625 163.48 33.2361 163.559 33.9467C163.559 34.6572 163.084 35.2098 162.371 35.2887C159.837 35.3677 157.302 35.5256 154.926 35.7624C154.847 35.7624 154.768 35.7624 154.768 35.7624ZM180.589 35.1309C178.133 35.0519 175.757 35.0519 173.46 35.0519H173.064C172.351 35.0519 171.797 34.4993 171.797 33.7888C171.797 33.0783 172.351 32.5256 173.064 32.5256H173.46C175.757 32.5256 178.133 32.5256 180.589 32.6046C181.301 32.6046 181.856 33.2362 181.856 33.8677C181.856 34.5782 181.301 35.1309 180.589 35.1309Z" fill="#99D7FF"/>
<path d="M347.001 82.8935L309.616 60.3149L300.428 69.6306L347.001 82.8935Z" fill="#6D80BF"/>
<path d="M309.614 88.1041L310.089 70.657L346.999 82.8936L309.614 88.1041Z" fill="#C8EDEA"/>
<path d="M309.536 45.8679L347 82.8936L309.615 60.3151L309.536 45.8679Z" fill="#C8EDEA"/>
<path d="M300.428 69.6306L310.091 70.6569L310.012 73.1832L300.428 69.6306Z" fill="#3B487F"/>
<path d="M18.4552 145.419C18.6136 145.577 18.772 145.814 18.772 146.051C19.0096 147.235 19.2473 148.498 19.5641 149.761C19.7225 150.472 19.3265 151.103 18.6136 151.261C17.9008 151.419 17.2671 151.024 17.1087 150.314C16.7919 149.051 16.5543 147.788 16.3167 146.604C16.1582 145.893 16.6335 145.261 17.3463 145.104C17.7424 145.025 18.1384 145.182 18.4552 145.419Z" fill="#99D7FF"/>
<path d="M268.429 138.788C268.587 138.946 268.666 139.103 268.746 139.34C269.617 142.34 270.251 144.788 270.726 146.603C270.884 147.314 270.488 147.945 269.775 148.182C269.063 148.34 268.429 147.945 268.191 147.235C267.716 145.419 267.082 142.972 266.211 140.051C266.053 139.34 266.449 138.709 267.082 138.472C267.637 138.314 268.112 138.472 268.429 138.788ZM272.389 156.629C272.548 156.787 272.706 157.103 272.706 157.34C273.023 159.866 273.34 162.393 273.498 164.84C273.577 165.55 273.023 166.182 272.31 166.182C271.597 166.261 270.963 165.708 270.963 164.998C270.805 162.55 270.488 160.103 270.171 157.656C270.092 156.945 270.567 156.314 271.28 156.235C271.676 156.235 272.072 156.393 272.389 156.629ZM273.577 174.866C273.815 175.103 273.894 175.419 273.894 175.734C273.894 178.261 273.815 180.787 273.656 183.313C273.656 184.024 273.023 184.576 272.31 184.497C271.597 184.497 271.043 183.866 271.122 183.155C271.28 180.708 271.359 178.261 271.28 175.734C271.28 175.024 271.835 174.471 272.548 174.471C273.023 174.471 273.34 174.629 273.577 174.866ZM272.31 193.024C272.548 193.26 272.706 193.655 272.627 194.05C272.231 196.576 271.835 199.024 271.28 201.471C271.122 202.181 270.488 202.576 269.775 202.418C269.063 202.26 268.666 201.629 268.825 200.918C269.3 198.55 269.775 196.103 270.171 193.655C270.251 192.945 270.884 192.471 271.597 192.55C271.914 192.708 272.152 192.866 272.31 193.024ZM268.191 210.865C268.508 211.181 268.666 211.655 268.508 212.129C267.716 214.497 266.845 216.944 265.894 219.234C265.657 219.865 264.865 220.181 264.231 219.944C263.597 219.707 263.281 218.918 263.518 218.286C264.469 215.997 265.261 213.707 266.053 211.339C266.29 210.708 267.003 210.313 267.637 210.55C267.874 210.55 268.033 210.708 268.191 210.865ZM261.063 227.602C261.459 227.997 261.538 228.549 261.3 229.102C260.112 231.312 258.845 233.523 257.499 235.655C257.102 236.207 256.31 236.444 255.756 236.049C255.202 235.655 254.964 234.865 255.36 234.312C256.706 232.26 257.974 230.128 259.083 227.918C259.399 227.286 260.191 227.049 260.825 227.365C260.825 227.444 260.984 227.523 261.063 227.602ZM251.004 242.839C251.479 243.312 251.479 244.023 251.083 244.496C250.687 244.97 250.37 245.365 249.974 245.839C248.707 247.339 247.439 248.839 246.172 250.26C245.697 250.812 244.905 250.812 244.35 250.338C243.875 249.865 243.796 249.075 244.271 248.523C245.538 247.102 246.806 245.681 247.994 244.26C248.39 243.786 248.707 243.391 249.103 242.918C249.578 242.365 250.37 242.286 250.924 242.681C250.924 242.76 250.924 242.839 251.004 242.839ZM238.41 256.102C238.41 256.102 238.41 256.18 238.41 256.102C238.885 256.654 238.885 257.444 238.331 257.917C236.43 259.575 234.529 261.233 232.47 262.733C231.915 263.128 231.123 263.049 230.727 262.496C230.331 261.944 230.41 261.154 230.965 260.759C232.945 259.259 234.846 257.68 236.667 256.023C237.143 255.628 237.935 255.628 238.41 256.102ZM223.757 267.075C223.836 267.154 223.836 267.233 223.915 267.312C224.311 267.865 224.074 268.654 223.519 269.049C221.381 270.391 219.242 271.654 216.945 272.838C216.312 273.154 215.52 272.917 215.203 272.364C214.886 271.733 215.124 270.943 215.678 270.628C217.817 269.443 220.034 268.18 222.094 266.917C222.648 266.601 223.361 266.68 223.757 267.075ZM207.52 275.601C207.599 275.68 207.678 275.838 207.757 275.996C207.995 276.628 207.757 277.417 207.124 277.654C204.827 278.601 202.451 279.549 200.075 280.417C199.441 280.654 198.649 280.338 198.49 279.627C198.253 278.996 198.57 278.206 199.282 278.049C201.579 277.259 203.956 276.312 206.173 275.364C206.649 275.049 207.203 275.207 207.52 275.601ZM190.174 281.443C190.332 281.601 190.411 281.759 190.491 281.996C190.649 282.706 190.253 283.338 189.54 283.496C187.085 284.127 184.629 284.68 182.174 285.154C181.461 285.312 180.828 284.838 180.669 284.127C180.511 283.417 180.986 282.785 181.699 282.627C184.154 282.154 186.53 281.601 188.907 281.049C189.461 280.97 189.857 281.127 190.174 281.443ZM172.115 284.522C172.273 284.759 172.432 284.996 172.432 285.312C172.511 286.022 171.957 286.654 171.323 286.654C168.788 286.891 166.254 287.048 163.719 287.127C163.006 287.127 162.452 286.575 162.373 285.864C162.373 285.154 162.927 284.601 163.64 284.522C166.095 284.443 168.63 284.285 171.006 284.048C171.481 284.127 171.877 284.285 172.115 284.522ZM153.818 284.838C154.056 285.075 154.215 285.469 154.135 285.785C154.056 286.496 153.502 287.048 152.789 286.969C150.254 286.812 147.72 286.496 145.264 286.18C144.551 286.101 144.076 285.391 144.235 284.759C144.314 284.048 145.027 283.575 145.66 283.733C148.116 284.127 150.571 284.364 153.026 284.522C153.343 284.522 153.66 284.68 153.818 284.838ZM22.0997 159.55C22.2582 159.708 22.3374 159.866 22.4166 160.024C23.1294 162.314 24.0007 164.682 24.8719 167.05C25.1096 167.682 24.7927 168.471 24.1591 168.708C23.5254 168.945 22.7334 168.629 22.4958 167.998C21.6245 165.629 20.7533 163.261 20.0404 160.893C19.8028 160.261 20.1988 159.55 20.8325 159.314C21.2285 159.077 21.7829 159.235 22.0997 159.55ZM135.76 281.838C136.076 282.154 136.156 282.627 136.076 283.022C135.918 283.733 135.205 284.127 134.492 283.891C132.116 283.259 129.661 282.47 127.285 281.601C126.651 281.364 126.255 280.654 126.493 279.943C126.73 279.312 127.443 278.917 128.156 279.154C130.453 280.022 132.829 280.733 135.205 281.443C135.443 281.522 135.68 281.68 135.76 281.838ZM28.6738 176.603C28.753 176.682 28.8322 176.84 28.9114 176.919C29.9411 179.129 31.05 181.419 32.1588 183.629C32.4757 184.261 32.2381 185.05 31.6044 185.366C30.9708 185.682 30.1787 185.445 29.8619 184.813C28.753 182.603 27.6441 180.313 26.6145 178.024C26.2976 177.392 26.6145 176.603 27.2481 176.366C27.7233 176.129 28.2778 176.208 28.6738 176.603ZM118.73 275.285C119.126 275.68 119.206 276.233 118.968 276.706C118.651 277.338 117.859 277.575 117.305 277.259C115.087 276.154 112.869 274.97 110.652 273.707C110.018 273.391 109.859 272.601 110.176 271.97C110.493 271.338 111.285 271.18 111.919 271.496C114.057 272.759 116.275 273.943 118.414 274.97C118.493 275.049 118.651 275.128 118.73 275.285ZM37.1488 192.787C37.228 192.866 37.3072 192.945 37.3072 193.024C38.5745 195.155 39.8418 197.287 41.1883 199.339C41.5843 199.892 41.4259 200.681 40.7922 201.076C40.2378 201.471 39.4458 201.313 39.0497 200.681C37.7032 198.55 36.3567 196.418 35.0894 194.287C34.7726 193.655 34.931 192.945 35.5647 192.55C36.0399 192.313 36.7528 192.392 37.1488 192.787ZM102.969 265.891C103.365 266.286 103.444 266.996 103.127 267.47C102.731 268.022 101.939 268.18 101.384 267.786C99.4043 266.365 97.345 264.865 95.2856 263.286C94.7312 262.891 94.652 262.023 95.048 261.47C95.444 260.917 96.3153 260.838 96.8697 261.233C98.8499 262.812 100.83 264.233 102.889 265.654C102.889 265.812 102.969 265.812 102.969 265.891ZM47.0495 208.181C47.1287 208.26 47.1287 208.26 47.2079 208.339C48.6336 210.313 50.1385 212.365 51.6434 214.339C52.0394 214.892 51.9602 215.681 51.4058 216.076C50.8513 216.471 50.0593 216.392 49.6633 215.839C48.1584 213.865 46.6535 211.813 45.2278 209.76C44.8317 209.208 44.9901 208.418 45.5446 208.023C45.9406 207.629 46.6535 207.708 47.0495 208.181ZM58.2175 222.707C59.8808 224.681 61.4649 226.576 63.1282 228.47C63.6034 229.023 63.5242 229.813 62.9698 230.286C62.4154 230.76 61.6233 230.681 61.1481 230.128C59.4847 228.234 57.8214 226.26 56.3165 224.365C55.8413 223.813 55.9205 223.023 56.4749 222.549C56.9502 222.155 57.7422 222.234 58.2175 222.707ZM88.6324 254.523C89.1076 254.996 89.1076 255.707 88.6324 256.259C88.1571 256.812 87.3651 256.812 86.8106 256.338C84.9889 254.759 83.088 253.023 81.2663 251.286C80.791 250.812 80.7118 250.023 81.1871 249.47C81.6623 248.996 82.4543 248.917 83.0088 249.391C84.9097 251.207 86.7314 252.865 88.6324 254.523C88.6324 254.523 88.5532 254.523 88.6324 254.523ZM70.2567 236.444C71.92 238.26 73.5833 239.997 75.0882 241.575L75.4051 241.891C75.8803 242.365 75.8803 243.233 75.4051 243.707C74.9298 244.181 74.0586 244.181 73.5833 243.707L73.2665 243.391C71.6824 241.733 70.0191 239.997 68.3558 238.26C67.8805 237.707 67.8805 236.918 68.435 236.444C68.9894 235.97 69.7815 235.97 70.2567 236.444Z" fill="#99D7FF"/>
<path d="M0.711914 111.393L10.375 153.866L23.5231 154.024L0.711914 111.393Z" fill="#91AAFE"/>
<path d="M30.4932 134.603L17.5035 146.366L0.711914 111.393L30.4932 134.603Z" fill="#92DAD6"/>
<path d="M0 163.971L0.71285 111.393L10.3759 153.866L0 163.971Z" fill="#92DAD6"/>
<path d="M23.5245 154.024L17.5049 146.366L19.4058 144.629L23.5245 154.024Z" fill="#49557F"/>
<path d="M213.221 249.312H148.352C147.798 249.312 147.322 248.838 147.322 248.286V204.786C147.322 204.234 147.798 203.76 148.352 203.76H213.221C213.776 203.76 214.251 204.234 214.251 204.786V248.286C214.251 248.917 213.776 249.312 213.221 249.312Z" fill="#B0C2FE"/>
<path d="M199.915 240.944H160.787C159.124 240.944 157.777 239.602 157.777 237.944V215.602C157.777 213.944 159.124 212.602 160.787 212.602H199.915C201.578 212.602 202.925 213.944 202.925 215.602V237.944C202.845 239.602 201.499 240.944 199.915 240.944Z" fill="#95A9FE"/>
<path d="M198.172 215.128H163.084L180.351 231.391L198.172 215.128Z" fill="white"/>
<path d="M180.272 235.654L160.153 216.707V238.417H200.548V217.26L180.272 235.654Z" fill="white"/>
<path d="M258.289 145.024C251.873 144.787 235.874 143.287 223.201 133.971C204.746 120.393 201.34 113.13 201.34 113.13C201.34 113.13 201.42 109.893 200.865 108.156C200.311 106.498 200.39 104.051 199.36 104.446C198.331 104.761 198.885 106.893 199.123 107.603C199.202 107.84 199.123 107.998 198.964 108.156C198.489 108.472 197.855 108.393 197.539 107.919C197.222 107.446 196.746 106.577 196.271 104.998C195.162 101.683 193.895 98.7615 193.499 99.6299C193.103 100.498 195.321 106.182 195.717 107.367C196.113 108.551 193.024 102.946 191.677 100.656C190.331 98.3668 189.856 100.025 190.648 101.209C191.519 102.393 194.608 107.998 194.133 108.156C193.657 108.314 189.935 102.077 188.905 102.393C187.796 102.788 189.222 103.577 189.776 104.525C190.41 105.472 193.182 108.156 192.786 109.024C192.786 109.024 188.509 106.025 188.588 106.656C188.668 106.972 192.549 110.998 194.37 112.577C198.647 116.209 216.785 140.84 223.993 144.392C231.042 147.866 249.418 159.945 256.705 157.971C261.378 152.682 260.269 150.945 258.289 145.024Z" fill="#FD5E5A"/>
<path d="M207.834 191.76H66.1357C64.9476 191.76 63.918 190.813 63.918 189.55V94.5774C63.918 93.3932 64.8684 92.3669 66.1357 92.3669H207.834C209.022 92.3669 210.052 93.3143 210.052 94.5774V189.55C209.973 190.734 209.022 191.76 207.834 191.76Z" fill="#91AAFE"/>
<path d="M207.834 101.84H66.1357C64.9476 101.84 63.918 100.893 63.918 99.6298V94.4983C63.918 93.3141 64.8684 92.2878 66.1357 92.2878H207.834C209.022 92.2878 210.052 93.2352 210.052 94.4983V99.6298C209.973 100.893 209.022 101.84 207.834 101.84Z" fill="#004D54"/>
<path d="M113.58 111.471H77.3828V167.681H113.58V111.471Z" fill="#698BFD"/>
<path d="M200.626 111.471H123.718V114.629H200.626V111.471Z" fill="#698BFD"/>
<path d="M200.626 118.103H123.718V121.735H200.626V118.103Z" fill="#698BFD"/>
<path d="M166.489 94.9722H69.3828V100.183H166.489V94.9722Z" fill="white"/>
<path d="M194.448 99.393C194.448 99.8667 194.052 100.182 193.656 100.182C193.181 100.182 192.864 99.7877 192.864 99.393C192.864 98.9193 193.26 98.6035 193.656 98.6035C194.052 98.6035 194.448 98.9982 194.448 99.393Z" fill="white"/>
<path d="M196.428 99.393C196.428 99.8667 196.032 100.182 195.636 100.182C195.161 100.182 194.844 99.7877 194.844 99.393C194.844 98.9193 195.24 98.6035 195.636 98.6035C196.032 98.6035 196.428 98.9982 196.428 99.393Z" fill="white"/>
<path d="M198.329 99.393C198.329 99.8667 197.933 100.182 197.537 100.182C197.062 100.182 196.745 99.7877 196.745 99.393C196.745 98.9193 197.141 98.6035 197.537 98.6035C198.012 98.6035 198.329 98.9982 198.329 99.393Z" fill="white"/>
<path d="M165.221 99.3141L164.429 97.972C164.745 97.7351 164.983 97.3404 164.983 96.8667C164.983 96.0773 164.429 95.5247 163.637 95.5247C162.924 95.5247 162.29 96.1562 162.29 96.8667C162.29 97.6562 162.844 98.2088 163.637 98.2088C163.795 98.2088 163.953 98.2088 164.112 98.1299L164.666 99.5509C164.666 99.5509 164.666 99.5509 164.666 99.6298C164.745 99.7877 164.904 99.7877 165.062 99.7088C165.3 99.6298 165.3 99.393 165.221 99.3141ZM162.686 96.8667C162.686 96.3141 163.161 95.8404 163.716 95.8404C164.27 95.8404 164.745 96.3141 164.745 96.8667C164.745 97.4194 164.27 97.893 163.716 97.893C163.082 97.893 162.686 97.4194 162.686 96.8667Z" fill="#121841"/>
<path d="M178.766 94.9722H170.528V99.9458H178.766V94.9722Z" fill="#F57408"/>
<path d="M197.537 127.103H129.975V187.418H197.537V127.103Z" fill="#E4EDFF"/>
<path d="M163.716 136.656H136.944V162.155H163.716V136.656Z" fill="white"/>
<path d="M196.428 166.26H169.656V187.418H196.428V166.26Z" fill="white"/>
<path d="M180.825 130.103H148.113V132.866H180.825V130.103Z" fill="#F57408"/>
<path d="M196.428 136.656H168.469V137.998H196.428V136.656Z" fill="#698BFD"/>
<path d="M196.428 139.103H168.469V140.445H196.428V139.103Z" fill="#698BFD"/>
<path d="M196.428 141.471H168.469V142.814H196.428V141.471Z" fill="#698BFD"/>
<path d="M196.428 143.84H168.469V145.182H196.428V143.84Z" fill="#698BFD"/>
<path d="M196.428 146.208H168.469V147.55H196.428V146.208Z" fill="#698BFD"/>
<path d="M196.428 148.576H168.469V149.918H196.428V148.576Z" fill="#698BFD"/>
<path d="M196.428 150.945H168.469V152.287H196.428V150.945Z" fill="#698BFD"/>
<path d="M196.428 153.313H168.469V154.655H196.428V153.313Z" fill="#698BFD"/>
<path d="M196.428 155.682H168.469V157.024H196.428V155.682Z" fill="#698BFD"/>
<path d="M196.428 158.05H168.469V159.392H196.428V158.05Z" fill="#698BFD"/>
<path d="M196.428 160.418H168.469V161.76H196.428V160.418Z" fill="#698BFD"/>
<path d="M246.486 114.156C246.486 114.156 253.535 113.761 255.911 120.314C258.367 126.866 258.05 140.366 254.723 144.235C251.397 148.024 251.951 157.892 249.02 160.734C246.09 163.655 238.724 164.919 238.724 158.129C238.724 158.129 242.367 158.998 243.238 154.734C243.238 154.734 238.09 158.05 235.556 152.998C233.021 147.945 238.486 147.471 238.486 147.471C238.486 147.471 235.872 150.945 239.041 150.156C242.209 149.445 244.031 146.524 244.031 142.893C244.031 139.261 238.645 141.55 239.199 134.84C239.833 128.13 244.11 113.919 246.486 114.156Z" fill="#001429"/>
<path d="M258.764 146.129C258.764 146.129 257.734 170.366 259.794 179.287C261.932 188.207 262.803 189.707 262.803 189.707C262.803 189.707 248.309 199.339 241.972 197.365C241.972 197.365 231.517 172.655 229.458 167.208C227.319 161.76 237.22 143.524 237.22 143.524C237.22 143.524 255.992 146.998 258.764 146.129Z" fill="#C0B4FE"/>
<path d="M241.496 133.892L237.615 146.208C237.615 146.208 229.774 155.05 234.922 157.102C240.071 159.155 249.575 146.918 249.575 146.918L247.754 131.05L241.496 133.892Z" fill="#FD5E5A"/>
<path d="M276.506 276.154C276.506 276.154 283.238 289.811 272.308 319.337L270.328 324.784L264.783 323.284C264.783 323.284 265.1 284.206 262.407 280.338C259.635 276.548 276.506 276.154 276.506 276.154Z" fill="#FD5E5A"/>
<path d="M325.059 214.496C325.059 214.496 310.802 244.338 308.346 246.864C305.891 249.39 304.069 230.68 304.069 230.68L311.039 222.707C311.039 222.707 320.861 211.023 321.653 211.023C322.445 210.944 325.059 212.444 325.059 214.496Z" fill="#FC7575"/>
<path d="M311.039 219.312C311.039 219.312 301.534 229.102 297.099 228.233C292.742 227.365 283.634 192.55 262.803 189.629C262.803 189.629 246.011 199.576 241.972 197.286C241.972 197.286 256.862 274.101 255.199 284.443C255.199 284.443 270.802 287.838 278.802 278.206C286.802 268.575 311.039 266.917 311.039 258.154C311.039 249.47 311.039 219.312 311.039 219.312Z" fill="#006282"/>
<path d="M253.694 120.472L255.991 120.314C255.991 120.314 261.536 128.998 268.11 131.051C274.763 133.103 276.03 139.735 272.862 143.998C269.694 148.261 277.218 147.314 276.585 151.892C275.951 156.471 270.011 167.366 263.199 156.313C256.308 145.261 253.694 120.472 253.694 120.472Z" fill="#001429"/>
<path d="M246.487 118.261L236.19 123.945C236.19 123.945 234.052 124.024 234.052 121.656C234.052 119.287 236.666 116.998 239.359 115.577C242.052 114.235 245.378 113.603 245.378 113.603L246.487 118.261Z" fill="#001429"/>
<path d="M242.764 115.735C242.764 115.735 238.804 116.445 237.695 118.261C236.666 120.156 236.349 124.656 235.24 125.682C234.21 126.708 233.26 126.945 233.26 126.945C233.26 126.945 232.943 127.419 234.052 127.972C235.081 128.524 234.923 129.393 234.289 129.393C233.656 129.393 233.893 130.656 234.369 130.735C234.369 130.735 233.814 130.971 233.893 131.603C234.052 132.235 234.606 132.629 234.21 133.419C233.893 134.208 234.052 136.735 239.279 135.708C239.279 135.708 247.041 133.892 247.437 131.761C247.913 129.55 251.319 121.656 248.388 118.735C245.616 115.893 242.764 115.735 242.764 115.735Z" fill="#FC7575"/>
<path d="M246.566 113.524C246.566 113.524 245.14 112.498 240.309 113.84C235.477 115.182 234.289 120.472 234.289 120.472C234.289 120.472 237.299 116.919 239.279 116.919C241.259 116.919 245.774 117.63 246.487 116.919C247.2 116.209 246.566 113.524 246.566 113.524Z" fill="#001429"/>
<path d="M245.853 113.366C245.14 113.366 240.784 117.945 241.972 121.577C243.16 125.208 245.932 123.55 247.674 124.577C249.417 125.524 247.358 130.024 247.674 131.84C247.991 133.656 252.902 143.998 252.902 143.998C252.902 143.998 257.021 122.051 254.486 118.024C251.952 113.919 245.853 113.366 245.853 113.366Z" fill="#001429"/>
<path d="M247.04 124.972C247.04 124.972 248.466 121.893 249.099 122.604C249.733 123.235 250.05 127.735 247.753 128.209C245.535 128.603 247.04 124.972 247.04 124.972Z" fill="#FC7575"/>
<path d="M247.2 125.366C247.2 125.366 247.913 123.708 248.309 124.103C248.705 124.498 248.309 127.103 247.754 127.103C247.2 127.103 247.041 126.156 247.2 125.366Z" fill="#FD5E5A"/>
<path d="M237.14 127.971C237.14 128.445 238.011 128.84 239.041 128.84C240.07 128.84 240.942 128.445 240.942 127.971C240.942 127.498 240.07 127.103 239.041 127.103C238.011 127.103 237.14 127.498 237.14 127.971Z" fill="#FD5E5A"/>
<path d="M256.705 147.55C250.685 145.34 236.824 140.603 227.795 127.735C214.647 109.025 213.696 101.051 213.696 101.051C213.696 101.051 214.805 97.9721 214.805 96.2353C214.805 94.4984 215.676 92.209 214.567 92.209C213.458 92.209 213.3 94.4195 213.3 95.13C213.3 95.3668 213.142 95.5247 212.904 95.6037C212.35 95.7616 211.795 95.4458 211.637 94.8932C211.478 94.3405 211.32 93.3932 211.32 91.6564C211.32 88.1827 211.082 85.0249 210.369 85.6565C209.736 86.288 209.973 92.4458 209.973 93.709C209.973 94.9721 208.865 88.6564 208.231 86.0512C207.676 83.446 206.726 84.867 207.122 86.288C207.518 87.7091 208.706 93.9458 208.231 93.9458C207.756 93.9458 206.172 86.8407 205.063 86.8407C203.954 86.8407 204.983 88.0249 205.221 89.1301C205.538 90.2353 207.36 93.63 206.647 94.3405C206.647 94.3405 203.558 90.0775 203.399 90.788C203.32 91.1038 205.776 96.1563 207.043 98.2089C209.973 102.946 219.32 132.156 225.022 137.761C230.567 143.287 244.19 160.497 251.715 160.971C258.051 157.576 256.705 153.787 256.705 147.55Z" fill="#FC7575"/>
<path d="M247.832 128.13C247.832 128.13 244.347 129.472 247.199 136.972C250.605 146.129 255.119 147.866 250.684 152.287C246.248 156.708 251.397 176.918 267.396 172.576C267.396 172.576 258.763 171.708 260.664 166.576C262.565 161.524 269.772 166.971 269.772 161.208C269.772 155.445 266.366 158.129 265.099 151.577C263.832 145.024 267.475 148.024 266.525 141.235C265.574 134.445 254.486 117.946 254.486 117.946L247.832 128.13Z" fill="#001429"/>
<path d="M239.674 124.656C239.674 124.656 238.169 122.998 237.694 122.998C237.219 122.998 237.14 123.472 237.14 123.472L239.674 124.656Z" fill="#001429"/>
<path d="M236.269 123.551C236.269 123.551 237.773 124.261 238.328 124.893C238.962 125.524 238.882 125.761 238.882 125.761C238.882 125.761 237.377 124.577 236.823 124.34C236.348 124.103 236.269 123.551 236.269 123.551Z" fill="#001429"/>
<path d="M236.823 125.129C236.823 125.524 236.982 125.84 237.14 125.84C237.298 125.84 237.457 125.524 237.457 125.129C237.457 124.734 237.298 124.419 237.14 124.419C236.982 124.419 236.823 124.734 236.823 125.129Z" fill="#001429"/>
<path d="M327.038 203.207C327.038 203.207 330.365 206.76 332.662 209.286C334.959 211.812 338.998 215.444 340.107 216.707C341.295 217.97 342.483 225.154 341.295 225.786C340.028 226.417 336.464 222.075 333.454 220.97C330.365 219.865 323.316 219.154 323.395 218.049C323.474 216.944 320.227 213.154 320.227 211.733C320.227 210.312 325.771 203.128 327.038 203.207Z" fill="#FDB647"/>
<path d="M326.168 205.575C333.851 216.944 334.247 211.339 340.583 223.575C339.316 220.338 337.019 215.917 334.247 213.865C332.742 212.76 331.396 211.339 330.049 209.917C328.703 208.496 327.435 207.075 326.168 205.575Z" fill="#FFF7CF"/>
<path d="M329.731 214.733C330.048 214.733 330.286 214.97 330.286 215.207C330.365 216.233 330.523 218.365 330.998 220.18C330.602 220.101 330.206 220.023 329.889 219.944C329.414 217.733 329.256 215.444 329.256 215.286C329.256 214.97 329.414 214.733 329.731 214.733Z" fill="#FFF7CF"/>
<path d="M327.593 215.681C327.83 215.76 327.989 216.075 327.909 216.312C327.909 216.312 327.434 217.733 327.355 219.47C326.959 219.391 326.642 219.312 326.325 219.233C326.404 217.496 326.88 216.075 326.88 215.996C327.038 215.681 327.355 215.523 327.593 215.681Z" fill="#FFF7CF"/>
<path d="M273.1 335.442C273.1 335.442 268.268 335.284 264.862 335.126C261.457 334.968 255.991 335.205 254.328 335.126C252.665 335.047 246.645 330.863 247.041 329.521C247.516 328.258 253.061 328.732 256.071 327.389C259.08 326.047 264.546 321.547 265.258 322.337C265.971 323.126 271.04 323.521 271.912 324.547C272.862 325.574 274.05 334.574 273.1 335.442Z" fill="#FDB647"/>
<path d="M271.992 333.153C258.527 330.548 262.25 334.811 249.102 330.626C252.27 332.047 257.022 333.547 260.428 332.995C262.329 332.679 264.23 332.758 266.21 332.837C268.111 332.837 270.091 332.995 271.992 333.153Z" fill="#FFF7CF"/>
<path d="M263.04 329.127C262.882 329.363 262.486 329.363 262.327 329.127C261.615 328.416 259.951 327.074 258.367 326.127C258.684 325.89 259.001 325.732 259.318 325.495C261.219 326.679 262.961 328.258 263.04 328.337C263.199 328.574 263.199 328.969 263.04 329.127Z" fill="#FFF7CF"/>
<path d="M263.832 326.995C263.595 327.153 263.278 326.995 263.12 326.758C263.12 326.758 262.407 325.416 261.298 324.153C261.615 323.916 261.932 323.758 262.169 323.6C263.357 324.942 263.991 326.206 264.07 326.284C264.228 326.6 264.149 326.916 263.832 326.995Z" fill="#FFF7CF"/>
<path d="M109.541 25.6576C133.857 25.4997 153.659 32.7627 153.738 41.9204C153.738 46.4993 148.827 50.6045 140.907 53.6045L145.105 69.3937L130.056 56.6834C123.957 57.8676 117.145 58.5781 109.779 58.657C85.4629 58.8149 65.6615 51.5519 65.5823 42.3941C65.5031 33.3153 85.146 25.8154 109.541 25.6576Z" fill="#B0C2FE"/>
<path d="M261.854 67.262C261.854 67.262 262.646 66.3147 264.151 66.3147C265.497 66.3147 266.448 67.262 266.448 68.3673C266.448 69.6304 265.18 71.1304 261.854 72.4725C258.527 71.1304 257.26 69.6304 257.26 68.3673C257.26 67.262 258.21 66.3147 259.557 66.3147C261.062 66.3147 261.854 67.262 261.854 67.262Z" fill="#ECF2FF"/>
</svg>
