<svg width="89" height="89" viewBox="0 0 89 89" fill="none" xmlns="http://www.w3.org/2000/svg">
<rect x="24.4502" y="24.4507" width="0.978022" height="0.978022" fill="#001B3A"/>
<rect x="14.6699" y="14.6704" width="0.978022" height="0.978022" fill="#001B3A"/>
<rect x="4.88965" y="4.89014" width="0.978022" height="0.978022" fill="#001B3A"/>
<rect width="0.978022" height="0.978022" fill="#001B3A"/>
<rect x="24.4502" y="29.3406" width="0.978022" height="0.978022" fill="#001B3A"/>
<rect x="14.6699" y="19.5605" width="0.978022" height="0.978022" fill="#001B3A"/>
<rect x="4.88965" y="9.78003" width="0.978022" height="0.978022" fill="#001B3A"/>
<rect y="4.89014" width="0.978022" height="0.978022" fill="#001B3A"/>
<rect x="24.4502" y="34.2307" width="0.978022" height="0.978022" fill="#001B3A"/>
<rect x="14.6699" y="24.4507" width="0.978022" height="0.978022" fill="#001B3A"/>
<rect x="4.88965" y="14.6704" width="0.978022" height="0.978022" fill="#001B3A"/>
<rect y="9.78003" width="0.978022" height="0.978022" fill="#001B3A"/>
<rect x="24.4502" y="39.1208" width="0.978022" height="0.978022" fill="#001B3A"/>
<rect x="14.6699" y="29.3406" width="0.978022" height="0.978022" fill="#001B3A"/>
<rect x="4.88965" y="19.5605" width="0.978022" height="0.978022" fill="#001B3A"/>
<rect y="14.6704" width="0.978022" height="0.978022" fill="#001B3A"/>
<rect x="24.4502" y="44.011" width="0.978022" height="0.978022" fill="#001B3A"/>
<rect x="14.6699" y="34.2307" width="0.978022" height="0.978022" fill="#001B3A"/>
<rect x="4.88965" y="24.4507" width="0.978022" height="0.978022" fill="#001B3A"/>
<rect y="19.5605" width="0.978022" height="0.978022" fill="#001B3A"/>
<rect x="24.4502" y="48.9011" width="0.978022" height="0.978022" fill="#001B3A"/>
<rect x="14.6699" y="39.1208" width="0.978022" height="0.978022" fill="#001B3A"/>
<rect x="4.88965" y="29.3406" width="0.978022" height="0.978022" fill="#001B3A"/>
<rect y="24.4507" width="0.978022" height="0.978022" fill="#001B3A"/>
<rect x="24.4502" y="53.7913" width="0.978022" height="0.978022" fill="#001B3A"/>
<rect x="14.6699" y="44.011" width="0.978022" height="0.978022" fill="#001B3A"/>
<rect x="4.88965" y="34.2307" width="0.978022" height="0.978022" fill="#001B3A"/>
<rect y="29.3406" width="0.978022" height="0.978022" fill="#001B3A"/>
<rect x="24.4502" y="58.6814" width="0.978022" height="0.978022" fill="#001B3A"/>
<rect x="14.6699" y="48.9011" width="0.978022" height="0.978022" fill="#001B3A"/>
<rect x="4.88965" y="39.1208" width="0.978022" height="0.978022" fill="#001B3A"/>
<rect y="34.2307" width="0.978022" height="0.978022" fill="#001B3A"/>
<rect x="24.4502" y="63.5713" width="0.978022" height="0.978022" fill="#001B3A"/>
<rect x="14.6699" y="53.7913" width="0.978022" height="0.978022" fill="#001B3A"/>
<rect x="4.88965" y="44.011" width="0.978022" height="0.978022" fill="#001B3A"/>
<rect y="39.1208" width="0.978022" height="0.978022" fill="#001B3A"/>
<rect x="24.4502" y="68.4614" width="0.978022" height="0.978022" fill="#001B3A"/>
<rect x="14.6699" y="58.6814" width="0.978022" height="0.978022" fill="#001B3A"/>
<rect x="4.88965" y="48.9011" width="0.978022" height="0.978022" fill="#001B3A"/>
<rect y="44.011" width="0.978022" height="0.978022" fill="#001B3A"/>
<rect x="24.4502" y="73.3516" width="0.978022" height="0.978022" fill="#001B3A"/>
<rect x="14.6699" y="63.5713" width="0.978022" height="0.978022" fill="#001B3A"/>
<rect x="4.88965" y="53.7913" width="0.978022" height="0.978022" fill="#001B3A"/>
<rect y="48.9011" width="0.978022" height="0.978022" fill="#001B3A"/>
<rect x="24.4502" y="78.2417" width="0.978022" height="0.978022" fill="#001B3A"/>
<rect x="14.6699" y="68.4614" width="0.978022" height="0.978022" fill="#001B3A"/>
<rect x="4.88965" y="58.6814" width="0.978022" height="0.978022" fill="#001B3A"/>
<rect y="53.7913" width="0.978022" height="0.978022" fill="#001B3A"/>
<rect x="24.4502" y="83.1318" width="0.978022" height="0.978022" fill="#001B3A"/>
<rect x="14.6699" y="73.3516" width="0.978022" height="0.978022" fill="#001B3A"/>
<rect x="4.88965" y="63.5713" width="0.978022" height="0.978022" fill="#001B3A"/>
<rect y="58.6814" width="0.978022" height="0.978022" fill="#001B3A"/>
<rect x="24.4502" y="88.022" width="0.978022" height="0.978022" fill="#001B3A"/>
<rect x="14.6699" y="78.2417" width="0.978022" height="0.978022" fill="#001B3A"/>
<rect x="4.88965" y="68.4614" width="0.978022" height="0.978022" fill="#001B3A"/>
<rect y="63.5713" width="0.978022" height="0.978022" fill="#001B3A"/>
<rect x="29.3408" y="24.4507" width="0.978022" height="0.978022" fill="#001B3A"/>
<rect x="19.5605" y="14.6704" width="0.978022" height="0.978022" fill="#001B3A"/>
<rect x="9.78027" y="4.89014" width="0.978022" height="0.978022" fill="#001B3A"/>
<rect x="4.88965" width="0.978022" height="0.978022" fill="#001B3A"/>
<rect x="29.3408" y="29.3406" width="0.978022" height="0.978022" fill="#001B3A"/>
<rect x="19.5605" y="19.5605" width="0.978022" height="0.978022" fill="#001B3A"/>
<rect x="9.78027" y="9.78003" width="0.978022" height="0.978022" fill="#001B3A"/>
<rect x="4.88965" y="4.89014" width="0.978022" height="0.978022" fill="#001B3A"/>
<rect x="29.3408" y="34.2307" width="0.978022" height="0.978022" fill="#001B3A"/>
<rect x="19.5605" y="24.4507" width="0.978022" height="0.978022" fill="#001B3A"/>
<rect x="9.78027" y="14.6704" width="0.978022" height="0.978022" fill="#001B3A"/>
<rect x="4.88965" y="9.78003" width="0.978022" height="0.978022" fill="#001B3A"/>
<rect x="29.3408" y="39.1208" width="0.978022" height="0.978022" fill="#001B3A"/>
<rect x="19.5605" y="29.3406" width="0.978022" height="0.978022" fill="#001B3A"/>
<rect x="9.78027" y="19.5605" width="0.978022" height="0.978022" fill="#001B3A"/>
<rect x="4.88965" y="14.6704" width="0.978022" height="0.978022" fill="#001B3A"/>
<rect x="29.3408" y="44.011" width="0.978022" height="0.978022" fill="#001B3A"/>
<rect x="19.5605" y="34.2307" width="0.978022" height="0.978022" fill="#001B3A"/>
<rect x="9.78027" y="24.4507" width="0.978022" height="0.978022" fill="#001B3A"/>
<rect x="4.88965" y="19.5605" width="0.978022" height="0.978022" fill="#001B3A"/>
<rect x="29.3408" y="48.9011" width="0.978022" height="0.978022" fill="#001B3A"/>
<rect x="19.5605" y="39.1208" width="0.978022" height="0.978022" fill="#001B3A"/>
<rect x="9.78027" y="29.3406" width="0.978022" height="0.978022" fill="#001B3A"/>
<rect x="4.88965" y="24.4507" width="0.978022" height="0.978022" fill="#001B3A"/>
<rect x="29.3408" y="53.7913" width="0.978022" height="0.978022" fill="#001B3A"/>
<rect x="19.5605" y="44.011" width="0.978022" height="0.978022" fill="#001B3A"/>
<rect x="9.78027" y="34.2307" width="0.978022" height="0.978022" fill="#001B3A"/>
<rect x="4.88965" y="29.3406" width="0.978022" height="0.978022" fill="#001B3A"/>
<rect x="29.3408" y="58.6814" width="0.978022" height="0.978022" fill="#001B3A"/>
<rect x="19.5605" y="48.9011" width="0.978022" height="0.978022" fill="#001B3A"/>
<rect x="9.78027" y="39.1208" width="0.978022" height="0.978022" fill="#001B3A"/>
<rect x="4.88965" y="34.2307" width="0.978022" height="0.978022" fill="#001B3A"/>
<rect x="29.3408" y="63.5713" width="0.978022" height="0.978022" fill="#001B3A"/>
<rect x="19.5605" y="53.7913" width="0.978022" height="0.978022" fill="#001B3A"/>
<rect x="9.78027" y="44.011" width="0.978022" height="0.978022" fill="#001B3A"/>
<rect x="4.88965" y="39.1208" width="0.978022" height="0.978022" fill="#001B3A"/>
<rect x="29.3408" y="68.4614" width="0.978022" height="0.978022" fill="#001B3A"/>
<rect x="19.5605" y="58.6814" width="0.978022" height="0.978022" fill="#001B3A"/>
<rect x="9.78027" y="48.9011" width="0.978022" height="0.978022" fill="#001B3A"/>
<rect x="4.88965" y="44.011" width="0.978022" height="0.978022" fill="#001B3A"/>
<rect x="29.3408" y="73.3516" width="0.978022" height="0.978022" fill="#001B3A"/>
<rect x="19.5605" y="63.5713" width="0.978022" height="0.978022" fill="#001B3A"/>
<rect x="9.78027" y="53.7913" width="0.978022" height="0.978022" fill="#001B3A"/>
<rect x="4.88965" y="48.9011" width="0.978022" height="0.978022" fill="#001B3A"/>
<rect x="29.3408" y="78.2417" width="0.978022" height="0.978022" fill="#001B3A"/>
<rect x="19.5605" y="68.4614" width="0.978022" height="0.978022" fill="#001B3A"/>
<rect x="9.78027" y="58.6814" width="0.978022" height="0.978022" fill="#001B3A"/>
<rect x="4.88965" y="53.7913" width="0.978022" height="0.978022" fill="#001B3A"/>
<rect x="29.3408" y="83.1318" width="0.978022" height="0.978022" fill="#001B3A"/>
<rect x="19.5605" y="73.3516" width="0.978022" height="0.978022" fill="#001B3A"/>
<rect x="9.78027" y="63.5713" width="0.978022" height="0.978022" fill="#001B3A"/>
<rect x="4.88965" y="58.6814" width="0.978022" height="0.978022" fill="#001B3A"/>
<rect x="29.3408" y="88.022" width="0.978022" height="0.978022" fill="#001B3A"/>
<rect x="19.5605" y="78.2417" width="0.978022" height="0.978022" fill="#001B3A"/>
<rect x="9.78027" y="68.4614" width="0.978022" height="0.978022" fill="#001B3A"/>
<rect x="4.88965" y="63.5713" width="0.978022" height="0.978022" fill="#001B3A"/>
<rect x="34.2305" y="24.4507" width="0.978022" height="0.978022" fill="#001B3A"/>
<rect x="24.4502" y="14.6704" width="0.978022" height="0.978022" fill="#001B3A"/>
<rect x="14.6699" y="4.89014" width="0.978022" height="0.978022" fill="#001B3A"/>
<rect x="9.78027" width="0.978022" height="0.978022" fill="#001B3A"/>
<rect x="34.2305" y="29.3406" width="0.978022" height="0.978022" fill="#001B3A"/>
<rect x="24.4502" y="19.5605" width="0.978022" height="0.978022" fill="#001B3A"/>
<rect x="14.6699" y="9.78003" width="0.978022" height="0.978022" fill="#001B3A"/>
<rect x="9.78027" y="4.89014" width="0.978022" height="0.978022" fill="#001B3A"/>
<rect x="34.2305" y="34.2307" width="0.978022" height="0.978022" fill="#001B3A"/>
<rect x="24.4502" y="24.4507" width="0.978022" height="0.978022" fill="#001B3A"/>
<rect x="14.6699" y="14.6704" width="0.978022" height="0.978022" fill="#001B3A"/>
<rect x="9.78027" y="9.78003" width="0.978022" height="0.978022" fill="#001B3A"/>
<rect x="34.2305" y="39.1208" width="0.978022" height="0.978022" fill="#001B3A"/>
<rect x="24.4502" y="29.3406" width="0.978022" height="0.978022" fill="#001B3A"/>
<rect x="14.6699" y="19.5605" width="0.978022" height="0.978022" fill="#001B3A"/>
<rect x="9.78027" y="14.6704" width="0.978022" height="0.978022" fill="#001B3A"/>
<rect x="34.2305" y="44.011" width="0.978022" height="0.978022" fill="#001B3A"/>
<rect x="24.4502" y="34.2307" width="0.978022" height="0.978022" fill="#001B3A"/>
<rect x="14.6699" y="24.4507" width="0.978022" height="0.978022" fill="#001B3A"/>
<rect x="9.78027" y="19.5605" width="0.978022" height="0.978022" fill="#001B3A"/>
<rect x="34.2305" y="48.9011" width="0.978022" height="0.978022" fill="#001B3A"/>
<rect x="24.4502" y="39.1208" width="0.978022" height="0.978022" fill="#001B3A"/>
<rect x="14.6699" y="29.3406" width="0.978022" height="0.978022" fill="#001B3A"/>
<rect x="9.78027" y="24.4507" width="0.978022" height="0.978022" fill="#001B3A"/>
<rect x="34.2305" y="53.7913" width="0.978022" height="0.978022" fill="#001B3A"/>
<rect x="24.4502" y="44.011" width="0.978022" height="0.978022" fill="#001B3A"/>
<rect x="14.6699" y="34.2307" width="0.978022" height="0.978022" fill="#001B3A"/>
<rect x="9.78027" y="29.3406" width="0.978022" height="0.978022" fill="#001B3A"/>
<rect x="34.2305" y="58.6814" width="0.978022" height="0.978022" fill="#001B3A"/>
<rect x="24.4502" y="48.9011" width="0.978022" height="0.978022" fill="#001B3A"/>
<rect x="14.6699" y="39.1208" width="0.978022" height="0.978022" fill="#001B3A"/>
<rect x="9.78027" y="34.2307" width="0.978022" height="0.978022" fill="#001B3A"/>
<rect x="34.2305" y="63.5713" width="0.978022" height="0.978022" fill="#001B3A"/>
<rect x="24.4502" y="53.7913" width="0.978022" height="0.978022" fill="#001B3A"/>
<rect x="14.6699" y="44.011" width="0.978022" height="0.978022" fill="#001B3A"/>
<rect x="9.78027" y="39.1208" width="0.978022" height="0.978022" fill="#001B3A"/>
<rect x="34.2305" y="68.4614" width="0.978022" height="0.978022" fill="#001B3A"/>
<rect x="24.4502" y="58.6814" width="0.978022" height="0.978022" fill="#001B3A"/>
<rect x="14.6699" y="48.9011" width="0.978022" height="0.978022" fill="#001B3A"/>
<rect x="9.78027" y="44.011" width="0.978022" height="0.978022" fill="#001B3A"/>
<rect x="34.2305" y="73.3516" width="0.978022" height="0.978022" fill="#001B3A"/>
<rect x="24.4502" y="63.5713" width="0.978022" height="0.978022" fill="#001B3A"/>
<rect x="14.6699" y="53.7913" width="0.978022" height="0.978022" fill="#001B3A"/>
<rect x="9.78027" y="48.9011" width="0.978022" height="0.978022" fill="#001B3A"/>
<rect x="34.2305" y="78.2417" width="0.978022" height="0.978022" fill="#001B3A"/>
<rect x="24.4502" y="68.4614" width="0.978022" height="0.978022" fill="#001B3A"/>
<rect x="14.6699" y="58.6814" width="0.978022" height="0.978022" fill="#001B3A"/>
<rect x="9.78027" y="53.7913" width="0.978022" height="0.978022" fill="#001B3A"/>
<rect x="34.2305" y="83.1318" width="0.978022" height="0.978022" fill="#001B3A"/>
<rect x="24.4502" y="73.3516" width="0.978022" height="0.978022" fill="#001B3A"/>
<rect x="14.6699" y="63.5713" width="0.978022" height="0.978022" fill="#001B3A"/>
<rect x="9.78027" y="58.6814" width="0.978022" height="0.978022" fill="#001B3A"/>
<rect x="34.2305" y="88.022" width="0.978022" height="0.978022" fill="#001B3A"/>
<rect x="24.4502" y="78.2417" width="0.978022" height="0.978022" fill="#001B3A"/>
<rect x="14.6699" y="68.4614" width="0.978022" height="0.978022" fill="#001B3A"/>
<rect x="9.78027" y="63.5713" width="0.978022" height="0.978022" fill="#001B3A"/>
<rect x="39.1211" y="24.4507" width="0.978022" height="0.978022" fill="#001B3A"/>
<rect x="29.3408" y="14.6704" width="0.978022" height="0.978022" fill="#001B3A"/>
<rect x="19.5605" y="4.89014" width="0.978022" height="0.978022" fill="#001B3A"/>
<rect x="14.6699" width="0.978022" height="0.978022" fill="#001B3A"/>
<rect x="39.1211" y="29.3406" width="0.978022" height="0.978022" fill="#001B3A"/>
<rect x="29.3408" y="19.5605" width="0.978022" height="0.978022" fill="#001B3A"/>
<rect x="19.5605" y="9.78003" width="0.978022" height="0.978022" fill="#001B3A"/>
<rect x="14.6699" y="4.89014" width="0.978022" height="0.978022" fill="#001B3A"/>
<rect x="39.1211" y="34.2307" width="0.978022" height="0.978022" fill="#001B3A"/>
<rect x="29.3408" y="24.4507" width="0.978022" height="0.978022" fill="#001B3A"/>
<rect x="19.5605" y="14.6704" width="0.978022" height="0.978022" fill="#001B3A"/>
<rect x="14.6699" y="9.78003" width="0.978022" height="0.978022" fill="#001B3A"/>
<rect x="39.1211" y="39.1208" width="0.978022" height="0.978022" fill="#001B3A"/>
<rect x="29.3408" y="29.3406" width="0.978022" height="0.978022" fill="#001B3A"/>
<rect x="19.5605" y="19.5605" width="0.978022" height="0.978022" fill="#001B3A"/>
<rect x="14.6699" y="14.6704" width="0.978022" height="0.978022" fill="#001B3A"/>
<rect x="39.1211" y="44.011" width="0.978022" height="0.978022" fill="#001B3A"/>
<rect x="29.3408" y="34.2307" width="0.978022" height="0.978022" fill="#001B3A"/>
<rect x="19.5605" y="24.4507" width="0.978022" height="0.978022" fill="#001B3A"/>
<rect x="14.6699" y="19.5605" width="0.978022" height="0.978022" fill="#001B3A"/>
<rect x="39.1211" y="48.9011" width="0.978022" height="0.978022" fill="#001B3A"/>
<rect x="29.3408" y="39.1208" width="0.978022" height="0.978022" fill="#001B3A"/>
<rect x="19.5605" y="29.3406" width="0.978022" height="0.978022" fill="#001B3A"/>
<rect x="14.6699" y="24.4507" width="0.978022" height="0.978022" fill="#001B3A"/>
<rect x="39.1211" y="53.7913" width="0.978022" height="0.978022" fill="#001B3A"/>
<rect x="29.3408" y="44.011" width="0.978022" height="0.978022" fill="#001B3A"/>
<rect x="19.5605" y="34.2307" width="0.978022" height="0.978022" fill="#001B3A"/>
<rect x="14.6699" y="29.3406" width="0.978022" height="0.978022" fill="#001B3A"/>
<rect x="39.1211" y="58.6814" width="0.978022" height="0.978022" fill="#001B3A"/>
<rect x="29.3408" y="48.9011" width="0.978022" height="0.978022" fill="#001B3A"/>
<rect x="19.5605" y="39.1208" width="0.978022" height="0.978022" fill="#001B3A"/>
<rect x="14.6699" y="34.2307" width="0.978022" height="0.978022" fill="#001B3A"/>
<rect x="39.1211" y="63.5713" width="0.978022" height="0.978022" fill="#001B3A"/>
<rect x="29.3408" y="53.7913" width="0.978022" height="0.978022" fill="#001B3A"/>
<rect x="19.5605" y="44.011" width="0.978022" height="0.978022" fill="#001B3A"/>
<rect x="14.6699" y="39.1208" width="0.978022" height="0.978022" fill="#001B3A"/>
<rect x="39.1211" y="68.4614" width="0.978022" height="0.978022" fill="#001B3A"/>
<rect x="29.3408" y="58.6814" width="0.978022" height="0.978022" fill="#001B3A"/>
<rect x="19.5605" y="48.9011" width="0.978022" height="0.978022" fill="#001B3A"/>
<rect x="14.6699" y="44.011" width="0.978022" height="0.978022" fill="#001B3A"/>
<rect x="39.1211" y="73.3516" width="0.978022" height="0.978022" fill="#001B3A"/>
<rect x="29.3408" y="63.5713" width="0.978022" height="0.978022" fill="#001B3A"/>
<rect x="19.5605" y="53.7913" width="0.978022" height="0.978022" fill="#001B3A"/>
<rect x="14.6699" y="48.9011" width="0.978022" height="0.978022" fill="#001B3A"/>
<rect x="39.1211" y="78.2417" width="0.978022" height="0.978022" fill="#001B3A"/>
<rect x="29.3408" y="68.4614" width="0.978022" height="0.978022" fill="#001B3A"/>
<rect x="19.5605" y="58.6814" width="0.978022" height="0.978022" fill="#001B3A"/>
<rect x="14.6699" y="53.7913" width="0.978022" height="0.978022" fill="#001B3A"/>
<rect x="39.1211" y="83.1318" width="0.978022" height="0.978022" fill="#001B3A"/>
<rect x="29.3408" y="73.3516" width="0.978022" height="0.978022" fill="#001B3A"/>
<rect x="19.5605" y="63.5713" width="0.978022" height="0.978022" fill="#001B3A"/>
<rect x="14.6699" y="58.6814" width="0.978022" height="0.978022" fill="#001B3A"/>
<rect x="39.1211" y="88.022" width="0.978022" height="0.978022" fill="#001B3A"/>
<rect x="29.3408" y="78.2417" width="0.978022" height="0.978022" fill="#001B3A"/>
<rect x="19.5605" y="68.4614" width="0.978022" height="0.978022" fill="#001B3A"/>
<rect x="14.6699" y="63.5713" width="0.978022" height="0.978022" fill="#001B3A"/>
<rect x="44.0107" y="24.4507" width="0.978022" height="0.978022" fill="#001B3A"/>
<rect x="34.2305" y="14.6704" width="0.978022" height="0.978022" fill="#001B3A"/>
<rect x="24.4502" y="4.89014" width="0.978022" height="0.978022" fill="#001B3A"/>
<rect x="19.5605" width="0.978022" height="0.978022" fill="#001B3A"/>
<rect x="44.0107" y="29.3406" width="0.978022" height="0.978022" fill="#001B3A"/>
<rect x="34.2305" y="19.5605" width="0.978022" height="0.978022" fill="#001B3A"/>
<rect x="24.4502" y="9.78003" width="0.978022" height="0.978022" fill="#001B3A"/>
<rect x="19.5605" y="4.89014" width="0.978022" height="0.978022" fill="#001B3A"/>
<rect x="44.0107" y="34.2307" width="0.978022" height="0.978022" fill="#001B3A"/>
<rect x="34.2305" y="24.4507" width="0.978022" height="0.978022" fill="#001B3A"/>
<rect x="24.4502" y="14.6704" width="0.978022" height="0.978022" fill="#001B3A"/>
<rect x="19.5605" y="9.78003" width="0.978022" height="0.978022" fill="#001B3A"/>
<rect x="44.0107" y="39.1208" width="0.978022" height="0.978022" fill="#001B3A"/>
<rect x="34.2305" y="29.3406" width="0.978022" height="0.978022" fill="#001B3A"/>
<rect x="24.4502" y="19.5605" width="0.978022" height="0.978022" fill="#001B3A"/>
<rect x="19.5605" y="14.6704" width="0.978022" height="0.978022" fill="#001B3A"/>
<rect x="44.0107" y="44.011" width="0.978022" height="0.978022" fill="#001B3A"/>
<rect x="34.2305" y="34.2307" width="0.978022" height="0.978022" fill="#001B3A"/>
<rect x="24.4502" y="24.4507" width="0.978022" height="0.978022" fill="#001B3A"/>
<rect x="19.5605" y="19.5605" width="0.978022" height="0.978022" fill="#001B3A"/>
<rect x="44.0107" y="48.9011" width="0.978022" height="0.978022" fill="#001B3A"/>
<rect x="34.2305" y="39.1208" width="0.978022" height="0.978022" fill="#001B3A"/>
<rect x="24.4502" y="29.3406" width="0.978022" height="0.978022" fill="#001B3A"/>
<rect x="19.5605" y="24.4507" width="0.978022" height="0.978022" fill="#001B3A"/>
<rect x="44.0107" y="53.7913" width="0.978022" height="0.978022" fill="#001B3A"/>
<rect x="34.2305" y="44.011" width="0.978022" height="0.978022" fill="#001B3A"/>
<rect x="24.4502" y="34.2307" width="0.978022" height="0.978022" fill="#001B3A"/>
<rect x="19.5605" y="29.3406" width="0.978022" height="0.978022" fill="#001B3A"/>
<rect x="44.0107" y="58.6814" width="0.978022" height="0.978022" fill="#001B3A"/>
<rect x="34.2305" y="48.9011" width="0.978022" height="0.978022" fill="#001B3A"/>
<rect x="24.4502" y="39.1208" width="0.978022" height="0.978022" fill="#001B3A"/>
<rect x="19.5605" y="34.2307" width="0.978022" height="0.978022" fill="#001B3A"/>
<rect x="44.0107" y="63.5713" width="0.978022" height="0.978022" fill="#001B3A"/>
<rect x="34.2305" y="53.7913" width="0.978022" height="0.978022" fill="#001B3A"/>
<rect x="24.4502" y="44.011" width="0.978022" height="0.978022" fill="#001B3A"/>
<rect x="19.5605" y="39.1208" width="0.978022" height="0.978022" fill="#001B3A"/>
<rect x="44.0107" y="68.4614" width="0.978022" height="0.978022" fill="#001B3A"/>
<rect x="34.2305" y="58.6814" width="0.978022" height="0.978022" fill="#001B3A"/>
<rect x="24.4502" y="48.9011" width="0.978022" height="0.978022" fill="#001B3A"/>
<rect x="19.5605" y="44.011" width="0.978022" height="0.978022" fill="#001B3A"/>
<rect x="44.0107" y="73.3516" width="0.978022" height="0.978022" fill="#001B3A"/>
<rect x="34.2305" y="63.5713" width="0.978022" height="0.978022" fill="#001B3A"/>
<rect x="24.4502" y="53.7913" width="0.978022" height="0.978022" fill="#001B3A"/>
<rect x="19.5605" y="48.9011" width="0.978022" height="0.978022" fill="#001B3A"/>
<rect x="44.0107" y="78.2417" width="0.978022" height="0.978022" fill="#001B3A"/>
<rect x="34.2305" y="68.4614" width="0.978022" height="0.978022" fill="#001B3A"/>
<rect x="24.4502" y="58.6814" width="0.978022" height="0.978022" fill="#001B3A"/>
<rect x="19.5605" y="53.7913" width="0.978022" height="0.978022" fill="#001B3A"/>
<rect x="44.0107" y="83.1318" width="0.978022" height="0.978022" fill="#001B3A"/>
<rect x="34.2305" y="73.3516" width="0.978022" height="0.978022" fill="#001B3A"/>
<rect x="24.4502" y="63.5713" width="0.978022" height="0.978022" fill="#001B3A"/>
<rect x="19.5605" y="58.6814" width="0.978022" height="0.978022" fill="#001B3A"/>
<rect x="44.0107" y="88.022" width="0.978022" height="0.978022" fill="#001B3A"/>
<rect x="34.2305" y="78.2417" width="0.978022" height="0.978022" fill="#001B3A"/>
<rect x="24.4502" y="68.4614" width="0.978022" height="0.978022" fill="#001B3A"/>
<rect x="19.5605" y="63.5713" width="0.978022" height="0.978022" fill="#001B3A"/>
<rect x="48.9014" y="24.4507" width="0.978022" height="0.978022" fill="#001B3A"/>
<rect x="39.1211" y="14.6704" width="0.978022" height="0.978022" fill="#001B3A"/>
<rect x="29.3408" y="4.89014" width="0.978022" height="0.978022" fill="#001B3A"/>
<rect x="24.4502" width="0.978022" height="0.978022" fill="#001B3A"/>
<rect x="48.9014" y="29.3406" width="0.978022" height="0.978022" fill="#001B3A"/>
<rect x="39.1211" y="19.5605" width="0.978022" height="0.978022" fill="#001B3A"/>
<rect x="29.3408" y="9.78003" width="0.978022" height="0.978022" fill="#001B3A"/>
<rect x="24.4502" y="4.89014" width="0.978022" height="0.978022" fill="#001B3A"/>
<rect x="48.9014" y="34.2307" width="0.978022" height="0.978022" fill="#001B3A"/>
<rect x="39.1211" y="24.4507" width="0.978022" height="0.978022" fill="#001B3A"/>
<rect x="29.3408" y="14.6704" width="0.978022" height="0.978022" fill="#001B3A"/>
<rect x="24.4502" y="9.78003" width="0.978022" height="0.978022" fill="#001B3A"/>
<rect x="48.9014" y="39.1208" width="0.978022" height="0.978022" fill="#001B3A"/>
<rect x="39.1211" y="29.3406" width="0.978022" height="0.978022" fill="#001B3A"/>
<rect x="29.3408" y="19.5605" width="0.978022" height="0.978022" fill="#001B3A"/>
<rect x="24.4502" y="14.6704" width="0.978022" height="0.978022" fill="#001B3A"/>
<rect x="48.9014" y="44.011" width="0.978022" height="0.978022" fill="#001B3A"/>
<rect x="39.1211" y="34.2307" width="0.978022" height="0.978022" fill="#001B3A"/>
<rect x="29.3408" y="24.4507" width="0.978022" height="0.978022" fill="#001B3A"/>
<rect x="24.4502" y="19.5605" width="0.978022" height="0.978022" fill="#001B3A"/>
<rect x="48.9014" y="48.9011" width="0.978022" height="0.978022" fill="#001B3A"/>
<rect x="39.1211" y="39.1208" width="0.978022" height="0.978022" fill="#001B3A"/>
<rect x="29.3408" y="29.3406" width="0.978022" height="0.978022" fill="#001B3A"/>
<rect x="24.4502" y="24.4507" width="0.978022" height="0.978022" fill="#001B3A"/>
<rect x="48.9014" y="53.7913" width="0.978022" height="0.978022" fill="#001B3A"/>
<rect x="39.1211" y="44.011" width="0.978022" height="0.978022" fill="#001B3A"/>
<rect x="29.3408" y="34.2307" width="0.978022" height="0.978022" fill="#001B3A"/>
<rect x="24.4502" y="29.3406" width="0.978022" height="0.978022" fill="#001B3A"/>
<rect x="48.9014" y="58.6814" width="0.978022" height="0.978022" fill="#001B3A"/>
<rect x="39.1211" y="48.9011" width="0.978022" height="0.978022" fill="#001B3A"/>
<rect x="29.3408" y="39.1208" width="0.978022" height="0.978022" fill="#001B3A"/>
<rect x="24.4502" y="34.2307" width="0.978022" height="0.978022" fill="#001B3A"/>
<rect x="48.9014" y="63.5713" width="0.978022" height="0.978022" fill="#001B3A"/>
<rect x="39.1211" y="53.7913" width="0.978022" height="0.978022" fill="#001B3A"/>
<rect x="29.3408" y="44.011" width="0.978022" height="0.978022" fill="#001B3A"/>
<rect x="24.4502" y="39.1208" width="0.978022" height="0.978022" fill="#001B3A"/>
<rect x="48.9014" y="68.4614" width="0.978022" height="0.978022" fill="#001B3A"/>
<rect x="39.1211" y="58.6814" width="0.978022" height="0.978022" fill="#001B3A"/>
<rect x="29.3408" y="48.9011" width="0.978022" height="0.978022" fill="#001B3A"/>
<rect x="24.4502" y="44.011" width="0.978022" height="0.978022" fill="#001B3A"/>
<rect x="48.9014" y="73.3516" width="0.978022" height="0.978022" fill="#001B3A"/>
<rect x="39.1211" y="63.5713" width="0.978022" height="0.978022" fill="#001B3A"/>
<rect x="29.3408" y="53.7913" width="0.978022" height="0.978022" fill="#001B3A"/>
<rect x="24.4502" y="48.9011" width="0.978022" height="0.978022" fill="#001B3A"/>
<rect x="48.9014" y="78.2417" width="0.978022" height="0.978022" fill="#001B3A"/>
<rect x="39.1211" y="68.4614" width="0.978022" height="0.978022" fill="#001B3A"/>
<rect x="29.3408" y="58.6814" width="0.978022" height="0.978022" fill="#001B3A"/>
<rect x="24.4502" y="53.7913" width="0.978022" height="0.978022" fill="#001B3A"/>
<rect x="48.9014" y="83.1318" width="0.978022" height="0.978022" fill="#001B3A"/>
<rect x="39.1211" y="73.3516" width="0.978022" height="0.978022" fill="#001B3A"/>
<rect x="29.3408" y="63.5713" width="0.978022" height="0.978022" fill="#001B3A"/>
<rect x="24.4502" y="58.6814" width="0.978022" height="0.978022" fill="#001B3A"/>
<rect x="48.9014" y="88.022" width="0.978022" height="0.978022" fill="#001B3A"/>
<rect x="39.1211" y="78.2417" width="0.978022" height="0.978022" fill="#001B3A"/>
<rect x="29.3408" y="68.4614" width="0.978022" height="0.978022" fill="#001B3A"/>
<rect x="24.4502" y="63.5713" width="0.978022" height="0.978022" fill="#001B3A"/>
<rect x="53.791" y="24.4507" width="0.978022" height="0.978022" fill="#001B3A"/>
<rect x="44.0107" y="14.6704" width="0.978022" height="0.978022" fill="#001B3A"/>
<rect x="34.2305" y="4.89014" width="0.978022" height="0.978022" fill="#001B3A"/>
<rect x="29.3408" width="0.978022" height="0.978022" fill="#001B3A"/>
<rect x="53.791" y="29.3406" width="0.978022" height="0.978022" fill="#001B3A"/>
<rect x="44.0107" y="19.5605" width="0.978022" height="0.978022" fill="#001B3A"/>
<rect x="34.2305" y="9.78003" width="0.978022" height="0.978022" fill="#001B3A"/>
<rect x="29.3408" y="4.89014" width="0.978022" height="0.978022" fill="#001B3A"/>
<rect x="53.791" y="34.2307" width="0.978022" height="0.978022" fill="#001B3A"/>
<rect x="44.0107" y="24.4507" width="0.978022" height="0.978022" fill="#001B3A"/>
<rect x="34.2305" y="14.6704" width="0.978022" height="0.978022" fill="#001B3A"/>
<rect x="29.3408" y="9.78003" width="0.978022" height="0.978022" fill="#001B3A"/>
<rect x="53.791" y="39.1208" width="0.978022" height="0.978022" fill="#001B3A"/>
<rect x="44.0107" y="29.3406" width="0.978022" height="0.978022" fill="#001B3A"/>
<rect x="34.2305" y="19.5605" width="0.978022" height="0.978022" fill="#001B3A"/>
<rect x="29.3408" y="14.6704" width="0.978022" height="0.978022" fill="#001B3A"/>
<rect x="53.791" y="44.011" width="0.978022" height="0.978022" fill="#001B3A"/>
<rect x="44.0107" y="34.2307" width="0.978022" height="0.978022" fill="#001B3A"/>
<rect x="34.2305" y="24.4507" width="0.978022" height="0.978022" fill="#001B3A"/>
<rect x="29.3408" y="19.5605" width="0.978022" height="0.978022" fill="#001B3A"/>
<rect x="53.791" y="48.9011" width="0.978022" height="0.978022" fill="#001B3A"/>
<rect x="44.0107" y="39.1208" width="0.978022" height="0.978022" fill="#001B3A"/>
<rect x="34.2305" y="29.3406" width="0.978022" height="0.978022" fill="#001B3A"/>
<rect x="29.3408" y="24.4507" width="0.978022" height="0.978022" fill="#001B3A"/>
<rect x="53.791" y="53.7913" width="0.978022" height="0.978022" fill="#001B3A"/>
<rect x="44.0107" y="44.011" width="0.978022" height="0.978022" fill="#001B3A"/>
<rect x="34.2305" y="34.2307" width="0.978022" height="0.978022" fill="#001B3A"/>
<rect x="29.3408" y="29.3406" width="0.978022" height="0.978022" fill="#001B3A"/>
<rect x="53.791" y="58.6814" width="0.978022" height="0.978022" fill="#001B3A"/>
<rect x="44.0107" y="48.9011" width="0.978022" height="0.978022" fill="#001B3A"/>
<rect x="34.2305" y="39.1208" width="0.978022" height="0.978022" fill="#001B3A"/>
<rect x="29.3408" y="34.2307" width="0.978022" height="0.978022" fill="#001B3A"/>
<rect x="53.791" y="63.5713" width="0.978022" height="0.978022" fill="#001B3A"/>
<rect x="44.0107" y="53.7913" width="0.978022" height="0.978022" fill="#001B3A"/>
<rect x="34.2305" y="44.011" width="0.978022" height="0.978022" fill="#001B3A"/>
<rect x="29.3408" y="39.1208" width="0.978022" height="0.978022" fill="#001B3A"/>
<rect x="53.791" y="68.4614" width="0.978022" height="0.978022" fill="#001B3A"/>
<rect x="44.0107" y="58.6814" width="0.978022" height="0.978022" fill="#001B3A"/>
<rect x="34.2305" y="48.9011" width="0.978022" height="0.978022" fill="#001B3A"/>
<rect x="29.3408" y="44.011" width="0.978022" height="0.978022" fill="#001B3A"/>
<rect x="53.791" y="73.3516" width="0.978022" height="0.978022" fill="#001B3A"/>
<rect x="44.0107" y="63.5713" width="0.978022" height="0.978022" fill="#001B3A"/>
<rect x="34.2305" y="53.7913" width="0.978022" height="0.978022" fill="#001B3A"/>
<rect x="29.3408" y="48.9011" width="0.978022" height="0.978022" fill="#001B3A"/>
<rect x="53.791" y="78.2417" width="0.978022" height="0.978022" fill="#001B3A"/>
<rect x="44.0107" y="68.4614" width="0.978022" height="0.978022" fill="#001B3A"/>
<rect x="34.2305" y="58.6814" width="0.978022" height="0.978022" fill="#001B3A"/>
<rect x="29.3408" y="53.7913" width="0.978022" height="0.978022" fill="#001B3A"/>
<rect x="53.791" y="83.1318" width="0.978022" height="0.978022" fill="#001B3A"/>
<rect x="44.0107" y="73.3516" width="0.978022" height="0.978022" fill="#001B3A"/>
<rect x="34.2305" y="63.5713" width="0.978022" height="0.978022" fill="#001B3A"/>
<rect x="29.3408" y="58.6814" width="0.978022" height="0.978022" fill="#001B3A"/>
<rect x="53.791" y="88.022" width="0.978022" height="0.978022" fill="#001B3A"/>
<rect x="44.0107" y="78.2417" width="0.978022" height="0.978022" fill="#001B3A"/>
<rect x="34.2305" y="68.4614" width="0.978022" height="0.978022" fill="#001B3A"/>
<rect x="29.3408" y="63.5713" width="0.978022" height="0.978022" fill="#001B3A"/>
<rect x="58.6816" y="24.4507" width="0.978022" height="0.978022" fill="#001B3A"/>
<rect x="48.9014" y="14.6704" width="0.978022" height="0.978022" fill="#001B3A"/>
<rect x="39.1211" y="4.89014" width="0.978022" height="0.978022" fill="#001B3A"/>
<rect x="34.2305" width="0.978022" height="0.978022" fill="#001B3A"/>
<rect x="58.6816" y="29.3406" width="0.978022" height="0.978022" fill="#001B3A"/>
<rect x="48.9014" y="19.5605" width="0.978022" height="0.978022" fill="#001B3A"/>
<rect x="39.1211" y="9.78003" width="0.978022" height="0.978022" fill="#001B3A"/>
<rect x="34.2305" y="4.89014" width="0.978022" height="0.978022" fill="#001B3A"/>
<rect x="58.6816" y="34.2307" width="0.978022" height="0.978022" fill="#001B3A"/>
<rect x="48.9014" y="24.4507" width="0.978022" height="0.978022" fill="#001B3A"/>
<rect x="39.1211" y="14.6704" width="0.978022" height="0.978022" fill="#001B3A"/>
<rect x="34.2305" y="9.78003" width="0.978022" height="0.978022" fill="#001B3A"/>
<rect x="58.6816" y="39.1208" width="0.978022" height="0.978022" fill="#001B3A"/>
<rect x="48.9014" y="29.3406" width="0.978022" height="0.978022" fill="#001B3A"/>
<rect x="39.1211" y="19.5605" width="0.978022" height="0.978022" fill="#001B3A"/>
<rect x="34.2305" y="14.6704" width="0.978022" height="0.978022" fill="#001B3A"/>
<rect x="58.6816" y="44.011" width="0.978022" height="0.978022" fill="#001B3A"/>
<rect x="48.9014" y="34.2307" width="0.978022" height="0.978022" fill="#001B3A"/>
<rect x="39.1211" y="24.4507" width="0.978022" height="0.978022" fill="#001B3A"/>
<rect x="34.2305" y="19.5605" width="0.978022" height="0.978022" fill="#001B3A"/>
<rect x="58.6816" y="48.9011" width="0.978022" height="0.978022" fill="#001B3A"/>
<rect x="48.9014" y="39.1208" width="0.978022" height="0.978022" fill="#001B3A"/>
<rect x="39.1211" y="29.3406" width="0.978022" height="0.978022" fill="#001B3A"/>
<rect x="34.2305" y="24.4507" width="0.978022" height="0.978022" fill="#001B3A"/>
<rect x="58.6816" y="53.7913" width="0.978022" height="0.978022" fill="#001B3A"/>
<rect x="48.9014" y="44.011" width="0.978022" height="0.978022" fill="#001B3A"/>
<rect x="39.1211" y="34.2307" width="0.978022" height="0.978022" fill="#001B3A"/>
<rect x="34.2305" y="29.3406" width="0.978022" height="0.978022" fill="#001B3A"/>
<rect x="58.6816" y="58.6814" width="0.978022" height="0.978022" fill="#001B3A"/>
<rect x="48.9014" y="48.9011" width="0.978022" height="0.978022" fill="#001B3A"/>
<rect x="39.1211" y="39.1208" width="0.978022" height="0.978022" fill="#001B3A"/>
<rect x="34.2305" y="34.2307" width="0.978022" height="0.978022" fill="#001B3A"/>
<rect x="58.6816" y="63.5713" width="0.978022" height="0.978022" fill="#001B3A"/>
<rect x="48.9014" y="53.7913" width="0.978022" height="0.978022" fill="#001B3A"/>
<rect x="39.1211" y="44.011" width="0.978022" height="0.978022" fill="#001B3A"/>
<rect x="34.2305" y="39.1208" width="0.978022" height="0.978022" fill="#001B3A"/>
<rect x="58.6816" y="68.4614" width="0.978022" height="0.978022" fill="#001B3A"/>
<rect x="48.9014" y="58.6814" width="0.978022" height="0.978022" fill="#001B3A"/>
<rect x="39.1211" y="48.9011" width="0.978022" height="0.978022" fill="#001B3A"/>
<rect x="34.2305" y="44.011" width="0.978022" height="0.978022" fill="#001B3A"/>
<rect x="58.6816" y="73.3516" width="0.978022" height="0.978022" fill="#001B3A"/>
<rect x="48.9014" y="63.5713" width="0.978022" height="0.978022" fill="#001B3A"/>
<rect x="39.1211" y="53.7913" width="0.978022" height="0.978022" fill="#001B3A"/>
<rect x="34.2305" y="48.9011" width="0.978022" height="0.978022" fill="#001B3A"/>
<rect x="58.6816" y="78.2417" width="0.978022" height="0.978022" fill="#001B3A"/>
<rect x="48.9014" y="68.4614" width="0.978022" height="0.978022" fill="#001B3A"/>
<rect x="39.1211" y="58.6814" width="0.978022" height="0.978022" fill="#001B3A"/>
<rect x="34.2305" y="53.7913" width="0.978022" height="0.978022" fill="#001B3A"/>
<rect x="58.6816" y="83.1318" width="0.978022" height="0.978022" fill="#001B3A"/>
<rect x="48.9014" y="73.3516" width="0.978022" height="0.978022" fill="#001B3A"/>
<rect x="39.1211" y="63.5713" width="0.978022" height="0.978022" fill="#001B3A"/>
<rect x="34.2305" y="58.6814" width="0.978022" height="0.978022" fill="#001B3A"/>
<rect x="58.6816" y="88.022" width="0.978022" height="0.978022" fill="#001B3A"/>
<rect x="48.9014" y="78.2417" width="0.978022" height="0.978022" fill="#001B3A"/>
<rect x="39.1211" y="68.4614" width="0.978022" height="0.978022" fill="#001B3A"/>
<rect x="34.2305" y="63.5713" width="0.978022" height="0.978022" fill="#001B3A"/>
<rect x="63.5713" y="24.4507" width="0.978022" height="0.978022" fill="#001B3A"/>
<rect x="53.791" y="14.6704" width="0.978022" height="0.978022" fill="#001B3A"/>
<rect x="44.0107" y="4.89014" width="0.978022" height="0.978022" fill="#001B3A"/>
<rect x="39.1211" width="0.978022" height="0.978022" fill="#001B3A"/>
<rect x="63.5713" y="29.3406" width="0.978022" height="0.978022" fill="#001B3A"/>
<rect x="53.791" y="19.5605" width="0.978022" height="0.978022" fill="#001B3A"/>
<rect x="44.0107" y="9.78003" width="0.978022" height="0.978022" fill="#001B3A"/>
<rect x="39.1211" y="4.89014" width="0.978022" height="0.978022" fill="#001B3A"/>
<rect x="63.5713" y="34.2307" width="0.978022" height="0.978022" fill="#001B3A"/>
<rect x="53.791" y="24.4507" width="0.978022" height="0.978022" fill="#001B3A"/>
<rect x="44.0107" y="14.6704" width="0.978022" height="0.978022" fill="#001B3A"/>
<rect x="39.1211" y="9.78003" width="0.978022" height="0.978022" fill="#001B3A"/>
<rect x="63.5713" y="39.1208" width="0.978022" height="0.978022" fill="#001B3A"/>
<rect x="53.791" y="29.3406" width="0.978022" height="0.978022" fill="#001B3A"/>
<rect x="44.0107" y="19.5605" width="0.978022" height="0.978022" fill="#001B3A"/>
<rect x="39.1211" y="14.6704" width="0.978022" height="0.978022" fill="#001B3A"/>
<rect x="63.5713" y="44.011" width="0.978022" height="0.978022" fill="#001B3A"/>
<rect x="53.791" y="34.2307" width="0.978022" height="0.978022" fill="#001B3A"/>
<rect x="44.0107" y="24.4507" width="0.978022" height="0.978022" fill="#001B3A"/>
<rect x="39.1211" y="19.5605" width="0.978022" height="0.978022" fill="#001B3A"/>
<rect x="63.5713" y="48.9011" width="0.978022" height="0.978022" fill="#001B3A"/>
<rect x="53.791" y="39.1208" width="0.978022" height="0.978022" fill="#001B3A"/>
<rect x="44.0107" y="29.3406" width="0.978022" height="0.978022" fill="#001B3A"/>
<rect x="39.1211" y="24.4507" width="0.978022" height="0.978022" fill="#001B3A"/>
<rect x="63.5713" y="53.7913" width="0.978022" height="0.978022" fill="#001B3A"/>
<rect x="53.791" y="44.011" width="0.978022" height="0.978022" fill="#001B3A"/>
<rect x="44.0107" y="34.2307" width="0.978022" height="0.978022" fill="#001B3A"/>
<rect x="39.1211" y="29.3406" width="0.978022" height="0.978022" fill="#001B3A"/>
<rect x="63.5713" y="58.6814" width="0.978022" height="0.978022" fill="#001B3A"/>
<rect x="53.791" y="48.9011" width="0.978022" height="0.978022" fill="#001B3A"/>
<rect x="44.0107" y="39.1208" width="0.978022" height="0.978022" fill="#001B3A"/>
<rect x="39.1211" y="34.2307" width="0.978022" height="0.978022" fill="#001B3A"/>
<rect x="63.5713" y="63.5713" width="0.978022" height="0.978022" fill="#001B3A"/>
<rect x="53.791" y="53.7913" width="0.978022" height="0.978022" fill="#001B3A"/>
<rect x="44.0107" y="44.011" width="0.978022" height="0.978022" fill="#001B3A"/>
<rect x="39.1211" y="39.1208" width="0.978022" height="0.978022" fill="#001B3A"/>
<rect x="63.5713" y="68.4614" width="0.978022" height="0.978022" fill="#001B3A"/>
<rect x="53.791" y="58.6814" width="0.978022" height="0.978022" fill="#001B3A"/>
<rect x="44.0107" y="48.9011" width="0.978022" height="0.978022" fill="#001B3A"/>
<rect x="39.1211" y="44.011" width="0.978022" height="0.978022" fill="#001B3A"/>
<rect x="63.5713" y="73.3516" width="0.978022" height="0.978022" fill="#001B3A"/>
<rect x="53.791" y="63.5713" width="0.978022" height="0.978022" fill="#001B3A"/>
<rect x="44.0107" y="53.7913" width="0.978022" height="0.978022" fill="#001B3A"/>
<rect x="39.1211" y="48.9011" width="0.978022" height="0.978022" fill="#001B3A"/>
<rect x="63.5713" y="78.2417" width="0.978022" height="0.978022" fill="#001B3A"/>
<rect x="53.791" y="68.4614" width="0.978022" height="0.978022" fill="#001B3A"/>
<rect x="44.0107" y="58.6814" width="0.978022" height="0.978022" fill="#001B3A"/>
<rect x="39.1211" y="53.7913" width="0.978022" height="0.978022" fill="#001B3A"/>
<rect x="63.5713" y="83.1318" width="0.978022" height="0.978022" fill="#001B3A"/>
<rect x="53.791" y="73.3516" width="0.978022" height="0.978022" fill="#001B3A"/>
<rect x="44.0107" y="63.5713" width="0.978022" height="0.978022" fill="#001B3A"/>
<rect x="39.1211" y="58.6814" width="0.978022" height="0.978022" fill="#001B3A"/>
<rect x="63.5713" y="88.022" width="0.978022" height="0.978022" fill="#001B3A"/>
<rect x="53.791" y="78.2417" width="0.978022" height="0.978022" fill="#001B3A"/>
<rect x="44.0107" y="68.4614" width="0.978022" height="0.978022" fill="#001B3A"/>
<rect x="39.1211" y="63.5713" width="0.978022" height="0.978022" fill="#001B3A"/>
<rect x="68.4619" y="24.4507" width="0.978022" height="0.978022" fill="#001B3A"/>
<rect x="58.6816" y="14.6704" width="0.978022" height="0.978022" fill="#001B3A"/>
<rect x="48.9014" y="4.89014" width="0.978022" height="0.978022" fill="#001B3A"/>
<rect x="44.0107" width="0.978022" height="0.978022" fill="#001B3A"/>
<rect x="68.4619" y="29.3406" width="0.978022" height="0.978022" fill="#001B3A"/>
<rect x="58.6816" y="19.5605" width="0.978022" height="0.978022" fill="#001B3A"/>
<rect x="48.9014" y="9.78003" width="0.978022" height="0.978022" fill="#001B3A"/>
<rect x="44.0107" y="4.89014" width="0.978022" height="0.978022" fill="#001B3A"/>
<rect x="68.4619" y="34.2307" width="0.978022" height="0.978022" fill="#001B3A"/>
<rect x="58.6816" y="24.4507" width="0.978022" height="0.978022" fill="#001B3A"/>
<rect x="48.9014" y="14.6704" width="0.978022" height="0.978022" fill="#001B3A"/>
<rect x="44.0107" y="9.78003" width="0.978022" height="0.978022" fill="#001B3A"/>
<rect x="68.4619" y="39.1208" width="0.978022" height="0.978022" fill="#001B3A"/>
<rect x="58.6816" y="29.3406" width="0.978022" height="0.978022" fill="#001B3A"/>
<rect x="48.9014" y="19.5605" width="0.978022" height="0.978022" fill="#001B3A"/>
<rect x="44.0107" y="14.6704" width="0.978022" height="0.978022" fill="#001B3A"/>
<rect x="68.4619" y="44.011" width="0.978022" height="0.978022" fill="#001B3A"/>
<rect x="58.6816" y="34.2307" width="0.978022" height="0.978022" fill="#001B3A"/>
<rect x="48.9014" y="24.4507" width="0.978022" height="0.978022" fill="#001B3A"/>
<rect x="44.0107" y="19.5605" width="0.978022" height="0.978022" fill="#001B3A"/>
<rect x="68.4619" y="48.9011" width="0.978022" height="0.978022" fill="#001B3A"/>
<rect x="58.6816" y="39.1208" width="0.978022" height="0.978022" fill="#001B3A"/>
<rect x="48.9014" y="29.3406" width="0.978022" height="0.978022" fill="#001B3A"/>
<rect x="44.0107" y="24.4507" width="0.978022" height="0.978022" fill="#001B3A"/>
<rect x="68.4619" y="53.7913" width="0.978022" height="0.978022" fill="#001B3A"/>
<rect x="58.6816" y="44.011" width="0.978022" height="0.978022" fill="#001B3A"/>
<rect x="48.9014" y="34.2307" width="0.978022" height="0.978022" fill="#001B3A"/>
<rect x="44.0107" y="29.3406" width="0.978022" height="0.978022" fill="#001B3A"/>
<rect x="68.4619" y="58.6814" width="0.978022" height="0.978022" fill="#001B3A"/>
<rect x="58.6816" y="48.9011" width="0.978022" height="0.978022" fill="#001B3A"/>
<rect x="48.9014" y="39.1208" width="0.978022" height="0.978022" fill="#001B3A"/>
<rect x="44.0107" y="34.2307" width="0.978022" height="0.978022" fill="#001B3A"/>
<rect x="68.4619" y="63.5713" width="0.978022" height="0.978022" fill="#001B3A"/>
<rect x="58.6816" y="53.7913" width="0.978022" height="0.978022" fill="#001B3A"/>
<rect x="48.9014" y="44.011" width="0.978022" height="0.978022" fill="#001B3A"/>
<rect x="44.0107" y="39.1208" width="0.978022" height="0.978022" fill="#001B3A"/>
<rect x="68.4619" y="68.4614" width="0.978022" height="0.978022" fill="#001B3A"/>
<rect x="58.6816" y="58.6814" width="0.978022" height="0.978022" fill="#001B3A"/>
<rect x="48.9014" y="48.9011" width="0.978022" height="0.978022" fill="#001B3A"/>
<rect x="44.0107" y="44.011" width="0.978022" height="0.978022" fill="#001B3A"/>
<rect x="68.4619" y="73.3516" width="0.978022" height="0.978022" fill="#001B3A"/>
<rect x="58.6816" y="63.5713" width="0.978022" height="0.978022" fill="#001B3A"/>
<rect x="48.9014" y="53.7913" width="0.978022" height="0.978022" fill="#001B3A"/>
<rect x="44.0107" y="48.9011" width="0.978022" height="0.978022" fill="#001B3A"/>
<rect x="68.4619" y="78.2417" width="0.978022" height="0.978022" fill="#001B3A"/>
<rect x="58.6816" y="68.4614" width="0.978022" height="0.978022" fill="#001B3A"/>
<rect x="48.9014" y="58.6814" width="0.978022" height="0.978022" fill="#001B3A"/>
<rect x="44.0107" y="53.7913" width="0.978022" height="0.978022" fill="#001B3A"/>
<rect x="68.4619" y="83.1318" width="0.978022" height="0.978022" fill="#001B3A"/>
<rect x="58.6816" y="73.3516" width="0.978022" height="0.978022" fill="#001B3A"/>
<rect x="48.9014" y="63.5713" width="0.978022" height="0.978022" fill="#001B3A"/>
<rect x="44.0107" y="58.6814" width="0.978022" height="0.978022" fill="#001B3A"/>
<rect x="68.4619" y="88.022" width="0.978022" height="0.978022" fill="#001B3A"/>
<rect x="58.6816" y="78.2417" width="0.978022" height="0.978022" fill="#001B3A"/>
<rect x="48.9014" y="68.4614" width="0.978022" height="0.978022" fill="#001B3A"/>
<rect x="44.0107" y="63.5713" width="0.978022" height="0.978022" fill="#001B3A"/>
<rect x="73.3516" y="24.4507" width="0.978022" height="0.978022" fill="#001B3A"/>
<rect x="63.5713" y="14.6704" width="0.978022" height="0.978022" fill="#001B3A"/>
<rect x="53.791" y="4.89014" width="0.978022" height="0.978022" fill="#001B3A"/>
<rect x="48.9014" width="0.978022" height="0.978022" fill="#001B3A"/>
<rect x="73.3516" y="29.3406" width="0.978022" height="0.978022" fill="#001B3A"/>
<rect x="63.5713" y="19.5605" width="0.978022" height="0.978022" fill="#001B3A"/>
<rect x="53.791" y="9.78003" width="0.978022" height="0.978022" fill="#001B3A"/>
<rect x="48.9014" y="4.89014" width="0.978022" height="0.978022" fill="#001B3A"/>
<rect x="73.3516" y="34.2307" width="0.978022" height="0.978022" fill="#001B3A"/>
<rect x="63.5713" y="24.4507" width="0.978022" height="0.978022" fill="#001B3A"/>
<rect x="53.791" y="14.6704" width="0.978022" height="0.978022" fill="#001B3A"/>
<rect x="48.9014" y="9.78003" width="0.978022" height="0.978022" fill="#001B3A"/>
<rect x="73.3516" y="39.1208" width="0.978022" height="0.978022" fill="#001B3A"/>
<rect x="63.5713" y="29.3406" width="0.978022" height="0.978022" fill="#001B3A"/>
<rect x="53.791" y="19.5605" width="0.978022" height="0.978022" fill="#001B3A"/>
<rect x="48.9014" y="14.6704" width="0.978022" height="0.978022" fill="#001B3A"/>
<rect x="73.3516" y="44.011" width="0.978022" height="0.978022" fill="#001B3A"/>
<rect x="63.5713" y="34.2307" width="0.978022" height="0.978022" fill="#001B3A"/>
<rect x="53.791" y="24.4507" width="0.978022" height="0.978022" fill="#001B3A"/>
<rect x="48.9014" y="19.5605" width="0.978022" height="0.978022" fill="#001B3A"/>
<rect x="73.3516" y="48.9011" width="0.978022" height="0.978022" fill="#001B3A"/>
<rect x="63.5713" y="39.1208" width="0.978022" height="0.978022" fill="#001B3A"/>
<rect x="53.791" y="29.3406" width="0.978022" height="0.978022" fill="#001B3A"/>
<rect x="48.9014" y="24.4507" width="0.978022" height="0.978022" fill="#001B3A"/>
<rect x="73.3516" y="53.7913" width="0.978022" height="0.978022" fill="#001B3A"/>
<rect x="63.5713" y="44.011" width="0.978022" height="0.978022" fill="#001B3A"/>
<rect x="53.791" y="34.2307" width="0.978022" height="0.978022" fill="#001B3A"/>
<rect x="48.9014" y="29.3406" width="0.978022" height="0.978022" fill="#001B3A"/>
<rect x="73.3516" y="58.6814" width="0.978022" height="0.978022" fill="#001B3A"/>
<rect x="63.5713" y="48.9011" width="0.978022" height="0.978022" fill="#001B3A"/>
<rect x="53.791" y="39.1208" width="0.978022" height="0.978022" fill="#001B3A"/>
<rect x="48.9014" y="34.2307" width="0.978022" height="0.978022" fill="#001B3A"/>
<rect x="73.3516" y="63.5713" width="0.978022" height="0.978022" fill="#001B3A"/>
<rect x="63.5713" y="53.7913" width="0.978022" height="0.978022" fill="#001B3A"/>
<rect x="53.791" y="44.011" width="0.978022" height="0.978022" fill="#001B3A"/>
<rect x="48.9014" y="39.1208" width="0.978022" height="0.978022" fill="#001B3A"/>
<rect x="73.3516" y="68.4614" width="0.978022" height="0.978022" fill="#001B3A"/>
<rect x="63.5713" y="58.6814" width="0.978022" height="0.978022" fill="#001B3A"/>
<rect x="53.791" y="48.9011" width="0.978022" height="0.978022" fill="#001B3A"/>
<rect x="48.9014" y="44.011" width="0.978022" height="0.978022" fill="#001B3A"/>
<rect x="73.3516" y="73.3516" width="0.978022" height="0.978022" fill="#001B3A"/>
<rect x="63.5713" y="63.5713" width="0.978022" height="0.978022" fill="#001B3A"/>
<rect x="53.791" y="53.7913" width="0.978022" height="0.978022" fill="#001B3A"/>
<rect x="48.9014" y="48.9011" width="0.978022" height="0.978022" fill="#001B3A"/>
<rect x="73.3516" y="78.2417" width="0.978022" height="0.978022" fill="#001B3A"/>
<rect x="63.5713" y="68.4614" width="0.978022" height="0.978022" fill="#001B3A"/>
<rect x="53.791" y="58.6814" width="0.978022" height="0.978022" fill="#001B3A"/>
<rect x="48.9014" y="53.7913" width="0.978022" height="0.978022" fill="#001B3A"/>
<rect x="73.3516" y="83.1318" width="0.978022" height="0.978022" fill="#001B3A"/>
<rect x="63.5713" y="73.3516" width="0.978022" height="0.978022" fill="#001B3A"/>
<rect x="53.791" y="63.5713" width="0.978022" height="0.978022" fill="#001B3A"/>
<rect x="48.9014" y="58.6814" width="0.978022" height="0.978022" fill="#001B3A"/>
<rect x="73.3516" y="88.022" width="0.978022" height="0.978022" fill="#001B3A"/>
<rect x="63.5713" y="78.2417" width="0.978022" height="0.978022" fill="#001B3A"/>
<rect x="53.791" y="68.4614" width="0.978022" height="0.978022" fill="#001B3A"/>
<rect x="48.9014" y="63.5713" width="0.978022" height="0.978022" fill="#001B3A"/>
<rect x="78.2422" y="24.4507" width="0.978022" height="0.978022" fill="#001B3A"/>
<rect x="68.4619" y="14.6704" width="0.978022" height="0.978022" fill="#001B3A"/>
<rect x="58.6816" y="4.89014" width="0.978022" height="0.978022" fill="#001B3A"/>
<rect x="53.791" width="0.978022" height="0.978022" fill="#001B3A"/>
<rect x="78.2422" y="29.3406" width="0.978022" height="0.978022" fill="#001B3A"/>
<rect x="68.4619" y="19.5605" width="0.978022" height="0.978022" fill="#001B3A"/>
<rect x="58.6816" y="9.78003" width="0.978022" height="0.978022" fill="#001B3A"/>
<rect x="53.791" y="4.89014" width="0.978022" height="0.978022" fill="#001B3A"/>
<rect x="78.2422" y="34.2307" width="0.978022" height="0.978022" fill="#001B3A"/>
<rect x="68.4619" y="24.4507" width="0.978022" height="0.978022" fill="#001B3A"/>
<rect x="58.6816" y="14.6704" width="0.978022" height="0.978022" fill="#001B3A"/>
<rect x="53.791" y="9.78003" width="0.978022" height="0.978022" fill="#001B3A"/>
<rect x="78.2422" y="39.1208" width="0.978022" height="0.978022" fill="#001B3A"/>
<rect x="68.4619" y="29.3406" width="0.978022" height="0.978022" fill="#001B3A"/>
<rect x="58.6816" y="19.5605" width="0.978022" height="0.978022" fill="#001B3A"/>
<rect x="53.791" y="14.6704" width="0.978022" height="0.978022" fill="#001B3A"/>
<rect x="78.2422" y="44.011" width="0.978022" height="0.978022" fill="#001B3A"/>
<rect x="68.4619" y="34.2307" width="0.978022" height="0.978022" fill="#001B3A"/>
<rect x="58.6816" y="24.4507" width="0.978022" height="0.978022" fill="#001B3A"/>
<rect x="53.791" y="19.5605" width="0.978022" height="0.978022" fill="#001B3A"/>
<rect x="78.2422" y="48.9011" width="0.978022" height="0.978022" fill="#001B3A"/>
<rect x="68.4619" y="39.1208" width="0.978022" height="0.978022" fill="#001B3A"/>
<rect x="58.6816" y="29.3406" width="0.978022" height="0.978022" fill="#001B3A"/>
<rect x="53.791" y="24.4507" width="0.978022" height="0.978022" fill="#001B3A"/>
<rect x="78.2422" y="53.7913" width="0.978022" height="0.978022" fill="#001B3A"/>
<rect x="68.4619" y="44.011" width="0.978022" height="0.978022" fill="#001B3A"/>
<rect x="58.6816" y="34.2307" width="0.978022" height="0.978022" fill="#001B3A"/>
<rect x="53.791" y="29.3406" width="0.978022" height="0.978022" fill="#001B3A"/>
<rect x="78.2422" y="58.6814" width="0.978022" height="0.978022" fill="#001B3A"/>
<rect x="68.4619" y="48.9011" width="0.978022" height="0.978022" fill="#001B3A"/>
<rect x="58.6816" y="39.1208" width="0.978022" height="0.978022" fill="#001B3A"/>
<rect x="53.791" y="34.2307" width="0.978022" height="0.978022" fill="#001B3A"/>
<rect x="78.2422" y="63.5713" width="0.978022" height="0.978022" fill="#001B3A"/>
<rect x="68.4619" y="53.7913" width="0.978022" height="0.978022" fill="#001B3A"/>
<rect x="58.6816" y="44.011" width="0.978022" height="0.978022" fill="#001B3A"/>
<rect x="53.791" y="39.1208" width="0.978022" height="0.978022" fill="#001B3A"/>
<rect x="78.2422" y="68.4614" width="0.978022" height="0.978022" fill="#001B3A"/>
<rect x="68.4619" y="58.6814" width="0.978022" height="0.978022" fill="#001B3A"/>
<rect x="58.6816" y="48.9011" width="0.978022" height="0.978022" fill="#001B3A"/>
<rect x="53.791" y="44.011" width="0.978022" height="0.978022" fill="#001B3A"/>
<rect x="78.2422" y="73.3516" width="0.978022" height="0.978022" fill="#001B3A"/>
<rect x="68.4619" y="63.5713" width="0.978022" height="0.978022" fill="#001B3A"/>
<rect x="58.6816" y="53.7913" width="0.978022" height="0.978022" fill="#001B3A"/>
<rect x="53.791" y="48.9011" width="0.978022" height="0.978022" fill="#001B3A"/>
<rect x="78.2422" y="78.2417" width="0.978022" height="0.978022" fill="#001B3A"/>
<rect x="68.4619" y="68.4614" width="0.978022" height="0.978022" fill="#001B3A"/>
<rect x="58.6816" y="58.6814" width="0.978022" height="0.978022" fill="#001B3A"/>
<rect x="53.791" y="53.7913" width="0.978022" height="0.978022" fill="#001B3A"/>
<rect x="78.2422" y="83.1318" width="0.978022" height="0.978022" fill="#001B3A"/>
<rect x="68.4619" y="73.3516" width="0.978022" height="0.978022" fill="#001B3A"/>
<rect x="58.6816" y="63.5713" width="0.978022" height="0.978022" fill="#001B3A"/>
<rect x="53.791" y="58.6814" width="0.978022" height="0.978022" fill="#001B3A"/>
<rect x="78.2422" y="88.022" width="0.978022" height="0.978022" fill="#001B3A"/>
<rect x="68.4619" y="78.2417" width="0.978022" height="0.978022" fill="#001B3A"/>
<rect x="58.6816" y="68.4614" width="0.978022" height="0.978022" fill="#001B3A"/>
<rect x="53.791" y="63.5713" width="0.978022" height="0.978022" fill="#001B3A"/>
<rect x="83.1318" y="24.4507" width="0.978022" height="0.978022" fill="#001B3A"/>
<rect x="73.3516" y="14.6704" width="0.978022" height="0.978022" fill="#001B3A"/>
<rect x="63.5713" y="4.89014" width="0.978022" height="0.978022" fill="#001B3A"/>
<rect x="58.6816" width="0.978022" height="0.978022" fill="#001B3A"/>
<rect x="83.1318" y="29.3406" width="0.978022" height="0.978022" fill="#001B3A"/>
<rect x="73.3516" y="19.5605" width="0.978022" height="0.978022" fill="#001B3A"/>
<rect x="63.5713" y="9.78003" width="0.978022" height="0.978022" fill="#001B3A"/>
<rect x="58.6816" y="4.89014" width="0.978022" height="0.978022" fill="#001B3A"/>
<rect x="83.1318" y="34.2307" width="0.978022" height="0.978022" fill="#001B3A"/>
<rect x="73.3516" y="24.4507" width="0.978022" height="0.978022" fill="#001B3A"/>
<rect x="63.5713" y="14.6704" width="0.978022" height="0.978022" fill="#001B3A"/>
<rect x="58.6816" y="9.78003" width="0.978022" height="0.978022" fill="#001B3A"/>
<rect x="83.1318" y="39.1208" width="0.978022" height="0.978022" fill="#001B3A"/>
<rect x="73.3516" y="29.3406" width="0.978022" height="0.978022" fill="#001B3A"/>
<rect x="63.5713" y="19.5605" width="0.978022" height="0.978022" fill="#001B3A"/>
<rect x="58.6816" y="14.6704" width="0.978022" height="0.978022" fill="#001B3A"/>
<rect x="83.1318" y="44.011" width="0.978022" height="0.978022" fill="#001B3A"/>
<rect x="73.3516" y="34.2307" width="0.978022" height="0.978022" fill="#001B3A"/>
<rect x="63.5713" y="24.4507" width="0.978022" height="0.978022" fill="#001B3A"/>
<rect x="58.6816" y="19.5605" width="0.978022" height="0.978022" fill="#001B3A"/>
<rect x="83.1318" y="48.9011" width="0.978022" height="0.978022" fill="#001B3A"/>
<rect x="73.3516" y="39.1208" width="0.978022" height="0.978022" fill="#001B3A"/>
<rect x="63.5713" y="29.3406" width="0.978022" height="0.978022" fill="#001B3A"/>
<rect x="58.6816" y="24.4507" width="0.978022" height="0.978022" fill="#001B3A"/>
<rect x="83.1318" y="53.7913" width="0.978022" height="0.978022" fill="#001B3A"/>
<rect x="73.3516" y="44.011" width="0.978022" height="0.978022" fill="#001B3A"/>
<rect x="63.5713" y="34.2307" width="0.978022" height="0.978022" fill="#001B3A"/>
<rect x="58.6816" y="29.3406" width="0.978022" height="0.978022" fill="#001B3A"/>
<rect x="83.1318" y="58.6814" width="0.978022" height="0.978022" fill="#001B3A"/>
<rect x="73.3516" y="48.9011" width="0.978022" height="0.978022" fill="#001B3A"/>
<rect x="63.5713" y="39.1208" width="0.978022" height="0.978022" fill="#001B3A"/>
<rect x="58.6816" y="34.2307" width="0.978022" height="0.978022" fill="#001B3A"/>
<rect x="83.1318" y="63.5713" width="0.978022" height="0.978022" fill="#001B3A"/>
<rect x="73.3516" y="53.7913" width="0.978022" height="0.978022" fill="#001B3A"/>
<rect x="63.5713" y="44.011" width="0.978022" height="0.978022" fill="#001B3A"/>
<rect x="58.6816" y="39.1208" width="0.978022" height="0.978022" fill="#001B3A"/>
<rect x="83.1318" y="68.4614" width="0.978022" height="0.978022" fill="#001B3A"/>
<rect x="73.3516" y="58.6814" width="0.978022" height="0.978022" fill="#001B3A"/>
<rect x="63.5713" y="48.9011" width="0.978022" height="0.978022" fill="#001B3A"/>
<rect x="58.6816" y="44.011" width="0.978022" height="0.978022" fill="#001B3A"/>
<rect x="83.1318" y="73.3516" width="0.978022" height="0.978022" fill="#001B3A"/>
<rect x="73.3516" y="63.5713" width="0.978022" height="0.978022" fill="#001B3A"/>
<rect x="63.5713" y="53.7913" width="0.978022" height="0.978022" fill="#001B3A"/>
<rect x="58.6816" y="48.9011" width="0.978022" height="0.978022" fill="#001B3A"/>
<rect x="83.1318" y="78.2417" width="0.978022" height="0.978022" fill="#001B3A"/>
<rect x="73.3516" y="68.4614" width="0.978022" height="0.978022" fill="#001B3A"/>
<rect x="63.5713" y="58.6814" width="0.978022" height="0.978022" fill="#001B3A"/>
<rect x="58.6816" y="53.7913" width="0.978022" height="0.978022" fill="#001B3A"/>
<rect x="83.1318" y="83.1318" width="0.978022" height="0.978022" fill="#001B3A"/>
<rect x="73.3516" y="73.3516" width="0.978022" height="0.978022" fill="#001B3A"/>
<rect x="63.5713" y="63.5713" width="0.978022" height="0.978022" fill="#001B3A"/>
<rect x="58.6816" y="58.6814" width="0.978022" height="0.978022" fill="#001B3A"/>
<rect x="83.1318" y="88.022" width="0.978022" height="0.978022" fill="#001B3A"/>
<rect x="73.3516" y="78.2417" width="0.978022" height="0.978022" fill="#001B3A"/>
<rect x="63.5713" y="68.4614" width="0.978022" height="0.978022" fill="#001B3A"/>
<rect x="58.6816" y="63.5713" width="0.978022" height="0.978022" fill="#001B3A"/>
<rect x="88.0215" y="24.4507" width="0.978022" height="0.978022" fill="#001B3A"/>
<rect x="78.2422" y="14.6704" width="0.978022" height="0.978022" fill="#001B3A"/>
<rect x="68.4619" y="4.89014" width="0.978022" height="0.978022" fill="#001B3A"/>
<rect x="63.5713" width="0.978022" height="0.978022" fill="#001B3A"/>
<rect x="88.0215" y="29.3406" width="0.978022" height="0.978022" fill="#001B3A"/>
<rect x="78.2422" y="19.5605" width="0.978022" height="0.978022" fill="#001B3A"/>
<rect x="68.4619" y="9.78003" width="0.978022" height="0.978022" fill="#001B3A"/>
<rect x="63.5713" y="4.89014" width="0.978022" height="0.978022" fill="#001B3A"/>
<rect x="88.0215" y="34.2307" width="0.978022" height="0.978022" fill="#001B3A"/>
<rect x="78.2422" y="24.4507" width="0.978022" height="0.978022" fill="#001B3A"/>
<rect x="68.4619" y="14.6704" width="0.978022" height="0.978022" fill="#001B3A"/>
<rect x="63.5713" y="9.78003" width="0.978022" height="0.978022" fill="#001B3A"/>
<rect x="88.0215" y="39.1208" width="0.978022" height="0.978022" fill="#001B3A"/>
<rect x="78.2422" y="29.3406" width="0.978022" height="0.978022" fill="#001B3A"/>
<rect x="68.4619" y="19.5605" width="0.978022" height="0.978022" fill="#001B3A"/>
<rect x="63.5713" y="14.6704" width="0.978022" height="0.978022" fill="#001B3A"/>
<rect x="88.0215" y="44.011" width="0.978022" height="0.978022" fill="#001B3A"/>
<rect x="78.2422" y="34.2307" width="0.978022" height="0.978022" fill="#001B3A"/>
<rect x="68.4619" y="24.4507" width="0.978022" height="0.978022" fill="#001B3A"/>
<rect x="63.5713" y="19.5605" width="0.978022" height="0.978022" fill="#001B3A"/>
<rect x="88.0215" y="48.9011" width="0.978022" height="0.978022" fill="#001B3A"/>
<rect x="78.2422" y="39.1208" width="0.978022" height="0.978022" fill="#001B3A"/>
<rect x="68.4619" y="29.3406" width="0.978022" height="0.978022" fill="#001B3A"/>
<rect x="63.5713" y="24.4507" width="0.978022" height="0.978022" fill="#001B3A"/>
<rect x="88.0215" y="53.7913" width="0.978022" height="0.978022" fill="#001B3A"/>
<rect x="78.2422" y="44.011" width="0.978022" height="0.978022" fill="#001B3A"/>
<rect x="68.4619" y="34.2307" width="0.978022" height="0.978022" fill="#001B3A"/>
<rect x="63.5713" y="29.3406" width="0.978022" height="0.978022" fill="#001B3A"/>
<rect x="88.0215" y="58.6814" width="0.978022" height="0.978022" fill="#001B3A"/>
<rect x="78.2422" y="48.9011" width="0.978022" height="0.978022" fill="#001B3A"/>
<rect x="68.4619" y="39.1208" width="0.978022" height="0.978022" fill="#001B3A"/>
<rect x="63.5713" y="34.2307" width="0.978022" height="0.978022" fill="#001B3A"/>
<rect x="88.0215" y="63.5713" width="0.978022" height="0.978022" fill="#001B3A"/>
<rect x="78.2422" y="53.7913" width="0.978022" height="0.978022" fill="#001B3A"/>
<rect x="68.4619" y="44.011" width="0.978022" height="0.978022" fill="#001B3A"/>
<rect x="63.5713" y="39.1208" width="0.978022" height="0.978022" fill="#001B3A"/>
<rect x="88.0215" y="68.4614" width="0.978022" height="0.978022" fill="#001B3A"/>
<rect x="78.2422" y="58.6814" width="0.978022" height="0.978022" fill="#001B3A"/>
<rect x="68.4619" y="48.9011" width="0.978022" height="0.978022" fill="#001B3A"/>
<rect x="63.5713" y="44.011" width="0.978022" height="0.978022" fill="#001B3A"/>
<rect x="88.0215" y="73.3516" width="0.978022" height="0.978022" fill="#001B3A"/>
<rect x="78.2422" y="63.5713" width="0.978022" height="0.978022" fill="#001B3A"/>
<rect x="68.4619" y="53.7913" width="0.978022" height="0.978022" fill="#001B3A"/>
<rect x="63.5713" y="48.9011" width="0.978022" height="0.978022" fill="#001B3A"/>
<rect x="88.0215" y="78.2417" width="0.978022" height="0.978022" fill="#001B3A"/>
<rect x="78.2422" y="68.4614" width="0.978022" height="0.978022" fill="#001B3A"/>
<rect x="68.4619" y="58.6814" width="0.978022" height="0.978022" fill="#001B3A"/>
<rect x="63.5713" y="53.7913" width="0.978022" height="0.978022" fill="#001B3A"/>
<rect x="88.0215" y="83.1318" width="0.978022" height="0.978022" fill="#001B3A"/>
<rect x="78.2422" y="73.3516" width="0.978022" height="0.978022" fill="#001B3A"/>
<rect x="68.4619" y="63.5713" width="0.978022" height="0.978022" fill="#001B3A"/>
<rect x="63.5713" y="58.6814" width="0.978022" height="0.978022" fill="#001B3A"/>
<rect x="88.0215" y="88.022" width="0.978022" height="0.978022" fill="#001B3A"/>
<rect x="78.2422" y="78.2417" width="0.978022" height="0.978022" fill="#001B3A"/>
<rect x="68.4619" y="68.4614" width="0.978022" height="0.978022" fill="#001B3A"/>
<rect x="63.5713" y="63.5713" width="0.978022" height="0.978022" fill="#001B3A"/>
</svg>
