<svg width="305" height="346" viewBox="0 0 305 346" fill="none" xmlns="http://www.w3.org/2000/svg">
<path d="M31.7377 122.548C38.1351 114.738 36.6396 124.542 43.7847 128.197C50.9299 131.853 50.2653 121.634 62.7277 113.242C75.1902 104.934 73.6117 122.299 82.5846 128.197C91.5576 134.013 87.5697 94.6318 96.2103 94.6318C104.851 94.6318 105.017 122.548 113.409 122.548C121.883 122.548 124.459 11.8809 139.995 19.1922C155.532 26.5035 156.446 120.388 167.662 120.388C178.878 120.388 183.78 57.3274 195.91 63.7248C208.04 70.0391 212.776 110.335 224.906 110.335C237.036 110.335 238.283 13.8749 252.822 13.8749C267.362 13.8749 270.27 54.4195 279.409 88.899C288.548 123.379 304.5 130.441 304.5 130.441C304.5 130.441 288.631 137.42 279.409 171.982C270.187 206.462 267.362 247.006 252.822 247.006C238.283 247.006 237.036 150.547 224.906 150.547C212.776 150.547 208.04 190.759 195.91 197.156C183.78 203.471 178.961 140.494 167.662 140.494C156.446 140.494 155.532 234.295 139.995 241.689C124.459 249 121.8 138.334 113.409 138.334C104.934 138.334 104.851 166.25 96.2103 166.25C87.5697 166.25 91.5576 126.868 82.5846 132.684C73.6117 138.5 75.1902 155.947 62.7277 147.639C50.2653 139.331 50.9299 129.111 43.7847 132.684C36.6396 136.34 38.1351 146.143 31.7377 138.334C25.4233 130.607 25.3403 130.524 25.3403 130.524C25.2572 130.358 25.4233 130.274 31.7377 122.548Z" fill="url(#paint0_linear)"/>
<mask id="mask0" mask-type="alpha" maskUnits="userSpaceOnUse" x="17" y="128" width="6" height="7">
<path d="M17.9453 131.687C17.9453 133.432 19.0254 134.844 20.3547 134.844C21.6841 134.844 22.7642 133.432 22.7642 131.687C22.7642 129.942 21.6841 128.53 20.3547 128.53C18.9423 128.53 17.9453 129.942 17.9453 131.687Z" fill="url(#paint1_linear)"/>
</mask>
<g mask="url(#mask0)">
<path d="M17.9453 131.687C17.9453 133.432 19.0254 134.844 20.3547 134.844C21.6841 134.844 22.7642 133.432 22.7642 131.687C22.7642 129.942 21.6841 128.53 20.3547 128.53C18.9423 128.53 17.9453 129.942 17.9453 131.687Z" fill="#22A1FF"/>
</g>
<mask id="mask1" mask-type="alpha" maskUnits="userSpaceOnUse" x="9" y="128" width="5" height="7">
<path d="M9.05664 131.687C9.05664 133.432 10.1367 134.844 11.4661 134.844C12.7954 134.844 13.8754 133.432 13.8754 131.687C13.8754 129.942 12.7954 128.53 11.4661 128.53C10.1367 128.53 9.05664 129.942 9.05664 131.687Z" fill="url(#paint2_linear)"/>
</mask>
<g mask="url(#mask1)">
<path d="M9.05664 131.687C9.05664 133.432 10.1367 134.844 11.4661 134.844C12.7954 134.844 13.8754 133.432 13.8754 131.687C13.8754 129.942 12.7954 128.53 11.4661 128.53C10.1367 128.53 9.05664 129.942 9.05664 131.687Z" fill="#22A1FF"/>
</g>
<mask id="mask2" mask-type="alpha" maskUnits="userSpaceOnUse" x="0" y="128" width="5" height="7">
<path d="M0 131.687C0 133.432 1.0801 134.844 2.40943 134.844C3.73877 134.844 4.81887 133.432 4.81887 131.687C4.81887 129.942 3.73877 128.53 2.40943 128.53C0.997019 128.53 0 129.942 0 131.687Z" fill="url(#paint3_linear)"/>
</mask>
<g mask="url(#mask2)">
<path d="M0 131.687C0 133.432 1.0801 134.844 2.40943 134.844C3.73877 134.844 4.81887 133.432 4.81887 131.687C4.81887 129.942 3.73877 128.53 2.40943 128.53C0.997019 128.53 0 129.942 0 131.687Z" fill="#22A1FF"/>
</g>
<path d="M304.5 343.549C304.5 344.878 271.516 345.958 230.888 345.958C190.26 345.958 157.276 344.878 157.276 343.549C157.276 342.22 190.26 341.14 230.888 341.14C271.599 341.057 304.5 342.137 304.5 343.549Z" fill="#6077BD"/>
<path d="M201.975 182.534C201.975 182.534 193.999 195.827 187.436 195.827L189.928 200.147C189.928 200.147 200.729 189.014 202.474 184.029L201.975 182.534Z" fill="#18287D"/>
<path d="M203.47 152.125C203.47 152.125 199.732 150.713 197.821 150.713C195.993 150.713 189.928 160.184 189.928 160.184L196.657 164.422L203.47 152.125Z" fill="#111F59"/>
<path d="M191.922 160.267C191.922 160.267 187.685 164.255 187.685 168.493C187.685 172.73 185.441 173.561 187.02 175.139C188.598 176.718 193.085 175.804 193.085 175.804L197.904 162.345L191.922 160.267Z" fill="#18287D"/>
<path d="M218.924 128.53C218.924 128.53 211.613 125.622 209.12 125.622C206.628 125.622 196.575 142.571 196.575 142.571L200.563 144.897C200.563 144.897 202.557 150.713 195.993 158.44C189.43 166.249 185.442 178.296 193.251 181.62C201.061 184.943 205.299 185.774 207.625 183.448C209.951 181.121 218.924 128.53 218.924 128.53Z" fill="#317171"/>
<path d="M250.496 110.168C250.496 110.168 254.733 112.495 254.733 120.138C254.733 128.031 252.905 149.467 255.979 150.131C259.053 150.796 280.322 146.143 284.394 142.986L286.637 147.057C286.637 147.057 264.703 166.748 251.825 164.255C239.03 161.763 235.458 138.417 236.621 128.197C237.784 117.978 248.917 108.673 250.496 110.168Z" fill="#C68A05"/>
<path d="M291.206 139.414L302.505 123.877L299.016 121.302L290.292 136.256L291.206 139.414Z" fill="#2846A6"/>
<path d="M303.503 127.034L302.506 123.877L291.207 139.414L292.453 140.66L303.503 127.034Z" fill="#18287D"/>
<path d="M277.497 334.742C273.343 327.182 264.536 264.703 264.536 264.703C264.536 264.703 255.231 215.103 250.495 187.436L215.351 190.261C215.932 192.587 216.348 194.415 216.68 195.578C225.238 226.983 247.836 273.011 247.836 273.011L270.352 335.906C270.352 335.906 268.441 342.552 269.105 344.297C269.77 346.042 273.343 344.297 276.334 344.297C279.325 344.297 286.968 344.297 287.55 344.297C288.132 344.297 293.698 344.131 293.698 344.131C293.698 344.131 281.651 342.303 277.497 334.742Z" fill="#18287D"/>
<path d="M217.678 189.596L206.628 257.558C206.628 257.558 184.445 320.286 181.205 323.443C177.965 326.683 176.137 328.926 176.137 328.926C176.137 328.926 179.875 331.003 181.869 334.908C183.78 338.564 185.774 343.3 195.412 343.3C205.05 343.3 191.507 341.555 190.344 338.564C189.181 335.573 188.516 325.271 188.516 325.271L223.993 266.448L250.662 188.848L217.678 189.596Z" fill="#1D329E"/>
<path d="M252.572 170.985C252.074 162.428 254.151 115.319 251.243 111.248C248.418 107.094 245.676 107.094 245.676 107.094C245.676 107.094 240.11 104.519 231.552 107.51C224.49 110.002 215.102 142.072 211.779 160.184C211.28 163.009 209.951 195.246 206.129 193.916L257.973 200.147C256.394 190.759 252.739 173.228 252.572 170.985Z" fill="#ECAB01"/>
<path d="M249.665 85.5757L250.496 107.676C250.662 109.753 251.327 112.079 250.413 112.744C248.419 114.489 241.689 111.581 238.532 108.59C235.957 106.097 240.526 85.4926 240.526 85.4926C240.526 85.4926 245.844 84.7449 249.665 85.5757Z" fill="#FC7575"/>
<path d="M240.609 85.4926C240.609 85.4926 240.443 86.4065 240.193 87.8189C240.443 89.896 240.858 93.0532 241.606 95.3795C242.603 98.5367 246.591 103.688 250.413 104.02L249.748 85.5757C245.843 84.7449 240.609 85.4926 240.609 85.4926Z" fill="#FD5E5A"/>
<path d="M240.194 58.8229C238.449 61.6477 237.037 65.5526 239.612 67.5466C236.704 65.885 237.701 61.3154 239.197 58.1582L240.194 58.8229Z" fill="#1D2A58"/>
<path d="M252.573 69.7899C252.573 69.7899 256.81 70.2884 257.309 76.1043C257.89 81.9201 255.564 98.0382 251.41 99.5337C247.256 101.029 242.188 95.5457 241.107 92.3055C239.944 88.9822 239.695 83.7479 239.695 83.7479C239.695 83.7479 239.114 62.894 252.573 69.7899Z" fill="#FC7575"/>
<path d="M235.624 91.89C235.624 91.89 236.621 93.1363 237.701 91.4746C237.701 91.4746 240.194 87.5697 237.95 84.6618C235.707 81.7538 232.301 77.7659 232.799 72.3655C233.298 66.965 239.197 66.965 239.197 66.965C239.197 66.965 240.027 58.7398 248.336 61.3985C248.336 61.3985 249.831 59.6537 254.65 59.8199C259.469 59.986 258.389 62.894 261.131 62.3955C263.872 61.897 264.205 59.4875 263.041 58.5736C263.041 58.5736 267.86 60.9 268.525 65.1372C269.19 69.3744 261.878 69.5406 261.878 69.5406C261.878 69.5406 267.777 70.3714 263.374 73.1132C258.887 75.8549 256.727 75.855 253.902 72.947C251.077 70.0391 249.582 69.2914 248.17 70.0391C246.674 70.7038 247.256 74.2764 245.095 74.6918C242.935 75.1072 241.606 81.4215 241.606 81.4215C241.606 81.4215 239.861 80.8399 240.027 85.2434C240.194 89.7298 240.775 92.4716 238.283 92.887C235.873 93.5517 235.624 91.89 235.624 91.89Z" fill="#1D2A58"/>
<path d="M240.36 76.4366C239.03 76.2704 235.956 77.3505 238.615 81.837C241.273 86.3235 243.434 81.5878 243.184 79.5938C242.852 77.5998 241.357 76.6027 240.36 76.4366Z" fill="#FC7575"/>
<path d="M252.822 82.751C252.572 85.4096 252.655 88.0683 252.157 90.5608C251.575 90.5608 250.994 90.6439 250.412 90.6439C251.409 90.9762 252.157 91.1424 252.572 91.2255C252.572 91.1424 253.486 87.736 252.822 82.751Z" fill="#1D2A58"/>
<path d="M251.825 82.003C251.659 82.003 251.493 81.9199 251.493 81.7538C251.493 81.6707 251.16 80.5906 249.914 80.0921C248.834 79.5936 246.175 80.3414 245.178 80.6737C245.012 80.7568 244.846 80.6737 244.846 80.5075C244.763 80.3414 244.846 80.1752 245.012 80.0921C245.178 80.009 248.585 78.8459 250.08 79.5105C251.659 80.1752 251.991 81.5876 251.991 81.5876C252.074 81.7538 251.991 81.9199 251.825 82.003Z" fill="#1D2A58"/>
<path d="M247.422 92.0562C247.422 92.0562 251.659 93.5517 254.069 92.887C254.069 92.887 253.653 94.964 252.241 95.5456C250.828 96.1272 247.92 95.2133 247.422 92.0562Z" fill="white"/>
<path d="M238.698 79.2613C238.698 79.2613 239.03 82.4185 240.443 82.4185C241.855 82.4185 242.188 80.0091 241.191 78.8459C240.194 77.6827 238.532 78.3474 238.698 79.2613Z" fill="#FD5E5A"/>
<path d="M250.829 83.2494C250.746 83.8309 250.33 84.3295 249.915 84.2464C249.499 84.1633 249.167 83.6648 249.25 83.0001C249.333 82.4185 249.749 81.92 250.164 82.0031C250.579 82.0862 250.912 82.6678 250.829 83.2494Z" fill="#1D2A58"/>
<path d="M256.644 83.6648C256.561 84.2463 256.146 84.7449 255.73 84.6618C255.315 84.5787 254.982 84.0802 255.066 83.4155C255.149 82.8339 255.564 82.3354 255.979 82.4185C256.395 82.5016 256.644 83.0832 256.644 83.6648Z" fill="#1D2A58"/>
<path d="M254.484 81.8369C254.401 82.0031 254.401 82.1693 254.484 82.2524C254.567 82.3354 254.65 82.3355 254.733 82.3355C254.816 82.3355 254.817 82.2524 254.9 82.2524C255.232 81.92 256.146 80.923 256.81 80.7569C256.977 80.7569 257.143 80.6738 257.309 80.6738C257.309 80.4246 257.309 80.2584 257.309 80.0092C257.06 80.0092 256.894 80.0091 256.644 80.0922C255.647 80.3415 254.484 81.8369 254.484 81.8369Z" fill="#1D2A58"/>
<path d="M232.55 107.593C232.55 107.593 245.677 106.43 245.677 116.981C245.677 127.533 243.517 154.535 250.828 157.027C250.828 157.027 281.984 146.476 282.649 145.811C283.314 145.146 288.049 136.256 289.96 134.346C291.871 132.435 292.619 128.945 293.699 130.025C294.779 131.105 292.868 135.176 292.868 135.176C292.868 135.176 298.85 131.936 300.18 130.607C300.18 130.607 300.595 130.441 301.26 131.105C301.924 131.77 301.094 133.432 301.094 133.432C301.094 133.432 302.257 134.013 302.423 135.01C302.589 136.007 301.177 137.503 301.177 137.503C301.177 137.503 301.343 138.084 301.343 139.414C301.343 140.743 289.13 148.137 289.13 148.137C289.13 148.137 265.866 170.487 256.478 173.312C247.089 176.136 226.734 165.834 221.084 144.482C215.435 123.129 225.737 108.174 232.55 107.593Z" fill="#FC7575"/>
<path d="M215.517 261.297V261.214C215.767 258.721 222.579 199.649 222.579 195.993C222.579 195.827 222.413 195.661 222.247 195.661C222.081 195.661 221.915 195.827 221.915 195.993C221.915 199.566 215.102 258.97 214.853 261.131L184.361 322.197L182.616 321.033C182.533 321.2 182.45 321.449 182.367 321.615L188.515 325.852C188.515 325.603 188.515 325.437 188.515 325.437L188.681 325.188L184.943 322.612L215.517 261.297Z" fill="#2846A6"/>
<path d="M248.419 118.892C247.089 132.933 235.541 154.618 217.595 165.419C213.773 167.745 209.785 169.573 205.548 171.068C205.631 169.656 205.631 168.327 205.714 167.163C236.455 156.695 247.754 123.379 246.508 115.236C245.926 110.667 241.024 107.759 236.289 107.676C226.983 107.593 221.915 119.474 218.26 128.281L217.346 127.948L216.764 127.699C218.675 122.714 221.167 117.147 224.491 112.91C225.82 111.248 227.233 109.753 228.894 108.59C236.621 103.023 247.256 107.593 248.419 114.904C248.668 116.317 248.585 117.563 248.419 118.892Z" fill="#18287D"/>
<path d="M250.828 157.027C243.517 154.535 245.677 127.533 245.677 116.981C245.677 106.43 232.55 107.593 232.55 107.593C225.82 108.174 215.767 123.046 221.333 144.482C226.9 165.917 247.338 176.22 256.727 173.312C262.709 171.484 274.423 161.68 282.067 154.867C280.821 152.375 279.492 149.965 277.913 147.722C269.023 150.879 250.828 157.027 250.828 157.027Z" fill="#FFCB57"/>
<path d="M227.149 110.999C230.14 107.925 232.134 107.593 235.374 107.842C241.273 108.258 245.677 110.999 245.76 116.981C245.76 110.833 241.356 107.925 235.374 107.427C232.882 107.261 231.386 107.26 229.226 108.59C215.434 117.397 213.607 154.95 240.941 170.155C242.769 171.152 244.68 171.982 246.674 172.564C220.586 163.508 212.61 126.536 227.149 110.999Z" fill="#FFF7CF"/>
<path d="M212.693 36.8058C212.859 36.8058 214.853 36.8888 214.853 36.9719C214.853 29.9929 214.853 23.0971 214.853 16.1181C220.669 15.2041 226.402 14.2071 232.218 13.2932C232.218 13.5425 232.218 13.7087 232.218 13.9579C232.218 21.3523 232.134 28.7467 232.218 36.2242C232.218 39.2983 230.14 40.7107 228.063 41.043C223.992 41.7908 221.583 38.3013 223.992 35.7257C225.654 33.8979 227.565 33.5655 229.891 34.1471C229.891 29.4114 229.891 24.7587 229.891 20.023C225.654 20.7707 221.5 21.6016 217.18 22.3493C217.18 22.5986 217.18 33.8148 217.096 39.2152C217.096 42.1231 215.102 43.8678 212.361 44.034C206.046 44.2002 207.21 37.0551 212.693 36.8058Z" fill="#D1D1FE"/>
<path d="M200.646 4.98499C201.892 5.89891 203.222 6.81283 204.136 8.05908C205.05 9.38841 205.548 10.8008 205.631 12.3794C205.465 12.1302 205.216 11.7978 205.05 11.5486C203.72 9.72076 202.225 8.05908 200.231 6.81283C199.068 6.14817 197.821 5.64967 196.409 5.56659C196.409 5.81584 196.409 5.98201 196.409 6.14818C196.409 13.0441 196.326 19.8569 196.326 26.7528C196.326 28.5806 195.578 29.91 194 30.8239C192.006 31.9871 190.011 32.1532 187.934 31.0731C186.273 30.1592 185.774 28.2483 186.771 26.5866C188.018 24.5926 189.928 23.8449 192.172 23.928C192.67 23.928 193.169 24.0941 193.667 24.0941C193.667 23.928 193.667 23.7618 193.667 23.5957C193.667 16.3674 193.667 9.22226 193.667 1.99402C193.667 0.997019 193.916 0.332333 194.913 0C195.08 0 198.901 3.65566 200.646 4.98499Z" fill="#D1D1FE"/>
<path d="M189.43 248.419C189.513 248.419 190.593 248.419 190.593 248.502C190.593 244.846 190.593 241.274 190.593 237.618C193.584 237.119 196.658 236.621 199.649 236.122C199.649 236.289 199.649 236.372 199.649 236.455C199.649 240.36 199.649 244.182 199.649 248.086C199.649 249.665 198.569 250.413 197.489 250.579C195.411 250.994 194.165 249.167 195.328 247.837C196.242 246.923 197.156 246.757 198.403 247.006C198.403 244.514 198.403 242.104 198.403 239.612C196.242 240.027 193.999 240.443 191.756 240.858C191.756 240.941 191.756 246.84 191.756 249.665C191.756 251.16 190.759 252.074 189.263 252.157C186.023 252.241 186.605 248.502 189.43 248.419Z" fill="#D1D1FE"/>
<path d="M172.231 224.075C173.062 224.657 173.976 225.322 174.558 226.153C175.139 226.983 175.555 227.98 175.555 229.06C175.388 228.894 175.305 228.645 175.139 228.479C174.225 227.233 173.228 226.069 171.899 225.322C171.151 224.823 170.32 224.491 169.323 224.491C169.323 224.657 169.323 224.74 169.323 224.906C169.323 229.559 169.24 234.129 169.323 238.781C169.323 240.027 168.825 240.941 167.745 241.523C166.415 242.271 165.086 242.437 163.674 241.689C162.594 241.108 162.178 239.778 162.926 238.698C163.757 237.369 165.086 236.87 166.582 236.87C166.914 236.87 167.246 236.953 167.579 237.036C167.579 236.87 167.579 236.787 167.579 236.704C167.579 231.885 167.579 226.983 167.579 222.165C167.579 221.5 167.745 221.084 168.409 220.835C168.492 220.752 171.068 223.162 172.231 224.075Z" fill="#D1D1FE"/>
<path d="M293.45 53.0071C294.281 53.5887 295.195 54.2534 295.776 55.0842C296.358 55.915 296.773 56.912 296.773 57.9921C296.607 57.8259 296.524 57.5767 296.358 57.4105C295.444 56.1643 294.447 55.0011 293.118 54.2534C292.37 53.7549 291.539 53.4225 290.542 53.4225C290.542 53.5887 290.542 53.6718 290.542 53.8379C290.542 58.4906 290.459 63.0601 290.542 67.7128C290.542 68.959 290.044 69.873 288.964 70.4546C287.634 71.2023 286.305 71.3685 284.892 70.6207C283.812 70.0391 283.397 68.7098 284.145 67.6297C284.976 66.3004 286.305 65.8019 287.8 65.8019C288.133 65.8019 288.465 65.885 288.797 65.9681C288.797 65.8019 288.797 65.7188 288.797 65.6357C288.797 60.8169 288.797 55.915 288.797 51.0962C288.797 50.4315 288.963 50.0161 289.628 49.7668C289.711 49.7668 292.287 52.1763 293.45 53.0071Z" fill="#D1D1FE"/>
<path d="M209.369 10.6346C209.369 10.4684 209.369 10.3022 209.369 10.136C209.369 7.72663 209.369 5.40032 209.369 2.99091C209.369 2.65857 211.363 3.65557 212.194 4.23716C212.942 4.81874 213.44 5.48338 213.523 6.3973C212.693 5.31722 211.779 4.32023 210.283 4.07098C210.283 4.32023 210.283 4.48641 210.283 4.65257C210.283 6.89582 210.283 9.22216 210.283 11.4654C210.283 12.2132 209.951 12.7116 209.286 13.044C208.538 13.3763 207.874 13.3763 207.209 12.8778C206.794 12.5454 206.711 11.9639 207.043 11.3823C207.458 10.8007 208.289 10.3853 209.037 10.5515C209.12 10.6345 209.203 10.6346 209.369 10.6346Z" fill="#D1D1FE"/>
<defs>
<linearGradient id="paint0_linear" x1="304.527" y1="130.387" x2="25.2889" y2="130.387" gradientUnits="userSpaceOnUse">
<stop stop-color="#D844FF"/>
<stop offset="1" stop-color="#28B7FF"/>
</linearGradient>
<linearGradient id="paint1_linear" x1="26.6861" y1="130.996" x2="-6.89536" y2="134.531" gradientUnits="userSpaceOnUse">
<stop stop-color="#4D4D4D"/>
<stop offset="1" stop-color="white"/>
</linearGradient>
<linearGradient id="paint2_linear" x1="26.6265" y1="130.069" x2="-6.9538" y2="133.604" gradientUnits="userSpaceOnUse">
<stop stop-color="#4D4D4D"/>
<stop offset="1" stop-color="white"/>
</linearGradient>
<linearGradient id="paint3_linear" x1="26.5643" y1="129.119" x2="-7.01726" y2="132.654" gradientUnits="userSpaceOnUse">
<stop stop-color="#4D4D4D"/>
<stop offset="1" stop-color="white"/>
</linearGradient>
</defs>
</svg>
