<svg width="500" height="332" viewBox="0 0 500 332" fill="none" xmlns="http://www.w3.org/2000/svg">
<path d="M385.641 165C385.641 166.855 384.14 168.445 382.197 168.445C380.342 168.445 378.753 166.943 378.753 165C378.753 163.145 380.254 161.555 382.197 161.555C384.14 161.555 385.641 163.145 385.641 165ZM383.963 165C383.963 164.029 383.168 163.322 382.285 163.322C381.314 163.322 380.607 164.117 380.607 165C380.607 165.972 381.402 166.678 382.285 166.678C383.168 166.678 383.963 165.972 383.963 165Z" fill="#91A8F6"/>
<path d="M442.865 40.1901H423.614C423.172 40.1901 422.73 40.5434 422.73 41.0734C422.73 41.515 423.084 41.9567 423.614 41.9567H442.865C443.306 41.9567 443.748 41.6033 443.748 41.0734C443.748 40.6317 443.395 40.1901 442.865 40.1901Z" fill="#91A8F6"/>
<path d="M417.432 40.1901H413.635C413.193 40.1901 412.752 40.5434 412.752 41.0734C412.752 41.515 413.105 41.9567 413.635 41.9567H417.432C417.874 41.9567 418.315 41.6033 418.315 41.0734C418.315 40.6317 417.962 40.1901 417.432 40.1901Z" fill="#91A8F6"/>
<path d="M433.858 46.9915C433.858 47.4331 433.504 47.8748 432.974 47.8748H430.59C430.149 47.8748 429.707 47.5214 429.707 46.9915C429.707 46.5498 430.06 46.1082 430.59 46.1082H432.974C433.416 46.1082 433.858 46.4615 433.858 46.9915ZM427.234 46.9915C427.234 47.4331 426.881 47.8748 426.351 47.8748H422.113C421.671 47.8748 421.23 47.5214 421.23 46.9915C421.23 46.5498 421.583 46.1082 422.113 46.1082H426.351C426.793 46.1082 427.234 46.4615 427.234 46.9915ZM418.757 46.9915C418.757 47.4331 418.404 47.8748 417.874 47.8748H413.635C413.193 47.8748 412.752 47.5214 412.752 46.9915C412.752 46.5498 413.105 46.1082 413.635 46.1082H417.874C418.404 46.1082 418.757 46.4615 418.757 46.9915Z" fill="#91A8F6"/>
<path d="M129.902 96.6328C129.46 96.6328 129.019 96.9861 129.019 97.5161V99.4594C129.019 99.901 129.372 100.343 129.902 100.343C130.343 100.343 130.785 99.9894 130.785 99.4594V97.5161C130.696 97.0745 130.343 96.6328 129.902 96.6328Z" fill="#91A8F6"/>
<path d="M127.694 94.6896H125.751C125.31 94.6896 124.868 95.0429 124.868 95.5729C124.868 96.0145 125.221 96.4562 125.751 96.4562H127.694C128.136 96.4562 128.577 96.1028 128.577 95.5729C128.489 95.0429 128.136 94.6896 127.694 94.6896Z" fill="#91A8F6"/>
<path d="M129.902 90.6263C129.46 90.6263 129.019 90.9797 129.019 91.5096V93.4529C129.019 93.8946 129.372 94.3362 129.902 94.3362C130.343 94.3362 130.785 93.9829 130.785 93.4529V91.5096C130.696 91.068 130.343 90.6263 129.902 90.6263Z" fill="#91A8F6"/>
<path d="M134.052 94.6012H132.11C131.668 94.6012 131.227 94.9545 131.227 95.4845C131.227 95.9262 131.58 96.3678 132.11 96.3678H134.052C134.494 96.3678 134.936 96.0145 134.936 95.4845C134.936 94.9545 134.494 94.6012 134.052 94.6012Z" fill="#91A8F6"/>
<path d="M342.194 41.9567C341.752 41.9567 341.311 42.31 341.311 42.84V44.7832C341.311 45.2249 341.664 45.6665 342.194 45.6665C342.635 45.6665 343.077 45.3132 343.077 44.7832V42.84C342.988 42.31 342.635 41.9567 342.194 41.9567Z" fill="#91A8F6"/>
<path d="M339.986 40.0134H338.043C337.602 40.0134 337.16 40.3667 337.16 40.8967C337.16 41.3384 337.513 41.78 338.043 41.78H339.986C340.428 41.78 340.869 41.4267 340.869 40.8967C340.781 40.3667 340.428 40.0134 339.986 40.0134Z" fill="#91A8F6"/>
<path d="M342.194 35.9502C341.752 35.9502 341.311 36.3035 341.311 36.8335V38.7768C341.311 39.2184 341.664 39.66 342.194 39.66C342.635 39.66 343.077 39.3067 343.077 38.7768V36.8335C342.988 36.3035 342.635 35.9502 342.194 35.9502Z" fill="#91A8F6"/>
<path d="M346.344 39.8367H344.402C343.96 39.8367 343.519 40.19 343.519 40.72C343.519 41.1616 343.872 41.6033 344.402 41.6033H346.344C346.786 41.6033 347.228 41.2499 347.228 40.72C347.228 40.19 346.786 39.8367 346.344 39.8367Z" fill="#91A8F6"/>
<path d="M263.512 0H244.261C243.819 0 243.378 0.353319 243.378 0.883298C243.378 1.32495 243.731 1.7666 244.261 1.7666H263.512C263.954 1.7666 264.395 1.41328 264.395 0.883298C264.307 0.353319 263.954 0 263.512 0Z" fill="#91A8F6"/>
<path d="M238.079 0H234.282C233.84 0 233.398 0.353319 233.398 0.883298C233.398 1.32495 233.752 1.7666 234.282 1.7666H238.079C238.52 1.7666 238.962 1.41328 238.962 0.883298C238.874 0.353319 238.52 0 238.079 0Z" fill="#91A8F6"/>
<path d="M254.416 6.71301C254.416 7.15466 254.063 7.59631 253.533 7.59631H251.149C250.707 7.59631 250.266 7.24299 250.266 6.71301C250.266 6.27136 250.619 5.82971 251.149 5.82971H253.533C254.063 5.91804 254.416 6.27136 254.416 6.71301ZM247.793 6.71301C247.793 7.15466 247.44 7.59631 246.91 7.59631H242.671C242.23 7.59631 241.788 7.24299 241.788 6.71301C241.788 6.27136 242.141 5.82971 242.671 5.82971H246.91C247.44 5.91804 247.793 6.27136 247.793 6.71301ZM239.315 6.71301C239.315 7.15466 238.962 7.59631 238.432 7.59631H234.194C233.752 7.59631 233.311 7.24299 233.311 6.71301C233.311 6.27136 233.664 5.82971 234.194 5.82971H238.432C238.962 5.91804 239.315 6.27136 239.315 6.71301Z" fill="#91A8F6"/>
<path d="M470.858 88.4181C470.858 90.0964 472.183 91.4213 473.861 91.4213C475.539 91.4213 476.863 90.0964 476.863 88.4181C476.863 86.7399 475.539 85.4149 473.861 85.4149C472.183 85.5032 470.858 86.8282 470.858 88.4181Z" fill="#91A8F6"/>
<path d="M80.1839 234.516H99.435C99.8765 234.516 100.318 234.162 100.318 233.632C100.318 233.191 99.9649 232.749 99.435 232.749H80.1839C79.7423 232.749 79.3008 233.102 79.3008 233.632C79.3008 234.162 79.7423 234.516 80.1839 234.516Z" fill="#91A8F6"/>
<path d="M70.2932 234.516H74.0905C74.532 234.516 74.9736 234.162 74.9736 233.632C74.9736 233.191 74.6203 232.749 74.0905 232.749H70.2932C69.8517 232.749 69.4102 233.102 69.4102 233.632C69.4102 234.162 69.7634 234.516 70.2932 234.516Z" fill="#91A8F6"/>
<path d="M444.72 248.207C444.72 248.207 445.868 256.421 436.242 256.245C436.242 256.245 444.455 256.333 444.278 264.018C444.278 264.018 444.985 257.923 452.579 256.598C452.579 256.686 446.221 258.1 444.72 248.207Z" fill="#91A8F6"/>
<path d="M490.552 132.23C490.552 132.23 491.7 140.444 482.074 140.268C482.074 140.268 490.287 140.356 490.11 148.041C490.11 148.041 490.817 141.946 498.411 140.621C498.411 140.621 492.053 142.123 490.552 132.23Z" fill="#91A8F6"/>
<path d="M185.977 20.9342C185.977 20.9342 187.125 29.1489 177.499 28.9722C177.499 28.9722 185.712 29.0605 185.535 36.7452C185.535 36.7452 186.242 30.6505 193.836 29.3255C193.836 29.3255 187.478 30.8271 185.977 20.9342Z" fill="#91A8F6"/>
<path d="M103.32 43.6349C103.32 43.6349 104.468 51.8496 94.8428 51.6729C94.8428 51.6729 103.055 51.7612 102.879 59.4459C102.879 59.4459 103.585 53.3512 111.18 52.0262C111.18 52.0262 104.822 53.5278 103.32 43.6349Z" fill="#91A8F6"/>
<path d="M153.392 8.47961C153.392 8.47961 153.833 11.3062 150.478 11.3062C150.478 11.3062 153.392 11.3062 153.303 14.0444C153.303 14.0444 153.568 11.9245 156.218 11.4828C156.129 11.3945 153.922 11.9245 153.392 8.47961Z" fill="#91A8F6"/>
<path d="M303.779 107.321C303.779 107.321 304.221 110.147 300.865 110.147C300.865 110.147 303.779 110.147 303.691 112.886C303.691 112.886 303.956 110.766 306.605 110.324C306.517 110.236 304.309 110.766 303.779 107.321Z" fill="#91A8F6"/>
<path d="M25.1681 156.255C25.1681 156.255 25.6096 159.082 22.2539 159.082C22.2539 159.082 25.1681 159.082 25.0798 161.82C25.0798 161.82 25.3447 159.7 27.9939 159.259C27.9056 159.259 25.6979 159.7 25.1681 156.255Z" fill="#91A8F6"/>
<path d="M275.168 233.544C275.168 233.544 275.61 236.371 272.254 236.371C272.254 236.371 275.168 236.371 275.08 239.109C275.08 239.109 275.345 236.989 277.994 236.547C277.994 236.459 275.698 236.989 275.168 233.544Z" fill="#91A8F6"/>
<path d="M161.427 187.348H142.706C140.322 187.348 138.379 185.404 138.379 183.019C138.379 180.635 140.233 178.78 142.618 178.691C142.706 175.07 145.708 172.067 149.329 172.067C151.625 172.067 153.745 173.215 154.981 175.158C157.542 174.805 159.749 176.395 160.368 178.691H161.427C163.812 178.691 165.754 180.635 165.754 183.019C165.754 185.404 163.812 187.348 161.427 187.348ZM142.706 179.928C141.028 179.928 139.615 181.341 139.615 183.019C139.615 184.698 141.028 186.111 142.706 186.111H161.427C163.105 186.111 164.518 184.698 164.518 183.019C164.518 181.341 163.105 179.928 161.427 179.928H159.308L159.22 179.398C158.866 177.366 156.924 175.953 154.804 176.395L154.363 176.483L154.098 176.041C153.126 174.275 151.272 173.215 149.329 173.215C146.327 173.215 143.854 175.688 143.854 178.691C143.854 178.868 143.854 179.045 143.854 179.133L143.942 179.84H142.706V179.928Z" fill="#91A8F6"/>
<path d="M495.585 28.7955H476.863C474.479 28.7955 472.536 26.8522 472.536 24.4673C472.536 22.0824 474.391 20.2275 476.775 20.1391C476.863 16.5176 479.866 13.5144 483.486 13.5144C485.782 13.5144 487.902 14.6627 489.138 16.6059C491.699 16.2526 493.907 17.8426 494.525 20.1391H495.585C497.969 20.1391 499.912 22.0824 499.912 24.4673C499.912 26.8522 498.057 28.7955 495.585 28.7955ZM476.863 21.3758C475.185 21.3758 473.772 22.789 473.772 24.4673C473.772 26.1456 475.185 27.5588 476.863 27.5588H495.585C497.262 27.5588 498.675 26.1456 498.675 24.4673C498.675 22.789 497.262 21.3758 495.585 21.3758H493.465L493.377 20.8458C493.024 18.8142 491.081 17.4009 488.961 17.8426L488.52 17.9309L488.255 17.4892C487.284 15.7226 485.429 14.6627 483.486 14.6627C480.484 14.6627 478.011 17.1359 478.011 20.1391C478.011 20.3158 478.011 20.4925 478.011 20.5808L478.1 21.2874H476.863V21.3758Z" fill="#91A8F6"/>
<path d="M205.582 76.6703H186.86C184.476 76.6703 182.533 74.7271 182.533 72.3422C182.533 69.9573 184.388 68.1023 186.772 68.014C186.86 64.3925 189.863 61.3893 193.483 61.3893C195.779 61.3893 197.899 62.5376 199.135 64.4808C201.696 64.1275 203.904 65.7174 204.522 68.014H205.582C207.966 68.014 209.909 69.9573 209.909 72.3422C209.909 74.7271 207.966 76.6703 205.582 76.6703ZM186.86 69.2506C185.182 69.2506 183.77 70.6639 183.77 72.3422C183.77 74.0204 185.182 75.4337 186.86 75.4337H205.582C207.259 75.4337 208.672 74.0204 208.672 72.3422C208.672 70.6639 207.259 69.2506 205.582 69.2506H203.462L203.374 68.7207C203.021 66.6891 201.078 65.2758 198.958 65.7174L198.517 65.8058L198.252 65.3641C197.281 63.5975 195.426 62.5376 193.483 62.5376C190.481 62.5376 188.008 65.0108 188.008 68.014C188.008 68.1907 188.008 68.3673 188.008 68.4557L188.097 69.1623H186.86V69.2506Z" fill="#91A8F6"/>
<path d="M264.218 316.839C256.182 319.136 247.792 314.454 245.496 306.416L233.486 263.93C231.19 255.892 235.871 247.5 243.907 245.204C251.943 242.907 260.332 247.589 262.628 255.627L274.638 298.113C276.934 306.151 272.254 314.543 264.218 316.839Z" fill="#93C7EA"/>
<path d="M247.086 316.486C241.081 310.656 240.993 301.028 246.909 295.11L277.817 263.576C283.645 257.57 293.271 257.481 299.188 263.4C305.192 269.229 305.281 278.857 299.364 284.775L268.456 316.309C262.628 322.227 253.091 322.316 247.086 316.486Z" fill="#93C7EA"/>
<path d="M308.549 255.98C312.611 262.075 310.933 270.289 304.84 274.352C298.746 278.416 290.534 276.737 286.472 270.643C282.409 264.548 284.087 256.333 290.181 252.27C296.274 248.207 304.486 249.885 308.549 255.98Z" fill="#FF8383"/>
<path d="M288.679 261.368C286.824 261.81 284.97 260.75 284.44 258.895L283.292 254.302C282.851 252.447 283.91 250.592 285.765 250.062C287.619 249.62 289.474 250.68 290.004 252.535L291.152 257.128C291.593 259.071 290.445 260.926 288.679 261.368Z" fill="#FF8383"/>
<path d="M301.925 245.645L297.245 257.57C296.539 259.425 294.419 260.308 292.565 259.601C290.71 258.895 289.827 256.775 290.534 254.92L295.214 242.995C295.921 241.14 298.04 240.257 299.894 240.964C301.749 241.759 302.632 243.879 301.925 245.645Z" fill="#FF8383"/>
<path d="M310.226 248.207L304.574 259.69C303.691 261.456 301.572 262.163 299.806 261.28C298.039 260.396 297.333 258.276 298.216 256.51L303.868 245.027C304.751 243.26 306.87 242.554 308.636 243.437C310.403 244.232 311.109 246.44 310.226 248.207Z" fill="#FF8383"/>
<path d="M316.408 254.567L308.46 264.636C307.224 266.226 305.016 266.491 303.427 265.254C301.837 264.018 301.572 261.81 302.809 260.22L310.756 250.15C311.993 248.56 314.2 248.295 315.79 249.532C317.379 250.768 317.644 252.977 316.408 254.567Z" fill="#FF8383"/>
<path d="M231.455 230.364L226.333 230.188C222.889 230.011 220.152 227.096 220.328 223.651L221.388 196.269L239.05 196.976L237.99 224.358C237.813 227.803 234.899 230.453 231.455 230.364Z" fill="#FF8383"/>
<path d="M239.05 196.004L221.388 195.297L221.123 202.275C220.858 209.077 226.422 215.083 233.222 214.553C233.663 214.553 234.105 214.465 234.458 214.377C235.871 214.112 237.195 213.582 238.432 212.963L239.05 196.004Z" fill="#D15E79"/>
<path d="M232.464 194.024C244.195 190.703 251.639 180.705 249.089 171.693C246.539 162.68 234.962 158.067 223.23 161.388C211.498 164.708 204.054 174.707 206.604 183.719C209.154 192.731 220.732 197.345 232.464 194.024Z" fill="#1B2A67"/>
<path d="M243.66 189.377C254.335 187.563 262.035 180.478 260.858 173.552C259.682 166.626 250.075 162.483 239.4 164.297C228.726 166.111 221.026 173.196 222.202 180.121C223.379 187.047 232.986 191.191 243.66 189.377Z" fill="#1B2A67"/>
<path d="M239.269 179.179C247.219 171.828 249.799 161.687 245.032 156.529C240.265 151.37 229.955 153.148 222.005 160.499C214.054 167.851 211.474 177.992 216.241 183.15C221.008 188.308 231.318 186.53 239.269 179.179Z" fill="#1B2A67"/>
<path d="M249.293 191.587C251.059 201.304 245.938 210.402 237.902 211.815C229.866 213.228 221.918 206.515 220.24 196.71L218.827 189.026C217.061 179.31 222.183 170.212 230.219 168.798C238.255 167.385 246.203 174.098 247.88 183.903L249.293 191.587Z" fill="#FF8383"/>
<path d="M232.162 167.738C227.747 163.675 219.975 165.618 214.854 172.067C209.732 178.515 209.202 186.994 213.706 190.969C218.121 195.032 225.892 193.089 231.014 186.641C236.047 180.193 236.577 171.713 232.162 167.738Z" fill="#1B2A67"/>
<path d="M235.076 189.467C234.811 189.467 234.546 189.379 234.37 189.114C234.105 188.761 234.193 188.231 234.546 187.966C234.635 187.878 237.196 186.111 239.933 187.701C240.287 187.966 240.463 188.408 240.198 188.849C239.933 189.202 239.492 189.379 239.05 189.114C237.196 188.054 235.43 189.202 235.43 189.291C235.341 189.379 235.165 189.467 235.076 189.467Z" fill="#86294E"/>
<path d="M249.029 189.467C248.853 189.467 248.676 189.379 248.588 189.291C248.499 189.202 246.733 188.054 244.967 189.114C244.614 189.379 244.084 189.202 243.819 188.849C243.554 188.496 243.731 187.966 244.084 187.701C246.821 186.111 249.382 187.878 249.471 187.966C249.824 188.231 249.912 188.761 249.647 189.114C249.471 189.291 249.206 189.467 249.029 189.467Z" fill="#86294E"/>
<path d="M238.697 191.587C238.697 192.029 238.256 192.382 237.814 192.382C237.373 192.382 237.02 191.941 237.02 191.499C237.02 191.057 237.461 190.704 237.903 190.704C238.344 190.792 238.697 191.146 238.697 191.587Z" fill="#86294E"/>
<path d="M246.733 191.941C246.733 192.382 246.291 192.736 245.849 192.736C245.408 192.736 245.055 192.294 245.055 191.852C245.055 191.411 245.496 191.057 245.938 191.057C246.468 191.057 246.821 191.499 246.733 191.941Z" fill="#86294E"/>
<path d="M248.764 197.77C248.676 197.77 248.588 197.77 248.499 197.77C246.733 197.682 245.055 196.976 243.907 195.651C242.671 194.326 242.053 192.647 242.141 190.881C242.229 189.114 242.936 187.436 244.26 186.288C245.585 185.051 247.263 184.433 249.029 184.521C250.795 184.609 252.473 185.316 253.621 186.641C254.857 187.966 255.476 189.644 255.387 191.411C255.299 193.177 254.593 194.856 253.268 196.004C252.032 197.152 250.442 197.77 248.764 197.77ZM248.764 185.669C247.351 185.669 246.027 186.199 245.055 187.171C243.996 188.143 243.377 189.556 243.289 190.969C243.201 192.471 243.731 193.884 244.79 194.944C245.762 196.004 247.175 196.622 248.588 196.711C250.089 196.711 251.502 196.269 252.561 195.209C253.621 194.237 254.239 192.824 254.328 191.411C254.416 189.909 253.886 188.496 252.826 187.436C251.855 186.376 250.442 185.758 249.029 185.669C248.853 185.669 248.764 185.669 248.764 185.669Z" fill="#FFD2D4"/>
<path d="M234.458 198.035C234.37 198.035 234.281 198.035 234.193 198.035C230.131 197.859 226.863 194.414 227.04 190.262C227.128 188.231 227.923 186.464 229.424 185.051C230.926 183.726 232.78 183.019 234.811 183.108C236.754 183.196 238.608 183.991 240.021 185.493C241.434 186.994 242.052 188.849 241.964 190.881C241.876 192.912 241.081 194.679 239.58 196.092C238.167 197.329 236.401 198.035 234.458 198.035ZM234.458 184.433C232.868 184.433 231.455 185.051 230.307 186.111C229.071 187.259 228.365 188.761 228.365 190.439C228.188 193.884 230.926 196.711 234.281 196.887C235.871 196.976 237.549 196.357 238.697 195.209C239.933 194.061 240.639 192.559 240.639 190.881C240.728 189.203 240.11 187.613 238.962 186.464C237.814 185.228 236.312 184.521 234.635 184.521C234.635 184.433 234.546 184.433 234.458 184.433Z" fill="#FFD2D4"/>
<path d="M240.639 191.764L243.377 191.852C243.73 191.852 243.995 191.587 243.995 191.322C243.995 190.969 243.73 190.704 243.465 190.704L240.728 190.616C240.374 190.616 240.109 190.881 240.109 191.146C240.109 191.499 240.374 191.764 240.639 191.764Z" fill="#FFD2D4"/>
<path d="M246.115 195.651C246.026 196.622 244.878 197.506 243.642 197.594C242.317 197.682 241.346 197.064 241.434 196.092C241.523 195.121 242.671 194.237 243.907 194.149C245.232 193.972 246.203 194.679 246.115 195.651Z" fill="#86294E"/>
<path d="M245.585 200.863C245.496 203.071 243.465 204.838 241.081 204.749C238.697 204.661 237.284 202.276 237.372 200.068C240.198 199.714 242.936 199.979 245.585 200.863Z" fill="#86294E"/>
<path d="M241.434 202.187C239.491 201.922 238.343 201.304 238.255 199.89C240.639 199.802 242.935 199.979 245.231 200.685C244.878 202.01 243.288 202.452 241.434 202.187Z" fill="#FFD2D4"/>
<path d="M235.783 205.632H231.014C229.071 205.632 227.217 204.925 225.804 203.6L222.801 200.95C222.536 200.774 222.536 200.332 222.801 200.155C222.978 199.89 223.419 199.89 223.596 200.155L226.598 202.805C227.835 203.865 229.336 204.484 231.014 204.484H235.783C236.136 204.484 236.401 204.749 236.401 205.102C236.312 205.367 236.047 205.632 235.783 205.632Z" fill="#201028"/>
<path d="M235.782 206.162H233.839C233.221 206.162 232.691 205.632 232.691 205.014C232.691 204.395 233.221 203.865 233.839 203.865H235.782C236.4 203.865 236.93 204.395 236.93 205.014C236.93 205.632 236.4 206.162 235.782 206.162Z" fill="#FFD2D4"/>
<path d="M229.316 198.242C231.126 193.243 228.542 187.722 223.543 185.912C218.545 184.101 213.026 186.686 211.216 191.686C209.406 196.685 211.99 202.206 216.988 204.016C221.987 205.827 227.506 203.242 229.316 198.242Z" fill="#445EEA"/>
<path d="M226.336 195.199C226.514 190.665 223.301 186.859 219.158 186.696C215.016 186.533 211.514 190.075 211.335 194.609C211.157 199.142 214.371 202.949 218.513 203.112C222.655 203.275 226.158 199.732 226.336 195.199Z" fill="#91A8F6"/>
<path d="M220.064 194.944C219.975 196.799 218.739 198.212 217.326 198.212C215.913 198.124 214.765 196.622 214.853 194.767C214.942 192.912 216.178 191.499 217.591 191.499C219.004 191.499 220.064 193.089 220.064 194.944Z" fill="#E0EEF7"/>
<path d="M243.642 329.823L197.457 331.148C189.774 330.883 183.769 324.347 184.034 316.662L186.948 239.285C187.125 235.222 189.774 231.689 193.659 230.541L228.1 219.588L255.652 232.749C259.096 234.427 261.215 237.96 261.127 241.759L258.213 316.397C257.771 324.17 251.325 330.088 243.642 329.823Z" fill="#93C7EA"/>
<path d="M261.039 241.759C261.215 249.797 261.127 257.923 260.95 265.961C260.862 273.999 260.597 282.037 260.244 290.075C259.891 298.113 259.537 306.151 259.008 314.189C258.919 316.132 258.831 318.341 258.036 320.372C257.33 322.404 256.182 324.259 254.769 325.672C251.766 328.587 247.616 330.265 243.554 329.824C247.616 329.735 251.413 327.969 253.974 324.965C255.21 323.552 256.182 321.785 256.712 319.931C257.241 318.076 257.241 316.221 257.241 314.189C257.33 306.151 257.595 298.113 257.948 290.075C258.301 282.037 258.654 273.999 259.184 265.961C259.714 257.835 260.244 249.797 261.039 241.759Z" fill="#6EACCE"/>
<path d="M240.727 234.162L215.824 232.572L216.796 217.733C216.884 215.878 218.473 214.465 220.328 214.641L238.608 215.79C240.462 215.878 241.875 217.468 241.698 219.323L240.727 234.162Z" fill="#93C7EA"/>
<path d="M166.372 307.123C158.69 303.943 154.981 295.022 158.16 287.337L175.115 246.617C178.294 238.932 187.213 235.222 194.896 238.402C202.579 241.582 206.288 250.503 203.108 258.188L186.153 298.908C182.974 306.681 174.143 310.391 166.372 307.123Z" fill="#93C7EA"/>
<path d="M194.896 238.402C197.634 239.285 200.106 241.052 201.873 243.349C203.639 245.645 204.787 248.56 205.052 251.563C205.493 254.566 204.522 257.658 203.374 260.22L200.195 268.081C197.987 273.292 195.779 278.504 193.395 283.627L189.863 291.312C188.626 293.873 187.39 296.435 186.065 298.908C186.949 296.17 187.92 293.52 188.803 290.87L191.717 282.92C193.66 277.621 195.868 272.409 197.987 267.109L201.343 259.336C201.873 258.011 202.491 256.863 202.756 255.538C203.109 254.301 203.285 252.977 203.197 251.563C203.285 246.263 200.018 241.052 194.896 238.402Z" fill="#6EACCE"/>
<path d="M236.842 285.835L229.159 285.305C226.245 285.129 224.037 282.655 224.214 279.741L224.479 276.296C224.656 273.381 227.128 271.173 230.042 271.349L237.725 271.879L236.842 285.835ZM229.866 274.794C228.894 274.706 228.011 275.501 227.923 276.472L227.658 279.917C227.57 280.889 228.364 281.772 229.336 281.86L233.575 282.125L234.016 275.059L229.866 274.794Z" fill="#86294E"/>
<path d="M244.349 296.877L237.637 296.435C233.575 296.17 230.484 292.637 230.749 288.662L232.162 267.198C232.339 264.813 253.621 266.138 253.533 268.611L252.12 290.075C251.943 294.05 248.411 297.142 244.349 296.877Z" fill="#D15E79"/>
<path d="M251.413 269.141C251.325 270.024 247.439 270.466 242.582 270.113C237.725 269.759 233.84 268.876 233.928 267.993C234.017 267.109 237.902 266.668 242.759 267.021C247.616 267.374 251.502 268.346 251.413 269.141Z" fill="#86294E"/>
<path d="M157.983 293.52C158.072 285.129 164.96 278.504 173.349 278.592L217.503 279.299C225.892 279.387 232.515 286.277 232.427 294.668C232.339 303.06 225.451 309.684 217.061 309.596L172.907 308.889C164.518 308.801 157.895 301.911 157.983 293.52Z" fill="#93C7EA"/>
<path d="M173.349 278.592C179 278.239 184.652 278.062 190.304 277.974C195.955 277.886 201.607 277.886 207.259 277.974L215.736 278.151C218.474 278.151 221.83 278.592 224.391 280.094C227.04 281.507 229.248 283.715 230.661 286.277C232.073 288.839 232.692 291.842 232.338 294.668C231.985 289.015 228.453 283.892 223.596 281.684C222.36 281.154 221.123 280.801 219.799 280.536C218.474 280.271 217.149 280.359 215.736 280.359L207.259 280.271C201.607 280.182 195.955 280.006 190.304 279.741C184.652 279.476 179 279.211 173.349 278.592Z" fill="#6EACCE"/>
<path d="M244.653 299.839C249.325 294.208 248.548 285.854 242.918 281.181C237.288 276.508 228.936 277.285 224.265 282.917C219.593 288.548 220.37 296.902 226 301.575C231.63 306.248 239.981 305.471 244.653 299.839Z" fill="#FF8383"/>
<path d="M227.57 285.04C225.892 284.51 225.009 282.655 225.627 280.977L227.04 276.914C227.57 275.236 229.425 274.352 231.102 274.971C232.78 275.501 233.663 277.356 233.045 279.034L231.632 283.097C231.014 284.775 229.248 285.659 227.57 285.04Z" fill="#FF8383"/>
<path d="M253.002 286.807L241.258 287.867C239.403 288.044 237.813 286.719 237.637 284.864C237.46 283.009 238.785 281.419 240.639 281.242L252.384 280.182C254.239 280.006 255.828 281.331 256.005 283.185C256.093 284.952 254.769 286.63 253.002 286.807Z" fill="#FF8383"/>
<path d="M250.442 297.583L238.609 296.788C236.754 296.7 235.43 295.11 235.518 293.255C235.606 291.4 237.196 290.075 239.05 290.163L250.883 290.958C252.738 291.047 254.063 292.637 253.974 294.492C253.886 296.347 252.296 297.76 250.442 297.583Z" fill="#FF8383"/>
<path d="M370.453 257.393C370.1 257.393 369.746 257.216 369.481 256.951C368.952 256.421 368.952 255.538 369.481 255.008L382.728 241.759C383.257 241.229 384.14 241.229 384.67 241.759C385.2 242.289 385.2 243.172 384.67 243.702L371.424 256.951C371.159 257.216 370.806 257.393 370.453 257.393Z" fill="#445EEA"/>
<path d="M361.004 249.267C360.209 249.267 359.591 248.648 359.591 247.853V229.128C359.591 228.333 360.209 227.714 361.004 227.714C361.799 227.714 362.417 228.333 362.417 229.128V247.853C362.417 248.648 361.799 249.267 361.004 249.267Z" fill="#445EEA"/>
<path d="M397.21 266.756H378.489C377.694 266.756 377.076 266.138 377.076 265.343C377.076 264.548 377.694 263.929 378.489 263.929H397.21C398.005 263.929 398.623 264.548 398.623 265.343C398.623 266.138 398.005 266.756 397.21 266.756Z" fill="#445EEA"/>
<path d="M231.279 324.877H345.55C348.729 324.877 349.7 322.315 349.7 319.135H225.539C225.539 322.315 228.1 324.877 231.279 324.877Z" fill="#6EACCE"/>
<path d="M224.656 319.135H265.189C265.189 322.315 262.275 324.877 258.654 324.877H232.074C232.074 324.877 224.567 324.877 224.479 324.877C220.77 324.877 220.947 319.135 224.656 319.135Z" fill="#6EACCE"/>
<path d="M267.75 320.814H349.788C352.261 320.814 354.292 319.047 354.734 316.662L365.772 269.229C366.39 266.138 364.006 263.223 360.827 263.223H278.789C276.316 263.223 274.285 264.989 273.844 267.374L262.805 314.807C262.187 317.899 264.571 320.814 267.75 320.814Z" fill="#E0EEF7"/>
<path d="M273.755 267.286C274.02 265.961 274.726 264.813 275.786 264.106C277.287 265.254 278.17 267.109 277.817 269.141L266.778 316.574C266.514 317.899 265.807 318.959 264.747 319.754C263.246 318.606 262.363 316.751 262.716 314.719L273.755 267.286Z" fill="#6EACCE"/>
<path d="M325.415 298.025H311.993C309.255 298.025 306.959 295.816 306.959 292.99C306.959 290.252 309.167 287.955 311.993 287.955H325.415C328.153 287.955 330.449 290.163 330.449 292.99C330.361 295.816 328.153 298.025 325.415 298.025Z" fill="white"/>
<path d="M236.93 320.726H232.868C232.073 320.726 231.455 320.107 231.455 319.312C231.455 318.517 232.073 317.899 232.868 317.899H236.93C237.725 317.899 238.343 318.517 238.343 319.312C238.343 320.107 237.725 320.726 236.93 320.726Z" fill="#6EACCE"/>
<path d="M244.79 320.726H240.727C239.933 320.726 239.314 320.107 239.314 319.312C239.314 318.517 239.933 317.899 240.727 317.899H244.79C245.584 317.899 246.202 318.517 246.202 319.312C246.202 320.107 245.584 320.726 244.79 320.726Z" fill="#6EACCE"/>
<path d="M252.649 320.726H248.587C247.792 320.726 247.174 320.107 247.174 319.312C247.174 318.517 247.792 317.899 248.587 317.899H252.649C253.444 317.899 254.062 318.517 254.062 319.312C254.15 320.107 253.444 320.726 252.649 320.726Z" fill="#6EACCE"/>
<path d="M260.597 320.726H256.535C255.74 320.726 255.122 320.107 255.122 319.312C255.122 318.517 255.74 317.899 256.535 317.899H260.597C261.392 317.899 262.01 318.517 262.01 319.312C262.01 320.107 261.392 320.726 260.597 320.726Z" fill="#6EACCE"/>
<path d="M410.985 331.502H65.7009C63.7581 331.502 62.2568 329.912 62.2568 328.057C62.2568 326.114 63.8464 324.612 65.7009 324.612H410.985C412.928 324.612 414.429 326.202 414.429 328.057C414.429 330 412.84 331.502 410.985 331.502Z" fill="#1B2A67"/>
<path d="M117.361 303.325C117.361 303.325 114.8 284.245 110.208 279.564" stroke="#1B2A67" stroke-width="0.8269" stroke-miterlimit="10" stroke-linecap="round"/>
<path d="M110.915 268.169C112.151 272.232 111.886 275.942 110.385 276.384C108.883 276.826 106.587 273.911 105.351 269.848V269.759C104.291 266.138 109.767 264.459 110.915 268.081C110.915 268.081 110.915 268.081 110.915 268.169Z" fill="#FFD2D4"/>
<path d="M118.244 277.267C114.182 278.504 110.473 278.239 110.032 276.737C109.59 275.236 112.504 272.939 116.566 271.703H116.655C120.275 270.643 121.953 276.119 118.332 277.267C118.332 277.267 118.332 277.267 118.244 277.267Z" fill="#FFD2D4"/>
<path d="M104.379 281.419C108.442 280.182 111.356 277.974 110.914 276.384C110.473 274.882 106.764 274.617 102.702 275.854H102.613C98.9926 277.002 100.67 282.479 104.291 281.419C104.291 281.507 104.291 281.507 104.379 281.419Z" fill="#FFD2D4"/>
<path d="M111.179 286.1C112.327 282.037 111.974 278.327 110.473 277.886C108.883 277.444 106.764 280.447 105.616 284.51V284.599C104.645 288.22 110.12 289.81 111.179 286.189V286.1Z" fill="#FFD2D4"/>
<path d="M115.154 284.864C111.974 282.125 110.208 278.857 111.268 277.621C112.328 276.384 115.772 277.709 119.039 280.447L119.127 280.536C121.953 283.009 118.244 287.337 115.33 284.952C115.154 284.952 115.154 284.952 115.154 284.864Z" fill="#FFD2D4"/>
<path d="M112.327 276.914C112.68 277.974 112.062 279.034 111.002 279.387C109.942 279.741 108.883 279.122 108.529 278.062C108.176 277.002 108.794 275.942 109.854 275.589C110.914 275.236 111.973 275.854 112.327 276.914Z" fill="#D15E79"/>
<path d="M109.855 291.047C115.153 295.198 118.156 300.233 116.566 302.176C114.977 304.208 109.413 302.441 104.115 298.29C98.8162 294.138 97.4033 287.16 97.4033 287.16C97.4033 287.16 104.556 286.895 109.855 291.047Z" fill="#445EEA"/>
<path d="M128.399 297.318C122.836 302.53 116.654 305.091 114.711 302.971C112.768 300.851 115.683 294.933 121.246 289.633C126.809 284.422 134.934 283.98 134.934 283.98C134.934 283.98 133.962 292.107 128.399 297.318Z" fill="#445EEA"/>
<path d="M124.337 325.76H106.057L102.878 302.795H127.516L124.337 325.76Z" fill="#1B2A67"/>
<path d="M128.487 308.624H101.907C101.2 308.624 100.582 308.006 100.582 307.299V301.381C100.582 300.675 101.2 300.056 101.907 300.056H128.487C129.194 300.056 129.812 300.675 129.812 301.381V307.299C129.724 308.094 129.194 308.624 128.487 308.624Z" fill="#1B2A67"/>
<path d="M170.876 130.993L179.972 140.709L248.94 111.914L170.876 130.993Z" fill="#445EEA"/>
<path d="M174.144 99.0177L167.256 109.264L171.936 119.334L161.604 121.1L152.42 141.151L251.148 111.296L174.144 99.0177Z" fill="#91A8F6"/>
<path d="M171.936 119.334L167.256 109.264L220.771 111.737L171.936 119.334Z" fill="#445EEA"/>
<path d="M166.725 219.058C165.931 219.058 165.224 219.058 164.429 219.058C163.635 219.058 163.016 218.44 163.105 217.645C163.193 216.85 163.811 216.143 164.518 216.32C168.138 216.32 171.671 216.32 175.556 216.143C175.556 216.143 175.556 216.143 175.644 216.143C176.351 216.143 176.969 216.761 177.057 217.468C177.057 218.263 176.527 218.881 175.733 218.881C172.465 218.97 169.551 219.058 166.725 219.058ZM153.302 218.528H153.214C149.417 218.175 145.62 217.733 142.087 217.115C141.293 216.938 140.851 216.231 140.939 215.525C141.116 214.818 141.822 214.288 142.529 214.376C146.061 214.995 149.682 215.436 153.391 215.79C154.186 215.878 154.715 216.496 154.627 217.291C154.627 217.91 154.009 218.528 153.302 218.528ZM131.49 214.465C131.314 214.465 131.225 214.465 131.049 214.376C127.428 213.228 123.896 211.903 120.54 210.313C119.834 209.96 119.569 209.165 119.834 208.458C120.187 207.752 120.982 207.487 121.688 207.752C124.956 209.253 128.4 210.578 131.844 211.638C132.55 211.903 132.992 212.61 132.727 213.405C132.638 214.111 132.109 214.465 131.49 214.465ZM111.444 205.013C111.18 205.013 110.915 204.925 110.65 204.748C107.471 202.629 104.556 200.332 101.731 197.77C101.201 197.24 101.112 196.357 101.642 195.827C102.172 195.297 103.055 195.209 103.585 195.739C106.234 198.212 109.148 200.42 112.151 202.452C112.769 202.894 112.946 203.777 112.504 204.395C112.328 204.837 111.886 205.013 111.444 205.013ZM95.1075 190.086C94.6659 190.086 94.3127 189.909 94.0478 189.556C91.6635 186.641 89.5441 183.461 87.6896 180.193C87.3364 179.486 87.513 178.691 88.2195 178.338C88.9259 177.985 89.7207 178.161 90.0739 178.868C91.8401 182.048 93.9595 185.051 96.1672 187.877C96.6087 188.496 96.5204 189.379 95.9023 189.821C95.7256 189.997 95.4607 190.086 95.1075 190.086ZM84.1573 170.83C83.6274 170.83 83.0976 170.476 82.8327 169.947C81.5081 166.325 80.4484 162.703 79.7419 158.994C79.5653 158.287 80.0951 157.492 80.8016 157.404C81.5964 157.227 82.3028 157.757 82.3911 158.464C83.0976 161.997 84.069 165.442 85.3936 168.887C85.6585 169.593 85.3053 170.388 84.5988 170.653C84.5105 170.741 84.3339 170.83 84.1573 170.83ZM79.7419 149.101C79.0354 149.101 78.4173 148.571 78.329 147.776C78.1523 145.479 78.1523 143.094 78.1523 140.709V140.179C78.1523 138.943 78.1523 137.794 78.2407 136.558C78.2407 135.851 78.8588 135.233 79.6536 135.233C79.6536 135.233 79.6536 135.233 79.7419 135.233C80.5367 135.233 81.0665 135.94 81.0665 136.646C81.0665 137.794 80.9782 139.031 80.9782 140.179V140.709C80.9782 143.094 81.0665 145.391 81.1548 147.599C81.2431 148.394 80.625 149.012 79.8302 149.101C79.8302 149.101 79.8302 149.101 79.7419 149.101Z" fill="#445EEA"/>
<path d="M91.3988 127.107C89.2794 127.107 87.16 127.107 85.1289 127.018C84.3342 127.018 83.8043 126.4 83.8043 125.605C83.8043 124.81 84.4225 124.28 85.2172 124.28C88.7496 124.368 92.4585 124.368 96.2557 124.28C97.1388 124.192 97.6687 124.898 97.6687 125.605C97.6687 126.4 97.0505 127.018 96.344 127.018C94.6662 127.107 92.9883 127.107 91.3988 127.107ZM107.383 126.665C106.676 126.665 106.058 126.135 105.97 125.34C105.97 124.545 106.499 123.927 107.294 123.838C110.915 123.662 114.624 123.397 118.333 123.043C119.039 122.955 119.746 123.573 119.834 124.28C119.922 125.075 119.304 125.693 118.598 125.782C114.889 126.135 111.091 126.488 107.383 126.665C107.471 126.665 107.471 126.665 107.383 126.665ZM74.0904 126.488H74.0021C70.1166 126.223 66.4076 125.782 62.8753 125.252C62.0805 125.163 61.5507 124.457 61.7273 123.662C61.8156 122.867 62.5221 122.425 63.3168 122.513C66.7609 123.043 70.4698 123.397 74.267 123.75C75.0618 123.838 75.5917 124.457 75.5034 125.252C75.415 125.958 74.7969 126.488 74.0904 126.488ZM129.548 124.722C128.841 124.722 128.223 124.192 128.135 123.485C128.047 122.69 128.576 122.072 129.371 121.983C132.992 121.542 136.613 121.1 140.41 120.57C141.205 120.482 141.911 121.012 141.999 121.718C142.088 122.513 141.558 123.22 140.851 123.308C137.054 123.838 133.433 124.368 129.813 124.722C129.724 124.722 129.636 124.722 129.548 124.722ZM52.1017 123.308C52.0134 123.308 51.9251 123.308 51.8368 123.308C49.1876 122.69 46.5383 122.072 44.0657 121.277C43.006 120.923 41.9463 120.658 40.9749 120.305C40.2685 120.04 39.8269 119.245 40.0918 118.539C40.3568 117.832 41.1515 117.39 41.858 117.655C42.8294 118.009 43.8891 118.274 44.8605 118.627C47.2448 119.334 49.8057 120.04 52.455 120.57C53.1614 120.747 53.6913 121.453 53.5147 122.248C53.2497 122.867 52.7199 123.308 52.1017 123.308ZM31.0844 116.154C30.9078 116.154 30.6429 116.065 30.4663 115.977C26.9339 114.299 23.6665 112.355 20.6641 110.236C20.0459 109.794 19.8693 108.911 20.3108 108.292C20.7524 107.674 21.6355 107.497 22.2536 107.939C25.0795 109.971 28.2586 111.825 31.6143 113.504C32.3207 113.857 32.5857 114.652 32.2324 115.359C32.0558 115.889 31.6143 116.154 31.0844 116.154ZM78.6824 114.917C77.8877 114.917 77.2695 114.299 77.2695 113.504V113.062C77.2695 109.529 77.0929 105.996 76.828 102.551C76.7397 101.756 77.3578 101.138 78.0643 101.049C78.7708 100.961 79.4772 101.579 79.5655 102.286C79.8304 105.819 80.0071 109.441 80.0071 113.062V113.592C80.0954 114.299 79.4772 114.917 78.6824 114.917ZM13.1579 103.169C12.8047 103.169 12.4514 102.993 12.0982 102.728C9.53727 99.901 7.24126 96.7211 5.4751 93.4529C5.12186 92.7463 5.38679 91.9513 6.00495 91.598C6.71141 91.2446 7.50618 91.5096 7.85941 92.1279C9.53727 95.2195 11.6567 98.2227 14.1293 100.873C14.6591 101.403 14.5708 102.286 14.041 102.816C13.8644 103.081 13.5111 103.169 13.1579 103.169ZM76.9163 92.7462C76.2098 92.7462 75.68 92.3046 75.5917 91.598C74.9735 87.7998 74.0904 84.2666 73.119 80.9101C72.9424 80.2034 73.2957 79.4084 74.0904 79.2318C74.7969 78.9668 75.5917 79.4084 75.7683 80.2034C76.7397 83.6483 77.6227 87.3581 78.3292 91.2446C78.4175 92.0396 77.976 92.7462 77.1812 92.8346C77.0929 92.7462 77.0046 92.7462 76.9163 92.7462ZM2.56093 83.9133C1.94278 83.9133 1.41293 83.4716 1.23631 82.8533C1.0597 82.235 0.88308 81.6167 0.794772 80.9984C0.264924 78.8785 0 76.8469 0 74.8153C0 73.5787 0.088308 72.4304 0.264924 71.2821C0.353232 70.4871 1.0597 70.0455 1.85447 70.1338C2.64924 70.2221 3.09078 70.9288 3.00247 71.7237C2.82586 72.7837 2.73755 73.8437 2.73755 74.9036C2.73755 76.6702 3.00247 78.5251 3.44401 80.3801C3.62063 80.9984 3.70894 81.6167 3.88555 82.1467C4.06217 82.8533 3.62063 83.6483 2.91416 83.8249C2.82586 83.9133 2.64924 83.9133 2.56093 83.9133ZM70.5581 71.4588C70.0283 71.4588 69.5867 71.1938 69.3218 70.6638C67.6439 67.2189 65.7895 64.1274 63.6701 61.4775C63.2285 60.8592 63.3169 59.9759 63.8467 59.5342C64.4649 59.0926 65.3479 59.1809 65.7895 59.7109C67.9972 62.5375 70.0283 65.8057 71.7944 69.4272C72.1477 70.1338 71.7944 70.9288 71.1763 71.2821C70.9113 71.4588 70.7347 71.4588 70.5581 71.4588ZM6.00495 62.8024C5.74002 62.8024 5.38679 62.7141 5.21017 62.5375C4.59202 62.0958 4.50371 61.2125 4.94525 60.5942C7.15295 57.6793 10.0671 55.1178 13.5994 52.9095C14.2176 52.5562 15.1007 52.7328 15.5422 53.3512C15.9838 53.9695 15.7188 54.8528 15.1007 55.2944C11.8333 57.2377 9.18403 59.6226 7.15295 62.2725C6.79972 62.6258 6.44649 62.8024 6.00495 62.8024ZM56.5171 54.5878C56.2522 54.5878 55.9873 54.4994 55.7224 54.3228C52.8082 52.3795 49.5408 50.9662 46.0085 50.083C45.302 49.9063 44.7722 49.1113 45.0371 48.4047C45.2137 47.698 46.0085 47.2564 46.7149 47.4331C50.5122 48.4047 54.0445 49.9063 57.3119 52.0262C57.9301 52.4679 58.1067 53.2628 57.7534 53.9695C57.4002 54.3228 56.9587 54.5878 56.5171 54.5878ZM24.4613 51.0546C23.8432 51.0546 23.3133 50.7013 23.1367 50.083C22.9601 49.3763 23.3133 48.5813 24.1081 48.4047C27.6404 47.3447 31.261 46.7264 34.97 46.4614H35.4115C36.118 46.4614 36.8244 47.0797 36.8244 47.7864C36.8244 48.5813 36.2063 49.1997 35.4998 49.1997H35.2349C31.7026 49.4646 28.2586 50.0829 24.9912 51.0546C24.7262 51.0546 24.5496 51.0546 24.4613 51.0546Z" fill="#445EEA"/>
<path d="M357.471 60.506H431.473C440.745 60.506 448.252 68.014 448.252 77.2886V115.447C448.252 124.722 440.745 132.23 431.473 132.23H383.08L365.684 147.511V132.141H357.471C348.199 132.141 340.692 124.633 340.692 115.359V77.2003C340.781 67.9257 348.287 60.506 357.471 60.506Z" fill="#445EEA"/>
<path d="M368.244 84.09H420.699C421.847 84.09 422.819 83.1184 422.819 81.9701C422.819 80.8218 421.847 79.8502 420.699 79.8502H368.244C367.096 79.8502 366.125 80.8218 366.125 81.9701C366.125 83.1184 367.096 84.09 368.244 84.09Z" fill="#91A8F6"/>
<path d="M368.244 98.0461H420.699C421.847 98.0461 422.819 97.0745 422.819 95.9262C422.819 94.7779 421.847 93.8063 420.699 93.8063H368.244C367.096 93.8063 366.125 94.7779 366.125 95.9262C366.125 97.0745 367.096 98.0461 368.244 98.0461Z" fill="#91A8F6"/>
<path d="M413.017 112.091H420.7C421.848 112.091 422.819 111.119 422.819 109.971C422.819 108.822 421.848 107.851 420.7 107.851H413.017C411.869 107.851 410.897 108.822 410.897 109.971C410.897 111.119 411.869 112.091 413.017 112.091Z" fill="#91A8F6"/>
<path d="M395.531 112.091H403.214C404.362 112.091 405.334 111.119 405.334 109.971C405.334 108.822 404.362 107.851 403.214 107.851H395.531C394.383 107.851 393.412 108.822 393.412 109.971C393.412 111.119 394.383 112.091 395.531 112.091Z" fill="#91A8F6"/>
<path d="M368.244 112.091H385.729C386.877 112.091 387.849 111.119 387.849 109.971C387.849 108.822 386.877 107.851 385.729 107.851H368.244C367.096 107.851 366.125 108.822 366.125 109.971C366.125 111.119 367.096 112.091 368.244 112.091Z" fill="#91A8F6"/>
<path d="M348.111 136.646H291.505C285.942 136.646 281.438 141.151 281.438 146.716V179.398C281.438 184.698 285.588 189.026 290.799 189.467L279.054 208.635L309.873 189.556H348.111C353.674 189.556 358.178 185.051 358.178 179.486V146.804C358.266 141.239 353.674 136.646 348.111 136.646Z" fill="#91A8F6"/>
<path d="M324.593 159.92C327.214 157.298 327.214 153.048 324.593 150.426C321.972 147.804 317.723 147.804 315.102 150.426C312.481 153.048 312.481 157.298 315.102 159.92C317.723 162.541 321.972 162.541 324.593 159.92Z" fill="#445EEA" stroke="#445EEA" stroke-width="2.7611" stroke-miterlimit="10" stroke-linecap="round" stroke-linejoin="round"/>
<path d="M335.66 177.72H303.957C303.957 172.067 308.549 167.562 314.112 167.562H325.504C331.156 167.562 335.66 172.155 335.66 177.72Z" fill="#445EEA" stroke="#445EEA" stroke-width="2.7611" stroke-miterlimit="10" stroke-linecap="round" stroke-linejoin="round"/>
<path d="M279.76 83.56C277.906 83.56 275.963 83.3834 274.197 83.03C273.49 82.8534 272.961 82.1467 273.137 81.3518C273.314 80.5568 274.02 80.1152 274.815 80.2918C277.641 80.9101 280.643 80.9984 283.469 80.5568C284.264 80.4685 284.97 80.9984 285.059 81.7051C285.147 82.5001 284.617 83.2067 283.911 83.295C282.498 83.4717 281.173 83.56 279.76 83.56ZM292.3 80.2918C291.77 80.2918 291.329 80.0268 291.064 79.5852C290.71 78.8785 290.975 78.0836 291.594 77.7302C294.154 76.317 296.45 74.462 298.305 72.2538C298.835 71.6355 299.718 71.6355 300.248 72.0771C300.866 72.6071 300.866 73.4904 300.424 74.0204C298.305 76.4936 295.744 78.5252 292.918 80.1151C292.83 80.2918 292.565 80.2918 292.3 80.2918ZM265.984 79.5852C265.719 79.5852 265.454 79.4968 265.278 79.4085C262.54 77.6419 260.156 75.522 258.125 72.8721C257.683 72.2538 257.772 71.3705 258.39 70.9289C259.008 70.4872 259.891 70.5755 260.332 71.1938C262.099 73.4904 264.306 75.522 266.779 77.0236C267.397 77.4653 267.662 78.2602 267.221 78.9669C266.867 79.3202 266.426 79.5852 265.984 79.5852ZM304.133 66.6007C303.957 66.6007 303.78 66.6007 303.692 66.5124C302.985 66.2474 302.632 65.4524 302.897 64.7458C303.868 62.0075 304.398 59.181 304.398 56.1778C304.398 55.3828 305.016 54.7645 305.811 54.7645C306.606 54.7645 307.224 55.3828 307.224 56.1778C307.224 59.446 306.694 62.6258 305.546 65.7174C305.193 66.2474 304.663 66.6007 304.133 66.6007ZM254.946 65.2757C254.328 65.2757 253.798 64.9224 253.621 64.3041C252.826 61.7425 252.385 59.0043 252.385 56.2661C252.385 55.7361 252.385 55.2061 252.385 54.7645C252.385 53.9695 253.091 53.4395 253.886 53.4395C254.681 53.4395 255.211 54.1462 255.211 54.9412C255.211 55.3828 255.211 55.8244 255.211 56.3544C255.211 58.8277 255.564 61.3009 256.27 63.5975C256.535 64.3041 256.094 65.0991 255.387 65.3641C255.211 65.2757 255.122 65.2757 254.946 65.2757ZM305.016 51.3196C304.398 51.3196 303.868 50.878 303.692 50.2597C302.985 47.4331 301.749 44.7832 300.159 42.31C299.718 41.6917 299.894 40.8084 300.513 40.3667C301.131 39.9251 302.014 40.1017 302.455 40.72C304.31 43.4583 305.635 46.3732 306.429 49.553C306.606 50.2597 306.164 51.0546 305.458 51.2313C305.193 51.3196 305.105 51.3196 305.016 51.3196ZM256.005 47.1681C255.829 47.1681 255.652 47.1681 255.476 47.0798C254.769 46.8148 254.416 45.9315 254.769 45.2249C256.094 42.2217 257.86 39.5718 260.156 37.1869C260.686 36.6569 261.569 36.6569 262.099 37.1869C262.628 37.7168 262.628 38.6001 262.099 39.1301C260.068 41.25 258.478 43.6349 257.242 46.3732C256.977 46.9031 256.535 47.1681 256.005 47.1681ZM294.773 36.3919C294.508 36.3919 294.243 36.3036 293.978 36.1269C291.594 34.4486 288.944 33.212 286.118 32.417C285.412 32.2404 284.97 31.4454 285.147 30.7388C285.324 30.0321 286.118 29.5905 286.825 29.7672C290.004 30.6505 292.918 31.9754 295.567 33.9187C296.186 34.3603 296.362 35.2436 295.921 35.8619C295.656 36.2152 295.214 36.3919 294.773 36.3919ZM268.545 34.1836C268.015 34.1836 267.574 33.9187 267.309 33.3887C266.956 32.682 267.221 31.8871 267.927 31.5337C270.841 30.1205 274.02 29.2372 277.199 28.9722C277.906 28.8839 278.612 29.5022 278.701 30.2088C278.789 31.0038 278.171 31.6221 277.464 31.7104C274.55 31.9754 271.724 32.7704 269.075 34.007C268.898 34.1836 268.722 34.1836 268.545 34.1836Z" fill="#445EEA"/>
<path d="M279.76 43.0166C269.782 43.0166 261.657 48.4047 261.657 55.0295C261.657 56.7961 263.07 57.9443 264.306 57.4144L269.075 55.3828C270.223 54.8528 270.753 53.2629 270.223 51.8496L269.605 50.2596C269.605 50.2596 278.347 51.8496 289.827 50.2596L289.209 52.2912C288.856 53.6162 289.298 55.0295 290.269 55.5594L294.949 58.121C296.097 58.7393 297.422 57.9443 297.687 56.3544C297.775 55.9128 297.775 55.4711 297.775 55.0295C297.952 48.4047 289.827 43.0166 279.76 43.0166Z" fill="#445EEA"/>
<path d="M292.388 69.3389H267.221L270.93 57.6793C271.636 55.4711 273.667 53.9695 275.963 53.9695H283.558C285.854 53.9695 287.885 55.4711 288.591 57.6793L292.388 69.3389Z" fill="#91A8F6"/>
<path d="M441.894 225.771C440.04 225.771 438.097 225.594 436.331 225.241C435.624 225.064 435.094 224.358 435.271 223.563C435.448 222.856 436.154 222.326 436.949 222.503C439.775 223.121 442.777 223.209 445.603 222.768C446.398 222.679 447.104 223.209 447.193 223.916C447.281 224.711 446.751 225.418 446.045 225.506C444.632 225.683 443.219 225.771 441.894 225.771ZM454.434 222.591C453.904 222.591 453.462 222.326 453.198 221.885C452.844 221.178 453.109 220.383 453.727 220.03C456.288 218.616 458.584 216.761 460.439 214.553C460.969 213.935 461.852 213.935 462.382 214.376C463 214.906 463 215.79 462.558 216.32C460.439 218.793 457.878 220.825 455.052 222.414C454.875 222.503 454.61 222.591 454.434 222.591ZM428.03 221.796C427.765 221.796 427.5 221.708 427.323 221.62C424.586 219.853 422.201 217.733 420.17 215.083C419.729 214.465 419.817 213.582 420.435 213.14C421.053 212.698 421.936 212.787 422.378 213.405C424.144 215.701 426.352 217.733 428.824 219.235C429.443 219.676 429.708 220.471 429.266 221.178C428.913 221.62 428.471 221.796 428.03 221.796ZM466.179 208.9C466.002 208.9 465.826 208.9 465.737 208.812C465.031 208.547 464.678 207.752 464.942 207.045C465.914 204.307 466.444 201.392 466.444 198.477C466.444 197.682 467.062 197.064 467.857 197.064C468.651 197.064 469.27 197.682 469.27 198.477C469.27 201.745 468.74 204.925 467.592 208.017C467.327 208.547 466.797 208.9 466.179 208.9ZM417.079 207.487C416.461 207.487 415.931 207.133 415.755 206.515C414.96 203.954 414.519 201.215 414.519 198.477C414.519 197.947 414.519 197.417 414.519 196.975C414.519 196.181 415.313 195.651 416.02 195.651C416.815 195.651 417.344 196.357 417.344 197.152C417.344 197.594 417.344 198.035 417.344 198.565C417.344 201.039 417.698 203.512 418.404 205.808C418.669 206.515 418.227 207.31 417.521 207.575C417.344 207.487 417.168 207.487 417.079 207.487ZM467.062 193.619C466.444 193.619 465.914 193.177 465.737 192.559C465.031 189.732 463.794 187.083 462.205 184.609C461.763 183.991 461.94 183.108 462.558 182.666C463.176 182.224 464.059 182.401 464.501 183.019C466.355 185.669 467.68 188.672 468.475 191.852C468.651 192.559 468.21 193.354 467.503 193.531C467.327 193.531 467.15 193.619 467.062 193.619ZM418.051 189.467C417.874 189.467 417.698 189.467 417.521 189.379C416.815 189.114 416.461 188.231 416.815 187.524C418.139 184.521 419.905 181.871 422.201 179.486C422.731 178.956 423.614 178.956 424.144 179.486C424.674 180.016 424.674 180.899 424.144 181.429C422.113 183.549 420.523 185.934 419.287 188.672C419.111 189.114 418.581 189.467 418.051 189.467ZM456.906 178.691C456.642 178.691 456.377 178.603 456.112 178.426C453.727 176.748 451.078 175.511 448.252 174.716C447.546 174.54 447.104 173.745 447.281 173.038C447.457 172.331 448.252 171.89 448.959 172.066C452.138 172.95 455.052 174.275 457.701 176.218C458.319 176.66 458.496 177.543 458.054 178.161C457.701 178.426 457.348 178.691 456.906 178.691ZM430.591 176.483C430.061 176.483 429.619 176.218 429.354 175.688C429.001 174.981 429.266 174.186 429.972 173.833C432.887 172.42 436.066 171.536 439.245 171.271C440.04 171.183 440.658 171.801 440.746 172.508C440.834 173.303 440.216 173.921 439.51 174.01C436.596 174.275 433.77 175.07 431.12 176.306C431.032 176.395 430.767 176.483 430.591 176.483Z" fill="#445EEA"/>
<path d="M457.789 193.531H425.557V211.815H457.789V193.531Z" fill="#91A8F6"/>
<path d="M453.285 192.117V189.909C453.285 188.231 454.61 186.906 456.288 186.906C457.966 186.906 459.29 188.231 459.29 189.909V193.619H453.373" fill="#445EEA"/>
<path d="M453.373 189.821V208.812H431.385V189.821C431.385 188.142 432.709 186.818 434.387 186.818H456.111L455.493 186.906C454.257 187.347 453.373 188.496 453.373 189.821Z" fill="#E0EEF7"/>
<path d="M437.655 189.909H432.798V194.944H437.655V189.909Z" fill="#445EEA"/>
<path d="M439.156 189.909H451.519" stroke="#445EEA" stroke-width="0.6576" stroke-miterlimit="10" stroke-linecap="round" stroke-linejoin="round"/>
<path d="M439.156 191.587H451.519" stroke="#445EEA" stroke-width="0.6576" stroke-miterlimit="10" stroke-linecap="round" stroke-linejoin="round"/>
<path d="M439.156 193.266H451.519" stroke="#445EEA" stroke-width="0.6576" stroke-miterlimit="10" stroke-linecap="round" stroke-linejoin="round"/>
<path d="M439.244 194.944H451.607" stroke="#445EEA" stroke-width="0.6576" stroke-miterlimit="10" stroke-linecap="round" stroke-linejoin="round"/>
<path d="M432.798 196.622H451.519" stroke="#445EEA" stroke-width="0.6576" stroke-miterlimit="10" stroke-linecap="round" stroke-linejoin="round"/>
<path d="M432.798 198.3H451.519" stroke="#445EEA" stroke-width="0.6576" stroke-miterlimit="10" stroke-linecap="round" stroke-linejoin="round"/>
<path d="M432.798 199.89H451.519" stroke="#445EEA" stroke-width="0.6576" stroke-miterlimit="10" stroke-linecap="round" stroke-linejoin="round"/>
<path d="M432.798 201.569H441.894" stroke="#445EEA" stroke-width="0.6576" stroke-miterlimit="10" stroke-linecap="round" stroke-linejoin="round"/>
<path d="M449.841 211.815H425.557V193.531L449.841 211.815Z" fill="#445EEA"/>
<path d="M433.416 211.815H457.701V193.531L433.416 211.815Z" fill="#445EEA"/>
<path d="M457.701 211.815H441.629H425.557L440.039 204.13C441.011 203.424 442.335 203.424 443.307 204.13L457.701 211.815Z" fill="#445EEA"/>
</svg>
