<svg width="200" height="70" viewBox="0 0 200 70" fill="none" xmlns="http://www.w3.org/2000/svg">
<path opacity="0.1" d="M65.8464 18.8953L32.289 0L0 18.8953L32.1914 38.2297L65.8464 18.8953Z" fill="url(#paint0_linear)"/>
<path opacity="0.1" d="M65.8463 18.8954L32.606 38.2297L32.6006 69.4076L65.8463 50.3849V18.8954Z" fill="url(#paint1_linear)"/>
<path opacity="0.1" d="M0 18.8954L32.6061 38.2297L32.6007 69.4076L0 50.3849V18.8954Z" fill="url(#paint2_linear)"/>
<path d="M57.1665 21.3183C57.1665 21.2316 57.1014 21.1448 56.9822 21.0771C56.8521 21.0039 56.6759 20.9605 56.4862 20.9605C56.2965 20.9605 56.1122 21.0039 55.9821 21.0798C55.8629 21.1475 55.7979 21.2343 55.7979 21.3237C55.7979 21.4104 55.8629 21.4972 55.9821 21.5622C56.1122 21.6354 56.2884 21.676 56.4781 21.676C56.6678 21.676 56.8521 21.6327 56.9822 21.5568C57.0987 21.4917 57.1665 21.405 57.1665 21.3183Z" fill="url(#paint3_linear)"/>
<path d="M60.031 41.9725C60.031 41.7638 59.9334 41.6364 59.7735 41.6364C59.7085 41.6364 59.6353 41.6581 59.5594 41.7015C59.2857 41.8587 59.0635 42.2435 59.0635 42.5606C59.0635 42.7693 59.161 42.8967 59.3209 42.8967C59.386 42.8967 59.4592 42.875 59.535 42.8316C59.8088 42.6717 60.031 42.2869 60.031 41.9725Z" fill="url(#paint4_linear)"/>
<path d="M62.3486 46.8833C62.3486 47.0784 62.4408 47.2004 62.5898 47.2004C62.6522 47.2004 62.7199 47.1787 62.7904 47.1381C63.0479 46.989 63.2565 46.6258 63.2565 46.3304C63.2565 46.1353 63.1644 46.0133 63.0153 46.0133C62.953 46.0133 62.8852 46.035 62.8148 46.0757C62.5573 46.222 62.3486 46.5852 62.3486 46.8833Z" fill="url(#paint5_linear)"/>
<path d="M52.9336 19.6732C52.9336 19.7599 52.9986 19.8466 53.1179 19.9117C53.248 19.9848 53.4241 20.0255 53.6138 20.0255C53.8036 20.0255 53.9878 19.9821 54.1179 19.9062C54.2372 19.8385 54.3022 19.7517 54.3022 19.665C54.3022 19.5783 54.2372 19.4916 54.1179 19.4238C53.9878 19.3506 53.8117 19.3073 53.622 19.3073C53.4323 19.3073 53.248 19.3506 53.1179 19.4265C52.9986 19.497 52.9336 19.5837 52.9336 19.6732Z" fill="url(#paint6_linear)"/>
<path d="M40.7646 4.43115V14.99L56.7113 24.126V45.1759L54.0608 46.6123V50.645L45.8489 61.8299L64.3594 51.2359L64.3404 19.7599L42.7675 7.27683V13.2175L53.0607 19.123C53.2152 19.0661 53.3941 19.0336 53.5838 19.0336C53.8385 19.0336 54.0797 19.0905 54.2586 19.1935C54.4564 19.3073 54.5676 19.4645 54.5676 19.6352C54.5676 19.806 54.4592 19.9659 54.2586 20.0797C54.0743 20.1854 53.8304 20.245 53.5702 20.245C53.3155 20.245 53.077 20.1881 52.8954 20.0851C52.6975 19.974 52.5864 19.8168 52.5864 19.6461C52.5864 19.5214 52.6433 19.4049 52.7517 19.3046L42.4558 13.3991V6.7348L64.6521 19.581L64.6386 51.076L65.8473 50.3849V18.8954L40.7646 4.43115ZM50.4373 58.3257L55.3887 51.637V47.5636L57.9688 46.0865V33.1048L58.2805 32.9178V46.2681L55.7004 47.7451V51.7399L51.6108 57.2633L54.9389 55.2849L59.4106 49.2466V43.1162C59.3619 43.1297 59.3131 43.1379 59.267 43.1379C59.0177 43.1379 58.8578 42.9346 58.8578 42.6229C58.8578 42.1812 59.1694 41.6445 59.5489 41.425C59.66 41.36 59.7657 41.3302 59.8659 41.3302C60.1153 41.3302 60.2752 41.5334 60.2752 41.8451C60.2752 42.2299 60.0367 42.6907 59.7223 42.9454V49.3496L55.153 55.5233L50.4373 58.3257ZM62.6574 51.1437L58.1992 53.8322V53.469L62.3458 50.9675V49.4309L61.2563 48.8021V35.4057L58.9879 34.0859L58.9797 22.8468L57.0826 21.76C56.9064 21.844 56.6923 21.8928 56.462 21.8928C56.2072 21.8928 55.9687 21.8359 55.7871 21.7329C55.5893 21.6218 55.4782 21.4646 55.4782 21.2939C55.4782 21.1204 55.5866 20.9632 55.7871 20.8467C55.9714 20.741 56.2153 20.6814 56.4755 20.6814C56.7303 20.6814 56.9715 20.7383 57.1504 20.8413C57.3482 20.9551 57.4593 21.1123 57.4593 21.283C57.4593 21.3806 57.4241 21.4727 57.3563 21.5567L59.2914 22.6652L59.2995 33.9043L61.5679 35.2241V48.6205L62.6574 49.2493V51.1437ZM45.6674 12.8625L45.6701 12.4993L61.2861 21.5134V32.4462L62.633 33.159L62.6439 20.7328L45.6674 10.8597L45.6619 10.4965L62.9555 20.5513L62.9447 45.6637C62.9935 45.6502 63.0423 45.6421 63.0883 45.6421C63.3377 45.6421 63.4976 45.8453 63.4976 46.157C63.4976 46.596 63.1859 47.1354 62.8065 47.3549C62.6954 47.4199 62.5897 47.4497 62.4894 47.4497C62.2401 47.4497 62.0802 47.2465 62.0802 46.9348C62.0802 46.55 62.3187 46.0892 62.633 45.8345V33.5086L60.9717 32.6305V21.6922L45.6674 12.8625Z" fill="url(#paint7_linear)"/>
<path d="M8.70801 21.2912C8.70801 21.2045 8.77305 21.1178 8.8923 21.05C9.02239 20.9768 9.19855 20.9335 9.38826 20.9335C9.57797 20.9335 9.76226 20.9768 9.89235 21.0527C10.0116 21.1205 10.0766 21.2072 10.0766 21.2966C10.0766 21.3834 10.0116 21.4701 9.89235 21.5351C9.76226 21.6083 9.5861 21.649 9.39639 21.649C9.20668 21.649 9.02239 21.6056 8.8923 21.5297C8.77305 21.4647 8.70801 21.3807 8.70801 21.2912Z" fill="url(#paint8_linear)"/>
<path d="M5.81348 41.9725C5.81348 41.7638 5.91104 41.6364 6.07094 41.6364C6.13599 41.6364 6.20916 41.6581 6.28505 41.7015C6.55877 41.8587 6.78101 42.2435 6.78101 42.5606C6.78101 42.7693 6.68344 42.8967 6.52354 42.8967C6.4585 42.8967 6.38532 42.875 6.30944 42.8316C6.03571 42.6717 5.81348 42.2869 5.81348 41.9725Z" fill="url(#paint9_linear)"/>
<path d="M3.60127 46.8834C3.60127 47.0785 3.50912 47.2005 3.36006 47.2005C3.29773 47.2005 3.22997 47.1788 3.15951 47.1381C2.90204 46.9891 2.69336 46.6259 2.69336 46.3305C2.69336 46.1354 2.78551 46.0134 2.93456 46.0134C2.9969 46.0134 3.06465 46.0351 3.13512 46.0757C3.39258 46.2221 3.60127 46.5852 3.60127 46.8834Z" fill="url(#paint10_linear)"/>
<path d="M12.938 19.6732C12.938 19.76 12.8729 19.8467 12.7537 19.9117C12.6236 19.9849 12.4474 20.0256 12.2577 20.0256C12.068 20.0256 11.8837 19.9822 11.7536 19.9063C11.6344 19.8386 11.5693 19.7518 11.5693 19.6651C11.5693 19.5784 11.6344 19.4917 11.7536 19.4239C11.8837 19.3507 12.0599 19.3074 12.2496 19.3074C12.4393 19.3074 12.6236 19.3507 12.7537 19.4266C12.8729 19.4971 12.938 19.5838 12.938 19.6732Z" fill="url(#paint11_linear)"/>
<path d="M0 18.8953V50.3821L1.19519 50.954V19.581L23.3915 6.73479V13.3964L13.0956 19.3019C13.2013 19.4021 13.2609 19.5187 13.2609 19.6433C13.2609 19.8141 13.1498 19.9713 12.9519 20.0824C12.7703 20.1854 12.5318 20.2423 12.2771 20.2423C12.0169 20.2423 11.773 20.1827 11.5887 20.077C11.3909 19.9631 11.2797 19.806 11.2797 19.6325C11.2797 19.4618 11.3881 19.3046 11.5887 19.1907C11.7703 19.0878 12.0088 19.0308 12.2635 19.0308C12.4505 19.0308 12.6294 19.0634 12.7866 19.1203L23.0798 13.2148V7.27682L1.50686 19.7599V51.1329L20.0363 62.0738L11.7865 50.645V46.6123L9.13599 45.1759V24.1287L25.0827 14.9927V4.22787L0 18.8953ZM10.6943 55.5206L6.12499 49.3468V42.9427C5.81061 42.6852 5.57212 42.2272 5.57212 41.8424C5.57212 41.5307 5.73202 41.3274 5.98135 41.3274C6.08163 41.3274 6.18733 41.36 6.29844 41.4223C6.68058 41.6418 6.98954 42.1811 6.98954 42.6202C6.98954 42.9319 6.82964 43.1351 6.5803 43.1351C6.53423 43.1351 6.48545 43.127 6.43666 43.1134V49.2439L10.9084 55.2821L14.2365 57.2606L10.1469 51.7372V47.7424L7.5668 46.2654V32.9151L7.87847 33.1021V46.0838L10.4586 47.5608V51.6315L15.41 58.3202L10.6943 55.5206ZM3.18987 49.2493L4.27936 48.6205V35.2241L6.54778 33.9043L6.55591 22.6652L8.49097 21.5567C8.42322 21.4727 8.38799 21.3806 8.38799 21.283C8.38799 21.1123 8.49639 20.9551 8.69695 20.8412C8.87853 20.7383 9.11702 20.6813 9.37178 20.6813C9.63196 20.6813 9.87587 20.741 10.0602 20.8467C10.2607 20.9605 10.3691 21.1204 10.3691 21.2938C10.3691 21.4646 10.258 21.6218 10.0602 21.7329C9.87858 21.8359 9.64009 21.8928 9.38533 21.8928C9.15497 21.8928 8.94086 21.844 8.7647 21.76L6.86758 22.8468L6.85945 34.0859L4.59103 35.4057V48.8021L3.50154 49.4309V50.9675L7.64811 53.469V53.8322L3.18987 51.1437V49.2493ZM4.87289 21.6922V32.6305L3.21156 33.5086V45.8345C3.52594 46.0919 3.76443 46.5499 3.76443 46.9348C3.76443 47.2465 3.60453 47.4497 3.35519 47.4497C3.25492 47.4497 3.14922 47.4172 3.0381 47.3549C2.65597 47.1353 2.34701 46.596 2.34701 46.157C2.34701 45.8453 2.50691 45.642 2.75625 45.642C2.80232 45.642 2.8511 45.6502 2.89989 45.6637L2.88904 20.5513L20.1827 10.4965L20.1772 10.8597L3.20342 20.7328L3.21427 33.159L4.56122 32.4462V21.5134L20.1772 12.4993L20.18 12.8625L4.87289 21.6922Z" fill="url(#paint12_linear)"/>
<path d="M29.1046 58.0817C29.1697 58.1197 29.2347 58.1387 29.2943 58.1387C29.2998 58.1387 29.3052 58.1387 29.3079 58.1359L29.3187 58.1495L29.3811 58.1197C29.3865 58.117 29.3919 58.1143 29.3973 58.1116L29.4082 58.1061C29.4813 58.0601 29.5247 57.9679 29.5247 57.8405C29.5247 57.5614 29.3269 57.2199 29.0857 57.079C29.0206 57.041 28.9556 57.0221 28.896 57.0221C28.858 57.0221 28.8255 57.0302 28.7984 57.0437L28.6764 57.1142L28.6873 57.1901C28.6764 57.228 28.671 57.2714 28.671 57.3175C28.6656 57.602 28.8634 57.9435 29.1046 58.0817Z" fill="url(#paint13_linear)"/>
<path d="M30.9994 55.068L32.4818 55.9245L32.6011 55.9922L32.723 55.9217L34.2055 55.068V50.2602L34.3302 50.187L34.2055 50.122L32.6011 51.0651L30.9994 50.122L30.8828 50.187L30.9994 50.2548V55.068Z" fill="url(#paint14_linear)"/>
<path d="M35.7802 58.0953C35.7964 58.1089 35.8154 58.1197 35.8371 58.1251L35.9048 58.1604L35.9211 58.136C35.9753 58.1333 36.0376 58.1143 36.1 58.0791C36.3412 57.9381 36.539 57.5994 36.539 57.3175C36.539 57.2714 36.5336 57.2308 36.5228 57.1928L36.5661 57.1278L36.4117 57.0438C36.3818 57.0275 36.3493 57.0194 36.3114 57.0194C36.2545 57.0194 36.1894 57.0384 36.1217 57.0763C35.8805 57.2172 35.6826 57.556 35.6826 57.8379C35.6826 57.9571 35.7178 58.0438 35.7802 58.0953Z" fill="url(#paint15_linear)"/>
<path d="M47.2711 32.4733L34.7962 39.6986V49.7723L34.517 49.9377V55.2469L33.7501 55.6886V57.1955L35.967 55.9326L35.9534 41.4548L39.23 39.5441V38.0915L46.4472 33.926L46.1084 37.2053L40.8128 40.1648V39.807L45.8157 37.0128L46.0597 34.6496L46.1979 34.5683L46.0732 34.5032L39.5417 38.2731V39.7257L36.2651 41.6364L36.2786 56.1168L33.1321 57.911V67.8546L35.9372 66.2502V58.4584C35.8965 58.4693 35.8531 58.4747 35.8152 58.4747C35.5713 58.4747 35.4141 58.2769 35.4141 57.9679C35.4141 57.5343 35.7203 57.0058 36.0944 56.789C36.2028 56.7266 36.3085 56.6941 36.406 56.6941C36.6499 56.6941 36.8071 56.892 36.8071 57.2009C36.8071 57.5858 36.5659 58.0438 36.2488 58.2931V66.4291L32.8178 68.3912V57.7267L33.4357 57.3744V56.0084L33.5603 55.938L33.4357 55.8729L32.5982 56.3553L31.7635 55.8729L31.647 55.938L31.7635 56.0057V57.3798L32.3814 57.7321V68.3966L28.9503 66.4345V58.2985C28.6332 58.0492 28.392 57.5885 28.392 57.2063C28.392 56.8974 28.5492 56.6995 28.7931 56.6995C28.8907 56.6995 28.9964 56.7321 29.1048 56.7944C29.4815 57.0112 29.7851 57.5397 29.7851 57.9733C29.7851 58.2796 29.6279 58.4801 29.384 58.4801C29.3433 58.4801 29.3027 58.4747 29.262 58.4639V66.2556L32.067 67.86V57.9164L28.9205 56.1223L28.9341 41.6418L25.6575 39.7311V38.2785L19.126 34.5086L19.0094 34.5737L19.1395 34.6496L19.3834 37.0183L24.3864 39.8124V40.1702L19.0907 37.2107L18.752 33.9314L25.9691 38.0969V39.5496L29.2457 41.4602L29.2322 55.938L31.4491 57.2009V55.6941L30.6821 55.2523V49.9431L30.403 49.7778V39.704L17.9281 32.4787L17.8115 32.5438L17.9416 32.6196L18.4945 37.6416L27.8012 43.0132V53.0977V54.5016V56.1196V66.6188L32.4763 69.3425L32.5955 69.4102L32.7175 69.3398L37.3925 66.6161V56.1168V54.4989V53.095V43.0105L46.6993 37.6389L47.2494 32.6251L47.3904 32.5438L47.2711 32.4733Z" fill="url(#paint16_linear)"/>
<path d="M31.707 33.7254V36.1347L32.7477 36.7337L33.7884 36.1347V33.7254L32.7477 33.1319L31.707 33.7254Z" fill="url(#paint17_linear)"/>
<path d="M31.575 33.5004L32.4558 32.9963L23.3578 27.744L21.1436 29.0232L31.3799 34.9341V33.7471L24.6207 29.7848C24.4445 29.8688 24.2277 29.9176 23.9947 29.9176C23.7318 29.9176 23.4824 29.858 23.2981 29.7495C23.1057 29.6384 23 29.4894 23 29.3268C23 29.1641 23.1057 29.0151 23.2981 28.904C23.4851 28.7956 23.7318 28.7359 23.9947 28.7359C24.2575 28.7359 24.5069 28.7956 24.6912 28.904C24.8836 29.0151 24.9893 29.1641 24.9893 29.3268C24.9893 29.4162 24.9541 29.5029 24.8917 29.5815L31.575 33.5004Z" fill="url(#paint18_linear)"/>
<path d="M24.0079 28.9772C23.8371 28.9772 23.68 29.0151 23.5607 29.0829C23.4469 29.1479 23.3818 29.2373 23.3818 29.3268C23.3818 29.4189 23.4442 29.5057 23.5607 29.5707C23.68 29.6385 23.8371 29.6764 24.0079 29.6764C24.1786 29.6764 24.3358 29.6385 24.4551 29.5707C24.5689 29.5057 24.6339 29.4162 24.6339 29.3268C24.6339 29.2346 24.5716 29.1479 24.4551 29.0829C24.3358 29.0151 24.1786 28.9772 24.0079 28.9772Z" fill="url(#paint19_linear)"/>
<path d="M20.2266 29.5517L31.3789 35.9911V35.2919L20.8309 29.2021L20.2266 29.5517Z" fill="url(#paint20_linear)"/>
<path d="M40.5261 29.3295C40.5261 29.1669 40.6318 29.0178 40.8242 28.9067C41.0112 28.7983 41.2578 28.7387 41.5207 28.7387C41.7836 28.7387 42.033 28.7983 42.2172 28.9067C42.4097 29.0178 42.5154 29.1669 42.5154 29.3295C42.5154 29.4921 42.4097 29.6411 42.2172 29.7523C42.0302 29.8607 41.7836 29.9203 41.5207 29.9203C41.2877 29.9203 41.0708 29.8715 40.8947 29.7875L34.1355 33.7471V34.9341L44.3718 29.0232L42.1576 27.744L33.0596 32.9963L33.9404 33.5004L40.6237 29.5842C40.5586 29.5056 40.5261 29.4189 40.5261 29.3295Z" fill="url(#paint21_linear)"/>
<path d="M44.6857 29.2021L34.1377 35.2919V35.9911L45.2901 29.5517L44.6857 29.2021Z" fill="url(#paint22_linear)"/>
<path d="M41.5606 29.6791C41.7314 29.6791 41.8886 29.6412 42.0078 29.5734C42.1216 29.5084 42.1867 29.4189 42.1867 29.3295C42.1867 29.2374 42.1243 29.1506 42.0078 29.0856C41.8886 29.0178 41.7314 28.9799 41.5606 28.9799C41.3899 28.9799 41.2327 29.0178 41.1134 29.0856C40.9996 29.1506 40.9346 29.2401 40.9346 29.3295C40.9346 29.4216 40.9969 29.5084 41.1134 29.5734C41.23 29.6412 41.3899 29.6791 41.5606 29.6791Z" fill="url(#paint23_linear)"/>
<path d="M30.4626 1.05423L29.1562 1.80766V3.46086L30.4626 2.70744V1.05423Z" fill="url(#paint24_linear)"/>
<path d="M29.1562 3.88102V5.42582L31.9748 3.79971L30.636 3.02731L29.1562 3.88102Z" fill="url(#paint25_linear)"/>
<path d="M34.1133 1.05423V2.70744L35.4223 3.46086V1.80766L34.1133 1.05423Z" fill="url(#paint26_linear)"/>
<path d="M32.2898 2.07327L30.9482 2.84567L32.2871 3.61807H32.2898L33.6286 2.84567L32.2898 2.07327Z" fill="url(#paint27_linear)"/>
<path d="M33.8017 2.52588V0.872676L32.2894 0L30.7744 0.872676V2.52588L32.2894 1.65321L33.8017 2.52588Z" fill="url(#paint28_linear)"/>
<path d="M32.6045 3.79971L35.4231 5.42582V3.88102L33.9406 3.02731L32.6045 3.79971Z" fill="url(#paint29_linear)"/>
<path d="M81.9366 18.7137H87.6333C88.899 18.7137 89.3651 19.4374 89.0291 20.8846L87.5005 27.3999C87.1645 28.8471 86.3623 29.5707 85.0966 29.5707H79.3998C78.1342 29.5707 77.668 28.8471 78.0041 27.3999L79.5326 20.8846C79.8687 19.4374 80.6709 18.7137 81.9366 18.7137ZM81.4325 20.8846L79.9039 27.3999H85.6007L87.1292 20.8846H81.4325ZM102.046 18.7137L95.7097 29.5734H93.8098L92.5496 18.7137H94.715L95.4576 26.6193L99.821 18.7137H102.046ZM113.534 27.3999L113.03 29.5707H103.534L104.038 27.3999H113.534ZM114.559 23.0582L114.055 25.229H104.558L105.062 23.0582H114.559ZM115.567 18.7137L115.063 20.8846H105.567L106.071 18.7137H115.567ZM121.223 25.229L120.334 23.8387L118.985 29.5734H117.085L119.622 18.7137H127.218C128.484 18.7137 128.95 19.4374 128.614 20.8846L128.11 23.0554C127.774 24.5027 126.982 25.2263 125.736 25.2263H123.806L126.581 29.5707H123.998L121.223 25.229ZM121.017 20.8846L120.513 23.0554H126.21L126.714 20.8846H121.017ZM137.533 28.4866C137.346 29.2102 136.945 29.5734 136.332 29.5734H132.535C131.27 29.5734 130.804 28.8498 131.14 27.4026L133.172 18.7165H135.072L133.04 27.4026H136.839L138.872 18.7165H140.772L138.739 27.4026H142.539L144.571 18.7165H146.471L144.439 27.4026C144.103 28.8498 143.3 29.5734 142.035 29.5734H138.238C137.617 29.5734 137.387 29.2102 137.533 28.4866ZM150.848 25.229L149.824 29.5734H147.924L149.956 20.8873C150.293 19.4401 151.095 18.7165 152.36 18.7165H158.057C159.323 18.7165 159.789 19.4401 159.453 20.8873L157.42 29.5734H155.52L156.545 25.229H150.848ZM157.049 23.0582L157.553 20.8873H151.856L151.352 23.0582H157.049ZM163.478 18.7137H172.974L172.47 20.8846H168.67L166.638 29.5707H164.738L166.77 20.8846H162.973L163.478 18.7137ZM174.92 27.3999L176.448 20.8846C176.785 19.4374 177.587 18.7137 178.852 18.7137H186.449L185.945 20.8846H178.348L176.82 27.3999H184.416L183.912 29.5707H176.316C175.05 29.5734 174.584 28.8498 174.92 27.3999ZM192.403 18.7137L191.395 23.0582H197.092L198.1 18.7137H200L197.463 29.5734H195.563L196.588 25.229H190.891L189.867 29.5734H187.967L190.503 18.7137H192.403ZM89.0291 41.734H81.4325L80.9284 43.9048H86.6252C87.8908 43.9048 88.357 44.6284 88.0209 46.0757L87.5005 48.2465C87.1645 49.6937 86.3623 50.4174 85.0966 50.4174H77.5L78.0041 48.2465H85.6007L86.1211 46.0757H80.4243C79.1586 46.0757 78.6925 45.352 79.0285 43.9048L79.5326 41.734C79.8687 40.2867 80.6709 39.5631 81.9366 39.5631H89.5332L89.0291 41.734ZM98.9863 48.2519L98.4822 50.4228H88.9857L89.4898 48.2519H98.9863ZM100.008 43.9075L99.5039 46.0784H90.0075L90.5115 43.9075H100.008ZM101.019 39.5631L100.515 41.734H91.0183L91.5224 39.5631H101.019ZM100.973 48.2519L102.501 41.7367C102.837 40.2894 103.64 39.5658 104.905 39.5658H112.502L111.998 41.7367H104.401L102.873 48.2519H110.469L109.965 50.4228H102.369C101.103 50.4228 100.637 49.6992 100.973 48.2519ZM119.551 50.4228H113.854C112.589 50.4228 112.122 49.6992 112.459 48.2519L114.491 39.5658H116.391L114.358 48.2519H120.055L122.088 39.5658H123.988L121.955 48.2519C121.616 49.6992 120.817 50.4228 119.551 50.4228ZM127.576 46.0784L126.687 44.688L125.337 50.4228H123.437L125.974 39.5631H133.571C134.836 39.5631 135.303 40.2867 134.967 41.734L134.462 43.9048C134.126 45.352 133.335 46.0757 132.088 46.0757H130.159L132.934 50.4201H130.351L127.576 46.0784ZM127.37 41.734L126.866 43.9048H132.563L133.067 41.734H127.37ZM139.357 39.5631L136.82 50.4228H134.92L137.457 39.5631H139.357ZM140.812 39.5631H150.309L149.805 41.734H146.005L143.972 50.4201H142.073L144.105 41.734H140.308L140.812 39.5631ZM157.786 48.2519L158.307 46.0811H152.61C151.344 46.0811 150.878 45.3575 151.214 43.9102L152.222 39.5658H154.122L153.114 43.9102H158.811L159.819 39.5658H161.719L159.686 48.2519C159.35 49.6992 158.548 50.4228 157.282 50.4228H149.685L150.19 48.2519H157.786ZM174.7 39.5631L172.164 50.4228H170.264L172.801 39.5631H174.7ZM174.034 50.4228L176.57 39.5631L182.655 46.0784L184.167 39.5631H186.067L183.53 50.4228L177.462 43.9075L175.934 50.4228H174.034ZM186.021 48.2519L187.549 41.7367C187.885 40.2894 188.688 39.5658 189.953 39.5658H197.55L197.046 41.7367H189.449L187.921 48.2519H195.517L195.013 50.4228H187.417C186.151 50.4228 185.685 49.6992 186.021 48.2519ZM197.002 50.4228L197.507 48.2519H199.406L198.902 50.4228H197.002Z" fill="url(#paint30_linear)"/>
<defs>
<linearGradient id="paint0_linear" x1="32.9229" y1="0" x2="32.9229" y2="38.2286" gradientUnits="userSpaceOnUse">
<stop offset="0.0566" stop-color="#231F20"/>
<stop offset="0.4057" stop-color="#231F20"/>
<stop offset="0.5236" stop-color="#231F20"/>
<stop offset="0.6368" stop-color="#231F20"/>
<stop offset="0.9387" stop-color="#231F20"/>
<stop offset="1" stop-color="#231F20"/>
</linearGradient>
<linearGradient id="paint1_linear" x1="65.8457" y1="44.1516" x2="32.6004" y2="44.1516" gradientUnits="userSpaceOnUse">
<stop offset="0.0566" stop-color="#231F20"/>
<stop offset="0.4057" stop-color="#231F20"/>
<stop offset="0.5236" stop-color="#231F20"/>
<stop offset="0.6368" stop-color="#231F20"/>
<stop offset="0.9387" stop-color="#231F20"/>
<stop offset="1" stop-color="#231F20"/>
</linearGradient>
<linearGradient id="paint2_linear" x1="0" y1="44.1516" x2="32.6062" y2="44.1516" gradientUnits="userSpaceOnUse">
<stop offset="0.0566" stop-color="#231F20"/>
<stop offset="0.4057" stop-color="#231F20"/>
<stop offset="0.5236" stop-color="#231F20"/>
<stop offset="0.6368" stop-color="#231F20"/>
<stop offset="0.9387" stop-color="#231F20"/>
<stop offset="1" stop-color="#231F20"/>
</linearGradient>
<linearGradient id="paint3_linear" x1="55.7965" y1="21.3196" x2="57.1652" y2="21.3196" gradientUnits="userSpaceOnUse">
<stop offset="0.0566" stop-color="#C9994F"/>
<stop offset="0.4057" stop-color="#F6E27A"/>
<stop offset="0.5236" stop-color="#F6F2C1"/>
<stop offset="0.6368" stop-color="#F6E27A"/>
<stop offset="0.9387" stop-color="#C9994F"/>
<stop offset="1" stop-color="#462523"/>
</linearGradient>
<linearGradient id="paint4_linear" x1="59.0663" y1="42.2647" x2="60.0322" y2="42.2647" gradientUnits="userSpaceOnUse">
<stop offset="0.0566" stop-color="#C9994F"/>
<stop offset="0.4057" stop-color="#F6E27A"/>
<stop offset="0.5236" stop-color="#F6F2C1"/>
<stop offset="0.6368" stop-color="#F6E27A"/>
<stop offset="0.9387" stop-color="#C9994F"/>
<stop offset="1" stop-color="#462523"/>
</linearGradient>
<linearGradient id="paint5_linear" x1="62.3481" y1="46.6062" x2="63.2586" y2="46.6062" gradientUnits="userSpaceOnUse">
<stop offset="0.0566" stop-color="#C9994F"/>
<stop offset="0.4057" stop-color="#F6E27A"/>
<stop offset="0.5236" stop-color="#F6F2C1"/>
<stop offset="0.6368" stop-color="#F6E27A"/>
<stop offset="0.9387" stop-color="#C9994F"/>
<stop offset="1" stop-color="#462523"/>
</linearGradient>
<linearGradient id="paint6_linear" x1="52.9342" y1="19.6683" x2="54.303" y2="19.6683" gradientUnits="userSpaceOnUse">
<stop offset="0.0566" stop-color="#C9994F"/>
<stop offset="0.4057" stop-color="#F6E27A"/>
<stop offset="0.5236" stop-color="#F6F2C1"/>
<stop offset="0.6368" stop-color="#F6E27A"/>
<stop offset="0.9387" stop-color="#C9994F"/>
<stop offset="1" stop-color="#462523"/>
</linearGradient>
<linearGradient id="paint7_linear" x1="63.7453" y1="33.1306" x2="26.3948" y2="33.1306" gradientUnits="userSpaceOnUse">
<stop offset="0.0566" stop-color="#C9994F"/>
<stop offset="0.4057" stop-color="#F6E27A"/>
<stop offset="0.5236" stop-color="#F6F2C1"/>
<stop offset="0.6368" stop-color="#F6E27A"/>
<stop offset="0.9387" stop-color="#C9994F"/>
<stop offset="1" stop-color="#462523"/>
</linearGradient>
<linearGradient id="paint8_linear" x1="8.70763" y1="21.2936" x2="10.0764" y2="21.2936" gradientUnits="userSpaceOnUse">
<stop offset="0.0566" stop-color="#C9994F"/>
<stop offset="0.4057" stop-color="#F6E27A"/>
<stop offset="0.5236" stop-color="#F6F2C1"/>
<stop offset="0.6368" stop-color="#F6E27A"/>
<stop offset="0.9387" stop-color="#C9994F"/>
<stop offset="1" stop-color="#462523"/>
</linearGradient>
<linearGradient id="paint9_linear" x1="5.81443" y1="42.2647" x2="6.7803" y2="42.2647" gradientUnits="userSpaceOnUse">
<stop offset="0.0566" stop-color="#C9994F"/>
<stop offset="0.4057" stop-color="#F6E27A"/>
<stop offset="0.5236" stop-color="#F6F2C1"/>
<stop offset="0.6368" stop-color="#F6E27A"/>
<stop offset="0.9387" stop-color="#C9994F"/>
<stop offset="1" stop-color="#462523"/>
</linearGradient>
<linearGradient id="paint10_linear" x1="2.69187" y1="46.6062" x2="3.60227" y2="46.6062" gradientUnits="userSpaceOnUse">
<stop offset="0.0566" stop-color="#C9994F"/>
<stop offset="0.4057" stop-color="#F6E27A"/>
<stop offset="0.5236" stop-color="#F6F2C1"/>
<stop offset="0.6368" stop-color="#F6E27A"/>
<stop offset="0.9387" stop-color="#C9994F"/>
<stop offset="1" stop-color="#462523"/>
</linearGradient>
<linearGradient id="paint11_linear" x1="11.5697" y1="19.6684" x2="12.9384" y2="19.6684" gradientUnits="userSpaceOnUse">
<stop offset="0.0566" stop-color="#C9994F"/>
<stop offset="0.4057" stop-color="#F6E27A"/>
<stop offset="0.5236" stop-color="#F6F2C1"/>
<stop offset="0.6368" stop-color="#F6E27A"/>
<stop offset="0.9387" stop-color="#C9994F"/>
<stop offset="1" stop-color="#462523"/>
</linearGradient>
<linearGradient id="paint12_linear" x1="2.10144" y1="33.1509" x2="39.4519" y2="33.1509" gradientUnits="userSpaceOnUse">
<stop offset="0.0566" stop-color="#C9994F"/>
<stop offset="0.4057" stop-color="#F6E27A"/>
<stop offset="0.5236" stop-color="#F6F2C1"/>
<stop offset="0.6368" stop-color="#F6E27A"/>
<stop offset="0.9387" stop-color="#C9994F"/>
<stop offset="1" stop-color="#462523"/>
</linearGradient>
<linearGradient id="paint13_linear" x1="28.6652" y1="57.5885" x2="29.5205" y2="57.5885" gradientUnits="userSpaceOnUse">
<stop offset="0.0566" stop-color="#C9994F"/>
<stop offset="0.4057" stop-color="#F6E27A"/>
<stop offset="0.5236" stop-color="#F6F2C1"/>
<stop offset="0.6368" stop-color="#F6E27A"/>
<stop offset="0.9387" stop-color="#C9994F"/>
<stop offset="1" stop-color="#462523"/>
</linearGradient>
<linearGradient id="paint14_linear" x1="26.8493" y1="48.5425" x2="35.5532" y2="54.6572" gradientUnits="userSpaceOnUse">
<stop stop-color="#462523"/>
<stop offset="0.0566" stop-color="#C9994F"/>
<stop offset="0.4057" stop-color="#F6E27A"/>
<stop offset="0.6368" stop-color="#F6E27A"/>
<stop offset="0.9387" stop-color="#C9994F"/>
<stop offset="1" stop-color="#462523"/>
</linearGradient>
<linearGradient id="paint15_linear" x1="35.6836" y1="57.5918" x2="36.5654" y2="57.5918" gradientUnits="userSpaceOnUse">
<stop offset="0.0566" stop-color="#C9994F"/>
<stop offset="0.4057" stop-color="#F6E27A"/>
<stop offset="0.5236" stop-color="#F6F2C1"/>
<stop offset="0.6368" stop-color="#F6E27A"/>
<stop offset="0.9387" stop-color="#C9994F"/>
<stop offset="1" stop-color="#462523"/>
</linearGradient>
<linearGradient id="paint16_linear" x1="-6.06584" y1="18.8997" x2="50.0567" y2="58.3275" gradientUnits="userSpaceOnUse">
<stop offset="0.0566" stop-color="#C9994F"/>
<stop offset="0.4057" stop-color="#F6E27A"/>
<stop offset="0.5236" stop-color="#F6F2C1"/>
<stop offset="0.6368" stop-color="#F6E27A"/>
<stop offset="0.9387" stop-color="#C9994F"/>
<stop offset="1" stop-color="#462523"/>
</linearGradient>
<linearGradient id="paint17_linear" x1="32.1426" y1="28.5817" x2="34.3278" y2="51.4741" gradientUnits="userSpaceOnUse">
<stop offset="0.0566" stop-color="#C9994F"/>
<stop offset="0.4057" stop-color="#F6E27A"/>
<stop offset="0.5236" stop-color="#F6F2C1"/>
<stop offset="0.6368" stop-color="#F6E27A"/>
<stop offset="0.9387" stop-color="#C9994F"/>
<stop offset="1" stop-color="#462523"/>
</linearGradient>
<linearGradient id="paint18_linear" x1="26.6244" y1="29.1631" x2="28.8095" y2="52.0548" gradientUnits="userSpaceOnUse">
<stop offset="0.0566" stop-color="#C9994F"/>
<stop offset="0.4057" stop-color="#F6E27A"/>
<stop offset="0.5236" stop-color="#F6F2C1"/>
<stop offset="0.6368" stop-color="#F6E27A"/>
<stop offset="0.9387" stop-color="#C9994F"/>
<stop offset="1" stop-color="#462523"/>
</linearGradient>
<linearGradient id="paint19_linear" x1="23.3828" y1="29.3287" x2="24.6334" y2="29.3287" gradientUnits="userSpaceOnUse">
<stop offset="0.0566" stop-color="#C9994F"/>
<stop offset="0.4057" stop-color="#F6E27A"/>
<stop offset="0.5236" stop-color="#F6F2C1"/>
<stop offset="0.6368" stop-color="#F6E27A"/>
<stop offset="0.9387" stop-color="#C9994F"/>
<stop offset="1" stop-color="#462523"/>
</linearGradient>
<linearGradient id="paint20_linear" x1="25.5011" y1="29.2704" x2="27.6862" y2="52.1621" gradientUnits="userSpaceOnUse">
<stop offset="0.0566" stop-color="#C9994F"/>
<stop offset="0.4057" stop-color="#F6E27A"/>
<stop offset="0.5236" stop-color="#F6F2C1"/>
<stop offset="0.6368" stop-color="#F6E27A"/>
<stop offset="0.9387" stop-color="#C9994F"/>
<stop offset="1" stop-color="#462523"/>
</linearGradient>
<linearGradient id="paint21_linear" x1="38.4323" y1="28.036" x2="40.6174" y2="50.9277" gradientUnits="userSpaceOnUse">
<stop offset="0.0566" stop-color="#C9994F"/>
<stop offset="0.4057" stop-color="#F6E27A"/>
<stop offset="0.5236" stop-color="#F6F2C1"/>
<stop offset="0.6368" stop-color="#F6E27A"/>
<stop offset="0.9387" stop-color="#C9994F"/>
<stop offset="1" stop-color="#462523"/>
</linearGradient>
<linearGradient id="paint22_linear" x1="39.2537" y1="27.9576" x2="41.4388" y2="50.8492" gradientUnits="userSpaceOnUse">
<stop offset="0.0566" stop-color="#C9994F"/>
<stop offset="0.4057" stop-color="#F6E27A"/>
<stop offset="0.5236" stop-color="#F6F2C1"/>
<stop offset="0.6368" stop-color="#F6E27A"/>
<stop offset="0.9387" stop-color="#C9994F"/>
<stop offset="1" stop-color="#462523"/>
</linearGradient>
<linearGradient id="paint23_linear" x1="40.9345" y1="29.3287" x2="42.1849" y2="29.3287" gradientUnits="userSpaceOnUse">
<stop offset="0.0566" stop-color="#C9994F"/>
<stop offset="0.4057" stop-color="#F6E27A"/>
<stop offset="0.5236" stop-color="#F6F2C1"/>
<stop offset="0.6368" stop-color="#F6E27A"/>
<stop offset="0.9387" stop-color="#C9994F"/>
<stop offset="1" stop-color="#462523"/>
</linearGradient>
<linearGradient id="paint24_linear" x1="29.8623" y1="1.08984" x2="29.5972" y2="6.94504" gradientUnits="userSpaceOnUse">
<stop offset="0.0566" stop-color="#C9994F"/>
<stop offset="0.4057" stop-color="#F6E27A"/>
<stop offset="0.5236" stop-color="#F6F2C1"/>
<stop offset="0.6368" stop-color="#F6E27A"/>
<stop offset="0.9387" stop-color="#C9994F"/>
<stop offset="1" stop-color="#462523"/>
</linearGradient>
<linearGradient id="paint25_linear" x1="30.5991" y1="3.08816" x2="30.334" y2="8.94335" gradientUnits="userSpaceOnUse">
<stop offset="0.0566" stop-color="#C9994F"/>
<stop offset="0.4057" stop-color="#F6E27A"/>
<stop offset="0.5236" stop-color="#F6F2C1"/>
<stop offset="0.6368" stop-color="#F6E27A"/>
<stop offset="0.9387" stop-color="#C9994F"/>
<stop offset="1" stop-color="#462523"/>
</linearGradient>
<linearGradient id="paint26_linear" x1="34.8183" y1="1.14591" x2="34.5659" y2="6.72004" gradientUnits="userSpaceOnUse">
<stop offset="0.0566" stop-color="#C9994F"/>
<stop offset="0.4057" stop-color="#F6E27A"/>
<stop offset="0.5236" stop-color="#F6F2C1"/>
<stop offset="0.6368" stop-color="#F6E27A"/>
<stop offset="0.9387" stop-color="#C9994F"/>
<stop offset="1" stop-color="#462523"/>
</linearGradient>
<linearGradient id="paint27_linear" x1="32.3223" y1="2.11387" x2="32.1562" y2="5.78323" gradientUnits="userSpaceOnUse">
<stop offset="0.0566" stop-color="#C9994F"/>
<stop offset="0.4057" stop-color="#F6E27A"/>
<stop offset="0.5236" stop-color="#F6F2C1"/>
<stop offset="0.6368" stop-color="#F6E27A"/>
<stop offset="0.9387" stop-color="#C9994F"/>
<stop offset="1" stop-color="#462523"/>
</linearGradient>
<linearGradient id="paint28_linear" x1="32.3626" y1="0.0699496" x2="32.0838" y2="6.22839" gradientUnits="userSpaceOnUse">
<stop offset="0.0566" stop-color="#C9994F"/>
<stop offset="0.4057" stop-color="#F6E27A"/>
<stop offset="0.5236" stop-color="#F6F2C1"/>
<stop offset="0.6368" stop-color="#F6E27A"/>
<stop offset="0.9387" stop-color="#C9994F"/>
<stop offset="1" stop-color="#462523"/>
</linearGradient>
<linearGradient id="paint29_linear" x1="34.0819" y1="3.09276" x2="33.8313" y2="8.6297" gradientUnits="userSpaceOnUse">
<stop offset="0.0566" stop-color="#C9994F"/>
<stop offset="0.4057" stop-color="#F6E27A"/>
<stop offset="0.5236" stop-color="#F6F2C1"/>
<stop offset="0.6368" stop-color="#F6E27A"/>
<stop offset="0.9387" stop-color="#C9994F"/>
<stop offset="1" stop-color="#462523"/>
</linearGradient>
<linearGradient id="paint30_linear" x1="77.5008" y1="34.568" x2="200.001" y2="34.568" gradientUnits="userSpaceOnUse">
<stop stop-color="#C5972E"/>
<stop offset="0.1231" stop-color="#B27F2B"/>
<stop offset="0.2623" stop-color="#F7DE7B"/>
<stop offset="0.3672" stop-color="#F7DE7B"/>
<stop offset="0.4686" stop-color="#E2C163"/>
<stop offset="0.5966" stop-color="#CDA54B"/>
<stop offset="0.7239" stop-color="#BE9039"/>
<stop offset="0.8489" stop-color="#B5832F"/>
<stop offset="0.9689" stop-color="#B27F2B"/>
</linearGradient>
</defs>
</svg>
