<svg width="350" height="408" viewBox="0 0 350 408" fill="none" xmlns="http://www.w3.org/2000/svg">
<path opacity="0.25" d="M317.621 351.32C303.208 342.962 282.841 340.142 264.458 342.649L329.842 304.623C336.944 300.445 336.944 293.759 329.737 289.58L179.961 203.082C172.754 198.904 161.161 198.904 153.954 203.082L102.775 232.855C80.6324 223.035 48.9851 224.08 28.8269 235.78C8.66877 247.48 7.10207 265.866 24.1268 278.611L5.32648 289.58C-1.77588 293.759 -1.77588 300.445 5.43093 304.623L155.207 391.121C162.414 395.3 174.007 395.3 181.214 391.121L223.202 366.676C218.815 377.332 223.828 389.136 238.242 397.494C260.28 410.239 296.001 410.239 317.935 397.494C339.868 384.749 339.66 364.064 317.621 351.32Z" fill="#87AEDD"/>
<path d="M91.8077 255.838C91.1811 262.419 85.0187 266.806 79.4831 269.209C73.4252 271.821 66.7406 272.866 60.1605 272.761C53.4759 272.657 46.5824 271.403 40.5245 268.373C35.1978 265.762 29.6621 261.061 29.6621 254.584C29.6621 259.285 29.9754 263.15 33.3177 266.806C37.7045 271.507 44.1802 274.015 50.3425 275.268C62.3538 277.775 78.6475 276.522 87.7343 267.329C91.39 263.568 91.9122 259.703 91.9122 254.793C91.9122 255.211 91.8077 255.524 91.8077 255.838Z" fill="#ADCDFC"/>
<path d="M82.7206 242.048C94.9408 249.047 94.9408 260.538 82.9295 267.537C70.8137 274.537 51.0733 274.537 38.8531 267.537C26.6328 260.538 26.6328 249.047 38.7486 242.048C50.76 235.049 70.5003 235.049 82.7206 242.048Z" fill="#E2EDFF"/>
<path d="M66.3231 227.841L66.2186 255.002L61.5186 257.823V230.557L66.3231 227.841Z" fill="#C7D8F2"/>
<path d="M61.5184 230.557V257.823L56.7139 255.002V227.841L61.5184 230.557Z" fill="#7BAEFF"/>
<path d="M66.3229 227.841L61.5184 230.557L56.7139 227.841L61.5184 225.02L66.3229 227.841Z" fill="#4DA5DC"/>
<path d="M30.6026 139.567C30.6026 139.567 20.8891 142.178 18.2779 148.028C15.6668 153.878 16.2935 198.068 29.9759 216.349C43.6584 234.526 69.0389 237.138 74.8879 234.526C80.7369 231.915 114.578 214.991 117.189 206.529C119.8 198.068 106.744 191.591 99.6417 188.352C92.5393 185.114 87.9437 180.517 84.0792 168.817C80.2147 157.117 78.2302 136.955 73.6345 133.717C68.9344 130.478 57.8631 125.255 30.6026 139.567Z" fill="#3AAEEF"/>
<path d="M88.8838 127.866C88.8838 127.866 72.9035 114.599 69.6657 114.286C65.8011 113.972 60.8922 115.331 59.6388 120.867C58.3854 126.404 61.3099 130.583 64.2344 132.254C67.1589 133.821 92.9572 146.044 97.4484 146.044C102.044 146.044 104.864 142.074 101.94 137.268C99.0151 132.358 88.8838 127.866 88.8838 127.866Z" fill="#E1E8F2"/>
<path d="M61.2051 111.257C61.2051 111.257 61.2051 111.466 61.2051 111.779C61.414 112.928 62.1452 115.958 62.354 117.316C62.5629 118.569 61.2051 120.763 57.9673 120.867C54.625 120.972 48.9849 119.823 46.896 115.958C47.0004 115.226 46.3737 107.914 45.7471 104.362L61.2051 111.257Z" fill="#E16B40"/>
<path d="M68.3076 87.1247C65.9053 77.096 57.6541 71.7682 48.6717 74.2754C48.6717 74.2754 38.8537 75.7379 34.9892 84.6175C31.0202 93.4971 37.8092 100.392 42.196 104.779C43.9716 106.555 45.4338 107.913 46.2694 108.854C46.5827 109.167 46.8961 109.48 47.2094 109.794C47.3139 109.898 47.3139 109.898 47.3139 109.898C50.2384 112.614 53.5806 113.973 55.9829 114.599C59.9519 115.539 64.652 114.704 67.0542 111.883C69.3521 109.063 70.7099 97.1535 68.3076 87.1247Z" fill="#FF8654"/>
<path d="M47.7318 112.092C47.7318 112.092 31.9604 124.524 30.6026 128.494C29.1403 132.463 29.3492 143.328 33.1093 150.327C36.8694 157.326 36.8694 183.965 38.3316 189.084C39.7939 194.203 53.8941 195.143 62.4588 193.054C71.0234 190.964 84.6014 183.756 81.8858 174.041C77.8124 159.729 78.8568 145.208 79.1702 140.612C79.4835 136.015 78.3346 124.628 75.8279 117.107C75.3057 115.54 69.6656 113.242 69.6656 113.242C69.6656 113.242 63.7121 110.525 47.7318 112.092Z" fill="#0046A6"/>
<path d="M50.5518 171.533C44.0761 163.281 53.5808 135.075 42.3005 127.344C38.8538 124.941 35.9293 124.315 33.4226 124.628C31.9603 126.195 30.8114 127.658 30.4981 128.493C29.0359 132.463 29.2447 143.328 33.0048 150.327C36.7649 157.326 36.7649 183.965 38.2271 189.084C39.5849 193.785 51.2829 194.934 59.8475 193.576L72.1722 180.726C72.1722 180.622 57.0275 179.682 50.5518 171.533Z" fill="#003783"/>
<path d="M47.1048 114.182C60.7873 112.928 67.054 115.331 68.6207 115.958C68.8296 118.674 68.9341 122.33 68.4118 125.673C67.3674 132.15 64.7562 149.909 64.7562 149.909C64.7562 149.909 56.2961 135.284 50.7604 129.329C46.8959 125.046 43.0314 121.076 41.0469 119.091C44.3892 116.375 47.1048 114.182 47.1048 114.182Z" fill="#E1E8F2"/>
<path d="M61.2051 111.257C61.2051 111.257 61.2051 111.466 61.2051 111.779C61.414 112.928 62.1452 115.958 62.3541 117.316C62.5629 118.569 61.2051 120.763 57.9673 120.867C54.625 120.972 48.9849 119.823 46.896 115.958C47.0004 115.226 46.3737 107.914 45.7471 104.362L61.2051 111.257Z" fill="#FF8654"/>
<path d="M68.3076 87.1247C65.9053 77.096 57.654 71.7682 48.6717 74.2754C48.6717 74.2754 38.8537 75.7379 34.9892 84.6175C31.0202 93.4971 37.8092 100.392 42.196 104.779C43.9716 106.555 45.4338 107.913 46.2694 108.854C46.5827 109.167 46.8961 109.48 47.2094 109.794C47.3139 109.898 47.3138 109.898 47.3138 109.898C50.2383 112.614 53.5806 113.973 55.9829 114.599C59.9519 115.539 64.652 114.704 67.0542 111.883C69.352 109.063 70.7099 97.1535 68.3076 87.1247Z" fill="#FF9F75"/>
<path d="M66.7411 129.329L60.6832 123.897L55.7742 132.463L50.8652 129.329C56.4009 135.388 64.8611 149.909 64.8611 149.909C64.8611 149.909 67.0544 135.075 68.2033 127.553L66.7411 129.329Z" fill="#CFDAE4"/>
<path d="M66.3236 139.776L63.608 130.165L64.0258 126.926L60.6835 123.897L58.2812 128.076L60.9969 130.583L61.728 144.79C63.608 147.82 64.8614 149.909 64.8614 149.909C64.8614 149.909 65.5925 145.313 66.3236 139.776Z" fill="#00A5FF"/>
<path d="M33.8407 83.6773C33.8407 83.6773 29.9762 90.781 34.7807 98.3026C39.6897 105.824 44.912 109.063 46.1654 108.958C47.4187 108.749 48.1498 108.436 47.7321 107.496C47.4187 106.555 45.7476 103.317 45.7476 103.317C45.7476 103.317 40.2119 102.69 40.2119 99.1383C40.2119 95.5865 42.1964 94.9597 44.3898 95.8999C46.6876 96.8401 47.0009 98.5115 48.2543 99.7651C49.5077 101.019 49.9254 104.362 50.8655 103.944C51.8055 103.63 52.5366 102.69 52.5366 101.019C52.5366 99.3472 52.5366 97.4669 50.5521 95.482C48.5676 93.4972 50.8655 90.2587 48.881 87.647C46.8965 85.0354 45.6431 84.0952 45.6431 84.0952C45.6431 84.0952 46.8965 86.0801 53.4766 84.722C59.9523 83.4684 62.8768 83.7818 65.488 82.1103C68.0991 80.4389 67.4724 76.887 65.8013 75.6334C64.1301 74.3798 60.2656 73.6486 55.67 72.0816C51.0743 70.5146 48.5676 71.4548 43.032 72.7084C37.7052 73.962 32.5873 79.8121 33.8407 83.6773Z" fill="#E16B40"/>
<path d="M125.544 279.447C125.544 279.447 125.335 282.685 128.782 285.088C132.229 287.491 132.855 288.953 135.675 290.102C138.495 291.147 141.107 294.908 139.749 297.519C138.495 300.131 132.333 300.549 128.469 299.504C124.604 298.46 123.873 294.908 120.217 293.654C116.562 292.401 115.204 290.834 114.159 289.789C113.115 288.744 113.533 284.357 113.533 284.357L126.797 279.969" fill="#382747"/>
<path d="M142.465 266.911C142.465 266.911 142.256 270.15 145.703 272.552C149.15 274.955 149.776 276.418 152.596 277.567C155.416 278.611 158.027 282.372 156.67 284.984C155.312 287.595 149.254 288.013 145.389 286.969C141.525 285.924 140.794 282.372 137.138 281.119C133.483 279.865 132.125 278.298 131.08 277.253C130.036 276.209 130.454 271.821 130.454 271.821L143.718 267.433" fill="#382747"/>
<path d="M39.2715 189.188C39.2715 189.188 39.8982 191.8 39.8982 194.098C39.8982 196.397 38.227 202.873 41.5693 210.708C44.8071 218.543 66.6364 220.11 73.7388 223.349C80.8412 226.587 85.1235 229.512 86.3768 230.452C87.6302 231.393 89.5102 245.182 95.1503 253.435C100.79 261.688 110.295 278.193 112.488 285.088C112.488 285.088 118.651 286.551 124.186 282.894C127.111 281.014 126.798 279.865 126.798 279.865C126.798 279.865 115.517 255.106 112.906 244.764C110.295 234.422 107.266 222.2 102.462 219.17C97.657 216.141 82.5123 205.276 79.0656 203.082C75.6188 200.889 66.2187 194.098 64.4431 189.92C62.6675 185.845 44.9116 179.055 39.2715 189.188Z" fill="#94A3C0"/>
<path d="M57.1318 178.428C57.1318 178.428 57.7585 181.04 57.7585 183.338C57.7585 185.636 56.0874 192.113 59.4297 199.948C62.6675 207.783 84.4968 209.35 91.5992 212.589C98.7015 215.827 102.984 218.752 104.237 219.692C105.491 220.632 107.371 234.422 113.011 242.675C118.651 250.928 128.155 267.433 130.349 274.328C130.349 274.328 136.511 275.791 142.047 272.134C144.971 270.254 144.658 269.105 144.658 269.105C144.658 269.105 133.482 244.451 130.871 234.004C128.26 223.557 125.231 211.439 120.426 208.41C115.622 205.38 100.477 194.516 97.0304 192.322C93.5836 190.128 84.1835 183.338 82.4079 179.159C80.5278 175.085 62.7719 168.295 57.1318 178.428Z" fill="#94A3C0"/>
<path d="M144.972 260.643L144.763 326.77L133.17 333.56L133.379 267.433L144.972 260.643Z" fill="#C7D8F2"/>
<path d="M133.379 267.433L133.17 333.56L121.576 326.77L121.681 260.643L133.379 267.433Z" fill="#7BAEFF"/>
<path d="M144.971 260.643L133.378 267.433L121.68 260.643L133.273 253.957L144.971 260.643Z" fill="#4DA5DC"/>
<path d="M335.169 215.305C335.169 215.513 335.169 215.722 335.064 215.931C335.064 216.14 334.96 216.245 334.96 216.454C334.96 216.663 334.856 216.872 334.751 216.976C334.647 217.08 334.647 217.289 334.542 217.394C334.438 217.603 334.333 217.812 334.229 217.916C334.124 218.021 334.02 218.23 334.02 218.334C333.916 218.543 333.707 218.752 333.602 218.961C333.498 219.17 333.289 219.379 333.08 219.588L332.975 219.692C332.767 219.901 332.453 220.214 332.244 220.423C332.035 220.632 331.827 220.737 331.722 220.841C331.513 220.946 331.409 221.155 331.2 221.259C330.991 221.364 330.782 221.572 330.573 221.677C330.364 221.781 330.155 221.99 329.842 222.095L181.11 308.593C179.857 309.324 178.499 309.846 177.037 310.369C175.888 310.682 174.739 310.995 173.59 311.204C172.859 311.309 172.024 311.413 171.292 311.518C170.666 311.622 169.935 311.622 169.308 311.622C168.681 311.622 168.055 311.622 167.428 311.622C166.801 311.622 166.175 311.622 165.652 311.518V322.173C166.279 322.173 166.906 322.278 167.428 322.278C168.055 322.278 168.681 322.278 169.308 322.278C170.039 322.278 170.666 322.173 171.292 322.173C172.128 322.069 172.859 321.964 173.59 321.86C174.739 321.651 175.993 321.338 177.037 321.024C178.499 320.606 179.857 319.98 181.11 319.248L329.842 232.75C329.947 232.75 329.947 232.646 330.051 232.646C330.26 232.541 330.364 232.437 330.469 232.333C330.678 232.228 330.887 232.019 331.095 231.915C331.304 231.81 331.409 231.601 331.618 231.497C331.827 231.392 332.035 231.183 332.14 231.079L332.244 230.974C332.453 230.766 332.662 230.557 332.871 230.348L332.975 230.243C333.08 230.139 333.184 229.93 333.289 229.825C333.289 229.721 333.393 229.721 333.393 229.616C333.602 229.407 333.707 229.199 333.811 228.99C333.916 228.885 333.916 228.781 334.02 228.676C334.02 228.676 334.02 228.572 334.124 228.572C334.229 228.363 334.333 228.154 334.438 228.049C334.438 227.945 334.542 227.84 334.542 227.736V227.632C334.647 227.423 334.647 227.318 334.751 227.109C334.751 227.005 334.856 226.9 334.856 226.691V226.587C334.856 226.378 334.856 226.169 334.96 225.96C334.96 225.856 334.96 225.751 334.96 225.542C334.96 225.438 334.96 225.438 334.96 225.333V214.678C335.169 214.991 335.169 215.2 335.169 215.305Z" fill="#ADCDFC"/>
<path d="M163.772 311.518C163.145 311.413 162.519 311.309 161.996 311.204C161.37 311.1 160.743 310.891 160.116 310.787C159.385 310.578 158.654 310.369 157.923 310.055C156.983 309.637 156.147 309.22 155.312 308.802L5.43121 222.304C1.77559 220.214 0 217.498 0 214.782V225.438C0 228.154 1.77559 230.87 5.43121 232.959L155.207 319.457C156.043 319.98 156.879 320.397 157.819 320.711C158.55 321.024 159.281 321.233 160.012 321.442C160.639 321.651 161.265 321.756 161.892 321.86C162.519 321.964 163.145 322.069 163.668 322.173C164.294 322.278 164.816 322.278 165.443 322.382V311.727C164.921 311.727 164.399 311.622 163.772 311.518Z" fill="#ADCDFC"/>
<path d="M329.842 207.679C337.048 211.857 337.048 218.543 329.946 222.722L181.214 309.22C174.112 313.398 162.414 313.398 155.207 309.22L5.43093 222.722C-1.77588 218.543 -1.77588 211.857 5.32648 207.679L154.163 121.181C161.265 117.002 172.963 117.002 180.17 121.181L329.842 207.679Z" fill="#E2EDFF"/>
<path d="M168.89 239.018L209.833 262.837L238.66 246.122L197.717 222.304L168.89 239.018Z" fill="white"/>
<path d="M203.67 233.064L197.195 236.825L189.048 234.422C191.346 231.811 196.881 230.766 201.373 232.124C202.313 232.333 203.044 232.646 203.67 233.064Z" fill="#FF5668"/>
<path d="M205.237 233.482C209.52 235.989 209.624 240.063 205.237 242.57C200.955 245.078 193.957 245.078 189.57 242.57C186.124 240.586 185.288 237.661 187.481 235.153L197.404 238.078L205.237 233.482Z" fill="#B391FF"/>
<path d="M199.284 251.345C198.97 251.554 198.97 251.868 199.284 252.077C199.597 252.286 200.224 252.286 200.537 252.077L218.815 241.526C219.129 241.317 219.129 241.003 218.815 240.794C218.502 240.585 217.875 240.585 217.562 240.794L199.284 251.345Z" fill="#ADCDFC"/>
<path d="M211.922 246.54C211.608 246.749 211.608 247.062 211.922 247.271C212.235 247.48 212.862 247.48 213.175 247.271L220.904 242.779C221.217 242.57 221.217 242.257 220.904 242.048C220.591 241.839 219.964 241.839 219.651 242.048L211.922 246.54Z" fill="#D4D9DF"/>
<path d="M209.52 250.196C209.206 250.405 209.102 250.719 209.52 250.928C209.833 251.137 210.46 251.137 210.773 250.928L222.889 243.928C223.202 243.72 223.202 243.406 222.889 243.197C222.576 242.988 221.949 242.988 221.635 243.197L209.52 250.196Z" fill="#D4D9DF"/>
<path d="M217.144 272.866C218.188 273.492 218.188 274.328 217.144 274.955L187.899 291.983C186.959 292.61 185.288 292.61 184.348 291.983L163.876 280.178C162.832 279.551 162.832 278.716 163.876 278.089L193.121 261.061C194.061 260.434 195.732 260.434 196.672 261.061L217.144 272.866Z" fill="#F2F8FD"/>
<path d="M217.874 274.015C217.874 274.015 217.874 274.119 217.874 274.015C217.874 274.119 217.874 274.119 217.874 274.119C217.874 274.119 217.874 274.119 217.874 274.224C217.874 274.224 217.874 274.224 217.874 274.328V274.433C217.874 274.433 217.874 274.433 217.874 274.537C217.874 274.537 217.874 274.641 217.77 274.641L217.666 274.746C217.666 274.746 217.666 274.746 217.561 274.85C217.561 274.85 217.561 274.85 217.457 274.955C217.457 274.955 217.352 274.955 217.352 275.059C217.352 275.059 217.248 275.059 217.248 275.164L188.003 292.192C187.898 292.296 187.794 292.296 187.689 292.401H187.585C187.481 292.401 187.376 292.401 187.376 292.505C187.272 292.505 187.167 292.505 187.167 292.61C187.063 292.61 186.958 292.61 186.854 292.714C186.854 292.714 186.854 292.714 186.749 292.714C186.645 292.714 186.436 292.714 186.332 292.714C186.332 292.714 186.332 292.714 186.227 292.714C186.123 292.714 185.914 292.714 185.809 292.714C185.809 292.714 185.809 292.714 185.705 292.714C185.601 292.714 185.392 292.714 185.287 292.61C185.287 292.61 185.287 292.61 185.183 292.61C185.078 292.61 184.974 292.505 184.869 292.505C184.869 292.505 184.869 292.505 184.765 292.505C184.66 292.401 184.452 292.401 184.347 292.296L163.876 280.492C163.458 280.283 163.249 279.969 163.145 279.76C163.145 279.656 163.145 279.551 163.145 279.447V280.596V280.701C163.249 281.014 163.458 281.327 163.876 281.641L184.347 293.445C184.452 293.55 184.556 293.55 184.765 293.654C184.765 293.654 184.765 293.654 184.869 293.654C184.974 293.654 184.974 293.759 185.078 293.759H185.183C185.183 293.759 185.183 293.759 185.287 293.759C185.287 293.759 185.287 293.759 185.392 293.759C185.496 293.759 185.601 293.759 185.601 293.759H185.705C185.705 293.759 185.705 293.759 185.809 293.759H185.914C186.018 293.759 186.123 293.759 186.123 293.759H186.227C186.227 293.759 186.227 293.759 186.332 293.759H186.436C186.541 293.759 186.645 293.759 186.749 293.759C186.749 293.759 186.749 293.759 186.854 293.759C186.958 293.759 186.958 293.759 187.063 293.759H187.167C187.272 293.759 187.376 293.759 187.376 293.654H187.481H187.585H187.689C187.794 293.654 187.898 293.55 188.003 293.445L217.248 276.417C217.248 276.417 217.248 276.417 217.352 276.417C217.352 276.417 217.457 276.417 217.457 276.313C217.457 276.313 217.457 276.313 217.561 276.208C217.561 276.208 217.666 276.208 217.666 276.104L217.77 276C217.77 276 217.77 275.895 217.874 275.895V275.791C217.874 275.791 217.874 275.791 217.874 275.686V275.582V274.015Z" fill="url(#paint0_linear)"/>
<path d="M214.115 273.283C214.428 273.492 214.428 273.806 214.115 273.91L186.332 290.103C186.019 290.311 185.496 290.311 185.183 290.103L166.8 279.447C166.487 279.238 166.487 278.925 166.8 278.82L194.583 262.628C194.897 262.419 195.419 262.419 195.732 262.628L214.115 273.283Z" fill="url(#paint1_linear)"/>
<path d="M77.8125 176.548L118.86 200.366L147.687 183.756L106.64 159.833L77.8125 176.548Z" fill="white"/>
<path d="M112.698 170.593L106.222 174.354L98.0752 171.952C100.373 169.34 105.909 168.295 110.4 169.653C111.235 169.862 111.967 170.176 112.698 170.593Z" fill="#B391FF"/>
<path d="M114.16 171.116C118.442 173.623 118.547 177.697 114.16 180.204C109.878 182.711 102.88 182.711 98.4932 180.204C95.0464 178.219 94.2108 175.294 96.4042 172.787L106.327 175.712L114.16 171.116Z" fill="#05CCFF"/>
<path d="M108.207 188.875C107.893 189.084 107.893 189.397 108.207 189.606C108.52 189.815 109.147 189.815 109.46 189.606L127.738 179.055C128.052 178.846 128.052 178.533 127.738 178.324C127.425 178.115 126.798 178.115 126.485 178.324L108.207 188.875Z" fill="#ADCDFC"/>
<path d="M120.844 184.069C120.531 184.278 120.531 184.591 120.844 184.8C121.158 185.009 121.784 185.009 122.098 184.8L129.827 180.308C130.14 180.099 130.14 179.786 129.827 179.577C129.513 179.368 128.887 179.368 128.573 179.577L120.844 184.069Z" fill="#D4D9DF"/>
<path d="M118.443 187.726C118.129 187.935 118.025 188.248 118.443 188.457C118.756 188.666 119.383 188.666 119.696 188.457L131.812 181.458C132.125 181.249 132.125 180.935 131.812 180.727C131.498 180.518 130.872 180.518 130.558 180.727L118.443 187.726Z" fill="#05CCFF"/>
<path d="M143.717 249.987V252.39L138.077 255.733V253.226L143.717 249.987Z" fill="#540CC7"/>
<path d="M138.077 253.226V255.733L89.8232 227.841V225.333L138.077 253.226Z" fill="#3F0995"/>
<path d="M143.718 249.987L138.077 253.226L89.8232 225.333L95.4634 222.095L143.718 249.987Z" fill="#7974F5"/>
<path d="M122.306 250.405V252.912L116.562 256.151V253.748L122.306 250.405Z" fill="#2689FD"/>
<path d="M116.562 253.748V256.151L78.6475 234.318V231.811L116.562 253.748Z" fill="#3548DB"/>
<path d="M122.306 250.405L116.562 253.748L78.6475 231.81L84.392 228.572L122.306 250.405Z" fill="#58AFFB"/>
<path d="M90.6586 244.973L90.5542 247.48L84.9141 250.823V248.316L90.6586 244.973Z" fill="#EE2C6A"/>
<path d="M84.9143 248.316V250.823L67.5762 240.794V238.287L84.9143 248.316Z" fill="#EE428C"/>
<path d="M90.6588 244.973L84.9143 248.316L67.5762 238.287L73.2163 234.944L90.6588 244.973Z" fill="#FF3D9D"/>
<path d="M52.3272 231.393C51.805 231.706 51.805 232.228 52.3272 232.542C52.8495 232.855 53.7895 232.855 54.3117 232.542L83.1389 215.932C83.6611 215.618 83.6611 215.096 83.1389 214.782C82.6167 214.469 81.6767 214.469 81.1544 214.782L52.3272 231.393Z" fill="#ADCDFC"/>
<path d="M72.2764 223.767C71.7542 224.08 71.7542 224.602 72.2764 224.916C72.7987 225.229 73.7387 225.229 74.3654 224.916L86.5856 217.812C87.1078 217.499 87.1078 216.976 86.5856 216.663C86.0634 216.349 85.1233 216.349 84.6011 216.663L72.2764 223.767Z" fill="#ADCDFC"/>
<path d="M68.4122 229.512C67.89 229.825 67.7855 230.348 68.4122 230.661C68.9344 230.975 69.8744 230.975 70.5011 230.661L89.6148 219.588C90.1371 219.274 90.1371 218.752 89.6148 218.439C89.0926 218.125 88.1526 218.125 87.6303 218.439L68.4122 229.512Z" fill="#ADCDFC"/>
<path d="M66.7414 202.873L62.1457 205.589C57.9679 203.291 51.4922 203.396 47.4188 205.694C47.3144 205.694 47.2099 205.798 47.2099 205.798L42.6143 203.082C42.7187 203.082 42.8232 202.978 42.8232 202.978C49.2988 199.217 59.9524 199.113 66.7414 202.873Z" fill="#7CCCFF"/>
<path d="M67.3681 203.291C72.7993 206.738 73.426 211.753 69.0392 215.514L64.2347 212.797C66.1147 210.604 65.5925 207.888 62.7725 206.007L67.3681 203.291Z" fill="#7CCCFF"/>
<path d="M68.5173 216.036C68.0996 216.349 67.5773 216.663 67.0551 216.976C60.5794 220.737 50.1348 220.841 43.4502 217.29L48.0458 214.573C52.2237 216.663 58.4905 216.558 62.4594 214.26C62.9817 213.947 63.5039 213.633 63.9217 213.215L68.5173 216.036Z" fill="#3EABFF"/>
<path d="M46.4785 206.216C43.3451 208.619 43.554 211.962 47.2096 214.156L42.614 216.872C36.4516 213.215 36.1383 207.47 41.7784 203.604L46.4785 206.216Z" fill="#3EABFF"/>
<path d="M157.506 79.8123C159.595 81.0659 161.37 83.9909 161.266 86.3936V123.27C161.266 125.673 159.49 126.718 157.401 125.464L147.166 119.509L146.643 120.241L144.659 123.061L142.674 117.942L142.152 116.689L131.916 110.734C129.827 109.481 128.156 106.556 128.156 104.153V67.2763C128.156 64.8736 129.827 63.8289 132.021 65.0825L157.506 79.8123Z" fill="#58AFFB"/>
<path d="M139.646 80.1256V81.1702C139.646 81.797 139.019 82.1104 138.497 81.9015L133.588 79.0809C133.379 78.9764 133.17 78.6631 133.17 78.3497V77.305C133.17 76.6782 133.797 76.3648 134.319 76.5737L139.228 79.3943C139.541 79.6032 139.646 79.9166 139.646 80.1256Z" fill="white"/>
<path d="M155.104 94.2283V95.273C155.104 95.8998 154.477 96.2132 153.955 96.0043L133.588 84.1996C133.379 84.0951 133.17 83.7817 133.17 83.4683V82.4237C133.17 81.7969 133.797 81.4835 134.319 81.6924L154.686 93.4971C154.999 93.706 155.104 94.0194 155.104 94.2283Z" fill="#ADCDFC"/>
<path d="M138.392 93.8109V95.0644L135.677 104.466L134.528 103.735L137.244 94.3332L133.588 92.2439L133.692 91.0947L138.392 93.8109Z" fill="white"/>
<path d="M144.032 97.0492V98.3028L140.899 96.5269L140.69 100.183C141.003 99.7654 141.525 99.6609 142.257 100.079C143.614 100.914 144.241 102.377 144.241 104.153V106.556C144.241 108.436 143.51 109.167 141.839 108.227C140.168 107.287 139.437 105.615 139.437 103.735V102.899L140.585 103.526V104.466C140.585 105.615 141.003 106.451 141.839 106.974C142.674 107.496 143.092 106.974 143.092 105.929V103.526C143.092 102.377 142.674 101.541 141.839 101.019C141.212 100.601 140.794 100.81 140.69 101.646V101.959L139.541 101.332L139.854 94.751L144.032 97.0492Z" fill="white"/>
<path d="M152.074 106.242C153.119 106.869 153.537 107.914 153.537 109.063V112.928C153.537 114.077 153.014 114.599 151.97 114.077C150.926 113.45 150.403 112.406 150.403 111.257V107.391C150.612 106.138 151.03 105.615 152.074 106.242ZM152.806 112.51V108.54C152.806 107.914 152.597 107.287 152.074 106.973C151.552 106.66 151.343 106.973 151.343 107.6V111.57C151.343 112.197 151.552 112.824 152.074 113.137C152.597 113.555 152.806 113.137 152.806 112.51Z" fill="white"/>
<path d="M148.42 105.407C148.42 106.556 147.897 107.078 146.853 106.451C145.808 105.824 145.391 104.78 145.391 103.631V99.7654C145.391 98.6163 145.913 98.094 146.957 98.7208C148.002 99.3476 148.524 100.392 148.524 101.541L148.42 105.407ZM147.688 104.989V101.019C147.688 100.392 147.48 99.7654 146.957 99.452C146.435 99.1386 146.226 99.452 146.226 100.079V104.049C146.226 104.675 146.435 105.302 146.957 105.616C147.375 105.929 147.688 105.616 147.688 104.989Z" fill="white"/>
<path d="M151.239 101.228L151.866 101.645L147.688 111.465L146.957 111.047L151.239 101.228Z" fill="white"/>
<path d="M204.089 156.177C216.309 163.176 216.309 174.668 204.298 181.667C192.182 188.666 172.441 188.666 160.221 181.667C148.001 174.668 148.001 163.176 160.117 156.177C172.233 149.178 191.869 149.178 204.089 156.177Z" fill="#ADCDFC"/>
<path d="M204.402 148.655V153.147L196.568 157.639L196.673 153.147L204.402 148.655Z" fill="#CC096A"/>
<path d="M173.172 156.282C173.277 156.282 173.277 156.281 173.381 156.177C173.799 155.968 174.217 155.864 174.739 155.759C175.052 155.655 175.366 155.55 175.679 155.446C175.888 155.341 176.201 155.341 176.41 155.237C176.723 155.132 177.037 155.132 177.455 155.028C177.663 155.028 177.977 154.923 178.186 154.923C178.29 154.923 178.395 154.923 178.499 154.923C178.917 154.819 179.335 154.819 179.752 154.715C179.857 154.715 179.961 154.715 180.17 154.715C180.692 154.61 181.215 154.61 181.632 154.61C181.737 154.61 181.841 154.61 181.946 154.61C182.259 154.61 182.572 154.61 182.99 154.61C183.304 154.61 183.617 154.61 184.035 154.61C184.348 154.61 184.557 154.61 184.87 154.61C185.184 154.61 185.497 154.61 185.81 154.61C186.124 154.61 186.332 154.61 186.646 154.715C186.959 154.715 187.272 154.819 187.586 154.819C187.899 154.819 188.108 154.923 188.421 154.923C188.735 154.923 189.048 155.028 189.361 155.132C189.675 155.237 190.093 155.237 190.406 155.341C190.51 155.341 190.615 155.341 190.615 155.446C191.137 155.55 191.555 155.655 191.973 155.864C192.077 155.864 192.181 155.968 192.39 155.968C192.808 156.073 193.121 156.177 193.539 156.386C193.644 156.386 193.748 156.49 193.853 156.49C194.166 156.595 194.479 156.804 194.793 156.908C195.002 157.013 195.106 157.013 195.315 157.117C195.733 157.326 196.255 157.535 196.673 157.848V152.625C196.255 152.416 195.733 152.103 195.315 151.894C195.21 151.789 195.002 151.789 194.793 151.685C194.479 151.581 194.27 151.476 193.957 151.372C193.957 151.372 193.853 151.372 193.853 151.267C193.748 151.267 193.644 151.163 193.539 151.163C193.121 151.058 192.808 150.849 192.39 150.745C192.286 150.745 192.181 150.64 191.973 150.64C191.868 150.64 191.764 150.536 191.659 150.536C191.241 150.431 190.928 150.327 190.51 150.222C190.406 150.222 190.301 150.222 190.301 150.118C190.093 150.118 189.884 150.014 189.779 150.014C189.675 150.014 189.466 150.014 189.361 149.909C189.048 149.805 188.735 149.805 188.421 149.7C188.317 149.7 188.213 149.7 188.004 149.596C187.899 149.596 187.69 149.596 187.586 149.596C187.272 149.596 186.959 149.491 186.646 149.491C186.541 149.491 186.332 149.491 186.228 149.491C186.124 149.491 185.915 149.491 185.81 149.491C185.497 149.491 185.184 149.491 184.87 149.491C184.661 149.491 184.557 149.491 184.348 149.491C184.244 149.491 184.139 149.491 183.93 149.491C183.617 149.491 183.304 149.491 182.886 149.491C182.677 149.491 182.572 149.491 182.364 149.491C182.155 149.491 182.05 149.491 181.841 149.491C181.737 149.491 181.632 149.491 181.528 149.491C181.11 149.491 180.692 149.596 180.275 149.596C180.17 149.596 180.066 149.596 180.066 149.596C179.961 149.596 179.857 149.596 179.648 149.596C179.23 149.596 178.812 149.7 178.395 149.805C178.29 149.805 178.186 149.805 178.081 149.805H177.977C177.768 149.805 177.559 149.909 177.35 149.909C177.037 150.014 176.619 150.014 176.306 150.118C176.097 150.222 175.783 150.222 175.574 150.327C175.261 150.431 174.948 150.536 174.634 150.64C174.53 150.64 174.53 150.64 174.426 150.745C174.008 150.849 173.694 150.954 173.277 151.163C173.172 151.163 173.172 151.163 173.068 151.267C172.65 151.476 172.232 151.581 171.919 151.789C171.814 151.894 171.71 151.894 171.606 151.998C171.188 152.207 170.77 152.416 170.352 152.625C170.248 152.625 170.248 152.73 170.143 152.73C170.039 152.73 170.039 152.834 169.934 152.834C169.83 152.939 169.725 152.939 169.621 153.043C169.517 153.148 169.412 153.148 169.308 153.252C169.203 153.356 169.099 153.356 168.994 153.461C168.89 153.565 168.785 153.565 168.681 153.67C168.577 153.774 168.472 153.774 168.368 153.879C168.263 153.983 168.159 153.983 168.159 154.088C168.054 154.192 167.95 154.192 167.845 154.297L167.741 154.401L167.637 154.506C167.532 154.61 167.323 154.819 167.219 154.923L167.114 155.028C166.905 155.237 166.801 155.446 166.592 155.55L166.488 155.655C166.383 155.759 166.279 155.864 166.279 155.968C166.279 156.073 166.174 156.073 166.174 156.177C166.07 156.281 166.07 156.386 165.965 156.49C165.965 156.49 165.965 156.595 165.861 156.595C165.861 156.595 165.861 156.699 165.757 156.699C165.757 156.804 165.652 156.908 165.652 157.013C165.652 157.117 165.548 157.117 165.548 157.222C165.548 157.326 165.443 157.431 165.443 157.535C165.443 157.535 165.443 157.64 165.339 157.64V157.744C165.339 157.848 165.234 157.953 165.234 158.057C165.234 158.162 165.234 158.266 165.13 158.266C165.13 158.371 165.13 158.475 165.025 158.58V158.684V158.789C165.025 158.893 165.025 158.998 165.025 159.102C165.025 159.207 165.025 159.311 165.025 159.311C165.025 159.415 165.025 159.52 165.025 159.624C165.025 159.729 165.025 159.729 165.025 159.833C165.025 159.938 165.025 160.669 165.025 160.774V165.266C165.025 165.161 165.025 165.057 165.025 164.952C165.025 164.848 165.025 164.743 165.025 164.639C165.025 164.534 165.025 164.43 165.025 164.43C165.025 164.325 165.025 164.221 165.025 164.116C165.025 164.012 165.025 163.908 165.025 163.908C165.025 163.803 165.025 163.699 165.13 163.594C165.13 163.49 165.13 163.385 165.234 163.385C165.234 163.281 165.339 163.176 165.339 163.072C165.339 162.967 165.443 162.863 165.443 162.863C165.443 162.758 165.548 162.654 165.548 162.549C165.548 162.445 165.652 162.445 165.652 162.341C165.652 162.236 165.757 162.132 165.757 162.027C165.757 161.923 165.861 161.923 165.861 161.818C165.965 161.714 165.965 161.609 166.07 161.505C166.07 161.4 166.174 161.4 166.174 161.296C166.279 161.191 166.383 161.087 166.383 160.982L166.488 160.878C166.592 160.669 166.801 160.46 167.01 160.356L167.114 160.251C167.219 160.147 167.428 159.938 167.532 159.833C167.637 159.729 167.637 159.729 167.741 159.624C167.845 159.52 167.95 159.52 168.054 159.415C168.159 159.311 168.263 159.311 168.263 159.207C168.368 159.102 168.472 159.102 168.577 158.998C168.681 158.893 168.785 158.893 168.89 158.789C168.994 158.684 169.099 158.684 169.203 158.58C169.308 158.475 169.412 158.475 169.517 158.371C169.621 158.266 169.725 158.266 169.83 158.162C169.934 158.057 170.143 157.953 170.248 157.848C170.665 157.64 171.083 157.431 171.501 157.222C171.606 157.117 171.71 157.117 171.814 157.013C172.441 156.699 172.754 156.49 173.172 156.282Z" fill="#CC096A"/>
<path d="M170.561 168.295V172.787L162.728 177.279L162.832 172.891L170.561 168.295Z" fill="#CC096A"/>
<path d="M162.832 172.891V177.384C156.983 174.041 154.058 169.653 154.163 165.161V160.669C154.058 165.057 156.983 169.444 162.832 172.891Z" fill="#CC096A"/>
<path d="M204.402 148.655L196.673 153.148C189.466 148.969 177.664 148.969 170.457 153.148C163.25 157.326 163.25 164.116 170.561 168.295L162.832 172.787C151.239 166.101 151.239 155.237 162.728 148.655C174.112 141.97 192.808 141.97 204.402 148.655Z" fill="#FF5668"/>
<path d="M196.673 154.505V157.639C200.328 159.729 202.104 162.549 202.104 165.265V160.773C202.104 158.057 200.224 156.699 196.673 154.505Z" fill="#3278CC"/>
<path d="M204.297 174.354V177.488L196.464 172.996V169.862L204.297 174.354Z" fill="#3278CC"/>
<path d="M213.071 161.4C213.071 161.505 213.071 161.714 213.071 161.818C213.071 161.923 213.071 162.027 213.071 162.236C213.071 162.34 213.071 162.549 212.967 162.654C212.967 162.758 212.863 162.863 212.863 163.072C212.863 163.176 212.758 163.385 212.758 163.49C212.758 163.594 212.654 163.699 212.654 163.907C212.654 164.012 212.549 164.221 212.549 164.325C212.549 164.43 212.445 164.534 212.445 164.743C212.34 164.848 212.34 165.057 212.236 165.161C212.131 165.266 212.131 165.37 212.027 165.579C211.922 165.683 211.922 165.892 211.818 165.997C211.714 166.101 211.714 166.206 211.609 166.31C211.505 166.519 211.4 166.624 211.296 166.833C211.191 166.937 211.191 167.041 211.087 167.146C210.982 167.355 210.774 167.564 210.669 167.668C210.565 167.773 210.565 167.877 210.46 167.877C210.251 168.191 209.938 168.504 209.729 168.817C209.625 168.922 209.625 168.922 209.52 169.026C209.311 169.235 209.102 169.444 208.894 169.653C208.789 169.758 208.685 169.862 208.58 169.966C208.476 170.071 208.267 170.175 208.162 170.384C208.058 170.489 207.849 170.593 207.745 170.698C207.64 170.802 207.431 170.907 207.327 171.011C207.222 171.116 207.014 171.22 206.909 171.325C206.7 171.429 206.596 171.533 206.387 171.638C206.282 171.742 206.073 171.847 205.865 171.951C205.656 172.056 205.551 172.16 205.342 172.265C205.133 172.369 204.925 172.578 204.611 172.683C204.507 172.683 204.507 172.787 204.402 172.787V177.279C204.507 177.279 204.507 177.175 204.611 177.175C204.716 177.07 204.82 177.07 204.925 176.966C205.029 176.861 205.133 176.861 205.238 176.757C205.447 176.652 205.551 176.548 205.76 176.443C205.969 176.339 206.073 176.234 206.178 176.13C206.387 176.026 206.491 175.921 206.7 175.817C206.805 175.712 207.014 175.608 207.118 175.503C207.327 175.399 207.431 175.294 207.536 175.19C207.64 175.085 207.849 174.981 207.954 174.876C208.058 174.772 208.267 174.667 208.371 174.459C208.476 174.459 208.476 174.354 208.58 174.354L208.685 174.25C208.894 174.041 209.102 173.832 209.311 173.623C209.416 173.518 209.416 173.518 209.52 173.414C209.834 173.1 210.042 172.787 210.251 172.474C210.356 172.369 210.356 172.369 210.356 172.265C210.46 172.056 210.669 171.847 210.774 171.742C210.878 171.638 210.878 171.534 210.982 171.429C211.087 171.22 211.191 171.116 211.296 170.907L211.4 170.802C211.4 170.698 211.505 170.698 211.505 170.593C211.609 170.489 211.609 170.28 211.714 170.175C211.818 170.071 211.818 169.967 211.922 169.758C212.027 169.653 212.027 169.444 212.131 169.34C212.131 169.235 212.236 169.235 212.236 169.131C212.236 169.026 212.236 169.026 212.34 168.922C212.34 168.817 212.445 168.608 212.445 168.504C212.445 168.4 212.549 168.295 212.549 168.086C212.549 167.982 212.654 167.773 212.654 167.668C212.654 167.564 212.654 167.564 212.758 167.459C212.758 167.355 212.758 167.355 212.758 167.25C212.758 167.146 212.758 166.937 212.863 166.833C212.863 166.728 212.863 166.624 212.863 166.415C212.863 166.31 212.863 166.101 212.863 165.997C212.863 165.892 212.863 165.788 212.863 165.683C212.863 165.579 212.863 165.474 212.863 165.474V160.982C213.071 160.982 213.071 161.191 213.071 161.4Z" fill="#3278CC"/>
<path d="M204.402 150.013C215.995 156.699 215.995 167.563 204.506 174.145C204.402 174.145 204.402 174.249 204.297 174.249L196.464 169.757C196.568 169.757 196.568 169.653 196.673 169.653C203.88 165.474 203.88 158.684 196.568 154.505L204.402 150.013Z" fill="#58AFFB"/>
<path d="M199.911 179.473C200.224 179.368 200.538 179.264 200.851 179.055C201.06 178.951 201.269 178.846 201.373 178.846C201.687 178.742 202 178.533 202.313 178.428C202.418 178.324 202.627 178.324 202.731 178.219C203.253 178.01 203.671 177.697 204.089 177.488V176.443C203.671 176.652 203.149 176.966 202.731 177.175C202.627 177.279 202.418 177.279 202.313 177.384C202 177.488 201.687 177.697 201.373 177.801C201.164 177.906 200.955 178.01 200.851 178.01C200.538 178.115 200.224 178.219 199.911 178.428C199.702 178.533 199.493 178.533 199.284 178.637C198.971 178.742 198.658 178.846 198.24 178.951C198.031 179.055 197.822 179.055 197.613 179.159C197.404 179.159 197.3 179.264 197.091 179.264C196.778 179.368 196.464 179.473 196.151 179.473C195.942 179.473 195.838 179.577 195.629 179.577C195.315 179.682 195.002 179.786 194.689 179.786C194.584 179.786 194.375 179.891 194.271 179.891C193.853 179.995 193.331 180.1 192.809 180.204V181.249C193.331 181.144 193.749 181.04 194.271 180.935C194.375 180.935 194.584 180.831 194.689 180.831C195.002 180.726 195.315 180.726 195.629 180.622C195.838 180.622 195.942 180.518 196.151 180.518C196.464 180.413 196.778 180.309 197.091 180.309C197.3 180.309 197.404 180.204 197.613 180.204C197.718 180.204 197.822 180.204 197.822 180.1C197.926 180.1 198.031 179.995 198.24 179.995C198.553 179.891 198.866 179.786 199.284 179.682C199.493 179.682 199.702 179.577 199.911 179.473Z" fill="#E2A029"/>
<path d="M204.297 176.443C200.955 178.324 197.09 179.682 193.017 180.413L189.361 174.354C191.972 173.832 194.375 172.996 196.464 171.847L204.297 176.443Z" fill="#FFBE3D"/>
<path d="M191.659 179.786C191.346 179.786 191.033 179.89 190.719 179.89C190.406 179.89 189.988 179.995 189.675 179.995C189.361 179.995 189.048 180.099 188.735 180.099C188.213 180.204 187.586 180.204 187.064 180.204H186.959C186.332 180.204 185.706 180.308 185.079 180.308C184.87 180.308 184.766 180.308 184.557 180.308C184.139 180.308 183.617 180.308 183.199 180.308C182.99 180.308 182.781 180.308 182.677 180.308C182.155 180.308 181.632 180.308 181.215 180.308C181.11 180.308 181.006 180.308 180.901 180.308C180.275 180.308 179.752 180.204 179.126 180.204C179.021 180.204 178.812 180.204 178.708 180.204C178.29 180.204 177.768 180.099 177.35 180.099C177.141 180.099 177.037 180.099 176.828 179.995C176.201 179.89 175.679 179.786 175.052 179.682C174.426 179.577 173.903 179.473 173.381 179.368C173.172 179.368 172.963 179.264 172.754 179.264C172.337 179.159 172.023 179.055 171.606 178.95C171.397 178.846 171.188 178.846 170.979 178.741C170.666 178.637 170.352 178.532 170.039 178.428C169.726 178.323 169.412 178.219 169.099 178.115C168.785 178.01 168.472 177.906 168.159 177.801C167.845 177.697 167.532 177.592 167.323 177.488C166.905 177.279 166.488 177.174 166.07 176.965C166.07 176.965 165.965 176.965 165.965 176.861C165.443 176.652 165.025 176.443 164.503 176.234C164.399 176.13 164.294 176.13 164.19 176.025C163.668 175.816 163.25 175.503 162.832 175.294V177.174C163.25 177.488 163.772 177.697 164.19 177.906C164.294 178.01 164.399 178.01 164.503 178.115C165.025 178.323 165.443 178.532 165.965 178.741H166.07C166.383 178.846 166.697 179.055 167.01 179.159C167.114 179.159 167.219 179.264 167.323 179.264C167.637 179.368 167.95 179.473 168.159 179.577C168.472 179.682 168.785 179.786 169.099 179.89C169.412 179.995 169.726 180.099 170.039 180.204C170.248 180.308 170.352 180.308 170.561 180.413C170.666 180.413 170.874 180.517 170.979 180.517C171.188 180.622 171.397 180.622 171.606 180.726C172.023 180.831 172.337 180.935 172.754 181.04C172.963 181.04 173.172 181.144 173.381 181.144C173.486 181.144 173.59 181.144 173.694 181.249C174.217 181.353 174.634 181.457 175.157 181.562C175.679 181.666 176.097 181.771 176.619 181.771C176.723 181.771 176.828 181.771 176.932 181.771C177.141 181.771 177.246 181.771 177.455 181.875C177.872 181.98 178.395 181.98 178.812 181.98C178.917 181.98 179.126 181.98 179.23 181.98C179.335 181.98 179.439 181.98 179.439 181.98C179.961 181.98 180.483 182.084 181.006 182.084C181.11 182.084 181.215 182.084 181.319 182.084C181.632 182.084 182.05 182.084 182.364 182.084C182.468 182.084 182.677 182.084 182.781 182.084C182.99 182.084 183.199 182.084 183.304 182.084C183.721 182.084 184.244 182.084 184.661 182.084C184.87 182.084 184.975 182.084 185.184 182.084C185.288 182.084 185.288 182.084 185.392 182.084C185.915 182.084 186.541 182.084 187.064 181.98H187.168C187.69 181.98 188.108 181.875 188.63 181.875C188.735 181.875 188.735 181.875 188.839 181.875C189.153 181.875 189.466 181.771 189.779 181.771C190.093 181.771 190.51 181.666 190.824 181.666C191.137 181.666 191.45 181.562 191.764 181.562C191.973 181.562 192.286 181.457 192.495 181.457C192.704 181.457 192.808 181.353 193.017 181.353V179.473C192.599 179.682 192.077 179.786 191.659 179.786Z" fill="#7974F5"/>
<path d="M189.361 173.518L193.017 179.577C182.781 181.562 170.979 180.204 162.832 175.399L170.561 170.907C175.679 173.936 182.99 174.772 189.361 173.518Z" fill="#B391FF"/>
<path d="M206.073 1.04466C205.968 1.04466 205.864 0.940195 205.864 0.940195C205.759 0.835729 205.655 0.835729 205.55 0.731263C205.446 0.731263 205.342 0.626797 205.237 0.626797C205.133 0.626797 205.028 0.522331 204.924 0.522331C204.819 0.522331 204.715 0.417864 204.61 0.417864C204.61 0.417864 204.61 0.417864 204.506 0.417864C204.402 0.417864 204.402 0.417864 204.297 0.313398C204.193 0.313398 204.088 0.208932 203.984 0.208932C203.879 0.208932 203.775 0.208932 203.67 0.104466C203.566 0.104466 203.462 0.104466 203.357 0C203.253 0 203.253 0 203.148 0H203.044C202.939 0 202.835 0 202.73 0C202.626 0 202.521 0 202.313 0C202.208 0 201.999 0 201.895 0.104466C201.686 0.104466 201.581 0.208932 201.373 0.208932C201.164 0.313398 200.955 0.417864 200.746 0.522331L195.837 3.34292C196.15 3.13398 196.568 3.02952 196.881 2.92505C197.299 2.82059 197.717 2.82059 198.135 2.82059C198.553 2.82059 199.075 2.92505 199.493 3.13398C200.015 3.34292 200.433 3.55185 200.955 3.86525L337.571 82.7372L342.48 79.9166L206.073 1.04466Z" fill="url(#paint2_linear)"/>
<path d="M350.001 92.3481C350.001 92.2436 350.001 92.1391 350.001 92.0346C350.001 91.9302 350.001 91.8257 350.001 91.7213C350.001 91.6168 350.001 91.5123 350.001 91.4079C350.001 91.3034 350.001 91.1989 349.896 90.99C349.896 90.8855 349.896 90.7811 349.792 90.6766C349.792 90.5721 349.792 90.4677 349.687 90.2587C349.687 90.1543 349.583 90.0498 349.583 89.8409C349.583 89.7364 349.478 89.5275 349.478 89.423C349.478 89.3185 349.374 89.2141 349.374 89.1096C349.374 89.1096 349.374 89.1096 349.374 89.0051C349.374 88.9007 349.269 88.7962 349.269 88.5873C349.269 88.4828 349.165 88.3783 349.165 88.1694C349.165 88.0649 349.061 87.9605 349.061 87.856C349.061 87.7515 348.956 87.6471 348.956 87.5426C348.956 87.4381 348.852 87.3337 348.852 87.2292C348.852 87.2292 348.852 87.2292 348.852 87.1247C348.747 87.0203 348.747 86.9158 348.643 86.8113C348.538 86.7069 348.538 86.6024 348.434 86.3935C348.329 86.289 348.329 86.0801 348.225 85.9756C348.12 85.7667 348.016 85.6622 347.912 85.5578V85.4533C347.912 85.4533 347.912 85.3488 347.807 85.3488C347.598 85.0354 347.494 84.722 347.285 84.5131C347.18 84.3042 346.972 84.0952 346.867 83.8863C346.763 83.7818 346.658 83.5729 346.554 83.4684C346.449 83.364 346.345 83.2595 346.24 83.155C346.136 83.0506 346.032 82.9461 345.927 82.8416C345.823 82.7372 345.718 82.6327 345.614 82.5282C345.614 82.5282 345.614 82.5282 345.509 82.4238C345.405 82.3193 345.405 82.3193 345.3 82.2148C345.196 82.1104 345.092 82.0059 344.987 81.9014C344.883 81.797 344.778 81.6925 344.674 81.588C344.569 81.4836 344.465 81.3791 344.36 81.2746C344.256 81.2746 344.256 81.1702 344.152 81.1702L344.047 81.0657C343.943 80.9612 343.838 80.8568 343.734 80.8568C343.629 80.7523 343.525 80.7523 343.42 80.6478C343.316 80.5434 343.211 80.5434 343.107 80.4389C343.003 80.3344 342.898 80.3344 342.794 80.23C342.794 80.23 342.794 80.23 342.689 80.23L337.78 83.0506C338.303 83.364 338.825 83.6774 339.243 84.0952C339.66 84.5131 340.183 84.931 340.6 85.3488C341.436 86.289 342.271 87.3337 342.898 88.4828V88.5873C343.211 89.1096 343.525 89.7364 343.734 90.2587C343.943 90.8855 344.256 91.5123 344.36 92.0346C344.569 92.6614 344.674 93.2882 344.778 93.8106C344.883 94.4374 344.883 95.0642 344.883 95.5865L344.569 188.979C344.569 189.502 344.465 190.128 344.465 190.546C344.36 191.069 344.256 191.486 344.047 191.8C343.943 192.113 343.734 192.427 343.525 192.636C343.42 192.74 343.42 192.844 343.316 192.844C343.107 193.053 342.794 193.367 342.48 193.471L347.389 190.651C347.703 190.442 347.912 190.233 348.225 190.024C348.329 189.919 348.329 189.815 348.434 189.815C348.538 189.71 348.643 189.606 348.747 189.502C348.852 189.293 348.956 189.188 349.061 188.979C349.165 188.875 349.165 188.77 349.269 188.561C349.269 188.457 349.374 188.352 349.374 188.144C349.374 188.039 349.478 187.935 349.478 187.726C349.478 187.621 349.478 187.621 349.478 187.517V187.412C349.478 187.308 349.478 187.203 349.583 187.099C349.583 186.994 349.583 186.89 349.583 186.785C349.583 186.681 349.583 186.577 349.583 186.472C349.583 186.368 349.583 186.263 349.583 186.159L349.896 92.7659C350.001 92.557 350.001 92.4525 350.001 92.3481Z" fill="url(#paint3_linear)"/>
<path d="M337.78 82.737C341.853 85.1397 345.196 90.7809 345.091 95.4819L344.778 188.875C344.778 193.576 341.436 195.456 337.362 193.053L200.746 114.181C196.673 111.779 193.331 106.137 193.435 101.436L193.748 8.04372C193.748 3.34275 197.091 1.46236 201.164 3.86508L337.78 82.737Z" fill="#343996"/>
<path d="M298.195 44.5023C299.448 45.2336 300.493 47.0095 300.493 48.4721L300.388 77.827C300.388 79.2896 299.344 79.9164 298.091 79.1851L255.163 54.3222C253.91 53.5909 252.865 51.815 252.865 50.3524L252.97 20.9975C252.97 19.5349 254.014 18.9081 255.267 19.6394L298.195 44.5023Z" fill="#2689FD"/>
<path d="M216.936 31.4445V32.8026C216.936 33.6383 216.1 34.0562 215.369 33.6383L209.102 29.982C208.789 29.7731 208.58 29.4597 208.58 29.1463V27.7882C208.58 26.9525 209.416 26.5346 210.147 26.9525L216.414 30.6088C216.727 30.7133 216.936 31.0267 216.936 31.4445Z" fill="white"/>
<path d="M236.781 49.5169V50.8749C236.781 51.7107 235.945 52.1285 235.214 51.7107L208.998 36.5631C208.684 36.3541 208.476 36.0407 208.476 35.7273V34.3693C208.476 33.5336 209.311 33.1157 210.042 33.5336L236.258 48.6811C236.572 48.7856 236.781 49.2035 236.781 49.5169Z" fill="#1AE5FF"/>
<path d="M204.819 93.1837L215.264 87.856L222.053 98.8249L229.678 106.555L237.302 101.959L253.491 96.7356L260.907 107.287L268.218 113.241L274.903 123.166L283.99 104.153L294.957 109.376L300.701 104.675L312.608 107.809L330.364 106.242" stroke="#16C5DC" stroke-miterlimit="10"/>
<path d="M266.443 33.116C262.474 30.8178 258.714 31.4446 257.147 34.9964C255.163 39.4885 257.461 47.1145 262.056 52.3378L263.101 49.8306C259.967 46.1743 258.505 40.951 259.863 37.817C260.907 35.3098 263.623 34.892 266.339 36.459C267.07 36.8768 267.696 37.3992 268.428 38.026L269.472 35.5188C268.532 34.5786 267.488 33.7428 266.443 33.116Z" fill="#F1F1F1"/>
<path d="M269.577 35.5186L268.532 38.0257C268.741 38.2347 268.846 38.3391 269.055 38.5481C272.606 42.2044 274.381 47.95 273.024 51.2929C272.919 51.3974 272.919 51.5019 272.815 51.6063C272.815 51.6063 272.815 51.7108 272.71 51.7108C271.666 53.4867 269.681 54.0091 267.488 53.0689C267.175 52.9644 266.757 52.7555 266.443 52.5465C266.339 52.4421 266.235 52.4421 266.13 52.3376C265.921 52.2331 265.817 52.1287 265.712 52.0242H265.608C265.295 51.8153 265.086 51.6063 264.772 51.3974L264.668 51.2929C264.563 51.1885 264.459 51.084 264.355 50.9795L264.25 50.8751C264.146 50.7706 263.937 50.5617 263.832 50.4572C263.623 50.2483 263.414 50.0393 263.206 49.7259L262.161 52.2331C262.37 52.4421 262.579 52.651 262.788 52.9644C262.997 53.1733 263.206 53.3823 263.414 53.4867C263.519 53.5912 263.519 53.5912 263.623 53.5912C263.728 53.6957 263.937 53.9046 264.041 54.0091L264.146 54.1135C264.563 54.4269 264.981 54.7403 265.399 55.0537C265.399 55.0537 265.503 55.0537 265.503 55.1582C265.712 55.2626 265.921 55.3671 266.026 55.4716H266.13C266.235 55.576 266.339 55.576 266.548 55.6805C266.861 55.8894 267.175 55.9939 267.383 56.0984C267.592 56.2028 267.801 56.3073 268.01 56.4118C271.352 57.7698 274.381 56.9341 275.739 53.8001C277.724 49.0991 275.321 41.0553 270.204 35.832C269.89 35.832 269.786 35.7275 269.577 35.5186Z" fill="#FDB913"/>
<path d="M285.035 49.4125V50.1438C285.035 50.5617 284.513 50.8751 284.199 50.6661L280.544 48.5768C280.335 48.4723 280.23 48.2634 280.23 48.0545V47.3232C280.23 46.9053 280.753 46.5919 281.066 46.8009L284.722 48.8902C284.931 48.9947 285.035 49.2036 285.035 49.4125Z" fill="white"/>
<path d="M296.524 59.8591V60.5904C296.524 61.0082 296.002 61.3216 295.689 61.1127L280.544 52.3375C280.335 52.2331 280.23 52.0241 280.23 51.8152V51.084C280.23 50.6661 280.753 50.3527 281.066 50.5616L296.211 59.3368C296.42 59.4412 296.524 59.6502 296.524 59.8591Z" fill="white"/>
<g opacity="0.53">
<path opacity="0.53" d="M290.257 63.9333V64.6645C290.257 65.0824 289.735 65.3958 289.422 65.1869L280.544 60.068C280.335 59.9635 280.23 59.7546 280.23 59.5457V58.8144C280.23 58.3966 280.753 58.0832 281.066 58.2921L289.944 63.4109C290.153 63.5154 290.257 63.7243 290.257 63.9333Z" fill="white"/>
</g>
<path d="M294.122 62.3663V63.0975C294.122 63.5154 293.6 63.8288 293.286 63.6199L280.544 56.2028C280.335 56.0983 280.23 55.8894 280.23 55.6804V54.9492C280.23 54.5313 280.753 54.2179 281.066 54.4269L293.808 61.8439C294.017 61.9484 294.122 62.1573 294.122 62.3663Z" fill="#58AFFB"/>
<path d="M330.365 96.5269C325.978 94.0197 322.322 96.0046 322.322 101.123C322.322 106.138 325.873 112.406 330.26 114.913C334.647 117.42 338.198 115.435 338.303 110.316C338.303 105.198 334.751 99.0341 330.365 96.5269Z" fill="#FF4272"/>
<path d="M330.365 101.541C328.38 100.392 326.709 101.332 326.709 103.631C326.709 105.929 328.276 108.749 330.26 109.898C332.245 111.048 333.916 110.107 333.916 107.809C333.916 105.511 332.349 102.69 330.365 101.541Z" fill="#212973"/>
<path d="M217.457 48.6811V50.0391C217.457 50.8748 216.622 51.3972 215.89 50.9793L209.415 47.2185C209.101 47.0096 208.893 46.6962 208.893 46.2783V44.9203C208.893 44.0845 209.728 43.5622 210.459 43.9801L216.935 47.7409C217.248 47.9498 217.457 48.3677 217.457 48.6811Z" fill="#1CE5FF"/>
<path d="M238.034 67.2763V68.6343C238.034 69.4701 237.199 69.9924 236.467 69.5745L209.416 54.1135C209.102 53.9046 208.894 53.5912 208.894 53.1734V51.8153C208.894 50.9796 209.729 50.4572 210.46 50.8751L237.512 66.3361C237.825 66.545 238.034 66.9629 238.034 67.2763Z" fill="#1CE5FF"/>
<g opacity="0.53">
<path opacity="0.53" d="M226.858 74.5889V75.947C226.858 76.7827 226.023 77.305 225.292 76.8872L209.416 67.7986C209.102 67.5897 208.894 67.2763 208.894 66.8584V65.5004C208.894 64.6646 209.729 64.1423 210.46 64.5602L226.336 73.6487C226.649 73.8576 226.858 74.171 226.858 74.5889Z" fill="#1CE5FF"/>
</g>
<path d="M233.752 71.7681V73.1261C233.752 73.9619 232.916 74.4842 232.185 74.0663L209.311 61.0081C208.998 60.7991 208.789 60.4857 208.789 60.0679V58.7098C208.789 57.8741 209.625 57.3518 210.356 57.7696L233.23 70.8279C233.647 71.0368 233.752 71.3502 233.752 71.7681Z" fill="#1CE5FF"/>
<path d="M310.729 165.057L314.489 162.967L314.384 188.039L310.729 190.128V165.057Z" fill="#00A935"/>
<path d="M318.248 164.43C318.248 164.43 318.248 164.325 318.248 164.43C318.248 164.325 318.248 164.325 318.248 164.43C318.248 164.325 318.248 164.325 318.248 164.325L306.759 141.447C306.759 141.447 306.759 141.447 306.759 141.343C306.759 141.343 306.759 141.238 306.655 141.238C306.655 141.238 306.655 141.238 306.55 141.238L302.895 143.432C302.999 143.432 302.999 143.432 303.103 143.432C303.208 143.432 303.312 143.432 303.312 143.537C303.417 143.641 303.521 143.641 303.626 143.745C303.73 143.85 303.835 143.954 303.835 144.059L315.324 166.937C315.428 167.041 315.428 167.146 315.428 167.25C315.428 167.355 315.428 167.459 315.428 167.564C315.428 167.668 315.428 167.668 315.324 167.773C315.324 167.877 315.219 167.877 315.219 167.877L318.875 165.683L318.979 165.579C318.248 164.534 318.248 164.534 318.248 164.43C318.248 164.534 318.248 164.534 318.248 164.43C318.248 164.534 318.248 164.534 318.248 164.43Z" fill="#61E041"/>
<path d="M302.477 142.596C302.686 142.701 302.895 142.91 302.999 143.119L314.488 165.997C314.802 166.728 314.488 167.25 313.966 166.937L310.728 165.057L310.624 190.129L293.808 180.413L293.912 155.341L290.779 153.565C290.257 153.252 289.944 152.312 290.257 152.103L301.85 142.596C302.059 142.492 302.268 142.492 302.477 142.596Z" fill="#00CC41"/>
<path d="M183.408 195.978L216.622 229.825L248.896 221.468L215.682 187.621L183.408 195.978Z" fill="white"/>
<path d="M219.025 198.068L215.891 199.217C213.489 197.336 209.415 196.709 206.595 197.754C206.491 197.754 206.491 197.754 206.387 197.859L203.775 195.665C203.88 195.665 203.88 195.665 203.984 195.56C208.475 193.889 215.264 195.038 219.025 198.068Z" fill="#E2EDFF"/>
<path d="M219.442 198.381C222.575 201.097 222.366 204.336 219.233 206.321L216.517 204.127C217.98 202.978 217.875 201.202 216.309 199.635L219.442 198.381Z" fill="#E2EDFF"/>
<path d="M218.815 206.529C218.502 206.738 218.189 206.843 217.771 206.947C213.28 208.619 206.699 207.574 202.835 204.649L205.968 203.396C208.371 205.171 212.34 205.798 215.16 204.754C215.577 204.649 215.891 204.44 216.204 204.231L218.815 206.529Z" fill="#3EABFF"/>
<path d="M205.969 198.068C203.775 199.217 203.567 201.411 205.551 203.187L202.418 204.336C198.866 201.411 199.389 197.65 203.358 195.874L205.969 198.068Z" fill="#3EABFF"/>
<path d="M215.787 363.542C215.787 363.542 213.175 365.318 215.578 369.601C217.98 373.78 220.173 371.272 225.709 375.451C231.245 379.63 233.229 380.465 236.154 380.152C239.078 379.839 240.854 378.376 241.376 376.705C241.898 375.033 240.436 372.317 240.436 372.317L215.787 363.542Z" fill="#94A3C0"/>
<path d="M239.182 363.646C239.182 363.646 240.331 369.183 240.958 373.362C241.167 375.347 238.556 377.958 234.796 377.854C231.036 377.645 228.947 376.6 227.693 374.929C226.44 373.257 218.293 370.123 216.831 368.87C215.369 367.616 215.055 363.646 215.682 362.706C216.309 361.766 218.815 360.094 221.322 361.244C223.933 362.393 226.022 364.482 231.245 364.795C236.467 365.109 239.182 363.646 239.182 363.646Z" fill="#382747"/>
<path d="M241.584 349.439C241.584 349.439 238.973 351.215 241.375 355.498C243.778 359.677 245.971 357.169 251.507 361.348C257.042 365.527 259.027 366.363 261.951 366.049C264.876 365.736 266.651 364.273 267.174 362.602C267.696 360.93 266.234 358.214 266.234 358.214L241.584 349.439Z" fill="#94A3C0"/>
<path d="M264.98 349.648C264.98 349.648 266.129 355.185 266.756 359.364C266.965 361.348 264.354 363.96 260.594 363.856C256.833 363.647 254.745 362.602 253.491 360.931C252.238 359.259 244.091 356.125 242.629 354.872C241.166 353.618 240.853 349.648 241.48 348.708C242.107 347.768 244.613 346.096 247.12 347.246C249.731 348.395 251.82 350.484 257.042 350.797C262.265 351.111 264.98 349.648 264.98 349.648Z" fill="#382747"/>
<path d="M244.718 304.623C245.971 315.07 251.193 342.335 252.133 351.842C252.133 351.842 254.327 355.289 260.802 354.454L263.936 353.2C265.189 352.678 265.92 351.424 265.711 350.066C265.085 344.843 263.622 331.575 264.249 323.741C265.085 313.816 262.473 307.653 262.473 307.653C262.682 304.414 263.1 293.132 256.624 290.102C256.729 290.102 240.749 287.177 244.718 304.623Z" fill="#14347C"/>
<path d="M257.982 294.803L256.207 298.251C256.207 298.251 229.573 299.504 222.366 307.339C222.366 307.339 217.562 308.175 218.919 318.621C220.173 329.068 225.395 356.334 226.335 365.84C226.335 365.84 228.529 369.288 235.004 368.452L238.138 367.198C239.391 366.676 240.122 365.422 239.913 364.064C239.287 358.841 237.824 345.574 238.451 337.739C239.287 327.814 236.675 321.651 236.675 321.651C236.675 321.651 248.373 323.845 260.907 329.068C273.441 334.291 284.303 328.232 289.108 325.621C293.912 323.009 295.583 321.233 295.583 321.233C295.583 321.233 301.641 321.233 307.281 316.428C312.921 311.622 313.757 299.086 307.699 291.669C301.746 284.461 257.982 294.803 257.982 294.803Z" fill="#18388F"/>
<path d="M267.487 228.99C267.487 228.99 271.77 227.423 271.561 221.677C270.203 216.036 268.636 215.618 268.636 215.618C268.636 215.618 274.694 210.081 281.901 211.753C281.901 211.753 286.392 220.841 291.51 224.811C291.51 224.707 287.437 235.467 267.487 228.99Z" fill="#CE7C56"/>
<path d="M276.992 232.228C276.992 232.228 292.972 218.857 296.21 218.543C300.075 218.23 304.984 219.483 306.342 225.02C307.595 230.557 304.67 234.735 301.746 236.407C298.821 238.078 273.128 250.405 268.532 250.405C263.936 250.405 261.012 246.54 263.936 241.63C266.861 236.72 276.992 232.228 276.992 232.228Z" fill="#E2A029"/>
<path d="M281.797 223.348C281.797 223.348 264.876 228.99 260.072 236.824C255.267 244.659 256.207 253.33 259.654 265.448C263.101 277.566 256.207 288.431 257.878 294.908C259.654 301.385 271.77 307.444 289.526 304.414C307.282 301.385 308.639 294.49 309.893 290.52C311.146 286.655 306.446 267.955 310.728 252.808C315.115 237.66 306.342 227.214 302.895 224.602C299.657 221.99 292.659 218.543 281.797 223.348Z" fill="#FFBE3D"/>
<path d="M303.104 224.602C299.657 221.99 292.659 218.543 281.901 223.348C281.901 223.348 264.981 228.99 260.177 236.824C259.028 238.705 258.192 240.69 257.67 242.675C264.563 233.795 274.277 229.825 280.544 245.077C286.497 259.285 271.457 300.862 258.297 287.804C257.774 290.52 257.461 292.923 257.983 294.908C259.759 301.385 271.875 307.444 289.63 304.414C307.386 301.385 308.744 294.49 309.998 290.52C311.251 286.655 306.551 267.955 310.833 252.808C315.22 237.66 306.551 227.214 303.104 224.602Z" fill="#E2A029"/>
<path d="M265.712 230.661C265.712 230.661 270.308 233.586 281.692 231.915C293.077 230.243 293.704 222.199 292.764 221.468C291.823 220.841 289.839 218.229 289.839 218.229C289.839 218.229 277.828 223.766 273.545 225.333C269.368 227.005 267.07 227.945 267.07 227.945L265.712 230.661Z" fill="white"/>
<path d="M258.192 195.247C258.192 195.247 257.252 206.948 263.414 214.783C269.577 222.617 275.739 218.021 279.708 216.036C283.572 214.051 285.244 210.813 286.497 201.411C287.75 192.009 287.75 182.92 280.961 179.995C274.172 177.07 266.652 176.443 262.474 183.547C258.192 190.651 258.192 195.247 258.192 195.247Z" fill="#FFAA83"/>
<path d="M262.787 181.249C262.787 181.249 257.252 185.427 257.565 191.695C257.878 197.859 255.894 198.799 256.625 202.142C257.252 205.38 262.474 206.32 262.787 210.917C263.101 215.513 269.89 217.08 273.545 218.438C277.096 219.692 282.945 215.513 284.617 213.215C286.288 210.917 285.87 205.067 287.854 199.844C289.839 194.62 288.794 188.143 287.228 183.547C285.557 178.95 282.319 178.01 282.319 178.01C282.319 178.01 280.648 174.458 276.783 173.831C272.814 173.1 260.803 173.727 262.787 181.249Z" fill="#4D2C63"/>
<path d="M314.906 373.571C314.28 380.152 308.117 384.54 302.582 386.943C296.524 389.554 289.839 390.599 283.259 390.494C276.575 390.39 269.681 389.136 263.623 386.107C258.296 383.495 252.761 378.794 252.761 372.317C252.761 377.018 253.074 380.884 256.416 384.54C260.803 389.241 267.279 391.748 273.441 393.002C285.452 395.509 301.746 394.255 310.833 385.062C314.489 381.301 315.011 377.436 315.011 372.526C314.906 372.944 314.906 373.258 314.906 373.571Z" fill="#ADCDFC"/>
<path d="M305.715 359.782C317.935 366.781 317.935 378.272 305.924 385.271C293.808 392.271 274.067 392.271 261.847 385.271C249.627 378.272 249.627 366.781 261.743 359.782C273.859 352.782 293.599 352.782 305.715 359.782Z" fill="#E2EDFF"/>
<path d="M289.422 345.574L289.317 372.735L284.513 375.556L284.617 348.29L289.422 345.574Z" fill="#C7D8F2"/>
<path d="M284.617 348.29L284.513 375.556L279.708 372.735L279.812 345.574L284.617 348.29Z" fill="#7BAEFF"/>
<path d="M289.422 345.574L284.617 348.29L279.812 345.574L284.617 342.753L289.422 345.574Z" fill="#4DA5DC"/>
<path d="M344.881 252.704C344.777 248.943 341.017 246.331 337.466 247.585C321.903 253.017 286.287 265.971 283.989 270.567C281.796 274.955 274.798 299.295 271.247 311.518C270.202 315.07 266.129 316.637 262.995 314.756L241.479 302.012C237.406 299.609 232.288 303.056 233.124 307.757L236.57 328.546C236.884 330.217 237.824 331.68 239.286 332.516L262.369 345.783C275.216 353.2 290.987 353.618 304.252 347.036L322.008 338.157C337.57 330.426 347.075 314.234 346.448 296.893L344.881 252.704Z" fill="#3278CC"/>
<path d="M283.886 270.568C281.692 274.955 274.694 299.296 271.143 311.518C270.099 315.07 266.025 316.637 262.892 314.757L241.376 302.012C237.303 299.609 232.185 303.057 233.02 307.758L236.467 328.546C236.571 329.069 236.676 329.486 236.885 329.904C237.198 330.322 237.407 330.74 237.72 331.158C238.138 331.68 238.66 332.098 239.183 332.412L262.265 345.679C267.174 348.499 272.397 350.275 277.828 351.111C296.524 336.59 294.121 276 287.437 270.985C286.392 270.254 285.557 269.732 284.721 269.523C284.408 269.941 284.095 270.254 283.886 270.568Z" fill="#3AAEEF"/>
<path d="M242.316 252.181C242.316 252.181 258.297 238.81 261.535 238.496C265.399 238.183 270.308 239.436 271.666 244.973C272.919 250.51 269.995 254.688 267.07 256.36C264.146 258.031 238.452 270.358 233.856 270.358C229.261 270.358 226.336 266.493 229.261 261.583C232.185 256.673 242.316 252.181 242.316 252.181Z" fill="#FFBE3D"/>
<path d="M219.86 230.975C219.86 230.975 219.025 229.303 218.92 228.259C218.711 227.11 219.443 225.647 218.711 223.035C218.085 220.424 216.936 218.125 216.414 216.35C215.16 214.678 214.011 217.603 214.951 220.11C215.891 222.618 215.578 223.976 214.638 224.185C213.698 224.393 209.625 221.886 208.476 220.633C207.327 219.379 200.851 213.007 200.224 213.842C199.598 214.678 199.598 215.514 201.896 217.917C204.193 220.319 205.029 221.468 205.133 222.095C205.342 222.722 205.133 223.349 205.969 225.334C206.805 227.318 206.178 228.572 207.64 230.348C209.102 232.124 211.818 232.437 213.176 233.586C214.429 234.736 214.429 234.736 214.429 234.736L219.86 230.975Z" fill="#FFAA83"/>
<path d="M233.856 270.358C233.856 270.358 227.067 271.612 223.307 264.09C219.651 256.464 213.384 236.093 212.444 234.213C212.444 234.213 214.638 229.408 220.069 229.616C220.069 229.616 226.127 241.526 229.574 246.958C233.02 252.39 245.449 268.164 233.856 270.358Z" fill="#FFBE3D"/>
<path d="M133.379 141.029C133.379 141.029 135.468 139.671 136.721 140.089C137.974 140.507 142.257 141.134 143.614 141.238C144.972 141.343 147.688 138.94 148.106 138.522C148.628 138.104 148.837 137.269 149.463 136.642C150.09 136.015 150.299 136.12 150.299 135.075C150.299 134.03 151.343 133.09 151.866 132.568C152.388 132.045 154.268 130.896 154.059 130.061C153.85 129.225 152.91 129.643 152.283 129.852C151.657 130.061 149.463 132.045 148.523 132.672C147.583 133.299 145.286 134.135 144.137 134.135C142.988 134.135 141.943 133.821 141.943 133.821C141.943 133.821 141.63 133.821 142.779 133.403C143.928 132.986 144.659 133.299 145.599 133.09C146.539 132.881 147.061 132.359 146.957 131.836C146.852 131.314 145.599 131.314 145.077 131.314C144.554 131.314 141.734 131.419 140.585 131.21C139.437 131.001 137.452 132.986 137.139 133.299C136.721 133.717 134.736 134.239 133.692 134.344C132.648 134.761 133.379 141.029 133.379 141.029Z" fill="#FF9F75"/>
<path d="M91.9134 140.089C91.9134 140.089 93.8979 146.775 102.358 146.462C110.818 146.253 131.707 142.283 133.901 142.178C133.901 142.178 137.139 138 134.423 133.299C134.423 133.299 121.054 133.403 114.683 132.881C108.207 132.359 88.4667 128.807 91.9134 140.089Z" fill="#E1E8F2"/>
<path d="M47.2101 153.356C47.2101 153.356 43.6589 132.881 41.4655 130.478C38.7499 127.658 34.1543 125.568 29.5586 128.911C24.963 132.254 24.4407 137.373 25.6941 140.507C26.843 143.641 38.4366 169.653 41.9877 172.683C45.5389 175.712 50.239 174.563 51.179 168.922C52.0146 163.385 47.2101 153.356 47.2101 153.356Z" fill="#E1E8F2"/>
<path d="M82.8259 164.325C82.8259 164.325 85.5415 164.534 86.586 164.534C87.526 164.534 95.0462 163.907 96.2995 163.907C97.5529 163.907 97.5529 165.37 97.5529 165.37C97.5529 165.37 98.8062 167.459 98.8062 168.295C98.8062 169.131 98.8062 170.28 99.1196 171.011C99.4329 171.847 98.9107 172.473 98.5974 173.1C98.284 173.727 97.4484 174.04 96.6129 174.563C95.7773 175.085 94.8373 175.085 94.2106 174.772C93.5839 174.458 93.5839 174.249 94.4195 173.832C95.2551 173.309 95.8817 172.682 95.8817 172.682C95.8817 172.682 94.9417 173.623 93.4795 173.832C92.0172 174.04 89.7194 174.04 88.466 173.309C87.2127 172.682 84.9149 171.533 84.9149 171.533L82.3037 171.22L82.8259 164.325Z" fill="#FF9F75"/>
<path d="M41.3607 169.966C41.3607 169.966 43.3452 176.652 51.8053 176.339C60.2655 176.13 81.1548 172.16 83.3482 172.056C83.3482 172.056 86.586 167.877 83.8704 163.176C83.8704 163.176 70.5012 163.281 64.13 162.758C57.6543 162.34 37.9139 158.684 41.3607 169.966Z" fill="#E1E8F2"/>
<defs>
<linearGradient id="paint0_linear" x1="182.055" y1="212.131" x2="188.917" y2="264.926" gradientUnits="userSpaceOnUse">
<stop stop-color="#C6E6FF"/>
<stop offset="1" stop-color="#8D9FFF"/>
</linearGradient>
<linearGradient id="paint1_linear" x1="177.769" y1="304.81" x2="197.345" y2="260.968" gradientUnits="userSpaceOnUse">
<stop stop-color="#1AE5FF"/>
<stop offset="1" stop-color="#EAEEEE"/>
</linearGradient>
<linearGradient id="paint2_linear" x1="290.551" y1="199.757" x2="259.952" y2="-27.6036" gradientUnits="userSpaceOnUse">
<stop stop-color="#1AE5FF"/>
<stop offset="0.2589" stop-color="#64E8F9"/>
<stop offset="0.7043" stop-color="#EAEEEE"/>
</linearGradient>
<linearGradient id="paint3_linear" x1="350.009" y1="136.741" x2="337.765" y2="136.741" gradientUnits="userSpaceOnUse">
<stop stop-color="#5155D4"/>
<stop offset="1" stop-color="#45F7FF"/>
</linearGradient>
</defs>
</svg>
