<svg width="526" height="639" viewBox="0 0 526 639" fill="none" xmlns="http://www.w3.org/2000/svg">
<path d="M44.7525 363.403C46.3842 354.429 54.2164 347.412 63.6803 347.412C74.2865 347.412 82.9347 356.06 82.9347 366.666C82.9347 376.13 76.0814 383.963 66.9438 385.594V414.476C66.9438 415.781 67.4334 427.203 79.6712 427.203H164.031V353.776C155.056 352.144 148.04 344.312 148.04 334.848C148.04 324.242 156.688 315.594 167.294 315.594C177.9 315.594 186.549 324.242 186.549 334.848C186.549 344.312 179.695 352.144 170.558 353.776V427.203H223.099C229.789 427.203 242.353 431.282 242.353 446.457V491.003H270.908C283.146 491.003 283.636 479.581 283.636 478.276V409.417C274.661 407.786 267.645 399.953 267.645 390.49C267.645 379.883 276.293 371.235 286.899 371.235C297.505 371.235 306.153 379.883 306.153 390.49C306.153 399.953 299.3 407.786 290.162 409.417V478.276C290.162 484.966 286.083 497.53 270.908 497.53H242.353V639H235.826V446.457C235.826 434.219 224.404 433.73 223.099 433.73H79.6712C64.4963 433.73 60.4169 421.166 60.4169 414.476V385.594C52.4215 384.289 46.221 377.925 44.7525 369.93H-0.11969V363.403H44.7525ZM286.899 403.217C293.915 403.217 299.626 397.506 299.626 390.49C299.626 383.473 293.915 377.762 286.899 377.762C279.883 377.762 274.172 383.473 274.172 390.49C274.172 397.506 279.883 403.217 286.899 403.217ZM180.022 334.848C180.022 327.832 174.311 322.121 167.294 322.121C160.278 322.121 154.567 327.832 154.567 334.848C154.567 341.864 160.278 347.575 167.294 347.575C174.311 347.412 180.022 341.701 180.022 334.848ZM63.6803 379.394C70.6967 379.394 76.4078 373.683 76.4078 366.666C76.4078 359.65 70.6967 353.939 63.6803 353.939C56.664 353.939 50.953 359.65 50.953 366.666C50.953 373.683 56.664 379.394 63.6803 379.394Z" fill="white" fill-opacity="0.15"/>
<path d="M180.185 467.017C181.817 458.043 189.649 451.026 199.113 451.026C209.719 451.026 218.367 459.674 218.367 470.281C218.367 480.887 209.719 489.535 199.113 489.535C189.649 489.535 181.817 482.682 180.185 473.544H-0.119476V467.017H180.185ZM199.113 483.008C206.129 483.008 211.84 477.297 211.84 470.281C211.84 463.264 206.129 457.553 199.113 457.553C192.097 457.553 186.386 463.264 186.386 470.281C186.549 477.297 192.097 483.008 199.113 483.008Z" fill="white" fill-opacity="0.15"/>
<path d="M167.295 506.831C176.759 506.831 184.592 513.684 186.223 522.821H199.277C205.967 522.821 218.531 526.901 218.531 542.076V638.836H212.004V542.076C212.004 529.838 200.582 529.348 199.277 529.348H186.223C184.592 538.323 176.759 545.339 167.295 545.339C156.689 545.339 148.041 536.691 148.041 526.085C148.041 515.479 156.689 506.831 167.295 506.831ZM167.295 538.812C174.312 538.812 180.023 533.101 180.023 526.085C180.023 519.068 174.312 513.357 167.295 513.357C160.279 513.357 154.568 519.068 154.568 526.085C154.568 533.101 160.279 538.812 167.295 538.812Z" fill="white" fill-opacity="0.15"/>
<path d="M52.4216 534.081V638.837H58.9485V534.081C58.9485 513.847 75.4287 497.53 95.4988 497.53C115.732 497.53 132.049 514.011 132.049 534.081V638.837H138.576V534.081C138.576 510.258 119.322 491.003 95.4988 491.003C71.6758 491.003 52.4216 510.258 52.4216 534.081Z" fill="white" fill-opacity="0.15"/>
<path d="M95.4996 514.826C106.106 514.826 114.754 523.474 114.754 534.08C114.754 543.544 107.901 551.377 98.763 553.008V638.837H92.2362V553.008C83.2617 551.377 76.2454 543.544 76.2454 534.08C76.4085 523.474 84.8934 514.826 95.4996 514.826ZM95.4996 546.808C102.516 546.808 108.227 541.097 108.227 534.08C108.227 527.064 102.516 521.353 95.4996 521.353C88.4832 521.353 82.7722 527.064 82.7722 534.08C82.9354 541.097 88.4832 546.808 95.4996 546.808Z" fill="white" fill-opacity="0.15"/>
<path d="M87.5044 52.3981H148.367C149.999 43.4237 157.831 36.4073 167.295 36.4073C177.901 36.4073 186.549 45.0554 186.549 55.6616C186.549 66.2677 177.901 74.9158 167.295 74.9158C157.831 74.9158 149.999 68.0626 148.367 58.925H106.922V196.152C115.896 197.784 122.913 205.616 122.913 215.08C122.913 225.686 114.264 234.334 103.658 234.334C93.0522 234.334 84.4041 225.686 84.4041 215.08C84.4041 205.616 91.2573 197.784 100.395 196.152V58.925H87.6675C86.3622 58.925 74.9402 59.4145 74.9402 71.6524V294.871C74.9402 296.176 75.4297 307.598 87.6675 307.598H116.223V263.053C116.223 247.878 128.787 243.798 135.477 243.798H164.032V223.076V218.507H151.304C136.129 218.507 132.05 205.943 132.05 199.253V127.457C132.05 112.282 144.614 108.203 151.304 108.203H180.186C181.818 99.2284 189.65 92.212 199.114 92.212C209.72 92.212 218.368 100.86 218.368 111.466C218.368 122.072 209.72 130.72 199.114 130.72C189.65 130.72 181.818 123.867 180.186 114.73H151.304C149.999 114.73 138.577 115.056 138.577 127.457V199.253C138.577 200.558 138.903 211.98 151.304 211.98H164.032V191.257C164.032 158.133 190.302 140.184 215.104 140.184H243.66V98.5757C234.685 96.944 227.669 89.1117 227.669 79.6478C227.669 69.0416 236.317 60.3936 246.923 60.3936C257.529 60.3936 266.177 69.0416 266.177 79.6478C266.177 89.1117 259.324 96.944 250.186 98.5757V116.198H342.541C354.779 116.198 355.269 104.776 355.269 103.471V63.657C355.269 51.4191 343.847 50.9296 342.541 50.9296H305.665C304.033 59.904 296.201 66.9204 286.737 66.9204C276.131 66.9204 267.483 58.2723 267.483 47.6662C267.483 37.06 276.131 28.4119 286.737 28.4119C296.201 28.4119 304.033 35.2651 305.665 44.4027H342.541C349.232 44.4027 361.796 48.482 361.796 63.657V103.471C361.796 110.161 357.716 122.725 342.541 122.725H250.186V140.184H278.905C303.87 140.184 320.187 155.033 326.714 172.982V172.003H382.519C394.756 172.003 395.246 160.581 395.246 159.276V114.567C386.271 112.935 379.255 105.103 379.255 95.6386C379.255 85.0325 387.903 76.3844 398.509 76.3844C409.115 76.3844 417.764 85.0325 417.764 95.6386C417.764 105.103 410.91 112.935 401.773 114.567V159.439C401.773 166.129 397.693 178.693 382.519 178.693H328.346C329.325 182.935 329.977 187.178 329.977 191.42V219.812H379.581C381.213 210.838 389.045 203.821 398.509 203.821C409.115 203.821 417.764 212.469 417.764 223.076C417.764 233.682 409.115 242.33 398.509 242.33C389.045 242.33 381.213 235.477 379.581 226.339H329.977V254.894C329.977 288.018 303.707 305.967 278.905 305.967H258.182V318.694C258.182 330.932 269.604 331.421 270.909 331.421H459.372C461.004 322.447 468.836 315.431 478.3 315.431C488.906 315.431 497.554 324.079 497.554 334.685C497.554 345.291 488.906 353.939 478.3 353.939C468.836 353.939 461.004 347.086 459.372 337.948H401.773V379.231C401.773 391.469 413.195 391.958 414.5 391.958H416.785C418.253 391.469 420.701 391.142 424.29 390.49C443.055 387.389 493.149 379.394 515.667 357.366C517.951 355.081 519.093 353.45 519.093 350.676C519.093 336.317 505.876 312.33 481.727 282.144H377.623C375.992 291.118 368.159 297.971 358.695 297.971C348.089 297.971 339.441 289.323 339.441 278.717C339.441 268.111 348.089 259.463 358.695 259.463C368.159 259.463 376.155 266.316 377.623 275.454H476.342C464.92 261.584 451.214 246.572 435.712 230.581C434.081 228.787 433.754 228.623 433.591 228.297C432.612 226.829 432.123 225.36 432.286 223.565C432.286 223.565 432.286 223.076 432.449 222.586C436.202 198.926 451.051 78.9951 377.787 0.835938H386.598C457.251 81.1163 442.729 199.905 438.976 223.565V224.055C438.976 224.218 438.976 224.381 439.139 224.381C439.465 224.707 439.955 225.197 440.771 226.013C472.589 258.647 525.946 318.205 525.946 350.513C525.946 355.897 523.336 359.161 520.562 361.935C496.412 385.431 445.013 393.753 425.596 396.853C424.127 397.016 422.822 397.343 421.68 397.506C422.659 402.727 424.943 413.66 426.575 424.756C431.144 455.269 428.37 459.185 425.269 460.817C418.416 464.08 352.495 479.418 344.989 481.213C344.663 481.213 344.5 481.539 344.336 481.866C344.336 482.192 344.336 482.518 344.663 482.682L405.852 533.917C410.258 537.507 412.379 542.566 412.053 548.113C411.726 552.845 409.605 557.414 406.342 559.535C403.894 561.167 398.346 565.246 396.225 566.878C394.43 574.547 383.987 615.014 366.201 638.674H357.716C361.796 634.105 365.549 628.394 368.975 622.193L314.476 567.694C311.213 569.978 307.46 571.284 303.38 571.284C298.159 571.284 293.427 569.326 289.837 565.573C282.331 558.067 282.331 545.992 289.837 538.486C293.427 534.896 298.322 532.775 303.38 532.775C308.439 532.775 313.334 534.733 316.924 538.486C323.614 545.176 324.266 555.619 319.045 563.125L372.076 616.156C377.787 604.571 382.192 592.007 385.129 582.216L329.161 526.248C322.308 519.395 313.007 515.642 303.217 515.642C293.427 515.642 284.289 519.395 277.273 526.248C270.42 533.102 266.504 542.402 266.504 552.193C266.504 561.983 270.257 571.121 277.273 578.137L338.136 639H328.835L272.541 582.706C264.382 574.547 259.977 563.778 259.977 552.193C259.977 540.607 264.546 529.838 272.541 521.68C289.348 504.873 316.76 504.873 333.567 521.68L386.598 575.037C388.393 568.673 389.372 564.594 389.372 564.431L389.698 563.288L390.677 562.636C391.003 562.309 398.672 556.598 402.099 554.314C403.404 553.498 404.71 551.05 404.873 547.95C405.036 545.992 404.71 542.239 400.957 539.139L339.604 487.903C337.483 486.108 336.504 483.171 337.157 480.56C337.81 477.786 339.931 475.665 342.705 475.012C371.097 468.486 414.826 457.879 421.19 455.269C423.311 450.537 419.558 422.961 414.5 398.485H414.174C407.484 398.485 394.92 394.406 394.92 379.231V337.948H329.651V406.48C329.651 418.718 341.073 419.208 342.378 419.208H355.432C357.064 410.233 364.896 403.217 374.36 403.217C384.966 403.217 393.614 411.865 393.614 422.471C393.614 433.077 384.966 441.725 374.36 441.725C364.896 441.725 357.064 434.872 355.432 425.735H342.378C335.688 425.735 323.124 421.655 323.124 406.48V337.948H270.583C263.893 337.948 251.329 333.869 251.329 318.694V305.967H218.042V363.566C227.016 365.198 234.032 373.03 234.032 382.494C234.032 393.1 225.384 401.748 214.778 401.748C204.172 401.748 195.524 393.1 195.524 382.494C195.524 373.03 202.377 365.198 211.515 363.566V305.967C180.512 304.335 163.705 278.88 163.705 254.894V250.162H135.15C133.845 250.162 122.423 250.488 122.423 262.889V371.562C131.398 373.193 138.414 381.026 138.414 390.49C138.414 401.096 129.766 409.744 119.16 409.744C108.553 409.744 99.9054 401.096 99.9054 390.49C99.9054 381.026 106.759 373.193 115.896 371.562V313.962H87.3412C72.1662 313.962 68.0869 301.398 68.0869 294.708V71.6524C68.4133 56.4774 80.9775 52.3981 87.5044 52.3981ZM167.295 68.389C174.312 68.389 180.023 62.678 180.023 55.6616C180.023 48.6452 174.312 42.9342 167.295 42.9342C160.279 42.9342 154.568 48.6452 154.568 55.6616C154.568 62.678 160.279 68.389 167.295 68.389ZM90.7678 215.243C90.7678 222.26 96.4788 227.971 103.495 227.971C110.512 227.971 116.223 222.26 116.223 215.243C116.223 208.227 110.512 202.516 103.495 202.516C96.4788 202.516 90.7678 208.227 90.7678 215.243ZM199.277 124.194C206.293 124.194 212.004 118.483 212.004 111.466C212.004 104.45 206.293 98.7389 199.277 98.7389C192.261 98.7389 186.549 104.45 186.549 111.466C186.549 118.483 192.261 124.194 199.277 124.194ZM286.9 35.102C279.884 35.102 274.173 40.813 274.173 47.8293C274.173 54.8457 279.884 60.5567 286.9 60.5567C293.916 60.5567 299.627 54.8457 299.627 47.8293C299.627 40.813 293.916 35.102 286.9 35.102ZM398.509 108.203C405.526 108.203 411.237 102.492 411.237 95.4754C411.237 88.4591 405.526 82.7481 398.509 82.7481C391.493 82.7481 385.782 88.4591 385.782 95.4754C385.782 102.655 391.493 108.203 398.509 108.203ZM398.509 235.803C405.526 235.803 411.237 230.092 411.237 223.076C411.237 216.059 405.526 210.348 398.509 210.348C391.493 210.348 385.782 216.059 385.782 223.076C385.782 230.092 391.493 235.803 398.509 235.803ZM478.3 347.412C485.317 347.412 491.028 341.701 491.028 334.685C491.028 327.669 485.317 321.958 478.3 321.958C471.284 321.958 465.573 327.669 465.573 334.685C465.573 341.701 471.284 347.412 478.3 347.412ZM358.695 266.316C351.679 266.316 345.968 272.027 345.968 279.043C345.968 286.06 351.679 291.771 358.695 291.771C365.712 291.771 371.423 286.06 371.423 279.043C371.26 271.864 365.549 266.316 358.695 266.316ZM311.702 543.218C309.255 540.771 306.154 539.465 302.728 539.465C299.301 539.465 296.201 540.771 293.753 543.218C288.858 548.113 288.858 556.272 293.753 561.167C296.201 563.615 299.301 564.92 302.728 564.92C306.154 564.92 309.255 563.615 311.702 561.167C316.76 556.272 316.76 548.113 311.702 543.218ZM374.523 435.199C381.539 435.199 387.25 429.488 387.25 422.471C387.25 415.455 381.539 409.744 374.523 409.744C367.507 409.744 361.796 415.455 361.796 422.471C361.796 429.488 367.507 435.199 374.523 435.199ZM259.65 79.6478C259.65 72.6314 253.939 66.9204 246.923 66.9204C239.907 66.9204 234.196 72.6314 234.196 79.6478C234.196 86.6642 239.907 92.3752 246.923 92.3752C253.939 92.3752 259.65 86.6642 259.65 79.6478ZM202.54 382.494C202.54 389.511 208.251 395.222 215.268 395.222C222.284 395.222 227.995 389.511 227.995 382.494C227.995 375.478 222.284 369.767 215.268 369.767C208.088 369.93 202.54 375.641 202.54 382.494ZM170.559 255.057C170.559 276.596 186.223 299.603 215.104 299.603H278.905C300.443 299.603 323.45 283.939 323.45 255.057V234.824C312.518 250.815 287.226 279.696 246.923 279.696C206.62 279.696 181.328 250.815 170.559 234.824V255.057ZM246.923 222.097C232.564 222.097 220.979 210.511 220.979 196.152C220.979 189.625 223.426 183.751 227.342 179.182C217.226 185.709 210.373 197.131 210.373 210.022C210.373 230.255 226.853 246.572 246.923 246.572C267.156 246.572 283.473 230.092 283.473 210.022C283.473 197.131 276.62 185.709 266.504 179.182C270.42 183.751 272.867 189.625 272.867 196.152C273.03 210.348 261.282 222.097 246.923 222.097ZM290.163 209.859C290.163 233.682 270.746 252.936 247.086 252.936C223.426 252.936 204.009 233.519 204.009 209.859C204.009 198.437 208.578 187.994 215.757 180.325C189.65 192.563 174.638 216.875 171.211 223.076C175.943 231.561 201.561 273.006 247.249 273.006C292.774 273.006 318.555 231.397 323.287 223.076C319.861 216.875 304.686 192.399 278.578 180.325C285.595 187.994 290.163 198.437 290.163 209.859ZM170.559 211.49C181.165 195.989 205.641 168.087 244.475 166.945C245.291 166.945 246.107 166.781 246.923 166.781C247.739 166.781 248.555 166.781 249.371 166.945C288.369 168.087 312.844 195.989 323.45 211.49V191.257C323.45 169.718 307.786 146.711 278.905 146.711H215.104C193.566 146.711 170.559 162.376 170.559 191.257V211.49ZM106.759 390.49C106.759 397.506 112.47 403.217 119.486 403.217C126.502 403.217 132.213 397.506 132.213 390.49C132.213 383.473 126.502 377.762 119.486 377.762C112.47 377.925 106.759 383.636 106.759 390.49Z" fill="white" fill-opacity="0.15"/>
<path d="M15.8711 154.707H-0.119698V148.18H15.8711C31.0461 148.18 35.1253 160.744 35.1253 167.434V252.12C44.0998 253.752 51.1162 261.584 51.1162 271.048C51.1162 281.654 42.468 290.302 31.8619 290.302C21.2557 290.302 12.6077 281.654 12.6077 271.048C12.6077 261.584 19.4608 253.752 28.5985 252.12V167.434C28.4353 166.129 28.109 154.707 15.8711 154.707ZM19.1345 270.885C19.1345 277.901 24.8455 283.612 31.8619 283.612C38.8783 283.612 44.5893 277.901 44.5893 270.885C44.5893 263.868 38.8783 258.157 31.8619 258.157C24.6823 258.32 19.1345 264.031 19.1345 270.885Z" fill="white" fill-opacity="0.15"/>
<path d="M-0.119545 108.366V114.893H31.6989C46.8739 114.893 50.9531 102.328 50.9531 95.6384V1.16211H44.4263V95.6384C44.4263 96.9438 43.9368 108.366 31.6989 108.366H-0.119545Z" fill="white" fill-opacity="0.15"/>
<path d="M-0.119038 491.003V497.53H15.8718C28.1096 497.53 28.5991 508.952 28.5991 510.258V639H35.126V510.258C35.126 503.568 31.0467 491.003 15.8718 491.003H-0.119038Z" fill="white" fill-opacity="0.15"/>
<path d="M156.035 581.89V638.837H162.562V581.89C162.562 569.489 173.984 569.163 175.29 569.163C187.691 569.163 188.017 580.585 188.017 581.89V638.837H194.544V581.89C194.544 575.2 190.465 562.636 175.29 562.636C168.6 562.636 156.035 566.715 156.035 581.89Z" fill="white" fill-opacity="0.15"/>
</svg>
