<svg width="325" height="324" viewBox="0 0 325 324" fill="none" xmlns="http://www.w3.org/2000/svg">
<path d="M324.064 315.786C324.064 319.041 269.388 321.705 201.987 321.705C134.586 321.705 79.9102 319.041 79.9102 315.786C79.9102 312.531 134.586 309.867 201.987 309.867C269.388 309.867 324.064 312.531 324.064 315.786Z" fill="#235893"/>
<path d="M187.042 196.743C173.502 195.263 159.889 192.969 146.35 191.49C134.512 190.084 124.894 180.466 124.894 168.776C124.894 128.602 124.894 88.4271 124.894 48.2527C124.894 36.5629 134.512 26.7967 146.35 27.6846C159.889 28.6464 173.502 30.3481 187.042 31.3099C198.88 32.1977 208.498 41.6679 208.498 53.6537C208.498 94.6419 208.498 135.63 208.498 176.619C208.424 188.53 198.88 198.074 187.042 196.743Z" fill="#A98FFF"/>
<path d="M146.277 182.611C138.434 181.724 132.071 175.065 132.071 167.296C132.071 127.048 132.071 86.7995 132.071 46.5511C132.071 38.7825 138.434 32.5677 146.277 33.0856C159.816 34.0474 173.429 35.8231 186.969 36.7849C194.811 37.3768 201.174 43.8876 201.174 51.8041C201.174 92.7184 201.174 133.633 201.174 174.547C201.174 182.463 194.811 188.604 186.969 187.716C173.429 186.311 159.89 184.091 146.277 182.611Z" fill="#CDBDFF"/>
<path d="M163.738 77.9951C157.523 77.3292 151.308 76.6634 145.093 76.1455C142.578 75.9235 140.58 73.7779 140.58 71.3364C140.58 64.3077 140.58 57.353 140.58 50.3243C140.58 47.8828 142.578 45.9591 145.093 46.1071C151.308 46.551 157.523 47.1429 163.738 47.8088C166.253 48.0308 168.251 50.3243 168.251 52.7659C168.251 59.7945 168.251 66.8972 168.251 73.9259C168.251 76.4414 166.253 78.2911 163.738 77.9951Z" fill="#EFEBFF"/>
<path d="M199.028 53.8755C190.594 53.5795 182.233 52.8396 173.799 52.0258C173.799 51.138 173.799 50.2501 173.799 49.3623C182.233 50.1762 190.594 50.916 199.028 51.212C199.028 52.0998 199.028 52.9876 199.028 53.8755Z" fill="#EFEBFF"/>
<path d="M199.028 60.6823C190.594 60.3863 182.233 59.6465 173.799 58.7586C173.799 57.5009 173.799 56.2431 173.799 54.9114C182.233 55.7252 190.594 56.5391 199.028 56.761C199.028 58.0928 199.028 59.4245 199.028 60.6823Z" fill="#EFEBFF"/>
<path d="M197.104 78.8828C188.67 78.5128 180.309 77.625 171.875 76.7372C171.875 75.4794 171.875 74.2216 171.875 72.8899C180.309 73.7777 188.67 74.5916 197.104 75.0355C197.104 76.3672 197.104 77.625 197.104 78.8828Z" fill="#EFEBFF"/>
<path d="M164.847 87.3174C156.412 86.3555 148.052 85.4677 139.617 84.9498C139.617 83.692 139.617 82.4343 139.617 81.1765C148.052 81.6944 156.412 82.5822 164.847 83.5441C164.847 84.8018 164.847 86.0596 164.847 87.3174Z" fill="#EFEBFF"/>
<path d="M197.105 148.43C185.637 147.69 174.169 146.136 162.701 144.73C162.701 131.265 162.701 117.799 162.701 104.408C174.169 105.74 185.637 107.145 197.105 107.737C197.105 121.351 197.105 134.89 197.105 148.43Z" fill="#EFEBFF"/>
<path d="M151.38 141.771C151.38 141.771 152.194 140.439 153.896 140.587C155.376 140.735 156.486 142.289 156.486 143.991C156.559 145.914 155.154 148.06 151.528 149.761C147.829 147.468 146.349 145.026 146.275 143.103C146.275 141.401 147.237 140.069 148.791 140.217C150.493 140.291 151.38 141.771 151.38 141.771Z" fill="#EFEBFF"/>
<path d="M254 166.926C244.825 165.89 235.651 164.411 226.477 163.375C218.486 162.413 211.976 155.902 211.976 147.986C211.976 120.833 211.976 93.6799 211.976 66.453C211.976 58.5365 218.486 51.9517 226.477 52.5436C235.651 53.2095 244.825 54.3193 254 54.9852C261.99 55.5771 268.501 62.0138 268.501 70.0783C268.501 97.8231 268.501 125.494 268.501 153.239C268.501 161.377 261.99 167.814 254 166.926Z" fill="#A98FFF"/>
<path d="M226.476 157.382C221.149 156.79 216.857 152.277 216.857 147.024C216.857 119.797 216.857 92.5702 216.857 65.3434C216.857 60.0904 221.149 55.8731 226.476 56.2431C235.65 56.9089 244.824 58.0927 253.998 58.7586C259.325 59.1285 263.617 63.5677 263.617 68.8947C263.617 96.5655 263.617 124.236 263.617 151.907C263.617 157.234 259.325 161.377 253.998 160.785C244.824 159.824 235.65 158.344 226.476 157.382Z" fill="#CDBDFF"/>
<path d="M238.24 86.5772C234.023 86.1333 229.88 85.6893 225.662 85.3194C223.961 85.1714 222.629 83.7657 222.629 82.064C222.629 77.3289 222.629 72.5938 222.629 67.8587C222.629 66.157 223.961 64.8993 225.662 65.0472C229.88 65.3432 234.023 65.7871 238.24 66.157C239.942 66.305 241.273 67.8587 241.273 69.5604C241.273 74.2955 241.273 79.1046 241.273 83.8397C241.347 85.5414 239.942 86.7991 238.24 86.5772Z" fill="#EFEBFF"/>
<path d="M262.138 70.3003C256.441 70.0783 250.744 69.6344 245.047 69.0425C245.047 68.4506 245.047 67.8587 245.047 67.2668C250.744 67.8587 256.441 68.3026 262.138 68.5246C262.138 69.1165 262.138 69.7084 262.138 70.3003Z" fill="#EFEBFF"/>
<path d="M262.138 74.8876C256.441 74.6656 250.744 74.1477 245.047 73.6298C245.047 72.742 245.047 71.9281 245.047 71.0403C250.744 71.6322 256.441 72.1501 262.138 72.298C262.138 73.1859 262.138 74.0737 262.138 74.8876Z" fill="#EFEBFF"/>
<path d="M260.806 87.2431C255.109 86.9471 249.412 86.4292 243.715 85.8373C243.715 84.9495 243.715 84.1356 243.715 83.2478C249.412 83.8397 255.109 84.4316 260.806 84.6535C260.806 85.4674 260.806 86.3552 260.806 87.2431Z" fill="#EFEBFF"/>
<path d="M238.98 92.9401C233.283 92.2742 227.587 91.6823 221.89 91.3124C221.89 90.4246 221.89 89.6107 221.89 88.7229C227.587 89.0928 233.283 89.6847 238.98 90.3506C238.98 91.2384 238.98 92.0523 238.98 92.9401Z" fill="#EFEBFF"/>
<path d="M260.805 134.224C253.036 133.706 245.342 132.671 237.573 131.709C237.573 122.609 237.573 113.508 237.573 104.408C245.342 105.296 253.036 106.258 260.805 106.702C260.805 115.95 260.805 125.05 260.805 134.224Z" fill="#EFEBFF"/>
<path d="M229.879 129.785C229.879 129.785 230.471 128.897 231.581 128.971C232.616 129.045 233.356 130.081 233.356 131.265C233.356 132.597 232.468 134.002 230.027 135.186C227.511 133.632 226.55 132.005 226.476 130.673C226.476 129.563 227.141 128.601 228.177 128.675C229.287 128.749 229.879 129.785 229.879 129.785Z" fill="#EFEBFF"/>
<path d="M276.712 140.883C271.237 140.291 265.762 139.403 260.287 138.812C255.552 138.294 251.631 134.372 251.631 129.637C251.631 113.434 251.631 97.3053 251.631 81.1024C251.631 76.3673 255.478 72.446 260.287 72.816C265.762 73.1859 271.237 73.9257 276.712 74.2957C281.447 74.6656 285.368 78.4389 285.368 83.248C285.368 99.7469 285.368 116.246 285.368 132.745C285.294 137.554 281.447 141.401 276.712 140.883Z" fill="#A98FFF"/>
<path d="M260.288 135.186C257.106 134.816 254.591 132.153 254.591 129.045C254.591 112.842 254.591 96.6393 254.591 80.4364C254.591 77.3289 257.18 74.8134 260.288 75.0354C265.763 75.4053 271.238 76.1452 276.713 76.5151C279.894 76.7371 282.41 79.4005 282.41 82.5819C282.41 99.0808 282.41 115.506 282.41 132.005C282.41 135.186 279.82 137.628 276.713 137.332C271.238 136.666 265.763 135.778 260.288 135.186Z" fill="#CDBDFF"/>
<path d="M267.315 93.0882C264.8 92.7923 262.284 92.5703 259.843 92.3483C258.807 92.2744 257.993 91.3865 257.993 90.4247C257.993 87.6132 257.993 84.8018 257.993 81.9903C257.993 81.0285 258.807 80.2146 259.843 80.2886C262.358 80.4366 264.874 80.7325 267.315 80.9545C268.351 81.0285 269.165 81.9903 269.165 82.9521C269.165 85.7636 269.165 88.649 269.165 91.4605C269.165 92.4223 268.351 93.1622 267.315 93.0882Z" fill="#EFEBFF"/>
<path d="M281.522 83.3218C278.118 83.2478 274.715 82.8779 271.386 82.5819C271.386 82.212 271.386 81.8421 271.386 81.5461C274.789 81.9161 278.192 82.212 281.522 82.286C281.522 82.6559 281.522 82.9519 281.522 83.3218Z" fill="#EFEBFF"/>
<path d="M281.522 86.0594C278.118 85.9115 274.715 85.6155 271.386 85.3196C271.386 84.8017 271.386 84.2838 271.386 83.7659C274.789 84.1358 278.192 84.4317 281.522 84.5057C281.522 85.0236 281.522 85.5415 281.522 86.0594Z" fill="#EFEBFF"/>
<path d="M280.783 93.4581C277.379 93.3102 273.976 92.9402 270.646 92.5703C270.646 92.0524 270.646 91.5345 270.646 91.0166C274.05 91.3865 277.453 91.6825 280.783 91.8304C280.783 92.4223 280.783 92.9402 280.783 93.4581Z" fill="#EFEBFF"/>
<path d="M267.76 96.8615C264.357 96.4915 260.953 96.1216 257.624 95.8996C257.624 95.3817 257.624 94.8638 257.624 94.3459C261.027 94.5679 264.431 94.9378 267.76 95.3078C267.76 95.8257 267.76 96.3436 267.76 96.8615Z" fill="#EFEBFF"/>
<path d="M280.782 121.425C276.195 121.129 271.533 120.537 266.946 119.945C266.946 114.544 266.946 109.143 266.946 103.668C271.533 104.186 276.195 104.778 280.782 105C280.782 110.475 280.782 115.95 280.782 121.425Z" fill="#EFEBFF"/>
<path d="M262.359 118.761C262.359 118.761 262.729 118.243 263.395 118.317C263.987 118.391 264.431 118.983 264.431 119.649C264.431 120.463 263.913 121.277 262.433 121.943C260.953 120.981 260.361 120.019 260.361 119.279C260.361 118.613 260.731 118.021 261.397 118.095C261.989 118.169 262.359 118.761 262.359 118.761Z" fill="#EFEBFF"/>
<path d="M301.202 177.358C295.727 176.766 290.252 175.879 284.778 175.287C280.042 174.769 276.121 170.847 276.121 166.112C276.121 149.909 276.121 133.78 276.121 117.577C276.121 112.842 279.968 108.921 284.778 109.291C290.252 109.661 295.727 110.401 301.202 110.771C305.937 111.141 309.859 114.914 309.859 119.723C309.859 136.222 309.859 152.721 309.859 169.22C309.785 174.103 305.937 177.95 301.202 177.358Z" fill="#A98FFF"/>
<path d="M284.777 171.661C281.596 171.291 279.08 168.628 279.08 165.52C279.08 149.317 279.08 133.114 279.08 116.911C279.08 113.804 281.67 111.289 284.777 111.51C290.252 111.88 295.727 112.62 301.202 112.99C304.383 113.212 306.899 115.876 306.899 119.057C306.899 135.556 306.899 151.981 306.899 168.48C306.899 171.661 304.309 174.103 301.202 173.807C295.727 173.141 290.252 172.253 284.777 171.661Z" fill="#CDBDFF"/>
<path d="M291.807 129.563C289.291 129.267 286.776 129.045 284.334 128.823C283.298 128.749 282.484 127.861 282.484 126.9C282.484 124.088 282.484 121.277 282.484 118.465C282.484 117.503 283.298 116.689 284.334 116.763C286.85 116.911 289.365 117.207 291.807 117.429C292.842 117.503 293.656 118.465 293.656 119.427C293.656 122.238 293.656 125.124 293.656 127.935C293.656 128.897 292.842 129.637 291.807 129.563Z" fill="#EFEBFF"/>
<path d="M306.011 119.797C302.608 119.723 299.204 119.353 295.875 119.057C295.875 118.687 295.875 118.317 295.875 118.021C299.278 118.391 302.682 118.687 306.011 118.761C306.011 119.131 306.011 119.501 306.011 119.797Z" fill="#EFEBFF"/>
<path d="M306.011 122.608C302.608 122.46 299.204 122.164 295.875 121.868C295.875 121.351 295.875 120.833 295.875 120.315C299.278 120.685 302.682 120.981 306.011 121.055C306.011 121.572 306.011 122.09 306.011 122.608Z" fill="#EFEBFF"/>
<path d="M305.272 129.933C301.868 129.785 298.465 129.415 295.136 129.045C295.136 128.528 295.136 128.01 295.136 127.492C298.539 127.862 301.942 128.158 305.272 128.306C305.272 128.897 305.272 129.415 305.272 129.933Z" fill="#EFEBFF"/>
<path d="M292.25 133.336C288.847 132.966 285.444 132.596 282.114 132.375C282.114 131.857 282.114 131.339 282.114 130.821C285.518 131.043 288.921 131.413 292.25 131.783C292.25 132.301 292.25 132.818 292.25 133.336Z" fill="#EFEBFF"/>
<path d="M305.272 157.9C300.685 157.604 296.024 157.012 291.437 156.42C291.437 151.019 291.437 145.618 291.437 140.143C296.024 140.661 300.685 141.253 305.272 141.475C305.272 147.024 305.272 152.425 305.272 157.9Z" fill="#EFEBFF"/>
<path d="M286.775 155.236C286.775 155.236 287.145 154.718 287.811 154.792C288.403 154.866 288.847 155.458 288.847 156.124C288.847 156.938 288.329 157.752 286.849 158.418C285.369 157.456 284.777 156.494 284.777 155.754C284.777 155.088 285.147 154.496 285.813 154.57C286.479 154.644 286.775 155.236 286.775 155.236Z" fill="#EFEBFF"/>
<path d="M281.596 245.943C200.138 158.936 118.605 318.967 37.1465 231.96C37.1465 222.934 37.1465 213.833 37.1465 204.807C118.605 282.492 200.138 113.138 281.596 190.824C281.596 209.172 281.596 227.595 281.596 245.943Z" fill="#FD9191"/>
<path d="M191.925 189.936C167.436 200.516 142.946 217.015 118.457 226.041C118.457 224.857 118.457 223.747 118.457 222.564C142.946 213.241 167.436 196.52 191.925 185.645C191.925 187.124 191.925 188.53 191.925 189.936Z" fill="#9173F1"/>
<path d="M191.924 197.26C172.244 205.399 152.49 217.384 132.81 226.189C132.81 225.301 132.81 224.339 132.81 223.451C152.49 214.425 172.244 202.291 191.924 194.005C191.924 195.041 191.924 196.15 191.924 197.26Z" fill="#9173F1"/>
<path d="M223.74 216.718C215.823 217.014 207.907 218.494 199.99 220.714C199.99 207.174 199.99 193.635 199.99 180.021C207.907 176.988 215.823 174.694 223.74 173.584C223.74 188.012 223.74 202.365 223.74 216.718Z" fill="white"/>
<path d="M191.925 206.361C183.49 209.616 175.13 213.611 166.695 217.754C166.695 216.719 166.695 215.683 166.695 214.647C175.13 210.43 183.49 206.361 191.925 203.031C191.925 204.067 191.925 205.251 191.925 206.361Z" fill="#9173F1"/>
<path d="M220.409 211.096C215.23 211.54 210.051 212.502 204.872 213.833C204.872 203.475 204.872 193.191 204.872 182.833C210.051 181.131 215.23 179.726 220.409 178.838C220.409 189.566 220.409 200.294 220.409 211.096Z" fill="#A98FFF"/>
<path d="M111.428 254.747C103.512 256.523 95.5952 257.337 87.6787 256.819C87.6787 247.053 87.6787 237.287 87.6787 227.594C95.5952 227.298 103.512 225.671 111.428 223.155C111.428 233.661 111.428 244.167 111.428 254.747Z" fill="white"/>
<path d="M108.099 251.122C102.92 252.158 97.7405 252.824 92.5615 252.898C92.5615 245.425 92.5615 237.953 92.5615 230.48C97.7405 230.036 102.92 229 108.099 227.521C108.099 235.363 108.099 243.28 108.099 251.122Z" fill="#A98FFF"/>
<path d="M278.785 199.628C262.36 184.683 245.935 179.578 229.437 180.243C229.437 178.69 229.437 177.136 229.437 175.582C245.861 174.768 262.286 179.652 278.785 194.449C278.785 196.15 278.785 197.852 278.785 199.628Z" fill="#A98FFF"/>
<path d="M277.675 208.062C261.25 193.265 244.825 188.16 228.326 188.752C228.326 187.198 228.326 185.645 228.326 184.091C244.751 183.351 261.176 188.234 277.675 202.883C277.675 204.659 277.675 206.361 277.675 208.062Z" fill="#A98FFF"/>
<path d="M84.1279 246.239C81.9823 243.354 79.8367 240.394 77.7651 237.435C78.431 237.509 79.0969 237.657 79.7628 237.731C81.7604 237.953 83.314 236.843 83.314 235.289C83.314 234.253 83.314 233.218 83.314 232.256C83.314 230.702 81.6864 229.37 79.7628 229.222C68.2949 228.187 56.901 223.895 45.4332 215.165C43.4356 213.685 41.8818 213.389 41.8818 214.647C41.8818 215.535 41.8818 216.423 41.8818 217.237C41.8818 218.568 43.5096 221.084 45.4332 222.638C50.9082 227.003 56.3091 230.332 61.7841 232.774C69.1827 238.471 76.6553 242.91 84.1279 246.239Z" fill="#CDBDFF"/>
<path d="M190.298 213.463C190.298 213.463 191.26 211.762 193.035 211.096C194.663 210.504 195.773 211.466 195.773 213.093C195.773 214.943 194.219 217.607 190.224 220.936C186.229 220.492 184.675 219.086 184.675 217.237C184.675 215.683 185.785 213.833 187.412 213.241C189.41 212.501 190.298 213.463 190.298 213.463Z" fill="#A98FFF"/>
<path d="M322.214 57.5748C260.51 -8.27283 198.805 112.842 137.175 46.9948C137.175 40.1141 137.175 33.3073 137.175 26.4266C198.879 85.2456 260.584 -42.9723 322.214 15.8466C322.214 29.756 322.214 43.6654 322.214 57.5748Z" fill="#FD9191"/>
<path d="M254.295 15.1807C235.724 23.1712 217.228 35.6748 198.657 42.4815C198.657 41.5937 198.657 40.7059 198.657 39.892C217.228 32.8633 235.724 20.1377 254.295 11.9253C254.295 13.0351 254.295 14.1449 254.295 15.1807Z" fill="#9173F1"/>
<path d="M254.295 20.6557C239.35 26.7965 224.478 35.8968 209.533 42.5555C209.533 41.8897 209.533 41.1498 209.533 40.4839C224.478 33.6772 239.35 24.5029 254.295 18.2141C254.295 19.028 254.295 19.8418 254.295 20.6557Z" fill="#9173F1"/>
<path d="M278.414 35.4528C272.421 35.6748 266.428 36.7846 260.436 38.4862C260.436 28.2022 260.436 17.9921 260.436 7.70803C266.428 5.41446 272.421 3.6388 278.414 2.82495C278.414 13.7009 278.414 24.5769 278.414 35.4528Z" fill="white"/>
<path d="M254.295 27.6105C247.933 30.126 241.57 33.0855 235.207 36.1929C235.207 35.379 235.207 34.6392 235.207 33.8253C241.57 30.6439 247.933 27.6105 254.295 25.021C254.295 25.9088 254.295 26.7227 254.295 27.6105Z" fill="#9173F1"/>
<path d="M275.825 31.1617C271.904 31.5317 267.983 32.2715 264.062 33.2333C264.062 25.3908 264.062 17.5483 264.062 9.77977C267.983 8.44802 271.904 7.41221 275.825 6.74634C275.825 14.8848 275.825 23.0233 275.825 31.1617Z" fill="#A98FFF"/>
<path d="M193.33 64.2334C187.337 65.5652 181.344 66.1571 175.352 65.7872C175.352 58.3885 175.352 51.0639 175.352 43.6653C181.344 43.4434 187.337 42.1856 193.33 40.262C193.33 48.2525 193.33 56.243 193.33 64.2334Z" fill="white"/>
<path d="M190.815 61.4962C186.893 62.31 182.972 62.7539 179.051 62.8279C179.051 57.205 179.051 51.5081 179.051 45.8851C182.972 45.5152 186.893 44.7753 190.815 43.6655C190.815 49.5844 190.815 55.5033 190.815 61.4962Z" fill="#A98FFF"/>
<path d="M320.069 22.5052C307.639 11.1854 295.21 7.33809 282.706 7.856C282.706 6.67222 282.706 5.48844 282.706 4.30466C295.136 3.63879 307.565 7.41208 320.069 18.584C320.069 19.8417 320.069 21.1735 320.069 22.5052Z" fill="#A98FFF"/>
<path d="M319.255 28.9422C306.825 17.6963 294.395 13.849 281.892 14.293C281.892 13.1092 281.892 11.9254 281.892 10.8156C294.321 10.2237 306.751 13.923 319.255 25.0209C319.255 26.2787 319.255 27.6105 319.255 28.9422Z" fill="#A98FFF"/>
<path d="M172.688 57.7968C171.061 55.5772 169.433 53.3576 167.879 51.138C168.397 51.212 168.915 51.286 169.359 51.36C170.839 51.5819 172.096 50.6941 172.096 49.5103C172.096 48.7705 172.096 47.9566 172.096 47.2168C172.096 46.033 170.913 45.0712 169.359 44.9232C160.703 44.1093 152.046 40.9279 143.39 34.2692C141.91 33.1594 140.652 32.8635 140.652 33.8993C140.652 34.5651 140.652 35.231 140.652 35.8969C140.652 36.9327 141.836 38.7823 143.39 39.9661C147.533 43.2215 151.676 45.737 155.746 47.5867C161.442 51.9519 167.065 55.2812 172.688 57.7968Z" fill="white"/>
<path d="M253.111 32.9374C253.111 32.9374 253.777 31.6796 255.183 31.1617C256.44 30.7178 257.254 31.4577 257.254 32.6414C257.254 34.0472 256.07 36.0448 253.111 38.5603C250.078 38.2644 248.968 37.1546 248.968 35.7488C248.968 34.5651 249.856 33.2333 251.039 32.7154C252.371 32.1975 253.111 32.9374 253.111 32.9374Z" fill="#A98FFF"/>
<path d="M189.78 82.878C189.78 82.878 177.054 84.2098 179.792 90.5726C182.529 96.9354 185.859 97.3793 181.641 99.081C177.35 100.783 174.391 102.188 177.498 105.222C180.532 108.255 187.708 106.997 183.787 110.919C179.866 114.84 184.453 120.537 191.482 120.537C198.51 120.537 208.424 122.461 215.453 115.432C222.482 108.403 225.219 118.687 219.744 120.759C219.744 120.759 228.031 120.241 228.919 114.766C229.806 109.291 229.51 107.293 221.89 105.222C214.269 103.224 218.93 102.928 220.632 95.7516C222.334 88.575 214.787 87.2432 209.904 85.8375C205.021 84.4317 200.138 76.1453 189.78 82.878Z" fill="#380047"/>
<path d="M161.738 117.8C162.7 118.244 164.476 120.093 166.103 121.795C166.473 121.943 166.917 122.091 167.287 122.313C166.251 120.537 165.068 118.465 165.068 117.652C165.068 116.468 168.175 121.795 169.285 123.792C171.061 126.012 168.693 130.451 168.693 133.189C168.693 133.559 168.767 134.298 168.989 135.112C167.657 136.148 166.251 136.814 164.698 137.406C164.772 132.153 165.734 126.308 165.734 126.308C165.734 126.308 164.476 123.275 163.588 122.461C162.774 121.721 162.996 121.351 163.736 121.277C162.108 119.205 160.924 117.43 161.738 117.8Z" fill="#FC7575"/>
<path d="M189.409 116.986C187.337 117.873 180.752 128.749 178.533 136.296C177.275 140.661 174.834 145.1 173.428 146.284C172.466 146.802 171.43 146.95 171.06 145.174C170.394 141.771 169.877 137.11 169.655 134.52C167.583 134.372 165.585 133.78 163.514 133.928C163.662 143.768 164.771 157.752 168.471 158.196C170.394 158.418 174.464 156.346 177.497 152.721C181.344 148.134 184.6 142.437 184.6 142.437L191.48 120.611C191.48 120.537 191.48 116.098 189.409 116.986Z" fill="#005953"/>
<path d="M186.376 117.503C185.414 117.503 177.128 126.604 176.166 132.375C175.204 138.146 174.538 145.396 172.466 143.325C170.395 141.253 173.28 138.811 170.099 138.811C166.917 138.811 159.149 136.814 158.335 141.993C157.595 147.172 161.369 170.182 173.428 164.559C185.414 158.936 192.517 124.088 191.481 120.537C190.371 116.986 186.376 117.503 186.376 117.503Z" fill="#005757"/>
<path d="M203.467 313.715H209.238C209.238 313.641 209.238 313.493 209.238 313.345C209.238 310.755 217.82 271.321 216.488 265.624C215.156 259.853 214.195 259.187 214.195 252.38C214.195 245.574 202.209 246.683 202.209 246.683C202.209 246.683 203.245 259.927 204.872 263.922C206.13 266.955 204.798 296.994 203.467 313.715Z" fill="#FC7575"/>
<path d="M168.546 309.867H173.281C176.536 300.841 186.746 280.421 188.226 274.058C190.002 266.585 187.93 262.22 187.338 256.745C186.746 251.27 196.365 232.848 196.365 232.848L182.011 233.809C182.011 233.809 177.498 243.354 176.314 248.459C175.131 253.564 175.796 253.564 175.796 261.332C175.796 269.027 170.396 302.247 168.546 309.867Z" fill="#FD5E5A"/>
<path d="M187.338 256.745C186.746 251.27 196.364 232.848 196.364 232.848L182.011 233.809C182.011 233.809 177.498 243.354 176.314 248.459C175.426 252.158 175.574 253.194 175.722 256.523C178.46 257.115 182.751 258.003 187.634 258.743C187.486 258.151 187.412 257.485 187.338 256.745Z" fill="#E80300"/>
<path d="M214.195 252.38C214.195 245.574 202.209 246.683 202.209 246.683C202.209 246.683 202.875 255.118 203.911 260.593C207.98 260.815 211.827 260.741 214.935 260.223C214.491 258.225 214.195 256.375 214.195 252.38Z" fill="#FD5E5A"/>
<path d="M247.488 242.54C247.488 242.54 251.262 248.163 229.51 246.683C229.51 246.683 225.515 249.717 213.603 251.862C213.603 251.862 196.29 260.223 173.502 251.862C173.502 251.862 158.483 255.783 153.156 250.456C153.156 250.456 190.001 197.26 184.6 168.554L202.949 167.962C202.949 167.962 233.801 210.874 247.488 242.54Z" fill="#C6001F"/>
<path d="M189.409 116.986C189.409 116.986 193.922 113.508 209.089 116.986C209.533 117.06 209.903 133.559 209.903 133.559C209.903 133.559 202.874 161.155 204.206 168.036C204.206 168.036 196.142 174.843 184.156 168.924C184.156 168.924 185.71 147.246 184.6 142.437C183.49 137.628 181.345 133.263 184.452 128.232C187.485 123.127 189.409 116.986 189.409 116.986Z" fill="#E40071"/>
<path d="M189.409 116.986C189.409 116.986 193.923 113.508 209.09 116.986C209.534 117.06 209.904 133.559 209.904 133.559C209.904 133.559 202.875 161.155 204.207 168.036C204.207 168.036 196.142 174.843 184.156 168.924C184.156 168.924 182.011 145.84 180.975 141.031C179.865 136.222 180.087 132.005 182.085 126.53C183.269 123.348 184.822 122.239 185.784 120.167C186.894 117.578 189.409 116.986 189.409 116.986Z" fill="#009287"/>
<path d="M209.755 174.695C209.977 174.473 212.122 171.291 212.64 171.735C213.084 172.179 210.717 175.139 210.717 175.139C210.717 175.139 213.454 172.327 213.972 172.919C214.49 173.437 210.273 177.21 209.829 177.21C209.459 177.136 209.755 174.695 209.755 174.695Z" fill="#FD5E5A"/>
<path d="M206.056 171.513C206.056 171.513 204.872 173.289 205.76 174.102C206.648 174.99 206.13 175.878 206.722 176.396C207.314 176.988 209.903 177.062 209.903 177.062C209.903 177.062 210.051 174.546 211.383 171.661C211.605 171.143 212.345 170.107 213.454 168.701C212.271 167.962 211.087 167.296 209.903 166.63C207.683 169.589 206.056 171.439 206.056 171.513Z" fill="#FC7575"/>
<path d="M209.089 116.986C209.089 116.986 207.61 128.971 209.089 132.227C210.569 135.408 219.151 139.107 220.557 145.618C221.667 150.501 214.49 160.711 209.829 166.778C211.013 167.962 212.863 169.886 214.046 170.625C218.782 164.559 229.14 150.353 229.435 147.024C229.805 142.955 215.452 116.542 209.089 116.986Z" fill="#005953"/>
<path d="M207.757 142.215C207.757 142.215 211.826 139.847 214.341 140.735C216.931 141.623 209.384 154.275 209.384 158.862C209.384 163.449 214.859 165.891 214.859 165.891C214.859 165.891 217.153 167.666 220.482 166.778C223.886 165.891 228.325 151.463 231.728 148.06C235.132 144.657 222.554 118.465 208.941 116.912C195.475 115.506 207.757 142.215 207.757 142.215Z" fill="#009287"/>
<path d="M192.517 105.296C192.517 105.296 194.588 108.329 194.366 111.881C194.218 113.804 193.848 116.172 193.331 117.504C192.739 118.983 193.183 120.167 194.588 120.759C195.476 121.129 196.512 121.277 197.622 120.833C199.397 120.167 202.061 118.909 202.875 116.912C203.393 115.58 198.51 100.635 198.51 100.635L192.517 105.296Z" fill="#FC7575"/>
<path d="M186.376 120.315C186.376 120.315 200.433 126.16 211.827 117.652C211.827 117.652 197.622 113.804 189.557 116.32C181.493 118.835 186.376 120.315 186.376 120.315Z" fill="#FC7575"/>
<path d="M192.517 105.296L198.435 100.708C198.435 100.708 199.027 102.484 199.767 104.852C198.362 106.923 196.512 108.995 194.218 109.809C193.848 107.219 192.517 105.296 192.517 105.296Z" fill="#FD5E5A"/>
<path d="M188.374 85.2458C188.374 85.2458 186.45 86.5775 185.858 89.093C185.266 91.6825 186.746 94.716 186.598 96.9356C186.45 99.1551 189.706 109.883 194.885 107.812C200.064 105.74 201.321 97.6014 201.395 95.8258C201.543 94.0501 198.51 87.8353 195.624 86.2076C192.813 84.5059 188.374 85.2458 188.374 85.2458Z" fill="#FC7575"/>
<path d="M190.297 97.9712C190.297 98.859 190.15 99.9688 190.002 100.857C190.297 101.005 190.667 101.079 191.037 101.005C190.519 101.227 189.928 100.931 189.854 100.931C189.928 100.191 190.001 99.229 190.297 97.9712Z" fill="#49005E"/>
<path d="M192.665 93.9019C192.665 93.9019 193.701 93.0881 194.885 92.9401C196.068 92.7921 197.77 94.1979 197.77 94.1979C197.77 94.1979 195.92 93.1621 195.181 93.31C194.367 93.458 193.627 93.9759 193.627 93.9759L192.665 93.9019Z" fill="#49005E"/>
<path d="M189.558 94.6418C189.558 94.6418 188.818 93.828 188.079 93.606C187.339 93.3841 186.377 94.7158 186.377 94.7158C186.377 94.7158 187.413 93.754 187.931 93.9019C188.449 94.0499 188.966 94.6418 188.966 94.6418H189.558Z" fill="#49005E"/>
<path d="M187.337 96.9356C187.411 97.3795 187.855 97.6014 188.151 97.5274C188.521 97.4534 188.743 97.0095 188.595 96.6396C188.521 96.1957 188.077 95.9737 187.781 96.0477C187.411 96.1217 187.189 96.4916 187.337 96.9356Z" fill="#49005E"/>
<path d="M193.257 96.1956C193.331 96.6395 193.774 96.8614 194.07 96.7874C194.44 96.7135 194.662 96.2695 194.514 95.8996C194.44 95.4557 193.996 95.2337 193.701 95.3077C193.405 95.3077 193.183 95.7516 193.257 96.1956Z" fill="#49005E"/>
<path d="M196.364 95.0858C192.813 93.8281 192.961 96.2696 192.295 96.8615C192.887 96.5656 193.183 95.3818 193.923 95.1598C194.588 95.0119 195.624 95.0858 196.364 95.0858Z" fill="#3F004A"/>
<path d="M189.705 97.1574C187.856 94.5679 186.82 96.4175 186.08 96.5655C186.672 96.6395 187.412 95.8996 188.004 96.0476C188.522 96.2696 189.261 96.7875 189.705 97.1574Z" fill="#3F004A"/>
<path d="M193.7 99.8948C193.996 100.413 194.884 100.487 195.772 100.043C196.66 99.5988 197.103 98.859 196.881 98.3411C196.586 97.8232 195.698 97.7492 194.81 98.1931C193.922 98.563 193.478 99.3769 193.7 99.8948Z" fill="#FD5E5A"/>
<path d="M209.83 103.298C206.056 101.744 213.159 101.301 213.159 96.5654C213.159 95.2336 212.715 94.6418 212.049 94.3458C209.09 93.162 207.462 90.7205 206.574 87.4651C206.056 85.3935 203.541 82.508 200.285 81.8422C198.066 81.3243 195.772 81.6202 193.553 81.6942C189.114 81.8422 187.856 85.1715 187.93 85.5415C188.004 85.5415 188.226 85.4675 188.596 85.3935C191.703 84.9496 195.698 87.2431 196.438 90.3506C196.586 91.6083 197.548 94.7157 198.954 94.7157C199.546 94.7157 199.546 92.9401 199.768 92.7921C202.579 95.6036 200.729 99.6728 199.694 102.114C199.472 102.632 199.25 103.15 198.88 103.594C196.142 107.219 198.954 114.84 201.025 116.024C203.171 117.208 208.794 115.432 206.278 112.916C203.763 110.401 215.231 111.363 216.71 107.737C218.19 104.112 213.677 104.778 209.83 103.298Z" fill="#49005E"/>
<path d="M198.954 94.0498C198.954 94.0498 199.176 91.8302 200.951 92.4221C202.727 93.014 201.987 98.415 200.433 97.8971C198.88 97.3792 198.954 94.0498 198.954 94.0498Z" fill="#FC7575"/>
<path d="M199.398 95.0858C199.398 95.0858 199.62 92.7182 200.508 93.3101C201.396 93.976 201.47 96.2695 200.582 96.4175C199.62 96.5655 199.398 95.0858 199.398 95.0858Z" fill="#FD5E5A"/>
<path d="M191.555 104.038C191.481 104.038 191.481 104.038 191.481 104.038C191.407 104.038 191.333 103.964 191.333 103.89C191.333 103.816 191.407 103.742 191.481 103.742C191.481 103.742 192.665 103.816 194.736 102.558C194.81 102.484 194.884 102.558 194.958 102.632C195.032 102.706 194.958 102.78 194.884 102.854C193.035 103.964 191.851 104.038 191.555 104.038Z" fill="#49005E"/>
<path d="M192.961 104.778C192.813 104.778 192.813 104.778 192.739 104.778C192.665 104.778 192.665 104.63 192.665 104.556C192.665 104.482 192.813 104.482 192.887 104.482C192.887 104.482 193.257 104.556 194.071 103.964C194.145 103.89 194.219 103.964 194.293 103.964C194.367 104.038 194.293 104.112 194.293 104.186C193.553 104.63 193.183 104.778 192.961 104.778Z" fill="#49005E"/>
<path d="M171.578 318.819C171.578 318.819 167.879 317.413 165.289 316.378C162.7 315.416 158.409 314.084 157.151 313.566C155.819 313.048 152.342 308.165 153.008 307.351C153.674 306.464 157.891 308.387 160.554 308.091C163.218 307.795 168.619 305.798 168.989 306.611C169.359 307.425 173.132 309.053 173.576 310.089C174.02 311.125 172.54 318.375 171.578 318.819Z" fill="#FD9A00"/>
<path d="M171.061 317.857C163.366 311.421 164.106 315.786 157.226 308.387C158.705 310.459 161.221 313.122 163.662 313.862C164.994 314.306 166.252 314.972 167.436 315.638C168.693 316.304 169.877 317.044 171.061 317.857Z" fill="#FFF7CF"/>
<path d="M165.437 311.273C165.215 311.421 164.993 311.347 164.845 311.125C164.475 310.385 163.514 308.905 162.552 307.721C162.848 307.647 163.144 307.573 163.514 307.5C164.697 308.979 165.585 310.607 165.585 310.681C165.733 310.903 165.659 311.125 165.437 311.273Z" fill="#FFF7CF"/>
<path d="M166.695 309.867C166.473 309.867 166.251 309.719 166.177 309.497C166.177 309.497 166.029 308.313 165.438 306.982C165.733 306.908 166.029 306.834 166.251 306.76C166.843 308.092 166.991 309.275 166.991 309.349C167.065 309.571 166.917 309.793 166.695 309.867Z" fill="#FFF7CF"/>
<path d="M166.621 316.896C164.18 315.934 161.59 314.824 160.776 314.306C159.223 313.27 154.783 307.277 153.822 307.129H153.748C153.378 307.129 153.156 307.203 153.008 307.351C152.342 308.239 155.819 313.122 157.151 313.566C158.483 314.084 162.7 315.342 165.289 316.378C165.733 316.526 166.177 316.748 166.621 316.896Z" fill="#DE680A"/>
<path d="M211.383 322.667C211.383 322.667 207.388 322.963 204.651 323.111C201.839 323.259 197.474 323.924 196.068 323.998C194.662 324.072 189.409 321.113 189.705 320.077C190.001 318.967 194.588 318.967 196.882 317.562C199.176 316.23 203.245 312.087 203.911 312.679C204.577 313.27 208.72 313.196 209.534 313.936C210.347 314.676 212.049 321.927 211.383 322.667Z" fill="#FD9A00"/>
<path d="M210.274 320.891C199.102 319.855 202.431 323.037 191.407 320.743C194.145 321.631 198.066 322.445 200.877 321.705C202.357 321.335 203.985 321.187 205.539 321.113C207.092 320.965 208.646 320.965 210.274 320.891Z" fill="#FFF7CF"/>
<path d="M202.579 318.375C202.431 318.597 202.135 318.597 201.987 318.449C201.321 317.932 199.842 316.97 198.51 316.304C198.732 316.082 199.028 315.934 199.25 315.712C200.877 316.526 202.431 317.636 202.505 317.71C202.727 317.932 202.727 318.227 202.579 318.375Z" fill="#FFF7CF"/>
<path d="M203.097 316.6C202.875 316.748 202.653 316.674 202.505 316.452C202.505 316.452 201.84 315.416 200.804 314.528C201.026 314.306 201.248 314.158 201.47 314.01C202.505 314.972 203.171 315.934 203.245 316.082C203.393 316.23 203.319 316.452 203.097 316.6Z" fill="#FFF7CF"/>
<path d="M83.6091 289.447C65.3346 287.449 47.134 284.416 28.8594 282.418C12.9524 280.569 0.00488281 267.621 0.00488281 251.862C0.00488281 197.852 0.00488281 143.842 0.00488281 89.8326C0.00488281 74.0736 12.8785 60.9781 28.8594 62.1619C47.134 63.4196 65.3346 65.7872 83.6091 67.0449C99.5161 68.2287 112.464 80.9543 112.464 97.0093C112.464 152.129 112.464 207.175 112.464 262.294C112.464 278.423 99.5161 291.297 83.6091 289.447Z" fill="#A98FFF"/>
<path d="M28.8587 270.433C18.2787 269.249 9.69629 260.297 9.69629 249.865C9.69629 195.781 9.69629 141.623 9.69629 87.5391C9.69629 77.107 18.2787 68.6726 28.8587 69.4865C47.1333 70.8182 65.3338 73.1118 83.6084 74.4435C94.1884 75.2574 102.771 83.9877 102.771 94.6417C102.771 149.613 102.771 204.659 102.771 259.631C102.771 270.285 94.1884 278.497 83.6084 277.313C65.3338 275.39 47.1333 272.43 28.8587 270.433Z" fill="#CDBDFF"/>
<path d="M52.3866 129.785C44.0262 128.897 35.7397 128.009 27.3793 127.344C24.0499 127.048 21.3125 124.236 21.3125 120.907C21.3125 111.51 21.3125 102.04 21.3125 92.6441C21.3125 89.3147 24.0499 86.7252 27.3793 87.0211C35.7397 87.613 44.0262 88.4268 52.3866 89.3147C55.716 89.6846 58.4535 92.644 58.4535 96.0474C58.4535 105.518 58.4535 114.988 58.4535 124.458C58.4535 127.787 55.716 130.155 52.3866 129.785Z" fill="#EFEBFF"/>
<path d="M99.8122 97.3794C88.4923 97.0094 77.1724 96.0476 65.8525 94.8638C65.8525 93.6801 65.8525 92.4963 65.8525 91.3125C77.1724 92.4223 88.4923 93.4581 99.8122 93.754C99.8122 95.0118 99.8122 96.1956 99.8122 97.3794Z" fill="#EFEBFF"/>
<path d="M99.8122 106.554C88.4923 106.184 77.1724 105.148 65.8525 103.964C65.8525 102.262 65.8525 100.561 65.8525 98.8591C77.1724 99.9689 88.4923 101.005 99.8122 101.375C99.8122 103.15 99.8122 104.852 99.8122 106.554Z" fill="#EFEBFF"/>
<path d="M97.2223 131.043C85.9024 130.525 74.5826 129.415 63.2627 128.158C63.2627 126.456 63.2627 124.754 63.2627 123.052C74.5826 124.236 85.9024 125.346 97.2223 125.864C97.2223 127.64 97.2223 129.341 97.2223 131.043Z" fill="#EFEBFF"/>
<path d="M53.7925 142.437C42.4727 141.179 31.1529 139.921 19.833 139.255C19.833 137.554 19.833 135.852 19.833 134.15C31.1529 134.816 42.4727 136.074 53.7925 137.332C53.7925 139.033 53.7925 140.735 53.7925 142.437Z" fill="#EFEBFF"/>
<path d="M97.223 224.561C81.8339 223.6 66.4448 221.528 51.0557 219.604C51.0557 201.552 51.0557 183.425 51.0557 165.373C66.4448 167.148 81.8339 169.072 97.223 169.886C97.223 188.086 97.223 206.287 97.223 224.561Z" fill="#EFEBFF"/>
<path d="M35.6652 215.609C35.6652 215.609 36.7751 213.833 39.0686 214.055C41.0662 214.277 42.5459 216.349 42.6199 218.568C42.6939 221.158 40.8442 224.043 35.9612 226.337C30.9301 223.23 29.0065 219.974 28.9325 217.385C28.8585 215.165 30.2642 213.315 32.2618 213.463C34.4814 213.611 35.6652 215.609 35.6652 215.609Z" fill="#EFEBFF"/>
<path d="M79.9842 270.359C76.3589 270.359 73.3994 267.399 73.3994 263.774V240.542C73.3994 237.657 75.693 235.363 78.5784 235.363C81.4639 235.363 83.7575 237.657 83.7575 240.542V260.888C83.7575 263.034 81.9819 264.81 79.8363 264.81C77.6907 264.81 75.915 263.034 75.915 260.888V243.206C75.915 242.466 77.0247 242.466 77.0247 243.206V260.888C77.0247 262.442 78.2825 263.7 79.8363 263.7C81.39 263.7 82.6477 262.442 82.6477 260.888V240.542C82.6477 238.323 80.798 236.473 78.5784 236.473C76.3589 236.473 74.5092 238.323 74.5092 240.542V263.774C74.5092 266.807 76.9508 269.249 79.9842 269.249C83.0176 269.249 85.4592 266.807 85.4592 263.774V242.762C85.4592 242.022 86.569 242.022 86.569 242.762V263.774C86.495 267.399 83.6095 270.359 79.9842 270.359Z" fill="#6F7FBF"/>
</svg>
