<svg width="92" height="74" viewBox="0 0 92 74" fill="none" xmlns="http://www.w3.org/2000/svg">
<path d="M60.7269 12.9502C60.7269 12.8975 60.6874 12.8449 60.615 12.8037C60.5359 12.7593 60.4289 12.7329 60.3137 12.7329C60.1984 12.7329 60.0865 12.7593 60.0075 12.8054C59.935 12.8465 59.8955 12.8992 59.8955 12.9535C59.8955 13.0062 59.935 13.0589 60.0075 13.0984C60.0865 13.1429 60.1935 13.1676 60.3087 13.1676C60.424 13.1676 60.5359 13.1412 60.615 13.0951C60.6858 13.0556 60.7269 13.0029 60.7269 12.9502Z" fill="url(#paint0_linear)"/>
<path d="M62.4667 25.4971C62.4667 25.3703 62.4074 25.293 62.3103 25.293C62.2707 25.293 62.2263 25.3061 62.1802 25.3325C62.0139 25.428 61.8789 25.6618 61.8789 25.8544C61.8789 25.9811 61.9382 26.0585 62.0353 26.0585C62.0748 26.0585 62.1193 26.0454 62.1654 26.019C62.3317 25.9219 62.4667 25.6881 62.4667 25.4971Z" fill="url(#paint1_linear)"/>
<path d="M63.874 28.4806C63.874 28.5992 63.93 28.6733 64.0205 28.6733C64.0584 28.6733 64.0996 28.6601 64.1424 28.6354C64.2988 28.5448 64.4256 28.3242 64.4256 28.1448C64.4256 28.0262 64.3696 27.9521 64.279 27.9521C64.2412 27.9521 64.2 27.9653 64.1572 27.99C64.0008 28.0789 63.874 28.2995 63.874 28.4806Z" fill="url(#paint2_linear)"/>
<path d="M58.1553 11.9508C58.1553 12.0035 58.1948 12.0561 58.2672 12.0957C58.3463 12.1401 58.4533 12.1648 58.5685 12.1648C58.6838 12.1648 58.7957 12.1385 58.8747 12.0924C58.9472 12.0512 58.9867 11.9985 58.9867 11.9458C58.9867 11.8932 58.9472 11.8405 58.8747 11.7993C58.7957 11.7549 58.6887 11.7285 58.5735 11.7285C58.4582 11.7285 58.3463 11.7549 58.2672 11.801C58.1948 11.8438 58.1553 11.8964 58.1553 11.9508Z" fill="url(#paint3_linear)"/>
<path d="M50.7627 2.69189V9.10613L60.4499 14.656V27.4434L58.8398 28.3159V30.7657L53.8513 37.5603L65.096 31.1246L65.0844 12.0037L51.9794 4.42058V8.02941L58.2323 11.6168C58.3261 11.5823 58.4348 11.5625 58.55 11.5625C58.7048 11.5625 58.8513 11.5971 58.9599 11.6596C59.0801 11.7288 59.1476 11.8243 59.1476 11.928C59.1476 12.0317 59.0818 12.1289 58.9599 12.198C58.848 12.2622 58.6998 12.2984 58.5418 12.2984C58.387 12.2984 58.2421 12.2639 58.1318 12.2013C58.0116 12.1338 57.9441 12.0383 57.9441 11.9346C57.9441 11.8589 57.9787 11.7881 58.0446 11.7271L51.79 8.13972V4.09131L65.2738 11.8951L65.2655 31.0275L65.9998 30.6077V11.4785L50.7627 2.69189ZM56.6386 35.4315L59.6465 31.3683V28.8938L61.2138 27.9965V20.1104L61.4032 19.9968V28.1068L59.8358 29.0041V31.4309L57.3514 34.7861L59.3732 33.5843L62.0897 29.9162V26.1921C62.0601 26.2003 62.0304 26.2053 62.0024 26.2053C61.851 26.2053 61.7538 26.0818 61.7538 25.8925C61.7538 25.6241 61.9432 25.2981 62.1737 25.1648C62.2412 25.1253 62.3054 25.1072 62.3663 25.1072C62.5177 25.1072 62.6149 25.2306 62.6149 25.42C62.6149 25.6538 62.47 25.9336 62.279 26.0884V29.9788L59.5033 33.7292L56.6386 35.4315ZM64.062 31.0687L61.3538 32.7018V32.4812L63.8727 30.9616V30.0281L63.2109 29.6462V21.5082L61.8329 20.7064L61.8279 13.879L60.6755 13.2188C60.5684 13.2698 60.4384 13.2994 60.2984 13.2994C60.1437 13.2994 59.9988 13.2649 59.8885 13.2023C59.7683 13.1348 59.7008 13.0393 59.7008 12.9356C59.7008 12.8302 59.7667 12.7347 59.8885 12.6639C60.0005 12.5997 60.1486 12.5635 60.3067 12.5635C60.4614 12.5635 60.608 12.5981 60.7166 12.6606C60.8368 12.7298 60.9043 12.8253 60.9043 12.929C60.9043 12.9883 60.8829 13.0442 60.8417 13.0953L62.0173 13.7686L62.0222 20.5961L63.4002 21.3979V29.5359L64.062 29.9178V31.0687ZM53.741 7.81374L53.7426 7.59312L63.229 13.0689V19.7104L64.0472 20.1434L64.0538 12.5948L53.741 6.59707L53.7377 6.37646L64.2431 12.4845L64.2366 27.7397C64.2662 27.7315 64.2958 27.7265 64.3238 27.7265C64.4753 27.7265 64.5724 27.85 64.5724 28.0393C64.5724 28.306 64.3831 28.6337 64.1526 28.767C64.0851 28.8065 64.0209 28.8247 63.96 28.8247C63.8085 28.8247 63.7114 28.7012 63.7114 28.5118C63.7114 28.2781 63.8562 27.9982 64.0472 27.8434V20.3558L63.038 19.8223V13.1776L53.741 7.81374Z" fill="url(#paint4_linear)"/>
<path d="M31.2891 12.9341C31.2891 12.8814 31.3286 12.8287 31.401 12.7876C31.48 12.7431 31.5871 12.7168 31.7023 12.7168C31.8175 12.7168 31.9295 12.7431 32.0085 12.7892C32.081 12.8304 32.1205 12.8831 32.1205 12.9374C32.1205 12.9901 32.081 13.0428 32.0085 13.0823C31.9295 13.1267 31.8225 13.1514 31.7072 13.1514C31.592 13.1514 31.48 13.1251 31.401 13.079C31.3286 13.0395 31.2891 12.9884 31.2891 12.9341Z" fill="url(#paint5_linear)"/>
<path d="M29.5303 25.4976C29.5303 25.3708 29.5895 25.2935 29.6867 25.2935C29.7262 25.2935 29.7706 25.3066 29.8167 25.333C29.983 25.4285 30.118 25.6622 30.118 25.8549C30.118 25.9816 30.0588 26.059 29.9616 26.059C29.9221 26.059 29.8777 26.0458 29.8316 26.0195C29.6653 25.9224 29.5303 25.6886 29.5303 25.4976Z" fill="url(#paint6_linear)"/>
<path d="M28.1873 28.4806C28.1873 28.5992 28.1313 28.6733 28.0407 28.6733C28.0029 28.6733 27.9617 28.6601 27.9189 28.6354C27.7625 28.5448 27.6357 28.3242 27.6357 28.1448C27.6357 28.0262 27.6917 27.9521 27.7823 27.9521C27.8201 27.9521 27.8613 27.9653 27.9041 27.99C28.0605 28.0789 28.1873 28.2995 28.1873 28.4806Z" fill="url(#paint7_linear)"/>
<path d="M33.8588 11.9508C33.8588 12.0035 33.8192 12.0561 33.7468 12.0957C33.6678 12.1401 33.5608 12.1648 33.4455 12.1648C33.3303 12.1648 33.2183 12.1385 33.1393 12.0924C33.0669 12.0512 33.0273 11.9985 33.0273 11.9458C33.0273 11.8932 33.0669 11.8405 33.1393 11.7993C33.2183 11.7549 33.3253 11.7285 33.4406 11.7285C33.5558 11.7285 33.6678 11.7549 33.7468 11.801C33.8192 11.8438 33.8588 11.8964 33.8588 11.9508Z" fill="url(#paint8_linear)"/>
<path d="M26 11.4785V30.606L26.726 30.9534V11.895L40.2098 4.09125V8.13802L33.9552 11.7254C34.0194 11.7864 34.0557 11.8572 34.0557 11.9329C34.0557 12.0366 33.9882 12.1321 33.868 12.1996C33.7577 12.2622 33.6128 12.2967 33.458 12.2967C33.3 12.2967 33.1518 12.2605 33.0399 12.1963C32.9197 12.1272 32.8522 12.0317 32.8522 11.9263C32.8522 11.8226 32.918 11.7271 33.0399 11.6579C33.1502 11.5954 33.295 11.5608 33.4498 11.5608C33.5634 11.5608 33.6721 11.5806 33.7676 11.6151L40.0205 8.02771V4.42052L26.9154 12.0037V31.062L38.1716 37.7084L33.16 30.7657V28.3159L31.5499 27.4433V14.6576L41.2371 9.10773V2.56836L26 11.4785ZM32.4966 33.7275L29.7208 29.9771V26.0867C29.5298 25.9303 29.3849 25.6521 29.3849 25.4183C29.3849 25.2289 29.4821 25.1055 29.6335 25.1055C29.6944 25.1055 29.7587 25.1252 29.8262 25.1631C30.0583 25.2964 30.246 25.6241 30.246 25.8908C30.246 26.0801 30.1488 26.2036 29.9974 26.2036C29.9694 26.2036 29.9398 26.1987 29.9101 26.1904V29.9145L32.6266 33.5826L34.6484 34.7844L32.164 31.4292V29.0024L30.5967 28.1051V19.9951L30.786 20.1087V27.9948L32.3533 28.8921V31.3649L35.3612 35.4282L32.4966 33.7275ZM27.9378 29.9178L28.5996 29.5358V21.3978L29.9776 20.5961L29.9826 13.7686L31.1581 13.0952C31.1169 13.0442 31.0955 12.9882 31.0955 12.9289C31.0955 12.8252 31.1614 12.7297 31.2832 12.6606C31.3935 12.598 31.5384 12.5634 31.6931 12.5634C31.8512 12.5634 31.9994 12.5997 32.1113 12.6639C32.2331 12.733 32.299 12.8302 32.299 12.9355C32.299 13.0392 32.2315 13.1347 32.1113 13.2022C32.001 13.2648 31.8561 13.2994 31.7014 13.2994C31.5614 13.2994 31.4314 13.2697 31.3243 13.2187L30.1719 13.8789L30.167 20.7064L28.7889 21.5082V29.6461L28.1271 30.0281V30.9616L30.646 32.4812V32.7018L27.9378 31.0686V29.9178ZM28.9602 13.1775V19.8223L27.9509 20.3557V27.8434C28.1419 27.9998 28.2868 28.278 28.2868 28.5118C28.2868 28.7011 28.1897 28.8246 28.0382 28.8246C27.9773 28.8246 27.9131 28.8048 27.8456 28.767C27.6134 28.6336 27.4258 28.306 27.4258 28.0393C27.4258 27.85 27.5229 27.7265 27.6744 27.7265C27.7023 27.7265 27.732 27.7314 27.7616 27.7396L27.755 12.4844L38.2605 6.3764L38.2572 6.59702L27.946 12.5947L27.9526 20.1433L28.7708 19.7103V13.0689L38.2572 7.59307L38.2588 7.81368L28.9602 13.1775Z" fill="url(#paint9_linear)"/>
<path d="M43.6795 35.2834C43.719 35.3064 43.7585 35.318 43.7947 35.318C43.798 35.318 43.8013 35.318 43.803 35.3163L43.8096 35.3245L43.8474 35.3064C43.8507 35.3048 43.854 35.3031 43.8573 35.3015L43.8639 35.2982C43.9083 35.2702 43.9347 35.2142 43.9347 35.1369C43.9347 34.9673 43.8145 34.7598 43.668 34.6742C43.6285 34.6512 43.589 34.6396 43.5527 34.6396C43.5297 34.6396 43.5099 34.6446 43.4935 34.6528L43.4194 34.6956L43.426 34.7417C43.4194 34.7648 43.4161 34.7911 43.4161 34.8191C43.4128 34.992 43.533 35.1994 43.6795 35.2834Z" fill="url(#paint10_linear)"/>
<path d="M44.8306 33.4524L45.7311 33.9726L45.8036 34.0138L45.8776 33.971L46.7782 33.4524V30.5317L46.8539 30.4873L46.7782 30.4478L45.8036 31.0207L44.8306 30.4478L44.7598 30.4873L44.8306 30.5284V33.4524Z" fill="url(#paint11_linear)"/>
<path d="M47.7341 35.2918C47.744 35.3 47.7555 35.3066 47.7686 35.3099L47.8098 35.3313L47.8197 35.3165C47.8526 35.3148 47.8905 35.3033 47.9283 35.2819C48.0749 35.1963 48.1951 34.9905 48.1951 34.8193C48.1951 34.7913 48.1918 34.7666 48.1852 34.7436L48.2115 34.704L48.1177 34.653C48.0996 34.6431 48.0798 34.6382 48.0568 34.6382C48.0222 34.6382 47.9827 34.6497 47.9415 34.6728C47.795 34.7584 47.6748 34.9642 47.6748 35.1354C47.6748 35.2078 47.6962 35.2605 47.7341 35.2918Z" fill="url(#paint12_linear)"/>
<path d="M54.7153 19.7271L47.1371 24.1163V30.2358L46.9675 30.3362V33.5615L46.5016 33.8298V34.7452L47.8483 33.978L47.8401 25.1831L49.8306 24.0224V23.14L54.2148 20.6095L54.009 22.6016L50.792 24.3994V24.1821L53.8312 22.4847L53.9794 21.0491L54.0634 20.9997L53.9876 20.9602L50.0199 23.2503V24.1327L48.0294 25.2934L48.0377 34.0899L46.1262 35.1798V41.2204L47.8302 40.2457V35.5124C47.8055 35.519 47.7792 35.5223 47.7561 35.5223C47.608 35.5223 47.5125 35.4021 47.5125 35.2144C47.5125 34.951 47.6985 34.63 47.9257 34.4982C47.9916 34.4604 48.0558 34.4406 48.1151 34.4406C48.2632 34.4406 48.3587 34.5608 48.3587 34.7485C48.3587 34.9823 48.2122 35.2605 48.0196 35.412V40.3544L45.9353 41.5463V35.0679L46.3106 34.8539V34.0241L46.3864 33.9813L46.3106 33.9418L45.8019 34.2348L45.2948 33.9418L45.224 33.9813L45.2948 34.0224V34.8572L45.6702 35.0712V41.5496L43.5859 40.3577V35.4153C43.3933 35.2638 43.2467 34.9839 43.2467 34.7518C43.2467 34.5641 43.3422 34.4439 43.4904 34.4439C43.5497 34.4439 43.6139 34.4637 43.6797 34.5015C43.9086 34.6332 44.093 34.9543 44.093 35.2177C44.093 35.4037 43.9975 35.5256 43.8493 35.5256C43.8246 35.5256 43.7999 35.5223 43.7752 35.5157V40.249L45.4792 41.2236V35.1831L43.5678 34.0932L43.576 25.2967L41.5856 24.136V23.2536L37.6178 20.9635L37.547 21.003L37.6261 21.0491L37.7742 22.488L40.8134 24.1854V24.4027L37.5964 22.6049L37.3906 20.6128L41.7749 23.1433V24.0257L43.7654 25.1864L43.7571 33.9813L45.1038 34.7485V33.8331L44.6379 33.5648V30.3395L44.4683 30.2391V24.1196L36.8901 19.7303L36.8193 19.7699L36.8984 19.816L37.2342 22.8667L42.8878 26.1298V32.2559V33.1087V34.0916V40.4696L45.7278 42.1242L45.8003 42.1654L45.8743 42.1226L48.7143 40.468V34.0899V33.1071V32.2542V26.1281L54.3679 22.865L54.7022 19.8192L54.7878 19.7699L54.7153 19.7271Z" fill="url(#paint13_linear)"/>
<path d="M45.2607 20.4875V21.9511L45.8929 22.315L46.5252 21.9511V20.4875L45.8929 20.127L45.2607 20.4875Z" fill="url(#paint14_linear)"/>
<path d="M45.1806 20.3509L45.7157 20.0447L40.1888 16.854L38.8438 17.6311L45.0621 21.2218V20.5007L40.956 18.0937C40.849 18.1448 40.7173 18.1744 40.5757 18.1744C40.416 18.1744 40.2646 18.1382 40.1526 18.0723C40.0357 18.0048 39.9715 17.9143 39.9715 17.8155C39.9715 17.7167 40.0357 17.6261 40.1526 17.5586C40.2662 17.4928 40.416 17.4566 40.5757 17.4566C40.7354 17.4566 40.8869 17.4928 40.9988 17.5586C41.1157 17.6261 41.1799 17.7167 41.1799 17.8155C41.1799 17.8698 41.1585 17.9225 41.1207 17.9702L45.1806 20.3509Z" fill="url(#paint15_linear)"/>
<path d="M40.5834 17.603C40.4797 17.603 40.3842 17.6261 40.3118 17.6672C40.2426 17.7067 40.2031 17.7611 40.2031 17.8154C40.2031 17.8714 40.241 17.9241 40.3118 17.9636C40.3842 18.0047 40.4797 18.0278 40.5834 18.0278C40.6872 18.0278 40.7826 18.0047 40.8551 17.9636C40.9242 17.9241 40.9637 17.8697 40.9637 17.8154C40.9637 17.7594 40.9259 17.7067 40.8551 17.6672C40.7826 17.6261 40.6872 17.603 40.5834 17.603Z" fill="url(#paint16_linear)"/>
<path d="M38.2871 17.9521L45.0619 21.8639V21.4391L38.6542 17.7397L38.2871 17.9521Z" fill="url(#paint17_linear)"/>
<path d="M50.6187 17.8171C50.6187 17.7183 50.683 17.6278 50.7998 17.5603C50.9134 17.4944 51.0633 17.4582 51.223 17.4582C51.3827 17.4582 51.5341 17.4944 51.6461 17.5603C51.763 17.6278 51.8272 17.7183 51.8272 17.8171C51.8272 17.9159 51.763 18.0065 51.6461 18.074C51.5325 18.1398 51.3827 18.176 51.223 18.176C51.0814 18.176 50.9497 18.1464 50.8427 18.0954L46.7366 20.5007V21.2218L52.9549 17.6311L51.6099 16.854L46.083 20.0447L46.6181 20.3509L50.678 17.9719C50.6385 17.9241 50.6187 17.8715 50.6187 17.8171Z" fill="url(#paint18_linear)"/>
<path d="M53.1459 17.7397L46.7383 21.4391V21.8639L53.5131 17.9521L53.1459 17.7397Z" fill="url(#paint19_linear)"/>
<path d="M51.2475 18.0297C51.3512 18.0297 51.4467 18.0067 51.5191 17.9655C51.5883 17.926 51.6278 17.8717 51.6278 17.8174C51.6278 17.7614 51.5899 17.7087 51.5191 17.6692C51.4467 17.628 51.3512 17.605 51.2475 17.605C51.1438 17.605 51.0483 17.628 50.9758 17.6692C50.9067 17.7087 50.8672 17.763 50.8672 17.8174C50.8672 17.8733 50.9051 17.926 50.9758 17.9655C51.0466 18.0067 51.1438 18.0297 51.2475 18.0297Z" fill="url(#paint20_linear)"/>
<path d="M44.5055 0.640625L43.7119 1.09831V2.1026L44.5055 1.64491V0.640625Z" fill="url(#paint21_linear)"/>
<path d="M43.7119 2.35747V3.2959L45.4241 2.30808L44.6108 1.83887L43.7119 2.35747Z" fill="url(#paint22_linear)"/>
<path d="M46.7236 0.640625V1.64491L47.5188 2.1026V1.09831L46.7236 0.640625Z" fill="url(#paint23_linear)"/>
<path d="M45.6157 1.25977L44.8008 1.72898L45.6141 2.19819H45.6157L46.429 1.72898L45.6157 1.25977Z" fill="url(#paint24_linear)"/>
<path d="M46.5333 1.53441V0.53013L45.6147 0L44.6943 0.53013V1.53441L45.6147 1.00428L46.5333 1.53441Z" fill="url(#paint25_linear)"/>
<path d="M45.8066 2.30808L47.5189 3.2959V2.35747L46.6183 1.83887L45.8066 2.30808Z" fill="url(#paint26_linear)"/>
<path d="M3.32741 50.0352H7.60001C8.54925 50.0352 8.89886 50.5779 8.64681 51.6633L7.5004 56.5497C7.24836 57.6352 6.6467 58.1779 5.69746 58.1779H1.42488C0.475637 58.1779 0.126026 57.6352 0.378072 56.5497L1.52447 51.6633C1.77652 50.5779 2.37818 50.0352 3.32741 50.0352ZM2.94935 51.6633L1.80294 56.5497H6.07553L7.22194 51.6633H2.94935ZM18.4095 50.0352L13.6572 58.1799H12.2324L11.2872 50.0352H12.9113L13.4682 55.9643L16.7407 50.0352H18.4095ZM27.0259 56.5497L26.6478 58.1779H19.5254L19.9035 56.5497H27.0259ZM27.7942 53.2935L27.4161 54.9216H20.2938L20.6719 53.2935H27.7942ZM28.5503 50.0352L28.1723 51.6633H21.0499L21.428 50.0352H28.5503ZM32.7924 54.9216L32.1257 53.8789L31.1135 58.1799H29.6886L31.5911 50.0352H37.2886C38.2378 50.0352 38.5875 50.5779 38.3354 51.6633L37.9573 53.2914C37.7053 54.3769 37.1118 54.9196 36.1768 54.9196H34.7295L36.8109 58.1779H34.8738L32.7924 54.9216ZM32.6379 51.6633L32.2599 53.2914H36.5325L36.9105 51.6633H32.6379ZM45.0248 57.3648C44.8845 57.9075 44.5837 58.1799 44.1243 58.1799H41.2766C40.3274 58.1799 39.9778 57.6372 40.2298 56.5518L41.7543 50.0372H43.1792L41.6547 56.5518H44.5044L46.0289 50.0372H47.4538L45.9293 56.5518H48.7791L50.3035 50.0372H51.7284L50.2039 56.5518C49.9519 57.6372 49.3502 58.1799 48.401 58.1799H45.5533C45.0878 58.1799 44.915 57.9075 45.0248 57.3648ZM55.0111 54.9216L54.2428 58.1799H52.8179L54.3424 51.6653C54.5944 50.5799 55.1961 50.0372 56.1453 50.0372H60.4179C61.3671 50.0372 61.7168 50.5799 61.4647 51.6653L59.9402 58.1799H58.5154L59.2837 54.9216H55.0111ZM59.6618 53.2935L60.0398 51.6653H55.7672L55.3892 53.2935H59.6618ZM64.4832 50.0352H71.6055L71.2274 51.6633H68.3777L66.8532 58.1779H65.4283L66.9528 51.6633H64.1051L64.4832 50.0352ZM73.0649 56.5497L74.2113 51.6633C74.4634 50.5779 75.065 50.0352 76.0143 50.0352H81.7117L81.3337 51.6633H75.6362L74.4898 56.5497H80.1873L79.8092 58.1779H74.1117C73.1625 58.1799 72.8129 57.6372 73.0649 56.5497ZM86.1774 50.0352L85.4213 53.2935H89.6939L90.45 50.0352H91.8749L89.9723 58.1799H88.5475L89.3158 54.9216H85.0432L84.2749 58.1799H82.85L84.7525 50.0352H86.1774ZM8.64681 67.3003H2.94935L2.57128 68.9285H6.84387C7.79311 68.9285 8.14272 69.4712 7.89067 70.5566L7.5004 72.1847C7.24836 73.2702 6.6467 73.8129 5.69746 73.8129H0L0.378072 72.1847H6.07553L6.4658 70.5566H2.19321C1.24397 70.5566 0.89436 70.0139 1.14641 68.9285L1.52447 67.3003C1.77652 66.2149 2.37818 65.6722 3.32741 65.6722H9.02488L8.64681 67.3003ZM16.1147 72.1888L15.7366 73.8169H8.61429L8.99236 72.1888H16.1147ZM16.881 68.9305L16.5029 70.5586H9.38059L9.75866 68.9305H16.881ZM17.6392 65.6722L17.2611 67.3003H10.1388L10.5168 65.6722H17.6392ZM17.6046 72.1888L18.751 67.3023C19.0031 66.2169 19.6047 65.6742 20.554 65.6742H26.2514L25.8734 67.3023H20.1759L19.0295 72.1888H24.7269L24.3489 73.8169H18.6514C17.7022 73.8169 17.3526 73.2742 17.6046 72.1888ZM31.5383 73.8169H27.2657C26.3165 73.8169 25.9669 73.2742 26.2189 72.1888L27.7434 65.6742H29.1682L27.6438 72.1888H31.9164L33.4408 65.6742H34.8657L33.3412 72.1888C33.0872 73.2742 32.4875 73.8169 31.5383 73.8169ZM37.5569 70.5586L36.8902 69.5159L35.878 73.8169H34.4531L36.3556 65.6722H42.0531C43.0023 65.6722 43.3519 66.2149 43.0999 67.3003L42.7218 68.9285C42.4698 70.0139 41.8763 70.5566 40.9412 70.5566H39.494L41.5754 73.8149H39.6383L37.5569 70.5586ZM37.4024 67.3003L37.0244 68.9285H41.297L41.675 67.3003H37.4024ZM46.3928 65.6722L44.4902 73.8169H43.0653L44.9679 65.6722H46.3928ZM47.4843 65.6722H54.6066L54.2285 67.3003H51.3788L49.8543 73.8149H48.4294L49.9539 67.3003H47.1062L47.4843 65.6722ZM60.2146 72.1888L60.6049 70.5607H56.3323C55.3831 70.5607 55.0335 70.0179 55.2855 68.9325L56.0416 65.6742H57.4665L56.7104 68.9325H60.983L61.7391 65.6742H63.164L61.6395 72.1888C61.3875 73.2742 60.7858 73.8169 59.8366 73.8169H54.1391L54.5172 72.1888H60.2146ZM72.9003 65.6722L70.9977 73.8169H69.5729L71.4754 65.6722H72.9003ZM72.4003 73.8169L74.3028 65.6722L78.8661 70.5586L80.0003 65.6722H81.4251L79.5226 73.8169L74.9715 68.9305L73.8251 73.8169H72.4003ZM81.3906 72.1888L82.537 67.3023C82.789 66.2169 83.3907 65.6742 84.3399 65.6742H90.0374L89.6593 67.3023H83.9619L82.8155 72.1888H88.5129L88.1348 73.8169H82.4374C81.4882 73.8169 81.1385 73.2742 81.3906 72.1888ZM89.6268 73.8169L90.0049 72.1888H91.4297L91.0517 73.8169H89.6268Z" fill="url(#paint27_linear)"/>
<defs>
<linearGradient id="paint0_linear" x1="59.8947" y1="12.951" x2="60.7262" y2="12.951" gradientUnits="userSpaceOnUse">
<stop offset="0.0566" stop-color="#C9994F"/>
<stop offset="0.4057" stop-color="#F6E27A"/>
<stop offset="0.5236" stop-color="#F6F2C1"/>
<stop offset="0.6368" stop-color="#F6E27A"/>
<stop offset="0.9387" stop-color="#C9994F"/>
<stop offset="1" stop-color="#462523"/>
</linearGradient>
<linearGradient id="paint1_linear" x1="61.8807" y1="25.6746" x2="62.4674" y2="25.6746" gradientUnits="userSpaceOnUse">
<stop offset="0.0566" stop-color="#C9994F"/>
<stop offset="0.4057" stop-color="#F6E27A"/>
<stop offset="0.5236" stop-color="#F6F2C1"/>
<stop offset="0.6368" stop-color="#F6E27A"/>
<stop offset="0.9387" stop-color="#C9994F"/>
<stop offset="1" stop-color="#462523"/>
</linearGradient>
<linearGradient id="paint2_linear" x1="63.8737" y1="28.3123" x2="64.4268" y2="28.3123" gradientUnits="userSpaceOnUse">
<stop offset="0.0566" stop-color="#C9994F"/>
<stop offset="0.4057" stop-color="#F6E27A"/>
<stop offset="0.5236" stop-color="#F6F2C1"/>
<stop offset="0.6368" stop-color="#F6E27A"/>
<stop offset="0.9387" stop-color="#C9994F"/>
<stop offset="1" stop-color="#462523"/>
</linearGradient>
<linearGradient id="paint3_linear" x1="58.1557" y1="11.9478" x2="58.9871" y2="11.9478" gradientUnits="userSpaceOnUse">
<stop offset="0.0566" stop-color="#C9994F"/>
<stop offset="0.4057" stop-color="#F6E27A"/>
<stop offset="0.5236" stop-color="#F6F2C1"/>
<stop offset="0.6368" stop-color="#F6E27A"/>
<stop offset="0.9387" stop-color="#C9994F"/>
<stop offset="1" stop-color="#462523"/>
</linearGradient>
<linearGradient id="paint4_linear" x1="64.7229" y1="20.1261" x2="42.0334" y2="20.1261" gradientUnits="userSpaceOnUse">
<stop offset="0.0566" stop-color="#C9994F"/>
<stop offset="0.4057" stop-color="#F6E27A"/>
<stop offset="0.5236" stop-color="#F6F2C1"/>
<stop offset="0.6368" stop-color="#F6E27A"/>
<stop offset="0.9387" stop-color="#C9994F"/>
<stop offset="1" stop-color="#462523"/>
</linearGradient>
<linearGradient id="paint5_linear" x1="31.2888" y1="12.9355" x2="32.1203" y2="12.9355" gradientUnits="userSpaceOnUse">
<stop offset="0.0566" stop-color="#C9994F"/>
<stop offset="0.4057" stop-color="#F6E27A"/>
<stop offset="0.5236" stop-color="#F6F2C1"/>
<stop offset="0.6368" stop-color="#F6E27A"/>
<stop offset="0.9387" stop-color="#C9994F"/>
<stop offset="1" stop-color="#462523"/>
</linearGradient>
<linearGradient id="paint6_linear" x1="29.5308" y1="25.6751" x2="30.1176" y2="25.6751" gradientUnits="userSpaceOnUse">
<stop offset="0.0566" stop-color="#C9994F"/>
<stop offset="0.4057" stop-color="#F6E27A"/>
<stop offset="0.5236" stop-color="#F6F2C1"/>
<stop offset="0.6368" stop-color="#F6E27A"/>
<stop offset="0.9387" stop-color="#C9994F"/>
<stop offset="1" stop-color="#462523"/>
</linearGradient>
<linearGradient id="paint7_linear" x1="27.6348" y1="28.3123" x2="28.1879" y2="28.3123" gradientUnits="userSpaceOnUse">
<stop offset="0.0566" stop-color="#C9994F"/>
<stop offset="0.4057" stop-color="#F6E27A"/>
<stop offset="0.5236" stop-color="#F6F2C1"/>
<stop offset="0.6368" stop-color="#F6E27A"/>
<stop offset="0.9387" stop-color="#C9994F"/>
<stop offset="1" stop-color="#462523"/>
</linearGradient>
<linearGradient id="paint8_linear" x1="33.0276" y1="11.9478" x2="33.859" y2="11.9478" gradientUnits="userSpaceOnUse">
<stop offset="0.0566" stop-color="#C9994F"/>
<stop offset="0.4057" stop-color="#F6E27A"/>
<stop offset="0.5236" stop-color="#F6F2C1"/>
<stop offset="0.6368" stop-color="#F6E27A"/>
<stop offset="0.9387" stop-color="#C9994F"/>
<stop offset="1" stop-color="#462523"/>
</linearGradient>
<linearGradient id="paint9_linear" x1="27.2766" y1="20.1384" x2="49.9661" y2="20.1384" gradientUnits="userSpaceOnUse">
<stop offset="0.0566" stop-color="#C9994F"/>
<stop offset="0.4057" stop-color="#F6E27A"/>
<stop offset="0.5236" stop-color="#F6F2C1"/>
<stop offset="0.6368" stop-color="#F6E27A"/>
<stop offset="0.9387" stop-color="#C9994F"/>
<stop offset="1" stop-color="#462523"/>
</linearGradient>
<linearGradient id="paint10_linear" x1="43.4126" y1="34.9838" x2="43.9321" y2="34.9838" gradientUnits="userSpaceOnUse">
<stop offset="0.0566" stop-color="#C9994F"/>
<stop offset="0.4057" stop-color="#F6E27A"/>
<stop offset="0.5236" stop-color="#F6F2C1"/>
<stop offset="0.6368" stop-color="#F6E27A"/>
<stop offset="0.9387" stop-color="#C9994F"/>
<stop offset="1" stop-color="#462523"/>
</linearGradient>
<linearGradient id="paint11_linear" x1="42.3095" y1="29.4882" x2="47.5969" y2="33.2028" gradientUnits="userSpaceOnUse">
<stop stop-color="#462523"/>
<stop offset="0.0566" stop-color="#C9994F"/>
<stop offset="0.4057" stop-color="#F6E27A"/>
<stop offset="0.6368" stop-color="#F6E27A"/>
<stop offset="0.9387" stop-color="#C9994F"/>
<stop offset="1" stop-color="#462523"/>
</linearGradient>
<linearGradient id="paint12_linear" x1="47.6754" y1="34.9859" x2="48.2111" y2="34.9859" gradientUnits="userSpaceOnUse">
<stop offset="0.0566" stop-color="#C9994F"/>
<stop offset="0.4057" stop-color="#F6E27A"/>
<stop offset="0.5236" stop-color="#F6F2C1"/>
<stop offset="0.6368" stop-color="#F6E27A"/>
<stop offset="0.9387" stop-color="#C9994F"/>
<stop offset="1" stop-color="#462523"/>
</linearGradient>
<linearGradient id="paint13_linear" x1="22.3144" y1="11.4814" x2="56.4075" y2="35.4329" gradientUnits="userSpaceOnUse">
<stop offset="0.0566" stop-color="#C9994F"/>
<stop offset="0.4057" stop-color="#F6E27A"/>
<stop offset="0.5236" stop-color="#F6F2C1"/>
<stop offset="0.6368" stop-color="#F6E27A"/>
<stop offset="0.9387" stop-color="#C9994F"/>
<stop offset="1" stop-color="#462523"/>
</linearGradient>
<linearGradient id="paint14_linear" x1="45.5253" y1="17.3629" x2="46.8528" y2="31.2694" gradientUnits="userSpaceOnUse">
<stop offset="0.0566" stop-color="#C9994F"/>
<stop offset="0.4057" stop-color="#F6E27A"/>
<stop offset="0.5236" stop-color="#F6F2C1"/>
<stop offset="0.6368" stop-color="#F6E27A"/>
<stop offset="0.9387" stop-color="#C9994F"/>
<stop offset="1" stop-color="#462523"/>
</linearGradient>
<linearGradient id="paint15_linear" x1="42.1732" y1="17.7161" x2="43.5006" y2="31.6222" gradientUnits="userSpaceOnUse">
<stop offset="0.0566" stop-color="#C9994F"/>
<stop offset="0.4057" stop-color="#F6E27A"/>
<stop offset="0.5236" stop-color="#F6F2C1"/>
<stop offset="0.6368" stop-color="#F6E27A"/>
<stop offset="0.9387" stop-color="#C9994F"/>
<stop offset="1" stop-color="#462523"/>
</linearGradient>
<linearGradient id="paint16_linear" x1="40.2037" y1="17.8166" x2="40.9634" y2="17.8166" gradientUnits="userSpaceOnUse">
<stop offset="0.0566" stop-color="#C9994F"/>
<stop offset="0.4057" stop-color="#F6E27A"/>
<stop offset="0.5236" stop-color="#F6F2C1"/>
<stop offset="0.6368" stop-color="#F6E27A"/>
<stop offset="0.9387" stop-color="#C9994F"/>
<stop offset="1" stop-color="#462523"/>
</linearGradient>
<linearGradient id="paint17_linear" x1="41.4913" y1="17.7812" x2="42.8187" y2="31.6874" gradientUnits="userSpaceOnUse">
<stop offset="0.0566" stop-color="#C9994F"/>
<stop offset="0.4057" stop-color="#F6E27A"/>
<stop offset="0.5236" stop-color="#F6F2C1"/>
<stop offset="0.6368" stop-color="#F6E27A"/>
<stop offset="0.9387" stop-color="#C9994F"/>
<stop offset="1" stop-color="#462523"/>
</linearGradient>
<linearGradient id="paint18_linear" x1="49.3468" y1="17.0314" x2="50.6742" y2="30.9376" gradientUnits="userSpaceOnUse">
<stop offset="0.0566" stop-color="#C9994F"/>
<stop offset="0.4057" stop-color="#F6E27A"/>
<stop offset="0.5236" stop-color="#F6F2C1"/>
<stop offset="0.6368" stop-color="#F6E27A"/>
<stop offset="0.9387" stop-color="#C9994F"/>
<stop offset="1" stop-color="#462523"/>
</linearGradient>
<linearGradient id="paint19_linear" x1="49.8461" y1="16.9837" x2="51.1735" y2="30.8898" gradientUnits="userSpaceOnUse">
<stop offset="0.0566" stop-color="#C9994F"/>
<stop offset="0.4057" stop-color="#F6E27A"/>
<stop offset="0.5236" stop-color="#F6F2C1"/>
<stop offset="0.6368" stop-color="#F6E27A"/>
<stop offset="0.9387" stop-color="#C9994F"/>
<stop offset="1" stop-color="#462523"/>
</linearGradient>
<linearGradient id="paint20_linear" x1="50.8671" y1="17.8169" x2="51.6267" y2="17.8169" gradientUnits="userSpaceOnUse">
<stop offset="0.0566" stop-color="#C9994F"/>
<stop offset="0.4057" stop-color="#F6E27A"/>
<stop offset="0.5236" stop-color="#F6F2C1"/>
<stop offset="0.6368" stop-color="#F6E27A"/>
<stop offset="0.9387" stop-color="#C9994F"/>
<stop offset="1" stop-color="#462523"/>
</linearGradient>
<linearGradient id="paint21_linear" x1="44.1408" y1="0.662258" x2="43.9798" y2="4.21915" gradientUnits="userSpaceOnUse">
<stop offset="0.0566" stop-color="#C9994F"/>
<stop offset="0.4057" stop-color="#F6E27A"/>
<stop offset="0.5236" stop-color="#F6F2C1"/>
<stop offset="0.6368" stop-color="#F6E27A"/>
<stop offset="0.9387" stop-color="#C9994F"/>
<stop offset="1" stop-color="#462523"/>
</linearGradient>
<linearGradient id="paint22_linear" x1="44.5884" y1="1.87583" x2="44.4274" y2="5.43272" gradientUnits="userSpaceOnUse">
<stop offset="0.0566" stop-color="#C9994F"/>
<stop offset="0.4057" stop-color="#F6E27A"/>
<stop offset="0.5236" stop-color="#F6F2C1"/>
<stop offset="0.6368" stop-color="#F6E27A"/>
<stop offset="0.9387" stop-color="#C9994F"/>
<stop offset="1" stop-color="#462523"/>
</linearGradient>
<linearGradient id="paint23_linear" x1="47.1519" y1="0.696322" x2="46.9986" y2="4.08247" gradientUnits="userSpaceOnUse">
<stop offset="0.0566" stop-color="#C9994F"/>
<stop offset="0.4057" stop-color="#F6E27A"/>
<stop offset="0.5236" stop-color="#F6F2C1"/>
<stop offset="0.6368" stop-color="#F6E27A"/>
<stop offset="0.9387" stop-color="#C9994F"/>
<stop offset="1" stop-color="#462523"/>
</linearGradient>
<linearGradient id="paint24_linear" x1="45.6355" y1="1.28443" x2="45.5346" y2="3.51348" gradientUnits="userSpaceOnUse">
<stop offset="0.0566" stop-color="#C9994F"/>
<stop offset="0.4057" stop-color="#F6E27A"/>
<stop offset="0.5236" stop-color="#F6F2C1"/>
<stop offset="0.6368" stop-color="#F6E27A"/>
<stop offset="0.9387" stop-color="#C9994F"/>
<stop offset="1" stop-color="#462523"/>
</linearGradient>
<linearGradient id="paint25_linear" x1="45.6591" y1="0.0424927" x2="45.4898" y2="3.7836" gradientUnits="userSpaceOnUse">
<stop offset="0.0566" stop-color="#C9994F"/>
<stop offset="0.4057" stop-color="#F6E27A"/>
<stop offset="0.5236" stop-color="#F6F2C1"/>
<stop offset="0.6368" stop-color="#F6E27A"/>
<stop offset="0.9387" stop-color="#C9994F"/>
<stop offset="1" stop-color="#462523"/>
</linearGradient>
<linearGradient id="paint26_linear" x1="46.7041" y1="1.87863" x2="46.5519" y2="5.24218" gradientUnits="userSpaceOnUse">
<stop offset="0.0566" stop-color="#C9994F"/>
<stop offset="0.4057" stop-color="#F6E27A"/>
<stop offset="0.5236" stop-color="#F6F2C1"/>
<stop offset="0.6368" stop-color="#F6E27A"/>
<stop offset="0.9387" stop-color="#C9994F"/>
<stop offset="1" stop-color="#462523"/>
</linearGradient>
<linearGradient id="paint27_linear" x1="0.000609789" y1="61.9259" x2="91.8755" y2="61.9259" gradientUnits="userSpaceOnUse">
<stop stop-color="#C5972E"/>
<stop offset="0.1231" stop-color="#B27F2B"/>
<stop offset="0.2623" stop-color="#F7DE7B"/>
<stop offset="0.3672" stop-color="#F7DE7B"/>
<stop offset="0.4686" stop-color="#E2C163"/>
<stop offset="0.5966" stop-color="#CDA54B"/>
<stop offset="0.7239" stop-color="#BE9039"/>
<stop offset="0.8489" stop-color="#B5832F"/>
<stop offset="0.9689" stop-color="#B27F2B"/>
</linearGradient>
</defs>
</svg>
